M48
;Layer_Color=9474304
;FILE_FORMAT=2:4
INCH,TZ
;TYPE=PLATED
T1F00S00C0.0079
T2F00S00C0.0098
T3F00S00C0.0130
T4F00S00C0.0157
T5F00S00C0.0276
T7F00S00C0.0394
T8F00S00C0.0433
;TYPE=NON_PLATED
T9F00S00C0.0433
T10F00S00C0.1181
%
T01
X22057Y-29400
X18807Y-30447
X18358Y-30256
X17965Y-30157
X17303Y-30118
X16968Y-30295
X16535Y-30106
X16299Y-29567
X15748
X14734Y-28276
X14459Y-28258
X15907Y-26447
X15728Y-26260
X18315Y-25691
X18589Y-25778
X11447Y-25679
X11506Y-24795
X10315Y-25679
X9026Y-26663
X6545Y-26152
Y-24970
X6083Y-27037
X11778Y-26949
X11728Y-24587
X11489Y-24548
X11881Y-23151
X12068Y-22981
X13437Y-23074
X13829Y-23071
X13830Y-24441
X15077Y-21545
X14970Y-20413
X14852Y-15837
X15102
X14374Y-15921
X14102Y-15915
X15236Y-14892
X15256Y-14606
X16902Y-15646
X17105Y-15485
X17362Y-15487
X18317Y-14882
X18110Y-11399
X18057Y-10723
X16732Y-10728
X17052Y-11220
X16240Y-11614
X15256Y-11448
X15409Y-11264
X15157Y-12008
X14665Y-12106
X14104Y-12943
X13848Y-13081
X13759Y-10394
X14327Y-10396
X16006Y-10437
X10191Y-10150
X10177Y-9193
X7933Y-18563
Y-19193
X8949Y-20236
X9213Y-20217
X19400Y-22598
X19675Y-22614
X18555Y-4262
X12795Y-4846
T02
X37035Y-32024
X37419Y-25937
X34774Y-30642
X33976Y-30607
X32480Y-29016
X31929Y-28957
X30610Y-28110
X29880Y-26778
X30033Y-24766
X28268Y-26081
X27476Y-26209
X27982Y-27376
X26744Y-28325
X25325Y-28736
X24764Y-28028
X24762Y-27581
X24935Y-27315
X24917Y-25587
X25793Y-25205
X23276Y-27539
X21138Y-27512
X21270Y-25738
X21535Y-31988
X23346Y-30433
X24744
X25335Y-30087
X25313Y-31537
X27496Y-32089
X28205Y-32000
X28807Y-32077
X29624Y-31697
X29990Y-31321
X29988Y-30699
X30933Y-30911
X29120Y-30181
X20226Y-30848
X19923Y-29577
X19902Y-29276
X19884Y-28982
X19848Y-28715
X19860Y-28350
X19872Y-28063
X19838Y-27215
Y-25976
X19902Y-25430
X19852Y-25030
X18683Y-27852
X18337Y-27933
X18459Y-28335
X18675Y-28545
X18492Y-29020
Y-29378
Y-29703
X18002Y-29606
X17939Y-31594
X18816Y-31122
X19400Y-31614
X16594Y-31358
X15134Y-31555
X15610Y-29957
X14203Y-30287
X13634Y-30315
X12657Y-31614
X10472Y-30406
X8976Y-30443
X9134Y-29626
X10327Y-28435
X10394Y-27874
X9862Y-27274
X10309Y-26182
X10315Y-25925
X14791Y-25384
X16199Y-27096
X16230Y-27528
X16482Y-27311
X15933Y-27766
X6276Y-27747
X5295Y-26466
X6683Y-31211
X3594Y-28907
X2803Y-29124
X3130Y-26437
X3462Y-25954
X4880Y-26476
X4672Y-25029
X9055Y-24636
X9469
X10177Y-23612
X10423Y-23278
X11179Y-22667
X12649Y-23075
X12640Y-23705
X12122Y-23632
X12173Y-24128
X12167Y-24465
X14073Y-24096
X14433Y-24091
X14429Y-23384
X14067Y-23567
X15176Y-23156
X15762Y-23114
X16014Y-24362
X17480Y-23059
X17935Y-20864
X16339Y-20886
X14311Y-20571
X12136Y-20694
X12531Y-21555
X10285Y-20797
X9134Y-21358
Y-22756
X10404Y-18536
X10659Y-17047
X9685Y-16073
X9650Y-14634
X9616Y-12299
X12531Y-12657
X12598Y-14016
X13626Y-14626
X15059Y-14272
X15640Y-15500
X16368Y-15492
X17939Y-15477
X18701Y-15472
X19460Y-15504
X20423Y-13435
Y-12733
Y-12008
Y-11250
X18976Y-10630
X17096Y-10579
X16417Y-9390
X15669Y-11201
X15039Y-11575
X14104Y-12486
X13268Y-11339
X14037Y-10346
X12944Y-9685
X11693Y-10335
X11024Y-10315
X11778Y-16024
X12559Y-15909
X12242Y-18406
X12795Y-18789
X15827Y-18730
X16289Y-18002
X16713Y-16736
X17480Y-16732
X17602Y-13484
X16240Y-12366
X19555Y-19624
X19374Y-19837
X20571Y-19844
X20362Y-23667
X19860Y-24695
X5906Y-19921
X5965Y-15965
X20955Y-17589
X21181Y-17835
X20719Y-19606
X23118Y-19268
X24854Y-19474
X25191Y-18856
X25449Y-18947
X25217Y-20285
X24846Y-22171
X26502Y-22488
X27484Y-21096
X27992Y-21469
X28287Y-20949
X29896Y-20835
X30222Y-19720
X29539Y-18815
X30628Y-17035
X30911Y-15486
X32032Y-17888
X32498Y-17988
X33970Y-18165
X34776Y-18163
X34730Y-24465
X33937Y-24470
X32907Y-22740
X31959Y-23055
X30620Y-22179
X29528Y-23947
X25289Y-24152
X24516Y-24571
X23148Y-24543
X21376Y-22047
X24894Y-16657
X26787Y-16695
X27978Y-16175
X27665Y-13075
X26270Y-13061
X26157Y-12132
X25825Y-11831
X26030Y-11575
X25805Y-11358
X26159Y-11102
X27167Y-10857
X27169Y-10097
X33411Y-9870
X35033Y-9640
X36992Y-19319
X36409Y-4431
X35864
X33110Y-3369
X31506Y-3533
X30266Y-4744
X29079Y-4557
X26486Y-5059
X26472Y-5843
X26396Y-6378
X26496Y-8065
X27937
X27502Y-7126
X24124Y-3553
X23150Y-4252
X19931Y-4307
X20140Y-2632
X8405Y-2806
X9026Y-945
X6122Y-3406
X5797Y-7846
X5787Y-8494
X2717Y-7933
X4754Y-4439
X4734Y-3415
X4621Y-2185
T03
X14921Y-12953
X15394
T04
X8474Y-8022
X8297Y-7549
X8799Y-6939
X8789Y-6240
X8809Y-5669
Y-5079
X8720Y-4498
X8041Y-4272
T05
X831Y-27965
X831Y-26965
X807Y-25059
Y-23059
X36992Y-764
X34992
X33087Y-787
X32087Y-787
X28717Y-762
X26717
X24811Y-785
X23811Y-785
X17886Y-4283
X16984
X16110Y-4709
X15307
X14504
X13701
X14102Y-5142
X14906
X15709
X16512
X13228Y-4283
X12327
T07
X7646Y-31752
X8646
X9646
X10646
X7307Y-30075
Y-29075
Y-28075
Y-27075
Y-26075
Y-25075
Y-24075
Y-23075
X25146Y-14833
X26146
X27146
X28146
T08
X37814Y-29555
Y-28555
X1632Y-30709
Y-31709
Y-19563
Y-18563
Y-15909
Y-14909
X1614Y-12486
Y-11486
X1624Y-9783
X37902Y-10358
Y-11358
X37814Y-15366
Y-16366
Y-22059
Y-23059
X37902Y-7315
Y-6315
X1632Y-6512
Y-5512
X1634Y-3047
Y-2047
X1624Y-8783
T09
X38814Y-29555
Y-28555
X632Y-30709
Y-31709
Y-19563
Y-18563
Y-15909
Y-14909
X614Y-12486
Y-11486
X624Y-9783
X38902Y-10358
Y-11358
X38814Y-15366
Y-16366
Y-22059
Y-23059
X38902Y-7315
Y-6315
X632Y-6512
Y-5512
X634Y-3047
Y-2047
X624Y-8783
T10
X35344Y-28711
X5079Y-29764
X37972Y-4232
X6289Y-1654
M30
