G04*
G04 #@! TF.GenerationSoftware,Altium Limited,Altium Designer,19.0.9 (268)*
G04*
G04 Layer_Physical_Order=4*
G04 Layer_Color=16711680*
%FSLAX25Y25*%
%MOIN*%
G70*
G01*
G75*
%ADD13C,0.00984*%
%ADD18C,0.00394*%
%ADD76C,0.02165*%
%ADD80C,0.00591*%
%ADD81C,0.01181*%
%ADD82C,0.01968*%
%ADD84C,0.00435*%
%ADD87C,0.00579*%
%ADD92C,0.11417*%
%ADD93C,0.06693*%
%ADD94R,0.06693X0.06693*%
%ADD95C,0.05118*%
%ADD96O,0.03937X0.10236*%
%ADD97C,0.03937*%
%ADD98R,0.03937X0.03937*%
%ADD99C,0.06496*%
%ADD100R,0.06496X0.06496*%
%ADD101R,0.06693X0.06693*%
%ADD102C,0.01772*%
%ADD103C,0.01575*%
%ADD104C,0.02756*%
%ADD105C,0.02598*%
G36*
X392697Y-1003D02*
X392697Y-325768D01*
X294717Y-325768D01*
X294415Y-325041D01*
X302622Y-316834D01*
X302622Y-316834D01*
X306588Y-312868D01*
X306588Y-312868D01*
X306936Y-312347D01*
X306952Y-312268D01*
X307238Y-311982D01*
X307238Y-311982D01*
X307586Y-311461D01*
X307708Y-310846D01*
Y-310680D01*
X307765Y-310629D01*
X308495Y-310332D01*
X308755Y-310505D01*
X309331Y-310619D01*
X309907Y-310505D01*
X310395Y-310179D01*
X310721Y-309690D01*
X310836Y-309114D01*
X310721Y-308538D01*
X310395Y-308050D01*
X309907Y-307723D01*
X309331Y-307609D01*
X308755Y-307723D01*
X308495Y-307897D01*
X307765Y-307599D01*
X307708Y-307548D01*
Y-281301D01*
X307757Y-281053D01*
Y-222197D01*
X307846Y-221752D01*
X307846Y-221752D01*
Y-170552D01*
X307885Y-170354D01*
X307763Y-169740D01*
X307415Y-169219D01*
X306894Y-168871D01*
X306279Y-168749D01*
X305665Y-168871D01*
X305144Y-169219D01*
X305105Y-169258D01*
X304757Y-169779D01*
X304634Y-170394D01*
X304634Y-170394D01*
Y-221395D01*
X304546Y-221841D01*
X304546Y-221841D01*
Y-280855D01*
X304497Y-281102D01*
X304497Y-281102D01*
Y-310181D01*
X304317Y-310361D01*
X303969Y-310882D01*
X303954Y-310961D01*
X301980Y-312934D01*
X301313Y-312487D01*
X301037Y-312073D01*
X300516Y-311725D01*
X299902Y-311603D01*
X299287Y-311725D01*
X298766Y-312073D01*
X298418Y-312594D01*
X298296Y-313209D01*
Y-313368D01*
X298296Y-313369D01*
X298418Y-313983D01*
X298766Y-314504D01*
X299588Y-315326D01*
X298448Y-316466D01*
X298135Y-316438D01*
X297542Y-316259D01*
X297305Y-315904D01*
X296816Y-315578D01*
X296240Y-315463D01*
X295664Y-315578D01*
X295176Y-315904D01*
X294849Y-316392D01*
X294735Y-316968D01*
X294849Y-317545D01*
X295176Y-318033D01*
X295531Y-318270D01*
X295709Y-318863D01*
X295738Y-319177D01*
X291363Y-323552D01*
X285366D01*
X285065Y-322824D01*
X285988Y-321902D01*
X286935Y-321903D01*
X287456Y-322251D01*
X288071Y-322373D01*
X288685Y-322251D01*
X289206Y-321903D01*
X289554Y-321382D01*
X289676Y-320768D01*
Y-320608D01*
X289554Y-319993D01*
X289206Y-319473D01*
X289166Y-318723D01*
X292336Y-315553D01*
X292336Y-315553D01*
X292684Y-315032D01*
X292806Y-314418D01*
X292806Y-314418D01*
Y-301811D01*
Y-244208D01*
X296411Y-240604D01*
X296411Y-240604D01*
X296470Y-240545D01*
X296818Y-240024D01*
X296940Y-239409D01*
X296940Y-239409D01*
Y-209403D01*
X297728Y-209165D01*
X297892Y-209411D01*
X298381Y-209737D01*
X298957Y-209852D01*
X299533Y-209737D01*
X300021Y-209411D01*
X300347Y-208923D01*
X300462Y-208347D01*
X300347Y-207770D01*
X300021Y-207282D01*
X299533Y-206956D01*
X298957Y-206841D01*
X298381Y-206956D01*
X297892Y-207282D01*
X297728Y-207528D01*
X296940Y-207290D01*
Y-188446D01*
X296999Y-188150D01*
X296877Y-187535D01*
X296529Y-187014D01*
X296008Y-186666D01*
X295394Y-186544D01*
X294779Y-186666D01*
X294258Y-187014D01*
X294199Y-187073D01*
X293851Y-187594D01*
X293729Y-188209D01*
X293729Y-188209D01*
Y-238744D01*
X290065Y-242408D01*
X289717Y-242929D01*
X289595Y-243543D01*
X289595Y-243543D01*
Y-301811D01*
Y-313753D01*
X285621Y-317727D01*
X285621Y-317727D01*
X284137Y-319211D01*
X283187Y-319048D01*
X283112Y-318936D01*
X282623Y-318609D01*
X282047Y-318495D01*
X281471Y-318609D01*
X280983Y-318936D01*
X280657Y-319424D01*
X280542Y-320000D01*
X280653Y-320560D01*
X280656Y-320576D01*
X280225Y-321347D01*
X276845D01*
X276466Y-320886D01*
X276351Y-320310D01*
X276025Y-319821D01*
X275537Y-319495D01*
X274961Y-319380D01*
X274385Y-319495D01*
X273896Y-319821D01*
X273570Y-320310D01*
X273455Y-320886D01*
X273077Y-321347D01*
X217098D01*
X216677Y-320560D01*
X216745Y-320458D01*
X216860Y-319882D01*
X216745Y-319306D01*
X216419Y-318817D01*
X215930Y-318491D01*
X215354Y-318377D01*
X214778Y-318491D01*
X214290Y-318817D01*
X214056Y-319168D01*
X168355D01*
X167250Y-318062D01*
Y-314288D01*
X167336Y-314159D01*
X167450Y-313583D01*
X167336Y-313007D01*
X167009Y-312518D01*
X166521Y-312192D01*
X165945Y-312077D01*
X165369Y-312192D01*
X164881Y-312518D01*
X164554Y-313007D01*
X164440Y-313583D01*
X164554Y-314159D01*
X164640Y-314288D01*
Y-318602D01*
X164740Y-319102D01*
X165022Y-319525D01*
X166117Y-320620D01*
X165816Y-321347D01*
X110394D01*
Y-314198D01*
X110394Y-313583D01*
X111110Y-313411D01*
X138892D01*
X139392Y-313312D01*
X139815Y-313029D01*
X148586Y-304257D01*
X169181D01*
X169685Y-304358D01*
X170223Y-304251D01*
X170678Y-303946D01*
X170983Y-303490D01*
X171090Y-302953D01*
X170983Y-302415D01*
X170678Y-301959D01*
X170223Y-301655D01*
X169685Y-301548D01*
X169181Y-301648D01*
X167445D01*
X166759Y-301058D01*
X166652Y-300521D01*
X166348Y-300065D01*
X165892Y-299760D01*
X165827Y-299747D01*
X163841Y-297761D01*
X164167Y-296974D01*
X166980D01*
X171752Y-301746D01*
X172038Y-302174D01*
X172494Y-302479D01*
X173031Y-302585D01*
X173569Y-302479D01*
X174025Y-302174D01*
X174499Y-302127D01*
X179574Y-307202D01*
X179997Y-307485D01*
X180497Y-307584D01*
X186260D01*
X186759Y-307485D01*
X187182Y-307202D01*
X188637Y-305748D01*
X189064Y-305462D01*
X189369Y-305006D01*
X189464Y-304529D01*
X189696Y-304380D01*
X190219Y-304171D01*
X191184Y-305135D01*
X191607Y-305418D01*
X192106Y-305517D01*
X202421D01*
X202921Y-305418D01*
X203344Y-305135D01*
X231781Y-276698D01*
X232051D01*
X232180Y-276784D01*
X232756Y-276899D01*
X233332Y-276784D01*
X233820Y-276458D01*
X234147Y-275970D01*
X234261Y-275394D01*
X234231Y-275242D01*
X234779Y-274454D01*
X245799D01*
X246227Y-275231D01*
X246113Y-275807D01*
X246227Y-276383D01*
X246554Y-276871D01*
X247042Y-277198D01*
X247618Y-277312D01*
X248194Y-277198D01*
X248682Y-276871D01*
X249009Y-276383D01*
X249123Y-275807D01*
X249042Y-275396D01*
X249203Y-275008D01*
X249545Y-274616D01*
X249926Y-274540D01*
X250415Y-274214D01*
X250741Y-273726D01*
X250856Y-273150D01*
X250741Y-272574D01*
X250415Y-272085D01*
X249926Y-271759D01*
X249350Y-271644D01*
X248774Y-271759D01*
X248645Y-271845D01*
X236632D01*
X236330Y-271117D01*
X249242Y-258206D01*
X252863Y-261826D01*
Y-285477D01*
X252113Y-286227D01*
X251765Y-286748D01*
X251642Y-287362D01*
X251765Y-287977D01*
X252113Y-288498D01*
X252634Y-288846D01*
X253248Y-288968D01*
X253863Y-288846D01*
X254383Y-288498D01*
X255604Y-287277D01*
X255604Y-287277D01*
X255952Y-286756D01*
X256074Y-286142D01*
X256074Y-286142D01*
Y-261161D01*
X255952Y-260547D01*
X255604Y-260026D01*
X255604Y-260026D01*
X251444Y-255866D01*
X255715Y-251595D01*
X256440Y-251983D01*
X256428Y-252047D01*
X256542Y-252623D01*
X256869Y-253112D01*
X257357Y-253438D01*
X257933Y-253553D01*
X258509Y-253438D01*
X258998Y-253112D01*
X259324Y-252623D01*
X259438Y-252047D01*
X259324Y-251471D01*
X258998Y-250983D01*
X258509Y-250657D01*
X257933Y-250542D01*
X257462Y-250636D01*
X257272Y-250535D01*
X257172Y-250454D01*
X256821Y-250068D01*
X256881Y-249764D01*
X256881Y-249764D01*
Y-190256D01*
X256759Y-189641D01*
X256411Y-189120D01*
X256411Y-189120D01*
X255624Y-188333D01*
X255103Y-187985D01*
X254488Y-187863D01*
X254094Y-187941D01*
X253300Y-187987D01*
X252974Y-187499D01*
X252485Y-187172D01*
X251909Y-187058D01*
X251333Y-187172D01*
X251204Y-187258D01*
X249477D01*
X249415Y-187196D01*
Y-167985D01*
X249513Y-167965D01*
X250001Y-167639D01*
X250328Y-167151D01*
X250442Y-166575D01*
X250328Y-165999D01*
X250001Y-165510D01*
X249513Y-165184D01*
X248937Y-165069D01*
X248361Y-165184D01*
X247873Y-165510D01*
X247546Y-165999D01*
X247516Y-166151D01*
X247188Y-166479D01*
X246905Y-166902D01*
X246806Y-167402D01*
Y-187736D01*
X246905Y-188235D01*
X247188Y-188659D01*
X248014Y-189486D01*
X248438Y-189768D01*
X248937Y-189868D01*
X251204D01*
X251333Y-189954D01*
X251909Y-190068D01*
X252485Y-189954D01*
X253222Y-190408D01*
X253353Y-190604D01*
X253670Y-190921D01*
Y-201139D01*
X252883Y-201558D01*
X252741Y-201464D01*
X252165Y-201349D01*
X251589Y-201464D01*
X251101Y-201790D01*
X250775Y-202278D01*
X250660Y-202854D01*
X250775Y-203430D01*
X251101Y-203919D01*
X251589Y-204245D01*
X252165Y-204360D01*
X252741Y-204245D01*
X252883Y-204151D01*
X253670Y-204569D01*
Y-239384D01*
X252894Y-240010D01*
X252318Y-240125D01*
X252189Y-240211D01*
X250855D01*
X249769Y-239125D01*
Y-222417D01*
X249855Y-222289D01*
X249970Y-221713D01*
X249855Y-221136D01*
X249529Y-220648D01*
X249041Y-220322D01*
X248465Y-220207D01*
X247888Y-220322D01*
X247400Y-220648D01*
X247074Y-221136D01*
X246959Y-221713D01*
X247074Y-222289D01*
X247160Y-222417D01*
Y-239665D01*
X247259Y-240165D01*
X247542Y-240588D01*
X249393Y-242438D01*
X249816Y-242721D01*
X250315Y-242820D01*
X252189D01*
X252318Y-242906D01*
X252894Y-243021D01*
X253670Y-243648D01*
Y-249099D01*
X248038Y-254731D01*
X247760Y-255146D01*
X233744Y-269162D01*
X227815D01*
X227815Y-269162D01*
X227201Y-269284D01*
X226680Y-269632D01*
X226680Y-269632D01*
X210202Y-286110D01*
X209415Y-285784D01*
Y-276255D01*
X210202Y-276016D01*
X210314Y-276183D01*
X210802Y-276509D01*
X211378Y-276623D01*
X211954Y-276509D01*
X212442Y-276183D01*
X212769Y-275694D01*
X212883Y-275118D01*
X212769Y-274542D01*
X212442Y-274054D01*
X211954Y-273727D01*
X211378Y-273613D01*
X210802Y-273727D01*
X210314Y-274054D01*
X210202Y-274220D01*
X209415Y-273981D01*
Y-252706D01*
X219604Y-242517D01*
X219886Y-242094D01*
X219986Y-241595D01*
Y-232647D01*
X224584Y-228048D01*
X224867Y-227625D01*
X224966Y-227126D01*
Y-166623D01*
X248954Y-142635D01*
X249237Y-142212D01*
X249336Y-141713D01*
Y-132253D01*
X259484Y-122105D01*
X260434Y-122269D01*
X260510Y-122383D01*
X260999Y-122710D01*
X261575Y-122824D01*
X262151Y-122710D01*
X262639Y-122383D01*
X262965Y-121895D01*
X263080Y-121319D01*
X262965Y-120743D01*
X262639Y-120255D01*
X262525Y-120178D01*
X262361Y-119228D01*
X263737Y-117852D01*
X264020Y-117428D01*
X264120Y-116929D01*
Y-112244D01*
X264020Y-111745D01*
X263737Y-111322D01*
X263015Y-110600D01*
X262985Y-110448D01*
X262659Y-109959D01*
X262171Y-109633D01*
X261595Y-109518D01*
X261018Y-109633D01*
X260530Y-109959D01*
X260204Y-110448D01*
X260089Y-111024D01*
X260204Y-111600D01*
X260530Y-112088D01*
X261018Y-112414D01*
X261171Y-112445D01*
X261510Y-112785D01*
Y-113837D01*
X261255Y-114045D01*
X260723Y-114328D01*
X260295Y-114243D01*
X260225Y-114257D01*
X259555Y-113593D01*
X259557Y-113583D01*
X259442Y-113007D01*
X259116Y-112518D01*
X258627Y-112192D01*
X258051Y-112077D01*
X257475Y-112192D01*
X256987Y-112518D01*
X256661Y-113007D01*
X256630Y-113159D01*
X243646Y-126143D01*
X242919Y-125841D01*
Y-74241D01*
X252076Y-65084D01*
X263252D01*
X263381Y-65170D01*
X263957Y-65285D01*
X264533Y-65170D01*
X265021Y-64844D01*
X265347Y-64356D01*
X265462Y-63779D01*
X265347Y-63204D01*
X265021Y-62715D01*
X264533Y-62389D01*
X263957Y-62274D01*
X263381Y-62389D01*
X263252Y-62475D01*
X251535D01*
X251036Y-62574D01*
X250613Y-62857D01*
X240692Y-72778D01*
X240409Y-73202D01*
X240310Y-73701D01*
Y-138141D01*
X216341Y-162109D01*
X216058Y-162532D01*
X215959Y-163031D01*
Y-219926D01*
X215172Y-220003D01*
X215151Y-219896D01*
X214824Y-219408D01*
X214336Y-219082D01*
X213760Y-218967D01*
X213116Y-218292D01*
Y-179051D01*
X213202Y-178922D01*
X213316Y-178347D01*
X213202Y-177770D01*
X212875Y-177282D01*
X212387Y-176956D01*
X211811Y-176841D01*
X211639Y-176875D01*
X211509Y-176828D01*
X211407Y-176763D01*
X210980Y-176251D01*
X211052Y-175886D01*
X210938Y-175310D01*
X210612Y-174821D01*
X210123Y-174495D01*
X209547Y-174381D01*
X208971Y-174495D01*
X208483Y-174821D01*
X208156Y-175310D01*
X208042Y-175886D01*
X208156Y-176462D01*
X208243Y-176591D01*
Y-194119D01*
X207455Y-194611D01*
X207185Y-194558D01*
X206609Y-194672D01*
X206480Y-194758D01*
X195728D01*
X195699Y-194764D01*
X195551Y-194735D01*
X194975Y-194850D01*
X194487Y-195176D01*
X194160Y-195664D01*
X194046Y-196240D01*
X193740Y-196861D01*
X193164Y-196975D01*
X192676Y-197302D01*
X192350Y-197790D01*
X192235Y-198366D01*
X192350Y-198942D01*
X192676Y-199431D01*
X193164Y-199757D01*
X193740Y-199871D01*
X194316Y-199757D01*
X194445Y-199671D01*
X204886D01*
X205133Y-199836D01*
X205709Y-199950D01*
X206285Y-199836D01*
X206773Y-199509D01*
X207099Y-199021D01*
X207214Y-198445D01*
X207187Y-198310D01*
X207187Y-198275D01*
X207455Y-198126D01*
X208243Y-198590D01*
Y-218554D01*
X204786Y-222011D01*
X204503Y-222434D01*
X204404Y-222933D01*
Y-234545D01*
X203622Y-235168D01*
X203046Y-235282D01*
X202558Y-235609D01*
X202231Y-236097D01*
X202117Y-236673D01*
X202231Y-237249D01*
X202558Y-237738D01*
X203046Y-238064D01*
X203622Y-238178D01*
X204167Y-238613D01*
X204205Y-239501D01*
X198178Y-245528D01*
X198026Y-245558D01*
X197538Y-245884D01*
X197212Y-246373D01*
X197097Y-246949D01*
X197212Y-247525D01*
X197538Y-248013D01*
X197595Y-248796D01*
X197545Y-248965D01*
X197318Y-249304D01*
X197279Y-249500D01*
X197133Y-249719D01*
X197018Y-250295D01*
X197133Y-250871D01*
X197459Y-251360D01*
X197948Y-251686D01*
X198194Y-251735D01*
X198264Y-252376D01*
X198241Y-252547D01*
X197656Y-252938D01*
X197239Y-253561D01*
X197192Y-253797D01*
X199016D01*
Y-254297D01*
X199516D01*
Y-256120D01*
X199752Y-256074D01*
X200034Y-255885D01*
X200821Y-256299D01*
Y-271006D01*
X200034Y-271221D01*
X199743Y-270786D01*
X199119Y-270369D01*
X198883Y-270322D01*
Y-272146D01*
Y-273969D01*
X199119Y-273922D01*
X199743Y-273505D01*
X200034Y-273070D01*
X200821Y-273285D01*
Y-279807D01*
X200520Y-279912D01*
X200034Y-279938D01*
X199785Y-279566D01*
X199296Y-279239D01*
X198721Y-279125D01*
X198144Y-279239D01*
X198015Y-279325D01*
X188946D01*
X188333Y-278538D01*
X188336Y-278524D01*
X188221Y-277948D01*
X187895Y-277459D01*
X187407Y-277133D01*
X186831Y-277018D01*
X186255Y-277133D01*
X185766Y-277459D01*
X185440Y-277948D01*
X185377Y-278265D01*
X184576Y-278484D01*
X184431Y-278266D01*
X183942Y-277940D01*
X183366Y-277825D01*
X182790Y-277940D01*
X182302Y-278266D01*
X181975Y-278755D01*
X181861Y-279331D01*
X181975Y-279907D01*
X182302Y-280395D01*
X182790Y-280721D01*
X182942Y-280752D01*
X183524Y-281334D01*
X183551Y-282187D01*
X183522Y-282282D01*
X183196Y-282770D01*
X183081Y-283347D01*
X183196Y-283923D01*
X183522Y-284411D01*
X184011Y-284737D01*
X184587Y-284852D01*
X185247Y-285453D01*
X185361Y-286029D01*
X185688Y-286517D01*
X186176Y-286843D01*
X186752Y-286958D01*
X187328Y-286843D01*
X187816Y-286517D01*
X188143Y-286029D01*
X188257Y-285453D01*
X188916Y-284730D01*
X197780D01*
X197806Y-284747D01*
X197871Y-285004D01*
X197908Y-285755D01*
X197420Y-286081D01*
X197093Y-286570D01*
X196979Y-287146D01*
X197093Y-287722D01*
X197420Y-288210D01*
X197770Y-288751D01*
X197514Y-289148D01*
X197448Y-289247D01*
X197333Y-289823D01*
X197448Y-290399D01*
X197774Y-290887D01*
X197951Y-291689D01*
X197864Y-291822D01*
X197625Y-292180D01*
X197511Y-292756D01*
X197625Y-293332D01*
X197951Y-293820D01*
X198012Y-293861D01*
X198164Y-294683D01*
X198105Y-294798D01*
X197842Y-295192D01*
X197727Y-295768D01*
X197842Y-296344D01*
X198168Y-296832D01*
X198179Y-296839D01*
X197940Y-297627D01*
X194622D01*
X186057Y-289061D01*
X185536Y-288713D01*
X184921Y-288591D01*
X184307Y-288713D01*
X183786Y-289061D01*
X183438Y-289582D01*
X183316Y-290197D01*
X183438Y-290811D01*
X183786Y-291332D01*
X184141Y-291688D01*
X183976Y-292636D01*
X183857Y-292715D01*
X183530Y-293203D01*
X183416Y-293779D01*
X183530Y-294356D01*
X183857Y-294844D01*
X184028Y-294958D01*
Y-295849D01*
X183857Y-295963D01*
X183530Y-296451D01*
X183416Y-297028D01*
X183530Y-297604D01*
X183857Y-298092D01*
X184345Y-298418D01*
X184497Y-298448D01*
X188369Y-302320D01*
X188159Y-302844D01*
X188011Y-303076D01*
X187533Y-303170D01*
X187077Y-303475D01*
X186792Y-303903D01*
X185720Y-304975D01*
X181037D01*
X179812Y-303750D01*
X180071Y-302895D01*
X180183Y-302873D01*
X180639Y-302568D01*
X180944Y-302112D01*
X181051Y-301575D01*
X180944Y-301037D01*
X180639Y-300581D01*
X180211Y-300296D01*
X168560Y-288645D01*
X168137Y-288362D01*
X167638Y-288262D01*
X158594D01*
X158268Y-287475D01*
X179958Y-265785D01*
X180189Y-265439D01*
X186804Y-258824D01*
X186886Y-258769D01*
X187191Y-258313D01*
X187298Y-257776D01*
X187191Y-257238D01*
X186886Y-256782D01*
X186431Y-256478D01*
X185893Y-256371D01*
X185355Y-256478D01*
X185281Y-256527D01*
X184495Y-256381D01*
X184372Y-256259D01*
X184143Y-255916D01*
X183687Y-255611D01*
X183150Y-255504D01*
X182612Y-255611D01*
X182156Y-255916D01*
X181852Y-256372D01*
X181745Y-256909D01*
X181852Y-257447D01*
X182156Y-257903D01*
X182612Y-258208D01*
X182616Y-258208D01*
X182875Y-259063D01*
X178113Y-263825D01*
X177882Y-264170D01*
X156251Y-285802D01*
X144418D01*
X124279Y-265662D01*
X123855Y-265379D01*
X123356Y-265280D01*
X90513D01*
X90256Y-265229D01*
X89718Y-265336D01*
X89262Y-265640D01*
X88958Y-266096D01*
X88851Y-266634D01*
X88958Y-267172D01*
X89175Y-267496D01*
X89027Y-267983D01*
X88828Y-268284D01*
X83963D01*
X80281Y-264601D01*
X79890Y-264340D01*
X79429Y-264248D01*
X79429Y-264248D01*
X76272D01*
X76042Y-263841D01*
X75954Y-263461D01*
X76512Y-262734D01*
X76909Y-261776D01*
X77044Y-260748D01*
X76909Y-259720D01*
X76512Y-258763D01*
X75881Y-257940D01*
X75059Y-257309D01*
X74101Y-256912D01*
X73073Y-256777D01*
X72045Y-256912D01*
X71088Y-257309D01*
X70265Y-257940D01*
X69634Y-258763D01*
X69237Y-259720D01*
X69102Y-260748D01*
X69237Y-261776D01*
X69634Y-262734D01*
X70119Y-263365D01*
X69525Y-263885D01*
X66784Y-261144D01*
X66751Y-260978D01*
X66446Y-260522D01*
X65990Y-260218D01*
X65453Y-260111D01*
X64915Y-260218D01*
X64459Y-260522D01*
X64155Y-260978D01*
X64048Y-261516D01*
X64155Y-262053D01*
X64459Y-262509D01*
X64915Y-262814D01*
X65081Y-262847D01*
X68538Y-266304D01*
X68538Y-266304D01*
X68929Y-266565D01*
X69390Y-266657D01*
X70710D01*
X70911Y-267444D01*
X70265Y-267940D01*
X69634Y-268763D01*
X69237Y-269720D01*
X69102Y-270748D01*
X69237Y-271776D01*
X69634Y-272733D01*
X70265Y-273556D01*
X71088Y-274187D01*
X72045Y-274584D01*
X73073Y-274719D01*
X74101Y-274584D01*
X75059Y-274187D01*
X75881Y-273556D01*
X76512Y-272733D01*
X76909Y-271776D01*
X77044Y-270748D01*
X76909Y-269720D01*
X76512Y-268763D01*
X75881Y-267940D01*
X75235Y-267444D01*
X75436Y-266657D01*
X78930D01*
X82613Y-270340D01*
X83004Y-270601D01*
X83465Y-270692D01*
X83465Y-270692D01*
X97606D01*
X97845Y-271480D01*
X97558Y-271672D01*
X97231Y-272160D01*
X97117Y-272736D01*
X97231Y-273312D01*
X97558Y-273801D01*
X98046Y-274127D01*
X98622Y-274241D01*
X99198Y-274127D01*
X99686Y-273801D01*
X100013Y-273312D01*
X100127Y-272736D01*
X100013Y-272160D01*
X99686Y-271672D01*
X99399Y-271480D01*
X99638Y-270692D01*
X117098D01*
X117238Y-270786D01*
X117776Y-270893D01*
X118313Y-270786D01*
X118769Y-270482D01*
X119074Y-270026D01*
X119181Y-269488D01*
X119074Y-268951D01*
X118891Y-268677D01*
X119115Y-268049D01*
X119239Y-267889D01*
X122816D01*
X142402Y-287475D01*
X142076Y-288262D01*
X82432D01*
X76627Y-282457D01*
X76909Y-281776D01*
X77044Y-280748D01*
X76909Y-279720D01*
X76512Y-278763D01*
X75881Y-277940D01*
X75059Y-277309D01*
X74101Y-276912D01*
X73073Y-276777D01*
X72045Y-276912D01*
X71088Y-277309D01*
X70265Y-277940D01*
X69634Y-278763D01*
X69237Y-279720D01*
X69102Y-280748D01*
X69237Y-281776D01*
X69634Y-282733D01*
X70265Y-283556D01*
X71088Y-284187D01*
X72045Y-284584D01*
X73073Y-284719D01*
X74101Y-284584D01*
X74782Y-284302D01*
X80969Y-290489D01*
X81393Y-290772D01*
X81892Y-290872D01*
X167097D01*
X168130Y-291904D01*
X167804Y-292691D01*
X79825D01*
X79326Y-292791D01*
X78903Y-293074D01*
X75165Y-296811D01*
X69136D01*
Y-304685D01*
X77010D01*
Y-298656D01*
X80365Y-295301D01*
X89329D01*
X89868Y-296088D01*
X89833Y-296260D01*
X89948Y-296836D01*
X90274Y-297324D01*
X90763Y-297651D01*
X91339Y-297765D01*
X91915Y-297651D01*
X92403Y-297324D01*
X92729Y-296836D01*
X92844Y-296260D01*
X92810Y-296088D01*
X93348Y-295301D01*
X155773D01*
X156075Y-295669D01*
X156182Y-296207D01*
X156487Y-296663D01*
X156915Y-296949D01*
X156986Y-297020D01*
X156602Y-297738D01*
Y-299570D01*
X156102D01*
Y-300070D01*
X154279D01*
X154326Y-300306D01*
X154697Y-300861D01*
X154618Y-301193D01*
X154401Y-301648D01*
X148046D01*
X147547Y-301747D01*
X147124Y-302030D01*
X138352Y-310802D01*
X67536D01*
X67407Y-310716D01*
X66831Y-310601D01*
X66255Y-310716D01*
X65766Y-311042D01*
X65440Y-311530D01*
X65325Y-312106D01*
X65440Y-312682D01*
X65766Y-313171D01*
X66255Y-313497D01*
X66831Y-313612D01*
X67407Y-313497D01*
X67536Y-313411D01*
X74112D01*
X74189Y-313554D01*
X74318Y-314198D01*
X73649Y-314712D01*
X73018Y-315534D01*
X72621Y-316492D01*
X72486Y-317520D01*
X72621Y-318548D01*
X73018Y-319505D01*
X73649Y-320328D01*
X73951Y-320560D01*
X73684Y-321347D01*
X60852D01*
X35474Y-295969D01*
Y-290959D01*
X35935Y-290580D01*
X36511Y-290465D01*
X36999Y-290139D01*
X37326Y-289651D01*
X37440Y-289075D01*
X37326Y-288499D01*
X36999Y-288010D01*
X36511Y-287684D01*
X35935Y-287569D01*
X35474Y-287191D01*
Y-276388D01*
X35474Y-276388D01*
X35351Y-275773D01*
X35004Y-275252D01*
X11142Y-251391D01*
X11248Y-250590D01*
X11139Y-249768D01*
X10822Y-249002D01*
X10317Y-248344D01*
X9659Y-247839D01*
X8893Y-247522D01*
X8071Y-247414D01*
X7249Y-247522D01*
X6482Y-247839D01*
X5824Y-248344D01*
X5320Y-249002D01*
X5002Y-249768D01*
X4894Y-250590D01*
X5002Y-251413D01*
X5320Y-252179D01*
X5824Y-252837D01*
X6482Y-253342D01*
X7249Y-253659D01*
X8071Y-253767D01*
X8872Y-253662D01*
X32263Y-277053D01*
Y-296221D01*
X31475Y-296547D01*
X29637Y-294709D01*
Y-291240D01*
X29515Y-290626D01*
X29167Y-290105D01*
X28646Y-289757D01*
X28032Y-289634D01*
X27417Y-289757D01*
X26896Y-290105D01*
X26548Y-290626D01*
X26426Y-291240D01*
Y-295374D01*
X26426Y-295374D01*
X26548Y-295988D01*
X26896Y-296509D01*
X55427Y-325041D01*
X55126Y-325768D01*
X1003D01*
X1003Y-1003D01*
X38730Y-1003D01*
X38730Y-1003D01*
X105118Y-1003D01*
Y-54935D01*
X100853Y-59200D01*
X100572Y-59621D01*
X100473Y-60118D01*
Y-91394D01*
X100367Y-91929D01*
X100474Y-92467D01*
X100778Y-92923D01*
X101234Y-93227D01*
X101772Y-93334D01*
X102309Y-93227D01*
X102765Y-92923D01*
X103070Y-92467D01*
X103177Y-91929D01*
X103070Y-91394D01*
Y-60656D01*
X104391Y-59336D01*
X105118Y-59637D01*
Y-68799D01*
X112598Y-68799D01*
X124606D01*
Y-113979D01*
X123819Y-114305D01*
X116076Y-106562D01*
X115654Y-106281D01*
X115157Y-106182D01*
X108432D01*
X103206Y-100956D01*
X102903Y-100503D01*
X102447Y-100198D01*
X101909Y-100091D01*
X101372Y-100198D01*
X100916Y-100503D01*
X100611Y-100958D01*
X100505Y-101496D01*
X100611Y-102034D01*
X100916Y-102489D01*
X101369Y-102792D01*
X106975Y-108398D01*
X107397Y-108680D01*
X107894Y-108779D01*
X107894Y-108779D01*
X114620D01*
X137188Y-131347D01*
X137491Y-131800D01*
X137947Y-132105D01*
X138484Y-132212D01*
X139022Y-132105D01*
X139478Y-131800D01*
X139782Y-131345D01*
X139809Y-131209D01*
X140154Y-130969D01*
X140642Y-130865D01*
X142403Y-132625D01*
X142403Y-132625D01*
X142824Y-132906D01*
X143321Y-133005D01*
X174699D01*
X174959Y-133778D01*
X174633Y-134266D01*
X174518Y-134843D01*
X174633Y-135419D01*
X174959Y-135907D01*
X175448Y-136233D01*
X176024Y-136348D01*
X176600Y-136233D01*
X177088Y-135907D01*
X177414Y-135419D01*
X177529Y-134843D01*
X177414Y-134266D01*
X177088Y-133778D01*
X177349Y-133005D01*
X186292D01*
X186789Y-132906D01*
X187210Y-132625D01*
X195334Y-124501D01*
X195334Y-124501D01*
X195615Y-124080D01*
X195714Y-123583D01*
Y-91168D01*
X195688Y-91037D01*
Y-58366D01*
X195688Y-58366D01*
X195669Y-58270D01*
X195669Y-1003D01*
X392697Y-1003D01*
D02*
G37*
G36*
X162224Y-92520D02*
X162492Y-93020D01*
X162397Y-93162D01*
X162350Y-93398D01*
X165997D01*
X165950Y-93162D01*
X165855Y-93020D01*
X166122Y-92520D01*
X187894Y-92520D01*
X187894Y-124655D01*
X185388Y-127162D01*
X137721Y-127581D01*
X126490Y-115870D01*
X126490Y-92967D01*
X126990Y-92520D01*
X162224Y-92520D01*
D02*
G37*
%LPC*%
G36*
X287165Y-4441D02*
X286343Y-4550D01*
X285577Y-4867D01*
X284919Y-5372D01*
X284414Y-6030D01*
X284097Y-6796D01*
X283989Y-7618D01*
X284097Y-8440D01*
X284414Y-9206D01*
X284919Y-9864D01*
X285577Y-10369D01*
X286343Y-10687D01*
X287165Y-10795D01*
X287988Y-10687D01*
X288754Y-10369D01*
X289412Y-9864D01*
X289916Y-9206D01*
X290234Y-8440D01*
X290342Y-7618D01*
X290234Y-6796D01*
X289916Y-6030D01*
X289412Y-5372D01*
X288754Y-4867D01*
X287988Y-4550D01*
X287165Y-4441D01*
D02*
G37*
G36*
X267165D02*
X266343Y-4550D01*
X265577Y-4867D01*
X264919Y-5372D01*
X264414Y-6030D01*
X264097Y-6796D01*
X263989Y-7618D01*
X264097Y-8440D01*
X264414Y-9206D01*
X264919Y-9864D01*
X265577Y-10369D01*
X266343Y-10687D01*
X267165Y-10795D01*
X267988Y-10687D01*
X268754Y-10369D01*
X269412Y-9864D01*
X269917Y-9206D01*
X270234Y-8440D01*
X270342Y-7618D01*
X270234Y-6796D01*
X269917Y-6030D01*
X269412Y-5372D01*
X268754Y-4867D01*
X267988Y-4550D01*
X267165Y-4441D01*
D02*
G37*
G36*
X369921Y-4461D02*
X369099Y-4569D01*
X368333Y-4887D01*
X367675Y-5392D01*
X367170Y-6049D01*
X366853Y-6816D01*
X366744Y-7638D01*
X366853Y-8460D01*
X367170Y-9226D01*
X367675Y-9884D01*
X368333Y-10389D01*
X369099Y-10706D01*
X369921Y-10815D01*
X370743Y-10706D01*
X371510Y-10389D01*
X372168Y-9884D01*
X372672Y-9226D01*
X372990Y-8460D01*
X373098Y-7638D01*
X372990Y-6816D01*
X372672Y-6049D01*
X372168Y-5392D01*
X371510Y-4887D01*
X370743Y-4569D01*
X369921Y-4461D01*
D02*
G37*
G36*
X349921D02*
X349099Y-4569D01*
X348333Y-4887D01*
X347675Y-5392D01*
X347170Y-6049D01*
X346853Y-6816D01*
X346744Y-7638D01*
X346853Y-8460D01*
X347170Y-9226D01*
X347675Y-9884D01*
X348333Y-10389D01*
X349099Y-10706D01*
X349921Y-10815D01*
X350743Y-10706D01*
X351510Y-10389D01*
X352168Y-9884D01*
X352672Y-9226D01*
X352990Y-8460D01*
X353098Y-7638D01*
X352990Y-6816D01*
X352672Y-6049D01*
X352168Y-5392D01*
X351510Y-4887D01*
X350743Y-4569D01*
X349921Y-4461D01*
D02*
G37*
G36*
X90256Y-7943D02*
X89680Y-8058D01*
X89192Y-8384D01*
X88865Y-8873D01*
X88751Y-9449D01*
X88865Y-10025D01*
X89192Y-10513D01*
X89680Y-10840D01*
X90256Y-10954D01*
X90832Y-10840D01*
X91320Y-10513D01*
X91647Y-10025D01*
X91761Y-9449D01*
X91647Y-8873D01*
X91320Y-8384D01*
X90832Y-8058D01*
X90256Y-7943D01*
D02*
G37*
G36*
X238110Y-4677D02*
X237288Y-4786D01*
X236522Y-5103D01*
X235864Y-5608D01*
X235359Y-6266D01*
X235042Y-7032D01*
X234933Y-7854D01*
X235042Y-8676D01*
X235359Y-9443D01*
X235864Y-10101D01*
X236522Y-10605D01*
X237288Y-10923D01*
X238110Y-11031D01*
X238932Y-10923D01*
X239699Y-10605D01*
X240357Y-10101D01*
X240861Y-9443D01*
X241179Y-8676D01*
X241287Y-7854D01*
X241179Y-7032D01*
X240861Y-6266D01*
X240357Y-5608D01*
X239699Y-5103D01*
X238932Y-4786D01*
X238110Y-4677D01*
D02*
G37*
G36*
X248110Y-4678D02*
X247288Y-4786D01*
X246522Y-5103D01*
X245864Y-5608D01*
X245359Y-6266D01*
X245042Y-7032D01*
X244933Y-7854D01*
X245042Y-8676D01*
X245359Y-9443D01*
X245864Y-10101D01*
X246522Y-10605D01*
X247288Y-10923D01*
X248110Y-11031D01*
X248932Y-10923D01*
X249699Y-10605D01*
X250357Y-10101D01*
X250861Y-9443D01*
X251179Y-8676D01*
X251287Y-7854D01*
X251179Y-7032D01*
X250861Y-6266D01*
X250357Y-5608D01*
X249699Y-5103D01*
X248932Y-4786D01*
X248110Y-4678D01*
D02*
G37*
G36*
X320866Y-4697D02*
X320044Y-4806D01*
X319278Y-5123D01*
X318620Y-5628D01*
X318115Y-6286D01*
X317798Y-7052D01*
X317689Y-7874D01*
X317798Y-8696D01*
X318115Y-9462D01*
X318620Y-10120D01*
X319278Y-10625D01*
X320044Y-10943D01*
X320866Y-11051D01*
X321688Y-10943D01*
X322455Y-10625D01*
X323112Y-10120D01*
X323617Y-9462D01*
X323935Y-8696D01*
X324043Y-7874D01*
X323935Y-7052D01*
X323617Y-6286D01*
X323112Y-5628D01*
X322455Y-5123D01*
X321688Y-4806D01*
X320866Y-4697D01*
D02*
G37*
G36*
X330866Y-4697D02*
X330044Y-4806D01*
X329278Y-5123D01*
X328620Y-5628D01*
X328115Y-6286D01*
X327798Y-7052D01*
X327689Y-7874D01*
X327798Y-8696D01*
X328115Y-9462D01*
X328620Y-10120D01*
X329278Y-10625D01*
X330044Y-10943D01*
X330866Y-11051D01*
X331688Y-10943D01*
X332454Y-10625D01*
X333112Y-10120D01*
X333617Y-9462D01*
X333935Y-8696D01*
X334043Y-7874D01*
X333935Y-7052D01*
X333617Y-6286D01*
X333112Y-5628D01*
X332454Y-5123D01*
X331688Y-4806D01*
X330866Y-4697D01*
D02*
G37*
G36*
X46711Y-20027D02*
Y-21350D01*
X48034D01*
X47987Y-21115D01*
X47570Y-20491D01*
X46946Y-20074D01*
X46711Y-20027D01*
D02*
G37*
G36*
X45711D02*
X45475Y-20074D01*
X44851Y-20491D01*
X44434Y-21115D01*
X44387Y-21350D01*
X45711D01*
Y-20027D01*
D02*
G37*
G36*
X62894Y-10008D02*
X61620Y-10133D01*
X60396Y-10505D01*
X59267Y-11108D01*
X58278Y-11920D01*
X57466Y-12909D01*
X56863Y-14038D01*
X56492Y-15262D01*
X56366Y-16535D01*
X56492Y-17809D01*
X56863Y-19033D01*
X57466Y-20162D01*
X58278Y-21151D01*
X59267Y-21963D01*
X60396Y-22566D01*
X61620Y-22938D01*
X62894Y-23063D01*
X64167Y-22938D01*
X65392Y-22566D01*
X66520Y-21963D01*
X67509Y-21151D01*
X68321Y-20162D01*
X68924Y-19033D01*
X69296Y-17809D01*
X69421Y-16535D01*
X69296Y-15262D01*
X68924Y-14038D01*
X68321Y-12909D01*
X67509Y-11920D01*
X66520Y-11108D01*
X65392Y-10505D01*
X64167Y-10133D01*
X62894Y-10008D01*
D02*
G37*
G36*
X6339Y-17693D02*
X5619Y-17787D01*
X4949Y-18065D01*
X4373Y-18507D01*
X3931Y-19083D01*
X3654Y-19753D01*
X3559Y-20472D01*
X3654Y-21192D01*
X3931Y-21862D01*
X4373Y-22438D01*
X4949Y-22880D01*
X5619Y-23157D01*
X6339Y-23252D01*
X7058Y-23157D01*
X7728Y-22880D01*
X8304Y-22438D01*
X8746Y-21862D01*
X9024Y-21192D01*
X9118Y-20472D01*
X9024Y-19753D01*
X8746Y-19083D01*
X8304Y-18507D01*
X7728Y-18065D01*
X7058Y-17787D01*
X6339Y-17693D01*
D02*
G37*
G36*
X48034Y-22350D02*
X46711D01*
Y-23674D01*
X46946Y-23627D01*
X47570Y-23210D01*
X47987Y-22586D01*
X48034Y-22350D01*
D02*
G37*
G36*
X45711D02*
X44387D01*
X44434Y-22586D01*
X44851Y-23210D01*
X45475Y-23627D01*
X45711Y-23674D01*
Y-22350D01*
D02*
G37*
G36*
X20177Y-16634D02*
X12500D01*
Y-24311D01*
X20177D01*
Y-16634D01*
D02*
G37*
G36*
X201398Y-24814D02*
X200822Y-24928D01*
X200333Y-25254D01*
X200007Y-25743D01*
X199892Y-26319D01*
X200007Y-26895D01*
X200333Y-27383D01*
X200822Y-27710D01*
X201398Y-27824D01*
X201974Y-27710D01*
X202462Y-27383D01*
X202788Y-26895D01*
X202903Y-26319D01*
X202788Y-25743D01*
X202462Y-25254D01*
X201974Y-24928D01*
X201398Y-24814D01*
D02*
G37*
G36*
X84049Y-26554D02*
X83473Y-26668D01*
X82985Y-26995D01*
X82658Y-27483D01*
X82544Y-28059D01*
X82658Y-28635D01*
X82985Y-29123D01*
X83473Y-29450D01*
X84049Y-29564D01*
X84625Y-29450D01*
X85114Y-29123D01*
X85440Y-28635D01*
X85554Y-28059D01*
X85440Y-27483D01*
X85114Y-26995D01*
X84625Y-26668D01*
X84049Y-26554D01*
D02*
G37*
G36*
X6339Y-27693D02*
X5619Y-27788D01*
X4949Y-28065D01*
X4373Y-28507D01*
X3931Y-29083D01*
X3654Y-29753D01*
X3559Y-30472D01*
X3654Y-31192D01*
X3931Y-31862D01*
X4373Y-32438D01*
X4949Y-32880D01*
X5619Y-33157D01*
X6339Y-33252D01*
X7058Y-33157D01*
X7728Y-32880D01*
X8304Y-32438D01*
X8746Y-31862D01*
X9024Y-31192D01*
X9118Y-30472D01*
X9024Y-29753D01*
X8746Y-29083D01*
X8304Y-28507D01*
X7728Y-28065D01*
X7058Y-27788D01*
X6339Y-27693D01*
D02*
G37*
G36*
X61721Y-32232D02*
Y-33555D01*
X63044D01*
X62997Y-33319D01*
X62580Y-32695D01*
X61956Y-32279D01*
X61721Y-32232D01*
D02*
G37*
G36*
X60720D02*
X60485Y-32279D01*
X59861Y-32695D01*
X59444Y-33319D01*
X59397Y-33555D01*
X60720D01*
Y-32232D01*
D02*
G37*
G36*
X16339Y-26601D02*
X15337Y-26733D01*
X14403Y-27119D01*
X13601Y-27735D01*
X12986Y-28537D01*
X12599Y-29470D01*
X12467Y-30472D01*
X12599Y-31475D01*
X12986Y-32408D01*
X13601Y-33210D01*
X14403Y-33825D01*
X15337Y-34212D01*
X16339Y-34344D01*
X17341Y-34212D01*
X18274Y-33825D01*
X19076Y-33210D01*
X19692Y-32408D01*
X20078Y-31475D01*
X20210Y-30472D01*
X20078Y-29470D01*
X19692Y-28537D01*
X19076Y-27735D01*
X18274Y-27119D01*
X17341Y-26733D01*
X16339Y-26601D01*
D02*
G37*
G36*
X331102Y-32181D02*
X330526Y-32295D01*
X330038Y-32622D01*
X329712Y-33110D01*
X329597Y-33686D01*
X329712Y-34262D01*
X330038Y-34750D01*
X330526Y-35077D01*
X331102Y-35191D01*
X331678Y-35077D01*
X332167Y-34750D01*
X332493Y-34262D01*
X332608Y-33686D01*
X332493Y-33110D01*
X332167Y-32622D01*
X331678Y-32295D01*
X331102Y-32181D01*
D02*
G37*
G36*
X47343Y-32648D02*
X46766Y-32763D01*
X46278Y-33089D01*
X45952Y-33577D01*
X45837Y-34154D01*
X45952Y-34730D01*
X46278Y-35218D01*
X46766Y-35544D01*
X47343Y-35659D01*
X47919Y-35544D01*
X48407Y-35218D01*
X48733Y-34730D01*
X48848Y-34154D01*
X48733Y-33577D01*
X48407Y-33089D01*
X47919Y-32763D01*
X47343Y-32648D01*
D02*
G37*
G36*
X63044Y-34555D02*
X61721D01*
Y-35878D01*
X61956Y-35831D01*
X62580Y-35415D01*
X62997Y-34791D01*
X63044Y-34555D01*
D02*
G37*
G36*
X60720D02*
X59397D01*
X59444Y-34791D01*
X59861Y-35415D01*
X60485Y-35831D01*
X60720Y-35878D01*
Y-34555D01*
D02*
G37*
G36*
X241240Y-34026D02*
X240664Y-34141D01*
X240176Y-34467D01*
X239849Y-34955D01*
X239735Y-35531D01*
X239849Y-36108D01*
X240176Y-36596D01*
X240664Y-36922D01*
X241240Y-37037D01*
X241816Y-36922D01*
X242305Y-36596D01*
X242631Y-36108D01*
X242745Y-35531D01*
X242631Y-34955D01*
X242305Y-34467D01*
X241816Y-34141D01*
X241240Y-34026D01*
D02*
G37*
G36*
X80913Y-40391D02*
Y-42217D01*
X82739D01*
X82653Y-41789D01*
X82128Y-41002D01*
X81341Y-40477D01*
X80913Y-40391D01*
D02*
G37*
G36*
X79913D02*
X79486Y-40477D01*
X78699Y-41002D01*
X78173Y-41789D01*
X78088Y-42217D01*
X79913D01*
Y-40391D01*
D02*
G37*
G36*
X87705Y-42655D02*
Y-44480D01*
X89530D01*
X89445Y-44052D01*
X88919Y-43266D01*
X88133Y-42740D01*
X87705Y-42655D01*
D02*
G37*
G36*
X86705D02*
X86277Y-42740D01*
X85490Y-43266D01*
X84965Y-44052D01*
X84880Y-44480D01*
X86705D01*
Y-42655D01*
D02*
G37*
G36*
X199311Y-41566D02*
X198735Y-41680D01*
X198247Y-42006D01*
X197920Y-42495D01*
X197806Y-43071D01*
X197920Y-43647D01*
X198247Y-44135D01*
X198735Y-44462D01*
X199311Y-44576D01*
X199887Y-44462D01*
X200375Y-44135D01*
X200702Y-43647D01*
X200816Y-43071D01*
X200702Y-42495D01*
X200375Y-42006D01*
X199887Y-41680D01*
X199311Y-41566D01*
D02*
G37*
G36*
X82739Y-43216D02*
X80913D01*
Y-45042D01*
X81341Y-44956D01*
X82128Y-44431D01*
X82653Y-43644D01*
X82739Y-43216D01*
D02*
G37*
G36*
X79913D02*
X78088D01*
X78173Y-43644D01*
X78699Y-44431D01*
X79486Y-44956D01*
X79913Y-45042D01*
Y-43216D01*
D02*
G37*
G36*
X47539Y-42884D02*
X46963Y-42999D01*
X46475Y-43325D01*
X46149Y-43814D01*
X46034Y-44390D01*
X46149Y-44966D01*
X46475Y-45454D01*
X46963Y-45781D01*
X47539Y-45895D01*
X48115Y-45781D01*
X48604Y-45454D01*
X48930Y-44966D01*
X49045Y-44390D01*
X48930Y-43814D01*
X48604Y-43325D01*
X48115Y-42999D01*
X47539Y-42884D01*
D02*
G37*
G36*
X89530Y-45480D02*
X87705D01*
Y-47305D01*
X88133Y-47220D01*
X88919Y-46695D01*
X89445Y-45908D01*
X89530Y-45480D01*
D02*
G37*
G36*
X86705D02*
X84880D01*
X84965Y-45908D01*
X85490Y-46695D01*
X86277Y-47220D01*
X86705Y-47305D01*
Y-45480D01*
D02*
G37*
G36*
X379724Y-35795D02*
X378451Y-35921D01*
X377226Y-36292D01*
X376098Y-36895D01*
X375109Y-37707D01*
X374297Y-38696D01*
X373694Y-39825D01*
X373322Y-41049D01*
X373197Y-42323D01*
X373322Y-43596D01*
X373694Y-44821D01*
X374297Y-45949D01*
X375109Y-46938D01*
X376098Y-47750D01*
X377226Y-48353D01*
X378451Y-48725D01*
X379724Y-48850D01*
X380998Y-48725D01*
X382222Y-48353D01*
X383351Y-47750D01*
X384340Y-46938D01*
X385152Y-45949D01*
X385755Y-44821D01*
X386126Y-43596D01*
X386252Y-42323D01*
X386126Y-41049D01*
X385755Y-39825D01*
X385152Y-38696D01*
X384340Y-37707D01*
X383351Y-36895D01*
X382222Y-36292D01*
X380998Y-35921D01*
X379724Y-35795D01*
D02*
G37*
G36*
X315059Y-33328D02*
X314291Y-33480D01*
X313640Y-33915D01*
X307043Y-40513D01*
X231496D01*
X230728Y-40665D01*
X230077Y-41100D01*
X229642Y-41752D01*
X229489Y-42520D01*
Y-140901D01*
X192377Y-178013D01*
X162894D01*
X162126Y-178165D01*
X161475Y-178601D01*
X161039Y-179252D01*
X160887Y-180020D01*
X161039Y-180788D01*
X161475Y-181439D01*
X162126Y-181874D01*
X162894Y-182027D01*
X193209D01*
X193977Y-181874D01*
X194628Y-181439D01*
X232915Y-143151D01*
X233350Y-142500D01*
X233503Y-141732D01*
Y-44527D01*
X288716D01*
X289233Y-45314D01*
X289182Y-45571D01*
X289304Y-46185D01*
X289652Y-46706D01*
X289707Y-46743D01*
X291540Y-48576D01*
X291540Y-48576D01*
X292061Y-48924D01*
X292676Y-49047D01*
X292676Y-49047D01*
X302658D01*
X303272Y-48924D01*
X303793Y-48576D01*
X304141Y-48055D01*
X304263Y-47441D01*
X304141Y-46826D01*
X303793Y-46306D01*
X303272Y-45957D01*
X302658Y-45835D01*
X293341D01*
X292760Y-45254D01*
X293061Y-44527D01*
X307874D01*
X308642Y-44374D01*
X309293Y-43939D01*
X316478Y-36754D01*
X316913Y-36103D01*
X317066Y-35335D01*
X316913Y-34567D01*
X316478Y-33915D01*
X315827Y-33480D01*
X315059Y-33328D01*
D02*
G37*
G36*
X88591Y-48462D02*
Y-50287D01*
X90416D01*
X90330Y-49860D01*
X89805Y-49073D01*
X89018Y-48548D01*
X88591Y-48462D01*
D02*
G37*
G36*
X87590D02*
X87163Y-48548D01*
X86376Y-49073D01*
X85851Y-49860D01*
X85765Y-50287D01*
X87590D01*
Y-48462D01*
D02*
G37*
G36*
X264862Y-49085D02*
X264286Y-49200D01*
X263798Y-49526D01*
X263472Y-50015D01*
X263357Y-50591D01*
X263472Y-51167D01*
X263798Y-51655D01*
X264286Y-51981D01*
X264862Y-52096D01*
X265438Y-51981D01*
X265927Y-51655D01*
X266253Y-51167D01*
X266368Y-50591D01*
X266253Y-50015D01*
X265927Y-49526D01*
X265438Y-49200D01*
X264862Y-49085D01*
D02*
G37*
G36*
X90416Y-51287D02*
X88591D01*
Y-53113D01*
X89018Y-53027D01*
X89805Y-52502D01*
X90330Y-51715D01*
X90416Y-51287D01*
D02*
G37*
G36*
X87590D02*
X85765D01*
X85851Y-51715D01*
X86376Y-52502D01*
X87163Y-53027D01*
X87590Y-53113D01*
Y-51287D01*
D02*
G37*
G36*
X88591Y-54368D02*
Y-56193D01*
X90416D01*
X90330Y-55765D01*
X89805Y-54979D01*
X89018Y-54453D01*
X88591Y-54368D01*
D02*
G37*
G36*
X87590D02*
X87163Y-54453D01*
X86376Y-54979D01*
X85851Y-55765D01*
X85765Y-56193D01*
X87590D01*
Y-54368D01*
D02*
G37*
G36*
X6316Y-52338D02*
X5596Y-52433D01*
X4926Y-52711D01*
X4350Y-53153D01*
X3908Y-53728D01*
X3631Y-54399D01*
X3536Y-55118D01*
X3631Y-55838D01*
X3908Y-56508D01*
X4350Y-57084D01*
X4926Y-57525D01*
X5596Y-57803D01*
X6316Y-57898D01*
X7035Y-57803D01*
X7706Y-57525D01*
X8281Y-57084D01*
X8723Y-56508D01*
X9001Y-55838D01*
X9095Y-55118D01*
X9001Y-54399D01*
X8723Y-53728D01*
X8281Y-53153D01*
X7706Y-52711D01*
X7035Y-52433D01*
X6316Y-52338D01*
D02*
G37*
G36*
X20154Y-51279D02*
X12477D01*
Y-58957D01*
X20154D01*
Y-51279D01*
D02*
G37*
G36*
X90416Y-57193D02*
X88591D01*
Y-59018D01*
X89018Y-58933D01*
X89805Y-58407D01*
X90330Y-57621D01*
X90416Y-57193D01*
D02*
G37*
G36*
X87590D02*
X85765D01*
X85851Y-57621D01*
X86376Y-58407D01*
X87163Y-58933D01*
X87590Y-59018D01*
Y-57193D01*
D02*
G37*
G36*
X264724Y-56920D02*
X264148Y-57034D01*
X263660Y-57361D01*
X263334Y-57849D01*
X263219Y-58425D01*
X263334Y-59001D01*
X263660Y-59490D01*
X264148Y-59816D01*
X264724Y-59930D01*
X265300Y-59816D01*
X265789Y-59490D01*
X266115Y-59001D01*
X266230Y-58425D01*
X266115Y-57849D01*
X265789Y-57361D01*
X265300Y-57034D01*
X264724Y-56920D01*
D02*
G37*
G36*
X88394Y-60076D02*
Y-61902D01*
X90219D01*
X90134Y-61474D01*
X89608Y-60687D01*
X88822Y-60162D01*
X88394Y-60076D01*
D02*
G37*
G36*
X87394D02*
X86966Y-60162D01*
X86179Y-60687D01*
X85654Y-61474D01*
X85569Y-61902D01*
X87394D01*
Y-60076D01*
D02*
G37*
G36*
X90219Y-62902D02*
X88394D01*
Y-64727D01*
X88822Y-64641D01*
X89608Y-64116D01*
X90134Y-63329D01*
X90219Y-62902D01*
D02*
G37*
G36*
X87394D02*
X85569D01*
X85654Y-63329D01*
X86179Y-64116D01*
X86966Y-64641D01*
X87394Y-64727D01*
Y-62902D01*
D02*
G37*
G36*
X389016Y-60370D02*
X388296Y-60465D01*
X387626Y-60742D01*
X387050Y-61184D01*
X386609Y-61760D01*
X386331Y-62430D01*
X386236Y-63150D01*
X386331Y-63869D01*
X386609Y-64539D01*
X387050Y-65115D01*
X387626Y-65557D01*
X388296Y-65835D01*
X389016Y-65929D01*
X389735Y-65835D01*
X390406Y-65557D01*
X390981Y-65115D01*
X391423Y-64539D01*
X391701Y-63869D01*
X391795Y-63150D01*
X391701Y-62430D01*
X391423Y-61760D01*
X390981Y-61184D01*
X390406Y-60742D01*
X389735Y-60465D01*
X389016Y-60370D01*
D02*
G37*
G36*
X379016Y-59278D02*
X378014Y-59410D01*
X377080Y-59797D01*
X376278Y-60412D01*
X375663Y-61214D01*
X375276Y-62147D01*
X375144Y-63150D01*
X375276Y-64152D01*
X375663Y-65086D01*
X376278Y-65887D01*
X377080Y-66503D01*
X378014Y-66889D01*
X379016Y-67021D01*
X380018Y-66889D01*
X380952Y-66503D01*
X381753Y-65887D01*
X382369Y-65086D01*
X382755Y-64152D01*
X382887Y-63150D01*
X382755Y-62147D01*
X382369Y-61214D01*
X381753Y-60412D01*
X380952Y-59797D01*
X380018Y-59410D01*
X379016Y-59278D01*
D02*
G37*
G36*
X6316Y-62338D02*
X5596Y-62433D01*
X4926Y-62711D01*
X4350Y-63153D01*
X3908Y-63728D01*
X3631Y-64399D01*
X3536Y-65118D01*
X3631Y-65838D01*
X3908Y-66508D01*
X4350Y-67084D01*
X4926Y-67525D01*
X5596Y-67803D01*
X6316Y-67898D01*
X7035Y-67803D01*
X7706Y-67525D01*
X8281Y-67084D01*
X8723Y-66508D01*
X9001Y-65838D01*
X9095Y-65118D01*
X9001Y-64399D01*
X8723Y-63728D01*
X8281Y-63153D01*
X7706Y-62711D01*
X7035Y-62433D01*
X6316Y-62338D01*
D02*
G37*
G36*
X88492Y-67065D02*
Y-68890D01*
X90317D01*
X90232Y-68462D01*
X89706Y-67675D01*
X88920Y-67150D01*
X88492Y-67065D01*
D02*
G37*
G36*
X87492D02*
X87064Y-67150D01*
X86278Y-67675D01*
X85752Y-68462D01*
X85667Y-68890D01*
X87492D01*
Y-67065D01*
D02*
G37*
G36*
X16316Y-61246D02*
X15314Y-61378D01*
X14380Y-61765D01*
X13578Y-62380D01*
X12963Y-63182D01*
X12576Y-64116D01*
X12444Y-65118D01*
X12576Y-66120D01*
X12963Y-67054D01*
X13578Y-67856D01*
X14380Y-68471D01*
X15314Y-68858D01*
X16316Y-68990D01*
X17318Y-68858D01*
X18252Y-68471D01*
X19053Y-67856D01*
X19669Y-67054D01*
X20055Y-66120D01*
X20187Y-65118D01*
X20055Y-64116D01*
X19669Y-63182D01*
X19053Y-62380D01*
X18252Y-61765D01*
X17318Y-61378D01*
X16316Y-61246D01*
D02*
G37*
G36*
X90317Y-69890D02*
X88492D01*
Y-71715D01*
X88920Y-71630D01*
X89706Y-71104D01*
X90232Y-70318D01*
X90317Y-69890D01*
D02*
G37*
G36*
X87492D02*
X85667D01*
X85752Y-70318D01*
X86278Y-71104D01*
X87064Y-71630D01*
X87492Y-71715D01*
Y-69890D01*
D02*
G37*
G36*
X275020Y-69754D02*
X274444Y-69869D01*
X273955Y-70195D01*
X273629Y-70684D01*
X273514Y-71260D01*
X273629Y-71836D01*
X273955Y-72324D01*
X274444Y-72650D01*
X275020Y-72765D01*
X275596Y-72650D01*
X276084Y-72324D01*
X276410Y-71836D01*
X276525Y-71260D01*
X276410Y-70684D01*
X276084Y-70195D01*
X275596Y-69869D01*
X275020Y-69754D01*
D02*
G37*
G36*
X83472Y-73167D02*
Y-74992D01*
X85298D01*
X85212Y-74564D01*
X84687Y-73778D01*
X83900Y-73252D01*
X83472Y-73167D01*
D02*
G37*
G36*
X82472D02*
X82045Y-73252D01*
X81258Y-73778D01*
X80733Y-74564D01*
X80647Y-74992D01*
X82472D01*
Y-73167D01*
D02*
G37*
G36*
X389016Y-70370D02*
X388296Y-70465D01*
X387626Y-70742D01*
X387050Y-71184D01*
X386609Y-71760D01*
X386331Y-72430D01*
X386236Y-73150D01*
X386331Y-73869D01*
X386609Y-74539D01*
X387050Y-75115D01*
X387626Y-75557D01*
X388296Y-75835D01*
X389016Y-75929D01*
X389735Y-75835D01*
X390406Y-75557D01*
X390981Y-75115D01*
X391423Y-74539D01*
X391701Y-73869D01*
X391795Y-73150D01*
X391701Y-72430D01*
X391423Y-71760D01*
X390981Y-71184D01*
X390406Y-70742D01*
X389735Y-70465D01*
X389016Y-70370D01*
D02*
G37*
G36*
X382854Y-69311D02*
X375177D01*
Y-76988D01*
X382854D01*
Y-69311D01*
D02*
G37*
G36*
X85298Y-75992D02*
X80647D01*
X80733Y-76420D01*
X81258Y-77206D01*
X82045Y-77732D01*
X82600Y-77842D01*
X82741Y-78059D01*
X82918Y-78669D01*
X82504Y-79289D01*
X82419Y-79716D01*
X87069D01*
X86984Y-79289D01*
X86458Y-78502D01*
X85672Y-77977D01*
X85117Y-77866D01*
X84976Y-77649D01*
X84799Y-77039D01*
X85212Y-76420D01*
X85298Y-75992D01*
D02*
G37*
G36*
X57972Y-76959D02*
X57396Y-77074D01*
X56908Y-77400D01*
X56582Y-77889D01*
X56467Y-78465D01*
X56582Y-79041D01*
X56908Y-79529D01*
X57396Y-79855D01*
X57972Y-79970D01*
X58548Y-79855D01*
X59037Y-79529D01*
X59363Y-79041D01*
X59478Y-78465D01*
X59363Y-77889D01*
X59037Y-77400D01*
X58548Y-77074D01*
X57972Y-76959D01*
D02*
G37*
G36*
X265461Y-78826D02*
Y-80150D01*
X266784D01*
X266737Y-79914D01*
X266320Y-79290D01*
X265696Y-78873D01*
X265461Y-78826D01*
D02*
G37*
G36*
X264461D02*
X264225Y-78873D01*
X263601Y-79290D01*
X263184Y-79914D01*
X263137Y-80150D01*
X264461D01*
Y-78826D01*
D02*
G37*
G36*
X279370Y-79144D02*
X278794Y-79259D01*
X278306Y-79585D01*
X277979Y-80074D01*
X277865Y-80650D01*
X277979Y-81226D01*
X278306Y-81714D01*
X278794Y-82040D01*
X279370Y-82155D01*
X279946Y-82040D01*
X280434Y-81714D01*
X280761Y-81226D01*
X280875Y-80650D01*
X280761Y-80074D01*
X280434Y-79585D01*
X279946Y-79259D01*
X279370Y-79144D01*
D02*
G37*
G36*
X266784Y-81150D02*
X265461D01*
Y-82473D01*
X265696Y-82426D01*
X266320Y-82009D01*
X266737Y-81385D01*
X266784Y-81150D01*
D02*
G37*
G36*
X264461D02*
X263137D01*
X263184Y-81385D01*
X263601Y-82009D01*
X264225Y-82426D01*
X264461Y-82473D01*
Y-81150D01*
D02*
G37*
G36*
X87069Y-80717D02*
X85244D01*
Y-82542D01*
X85672Y-82456D01*
X86458Y-81931D01*
X86984Y-81144D01*
X87069Y-80717D01*
D02*
G37*
G36*
X84244D02*
X82419D01*
X82504Y-81144D01*
X83030Y-81931D01*
X83816Y-82456D01*
X84244Y-82542D01*
Y-80717D01*
D02*
G37*
G36*
X57874Y-83436D02*
X57298Y-83550D01*
X56810Y-83877D01*
X56483Y-84365D01*
X56369Y-84941D01*
X56483Y-85517D01*
X56810Y-86005D01*
X57298Y-86332D01*
X57874Y-86446D01*
X58450Y-86332D01*
X58938Y-86005D01*
X59265Y-85517D01*
X59379Y-84941D01*
X59265Y-84365D01*
X58938Y-83877D01*
X58450Y-83550D01*
X57874Y-83436D01*
D02*
G37*
G36*
X20488Y-83587D02*
X16740D01*
Y-87335D01*
X20488D01*
Y-83587D01*
D02*
G37*
G36*
X15740D02*
X11992D01*
Y-87335D01*
X15740D01*
Y-83587D01*
D02*
G37*
G36*
X6240Y-85055D02*
X5521Y-85150D01*
X4850Y-85427D01*
X4275Y-85869D01*
X3833Y-86445D01*
X3555Y-87115D01*
X3461Y-87835D01*
X3555Y-88554D01*
X3833Y-89224D01*
X4275Y-89800D01*
X4850Y-90242D01*
X5521Y-90520D01*
X6240Y-90614D01*
X6960Y-90520D01*
X7630Y-90242D01*
X8206Y-89800D01*
X8647Y-89224D01*
X8925Y-88554D01*
X9020Y-87835D01*
X8925Y-87115D01*
X8647Y-86445D01*
X8206Y-85869D01*
X7630Y-85427D01*
X6960Y-85150D01*
X6240Y-85055D01*
D02*
G37*
G36*
X20488Y-88335D02*
X16740D01*
Y-92083D01*
X20488D01*
Y-88335D01*
D02*
G37*
G36*
X15740D02*
X11992D01*
Y-92083D01*
X15740D01*
Y-88335D01*
D02*
G37*
G36*
X364094Y-42705D02*
X363480Y-42828D01*
X362959Y-43176D01*
X362611Y-43697D01*
X362489Y-44311D01*
Y-81973D01*
X349199Y-95262D01*
X348851Y-95783D01*
X348729Y-96398D01*
X348851Y-97012D01*
X349199Y-97533D01*
X349720Y-97881D01*
X350335Y-98003D01*
X350949Y-97881D01*
X351470Y-97533D01*
X365230Y-83773D01*
X365230Y-83773D01*
X365578Y-83252D01*
X365700Y-82638D01*
Y-44311D01*
X365578Y-43697D01*
X365230Y-43176D01*
X364709Y-42828D01*
X364094Y-42705D01*
D02*
G37*
G36*
X358642D02*
X358027Y-42828D01*
X357506Y-43176D01*
X357158Y-43697D01*
X357036Y-44311D01*
Y-70398D01*
X332644Y-94790D01*
X332296Y-95311D01*
X332174Y-95925D01*
X332174Y-95925D01*
Y-98366D01*
X332174Y-98366D01*
X332296Y-98981D01*
X332644Y-99502D01*
X332979Y-99836D01*
X332979Y-99836D01*
X333500Y-100184D01*
X334114Y-100306D01*
X334729Y-100184D01*
X335249Y-99836D01*
X335598Y-99315D01*
X335720Y-98701D01*
X335598Y-98086D01*
X335385Y-97768D01*
Y-96590D01*
X359777Y-72198D01*
X360125Y-71678D01*
X360247Y-71063D01*
X360247Y-71063D01*
Y-44311D01*
X360125Y-43697D01*
X359777Y-43176D01*
X359256Y-42828D01*
X358642Y-42705D01*
D02*
G37*
G36*
X6240Y-95055D02*
X5521Y-95150D01*
X4850Y-95427D01*
X4275Y-95869D01*
X3833Y-96445D01*
X3555Y-97115D01*
X3461Y-97835D01*
X3555Y-98554D01*
X3833Y-99225D01*
X4275Y-99800D01*
X4850Y-100242D01*
X5521Y-100520D01*
X6240Y-100614D01*
X6960Y-100520D01*
X7630Y-100242D01*
X8206Y-99800D01*
X8647Y-99225D01*
X8925Y-98554D01*
X9020Y-97835D01*
X8925Y-97115D01*
X8647Y-96445D01*
X8206Y-95869D01*
X7630Y-95427D01*
X6960Y-95150D01*
X6240Y-95055D01*
D02*
G37*
G36*
X16240Y-93963D02*
X15238Y-94095D01*
X14304Y-94482D01*
X13502Y-95097D01*
X12887Y-95899D01*
X12500Y-96833D01*
X12369Y-97835D01*
X12500Y-98837D01*
X12887Y-99770D01*
X13502Y-100572D01*
X14304Y-101188D01*
X15238Y-101574D01*
X16240Y-101706D01*
X17242Y-101574D01*
X18176Y-101188D01*
X18978Y-100572D01*
X19593Y-99770D01*
X19980Y-98837D01*
X20112Y-97835D01*
X19980Y-96833D01*
X19593Y-95899D01*
X18978Y-95097D01*
X18176Y-94482D01*
X17242Y-94095D01*
X16240Y-93963D01*
D02*
G37*
G36*
X271685Y-99467D02*
X271109Y-99582D01*
X270621Y-99908D01*
X270294Y-100396D01*
X270180Y-100972D01*
X270294Y-101549D01*
X270621Y-102037D01*
X271109Y-102363D01*
X271685Y-102478D01*
X272261Y-102363D01*
X272749Y-102037D01*
X273076Y-101549D01*
X273190Y-100972D01*
X273076Y-100396D01*
X272749Y-99908D01*
X272261Y-99582D01*
X271685Y-99467D01*
D02*
G37*
G36*
X110236Y-101644D02*
X109660Y-101759D01*
X109172Y-102085D01*
X108845Y-102574D01*
X108731Y-103150D01*
X108845Y-103726D01*
X109172Y-104214D01*
X109660Y-104540D01*
X110236Y-104655D01*
X110812Y-104540D01*
X111301Y-104214D01*
X111627Y-103726D01*
X111741Y-103150D01*
X111627Y-102574D01*
X111301Y-102085D01*
X110812Y-101759D01*
X110236Y-101644D01*
D02*
G37*
G36*
X116929Y-101841D02*
X116353Y-101956D01*
X115865Y-102282D01*
X115538Y-102770D01*
X115424Y-103347D01*
X115538Y-103922D01*
X115865Y-104411D01*
X116353Y-104737D01*
X116929Y-104852D01*
X117505Y-104737D01*
X117993Y-104411D01*
X118320Y-103922D01*
X118434Y-103347D01*
X118320Y-102770D01*
X117993Y-102282D01*
X117505Y-101956D01*
X116929Y-101841D01*
D02*
G37*
G36*
X389016Y-100803D02*
X388296Y-100898D01*
X387626Y-101175D01*
X387050Y-101617D01*
X386609Y-102193D01*
X386331Y-102863D01*
X386236Y-103583D01*
X386331Y-104302D01*
X386609Y-104973D01*
X387050Y-105548D01*
X387626Y-105990D01*
X388296Y-106268D01*
X389016Y-106362D01*
X389735Y-106268D01*
X390406Y-105990D01*
X390981Y-105548D01*
X391423Y-104973D01*
X391701Y-104302D01*
X391795Y-103583D01*
X391701Y-102863D01*
X391423Y-102193D01*
X390981Y-101617D01*
X390406Y-101175D01*
X389735Y-100898D01*
X389016Y-100803D01*
D02*
G37*
G36*
X379016Y-99711D02*
X378014Y-99843D01*
X377080Y-100230D01*
X376278Y-100845D01*
X375663Y-101647D01*
X375276Y-102581D01*
X375144Y-103583D01*
X375276Y-104585D01*
X375663Y-105518D01*
X376278Y-106320D01*
X377080Y-106936D01*
X378014Y-107323D01*
X379016Y-107454D01*
X380018Y-107323D01*
X380952Y-106936D01*
X381753Y-106320D01*
X382369Y-105518D01*
X382755Y-104585D01*
X382887Y-103583D01*
X382755Y-102581D01*
X382369Y-101647D01*
X381753Y-100845D01*
X380952Y-100230D01*
X380018Y-99843D01*
X379016Y-99711D01*
D02*
G37*
G36*
X271665Y-107070D02*
X271089Y-107184D01*
X270601Y-107510D01*
X270275Y-107999D01*
X270160Y-108575D01*
X270275Y-109151D01*
X270601Y-109639D01*
X271089Y-109966D01*
X271665Y-110080D01*
X272241Y-109966D01*
X272730Y-109639D01*
X273056Y-109151D01*
X273171Y-108575D01*
X273056Y-107999D01*
X272730Y-107510D01*
X272241Y-107184D01*
X271665Y-107070D01*
D02*
G37*
G36*
X204232Y-110995D02*
X203656Y-111109D01*
X203168Y-111436D01*
X202842Y-111924D01*
X202727Y-112500D01*
X202842Y-113076D01*
X203168Y-113564D01*
X203656Y-113891D01*
X204232Y-114005D01*
X204808Y-113891D01*
X205297Y-113564D01*
X205623Y-113076D01*
X205738Y-112500D01*
X205623Y-111924D01*
X205297Y-111436D01*
X204808Y-111109D01*
X204232Y-110995D01*
D02*
G37*
G36*
X20390Y-110614D02*
X16642D01*
Y-114362D01*
X20390D01*
Y-110614D01*
D02*
G37*
G36*
X15642D02*
X11894D01*
Y-114362D01*
X15642D01*
Y-110614D01*
D02*
G37*
G36*
X389016Y-110803D02*
X388296Y-110898D01*
X387626Y-111175D01*
X387050Y-111617D01*
X386609Y-112193D01*
X386331Y-112863D01*
X386236Y-113583D01*
X386331Y-114302D01*
X386609Y-114972D01*
X387050Y-115548D01*
X387626Y-115990D01*
X388296Y-116268D01*
X389016Y-116362D01*
X389735Y-116268D01*
X390406Y-115990D01*
X390981Y-115548D01*
X391423Y-114972D01*
X391701Y-114302D01*
X391795Y-113583D01*
X391701Y-112863D01*
X391423Y-112193D01*
X390981Y-111617D01*
X390406Y-111175D01*
X389735Y-110898D01*
X389016Y-110803D01*
D02*
G37*
G36*
X382854Y-109744D02*
X375177D01*
Y-117421D01*
X382854D01*
Y-109744D01*
D02*
G37*
G36*
X6142Y-112083D02*
X5422Y-112177D01*
X4752Y-112455D01*
X4176Y-112897D01*
X3734Y-113472D01*
X3457Y-114143D01*
X3362Y-114862D01*
X3457Y-115582D01*
X3734Y-116252D01*
X4176Y-116828D01*
X4752Y-117270D01*
X5422Y-117547D01*
X6142Y-117642D01*
X6861Y-117547D01*
X7532Y-117270D01*
X8107Y-116828D01*
X8549Y-116252D01*
X8827Y-115582D01*
X8921Y-114862D01*
X8827Y-114143D01*
X8549Y-113472D01*
X8107Y-112897D01*
X7532Y-112455D01*
X6861Y-112177D01*
X6142Y-112083D01*
D02*
G37*
G36*
X20390Y-115362D02*
X16642D01*
Y-119110D01*
X20390D01*
Y-115362D01*
D02*
G37*
G36*
X15642D02*
X11894D01*
Y-119110D01*
X15642D01*
Y-115362D01*
D02*
G37*
G36*
X204732Y-118255D02*
Y-119579D01*
X206056D01*
X206009Y-119343D01*
X205592Y-118719D01*
X204968Y-118302D01*
X204732Y-118255D01*
D02*
G37*
G36*
X96161Y-121487D02*
X95585Y-121601D01*
X95097Y-121928D01*
X94771Y-122416D01*
X94656Y-122992D01*
X94771Y-123568D01*
X95097Y-124056D01*
X95585Y-124383D01*
X96161Y-124497D01*
X96737Y-124383D01*
X97226Y-124056D01*
X97552Y-123568D01*
X97667Y-122992D01*
X97552Y-122416D01*
X97226Y-121928D01*
X96737Y-121601D01*
X96161Y-121487D01*
D02*
G37*
G36*
X6142Y-122082D02*
X5422Y-122177D01*
X4752Y-122455D01*
X4176Y-122897D01*
X3734Y-123472D01*
X3457Y-124143D01*
X3362Y-124862D01*
X3457Y-125582D01*
X3734Y-126252D01*
X4176Y-126828D01*
X4752Y-127269D01*
X5422Y-127547D01*
X6142Y-127642D01*
X6861Y-127547D01*
X7532Y-127269D01*
X8107Y-126828D01*
X8549Y-126252D01*
X8827Y-125582D01*
X8921Y-124862D01*
X8827Y-124143D01*
X8549Y-123472D01*
X8107Y-122897D01*
X7532Y-122455D01*
X6861Y-122177D01*
X6142Y-122082D01*
D02*
G37*
G36*
X125315Y-125069D02*
X124739Y-125184D01*
X124250Y-125510D01*
X123924Y-125999D01*
X123810Y-126575D01*
X123924Y-127151D01*
X124250Y-127639D01*
X124739Y-127965D01*
X125315Y-128080D01*
X125891Y-127965D01*
X126379Y-127639D01*
X126706Y-127151D01*
X126820Y-126575D01*
X126706Y-125999D01*
X126379Y-125510D01*
X125891Y-125184D01*
X125315Y-125069D01*
D02*
G37*
G36*
X16142Y-120991D02*
X15140Y-121122D01*
X14206Y-121509D01*
X13404Y-122125D01*
X12789Y-122926D01*
X12402Y-123860D01*
X12270Y-124862D01*
X12402Y-125864D01*
X12789Y-126798D01*
X13404Y-127600D01*
X14206Y-128215D01*
X15140Y-128602D01*
X16142Y-128734D01*
X17144Y-128602D01*
X18078Y-128215D01*
X18879Y-127600D01*
X19495Y-126798D01*
X19882Y-125864D01*
X20013Y-124862D01*
X19882Y-123860D01*
X19495Y-122926D01*
X18879Y-122125D01*
X18078Y-121509D01*
X17144Y-121122D01*
X16142Y-120991D01*
D02*
G37*
G36*
X204232Y-125829D02*
X203656Y-125944D01*
X203168Y-126270D01*
X202842Y-126758D01*
X202727Y-127334D01*
X202842Y-127910D01*
X203168Y-128399D01*
X203656Y-128725D01*
X204232Y-128840D01*
X204808Y-128725D01*
X205297Y-128399D01*
X205623Y-127910D01*
X205738Y-127334D01*
X205623Y-126758D01*
X205297Y-126270D01*
X204808Y-125944D01*
X204232Y-125829D01*
D02*
G37*
G36*
X263197Y-128787D02*
Y-130110D01*
X264520D01*
X264473Y-129874D01*
X264056Y-129251D01*
X263433Y-128834D01*
X263197Y-128787D01*
D02*
G37*
G36*
X262197D02*
X261961Y-128834D01*
X261337Y-129251D01*
X260920Y-129874D01*
X260874Y-130110D01*
X262197D01*
Y-128787D01*
D02*
G37*
G36*
X276654Y-129243D02*
X276078Y-129357D01*
X275589Y-129684D01*
X275263Y-130172D01*
X275148Y-130748D01*
X275263Y-131324D01*
X275589Y-131812D01*
X276078Y-132139D01*
X276654Y-132253D01*
X277230Y-132139D01*
X277718Y-131812D01*
X278044Y-131324D01*
X278159Y-130748D01*
X278044Y-130172D01*
X277718Y-129684D01*
X277230Y-129357D01*
X276654Y-129243D01*
D02*
G37*
G36*
X264520Y-131110D02*
X263197D01*
Y-132433D01*
X263433Y-132387D01*
X264056Y-131970D01*
X264473Y-131346D01*
X264520Y-131110D01*
D02*
G37*
G36*
X262197D02*
X260874D01*
X260920Y-131346D01*
X261337Y-131970D01*
X261961Y-132387D01*
X262197Y-132433D01*
Y-131110D01*
D02*
G37*
G36*
X204232Y-132845D02*
X203656Y-132960D01*
X203168Y-133286D01*
X202842Y-133774D01*
X202727Y-134350D01*
X202842Y-134926D01*
X203168Y-135415D01*
X203656Y-135741D01*
X204232Y-135856D01*
X204808Y-135741D01*
X205297Y-135415D01*
X205623Y-134926D01*
X205738Y-134350D01*
X205623Y-133774D01*
X205297Y-133286D01*
X204808Y-132960D01*
X204232Y-132845D01*
D02*
G37*
G36*
X125984Y-138652D02*
X125408Y-138767D01*
X124920Y-139093D01*
X124593Y-139581D01*
X124479Y-140157D01*
X124593Y-140734D01*
X124920Y-141222D01*
X125408Y-141548D01*
X125984Y-141663D01*
X126560Y-141548D01*
X127049Y-141222D01*
X127375Y-140734D01*
X127489Y-140157D01*
X127375Y-139581D01*
X127049Y-139093D01*
X126560Y-138767D01*
X125984Y-138652D01*
D02*
G37*
G36*
X151091Y-140893D02*
Y-142217D01*
X152414D01*
X152367Y-141981D01*
X151950Y-141357D01*
X151326Y-140940D01*
X151091Y-140893D01*
D02*
G37*
G36*
X150091D02*
X149855Y-140940D01*
X149231Y-141357D01*
X148814Y-141981D01*
X148767Y-142217D01*
X150091D01*
Y-140893D01*
D02*
G37*
G36*
Y-143217D02*
X148767D01*
X148814Y-143452D01*
X149231Y-144076D01*
X149855Y-144493D01*
X150091Y-144540D01*
Y-143217D01*
D02*
G37*
G36*
X136764Y-144437D02*
Y-145760D01*
X138087D01*
X138040Y-145524D01*
X137623Y-144900D01*
X136999Y-144483D01*
X136764Y-144437D01*
D02*
G37*
G36*
X135764D02*
X135528Y-144483D01*
X134904Y-144900D01*
X134487Y-145524D01*
X134440Y-145760D01*
X135764D01*
Y-144437D01*
D02*
G37*
G36*
X96496Y-144833D02*
X95920Y-144948D01*
X95432Y-145274D01*
X95105Y-145763D01*
X94991Y-146339D01*
X95105Y-146915D01*
X95432Y-147403D01*
X95920Y-147729D01*
X96496Y-147844D01*
X97072Y-147729D01*
X97561Y-147403D01*
X97887Y-146915D01*
X98001Y-146339D01*
X97887Y-145763D01*
X97561Y-145274D01*
X97072Y-144948D01*
X96496Y-144833D01*
D02*
G37*
G36*
X138087Y-146760D02*
X136764D01*
Y-148083D01*
X136999Y-148036D01*
X137623Y-147619D01*
X138040Y-146996D01*
X138087Y-146760D01*
D02*
G37*
G36*
X135764D02*
X134440D01*
X134487Y-146996D01*
X134904Y-147619D01*
X135528Y-148036D01*
X135764Y-148083D01*
Y-146760D01*
D02*
G37*
G36*
X152414Y-143217D02*
X151091D01*
Y-144660D01*
X151428Y-145276D01*
X151261Y-145525D01*
X151154Y-146063D01*
X151261Y-146601D01*
X151501Y-146960D01*
X151561Y-147082D01*
X151408Y-147898D01*
X151369Y-147924D01*
X151064Y-148380D01*
X150957Y-148917D01*
X151064Y-149455D01*
X151369Y-149911D01*
X151824Y-150215D01*
X152362Y-150322D01*
X152900Y-150215D01*
X153040Y-150122D01*
X160982D01*
X163159Y-152299D01*
X162948Y-153136D01*
X162913Y-153166D01*
X162321Y-153562D01*
X161905Y-154185D01*
X161858Y-154421D01*
X163681D01*
Y-154921D01*
X164181D01*
Y-156745D01*
X164417Y-156698D01*
X165041Y-156281D01*
X165436Y-155690D01*
X165467Y-155655D01*
X166303Y-155443D01*
X167693Y-156833D01*
X167726Y-156998D01*
X168030Y-157454D01*
X168146Y-157531D01*
X168323Y-158468D01*
X164527Y-162264D01*
X164527Y-162264D01*
X160666Y-166125D01*
X160405Y-166516D01*
X160313Y-166976D01*
X160379Y-167307D01*
X160173Y-167721D01*
X159343Y-167943D01*
X156442Y-165041D01*
X156051Y-164780D01*
X155590Y-164689D01*
X155129Y-164780D01*
X155088Y-164808D01*
X154839Y-164758D01*
X154588Y-164808D01*
X154548Y-164780D01*
X154087Y-164689D01*
X153626Y-164780D01*
X153235Y-165041D01*
X153068Y-165208D01*
X152807Y-165599D01*
X152716Y-166060D01*
X152807Y-166521D01*
X152834Y-166562D01*
X152785Y-166812D01*
X152834Y-167062D01*
X152807Y-167103D01*
X152716Y-167563D01*
X152249Y-168029D01*
X151789Y-168121D01*
X151748Y-168148D01*
X151498Y-168099D01*
X151248Y-168148D01*
X151207Y-168121D01*
X150746Y-168029D01*
X150285Y-168121D01*
X149895Y-168382D01*
X149728Y-168549D01*
X149467Y-168940D01*
X149375Y-169401D01*
X149467Y-169862D01*
X149494Y-169902D01*
X149444Y-170152D01*
X149494Y-170402D01*
X149467Y-170443D01*
X149375Y-170904D01*
X148909Y-171370D01*
X148448Y-171462D01*
X148407Y-171489D01*
X148157Y-171439D01*
X147907Y-171489D01*
X147866Y-171462D01*
X147746Y-171438D01*
X147279Y-171171D01*
X146952Y-170658D01*
X146933Y-170566D01*
X146906Y-170525D01*
X146956Y-170275D01*
X146906Y-170025D01*
X146933Y-169984D01*
X147025Y-169523D01*
X146933Y-169063D01*
X146672Y-168672D01*
X140383Y-162383D01*
X141875Y-160891D01*
X141875Y-160891D01*
X142066Y-160605D01*
X142237Y-160505D01*
X142370Y-160459D01*
X142968Y-160354D01*
X143202Y-160511D01*
X143740Y-160618D01*
X144278Y-160511D01*
X144734Y-160206D01*
X145038Y-159750D01*
X145145Y-159213D01*
X145498Y-158783D01*
X147202D01*
X147226Y-158904D01*
X147530Y-159360D01*
X147986Y-159664D01*
X148524Y-159771D01*
X149061Y-159664D01*
X149217Y-159560D01*
X149774Y-159423D01*
X150330Y-159560D01*
X150486Y-159664D01*
X151024Y-159771D01*
X151561Y-159664D01*
X152017Y-159360D01*
X152322Y-158904D01*
X152429Y-158366D01*
X152322Y-157828D01*
X152017Y-157373D01*
X151561Y-157068D01*
X151024Y-156961D01*
X150486Y-157068D01*
X150330Y-157172D01*
X149774Y-157309D01*
X149217Y-157172D01*
X149061Y-157068D01*
X148896Y-157035D01*
X148588Y-156727D01*
X148197Y-156466D01*
X147736Y-156375D01*
X147736Y-156375D01*
X139986D01*
X139986Y-156375D01*
X139525Y-156466D01*
X139134Y-156727D01*
X114207Y-181654D01*
X113946Y-182045D01*
X113855Y-182506D01*
X113855Y-182506D01*
Y-186417D01*
X113928Y-186788D01*
X113879Y-186975D01*
X113465Y-187575D01*
X105984D01*
X105524Y-187667D01*
X105133Y-187928D01*
X104872Y-188319D01*
X104862Y-188367D01*
X104650Y-188508D01*
X104509Y-188720D01*
X104461Y-188730D01*
X104070Y-188991D01*
X103809Y-189382D01*
X103717Y-189843D01*
Y-190079D01*
X103809Y-190540D01*
X104070Y-190930D01*
X104461Y-191191D01*
X104509Y-191201D01*
X104650Y-191413D01*
X104862Y-191554D01*
X104872Y-191603D01*
X105133Y-191993D01*
Y-192652D01*
X104872Y-193043D01*
X104862Y-193091D01*
X104650Y-193233D01*
X104509Y-193445D01*
X104461Y-193454D01*
X104070Y-193715D01*
X103809Y-194106D01*
X103717Y-194567D01*
Y-194803D01*
X103809Y-195264D01*
X104070Y-195655D01*
X104461Y-195916D01*
X104509Y-195925D01*
X104650Y-196137D01*
X104862Y-196279D01*
X104872Y-196327D01*
X105133Y-196718D01*
Y-197377D01*
X104872Y-197767D01*
X104862Y-197816D01*
X104650Y-197957D01*
X104509Y-198169D01*
X104461Y-198179D01*
X104070Y-198440D01*
X103809Y-198830D01*
X103717Y-199291D01*
Y-199528D01*
X103809Y-199988D01*
X104070Y-200379D01*
X104461Y-200640D01*
X104509Y-200650D01*
X104650Y-200862D01*
X104862Y-201003D01*
X104872Y-201051D01*
X105133Y-201442D01*
Y-202101D01*
X104872Y-202492D01*
X104862Y-202540D01*
X104650Y-202682D01*
X104509Y-202894D01*
X104461Y-202903D01*
X104070Y-203164D01*
X103809Y-203555D01*
X103717Y-204016D01*
Y-204252D01*
X103809Y-204713D01*
X104070Y-205103D01*
X104461Y-205365D01*
X104509Y-205374D01*
X104650Y-205586D01*
X104862Y-205728D01*
X104872Y-205776D01*
X105133Y-206167D01*
Y-206826D01*
X104936Y-207121D01*
X104921Y-207126D01*
X104346Y-207196D01*
X104303Y-207194D01*
X103977Y-206996D01*
X103919Y-206908D01*
X103430Y-206582D01*
X102854Y-206467D01*
X102278Y-206582D01*
X101790Y-206908D01*
X101464Y-207396D01*
X101349Y-207972D01*
X101464Y-208548D01*
X100844Y-209038D01*
X93405Y-201600D01*
X93119Y-201172D01*
X92664Y-200867D01*
X92126Y-200760D01*
X91588Y-200867D01*
X91132Y-201172D01*
X90485Y-201369D01*
X90029Y-201064D01*
X89491Y-200957D01*
X88954Y-201064D01*
X88498Y-201369D01*
X88193Y-201824D01*
X88086Y-202362D01*
X88193Y-202900D01*
X88498Y-203356D01*
X88925Y-203642D01*
X107534Y-222250D01*
Y-246831D01*
X107633Y-247330D01*
X107916Y-247753D01*
X114584Y-254421D01*
X114558Y-254590D01*
X114235Y-255186D01*
X103150D01*
X102535Y-255308D01*
X102014Y-255656D01*
X101666Y-256177D01*
X101544Y-256791D01*
X101666Y-257406D01*
X102014Y-257927D01*
X101759Y-258676D01*
X101644Y-259252D01*
X101759Y-259828D01*
X102043Y-260254D01*
X101731Y-260462D01*
X101314Y-261086D01*
X101267Y-261322D01*
X104914D01*
X104867Y-261086D01*
X104450Y-260462D01*
X104219Y-260308D01*
X104540Y-259828D01*
X104655Y-259252D01*
X104641Y-259184D01*
X105229Y-258397D01*
X114469D01*
X115083Y-258275D01*
X115604Y-257927D01*
X115952Y-257406D01*
X116035Y-256986D01*
X116588Y-256714D01*
X116839Y-256676D01*
X143307Y-283144D01*
X143593Y-283572D01*
X144049Y-283877D01*
X144587Y-283984D01*
X145124Y-283877D01*
X145396Y-283695D01*
X146300Y-283738D01*
X146349Y-283749D01*
X146805Y-284054D01*
X147343Y-284161D01*
X147880Y-284054D01*
X148336Y-283749D01*
X148641Y-283294D01*
X148748Y-282756D01*
X148641Y-282218D01*
X148336Y-281763D01*
X147908Y-281477D01*
X116376Y-249944D01*
X116447Y-249468D01*
X116460Y-249435D01*
X116685Y-249140D01*
X117674D01*
X117675Y-249140D01*
X118135Y-249048D01*
X118526Y-248787D01*
X119808Y-247505D01*
X119808Y-247505D01*
X120069Y-247114D01*
X120161Y-246654D01*
Y-246349D01*
X120948Y-245937D01*
X121097Y-246036D01*
X121249Y-246067D01*
X151381Y-276198D01*
X151804Y-276481D01*
X152303Y-276580D01*
X157328D01*
X157473Y-276699D01*
X157883Y-277368D01*
X157825Y-277658D01*
X157940Y-278234D01*
X158266Y-278722D01*
X158755Y-279048D01*
X159331Y-279163D01*
X159907Y-279048D01*
X160395Y-278722D01*
X160721Y-278234D01*
X160836Y-277658D01*
X160778Y-277368D01*
X161004Y-277000D01*
X161727Y-276666D01*
X162303Y-276781D01*
X162879Y-276666D01*
X163368Y-276340D01*
X163694Y-275852D01*
X163808Y-275276D01*
X163794Y-275202D01*
X163872Y-275012D01*
X163930Y-274933D01*
X164465Y-274544D01*
X164823Y-274616D01*
X165399Y-274501D01*
X165887Y-274175D01*
X166214Y-273686D01*
X166328Y-273110D01*
X166214Y-272534D01*
X165887Y-272046D01*
X165399Y-271720D01*
X164823Y-271605D01*
X164247Y-271720D01*
X164246Y-271720D01*
X163987Y-271613D01*
X163583Y-271018D01*
X163594Y-270965D01*
X163472Y-270350D01*
X163124Y-269829D01*
X163025Y-269731D01*
X162504Y-269383D01*
X161890Y-269261D01*
X161890Y-269261D01*
X160882D01*
X157927Y-266306D01*
X158429Y-265694D01*
X158537Y-265767D01*
X159075Y-265874D01*
X159612Y-265767D01*
X160068Y-265462D01*
X160373Y-265006D01*
X160480Y-264469D01*
X160373Y-263931D01*
X160068Y-263475D01*
X159612Y-263171D01*
X159583Y-263165D01*
X159324Y-262310D01*
X194307Y-227327D01*
X194534Y-227282D01*
X194844Y-227075D01*
X194993Y-226978D01*
X195758Y-227135D01*
X196214Y-227440D01*
X196752Y-227547D01*
X197290Y-227440D01*
X197745Y-227135D01*
X198050Y-226679D01*
X198157Y-226142D01*
X198050Y-225604D01*
X197745Y-225148D01*
X197290Y-224844D01*
X196752Y-224737D01*
X196214Y-224844D01*
X195905Y-225051D01*
X195755Y-225148D01*
X194990Y-224991D01*
X194534Y-224686D01*
X193996Y-224579D01*
X193458Y-224686D01*
X193003Y-224991D01*
X192698Y-225447D01*
X192677Y-225551D01*
X156973Y-261255D01*
X156746Y-261300D01*
X156290Y-261605D01*
X155985Y-262061D01*
X155878Y-262598D01*
X155953Y-262975D01*
X155772Y-263342D01*
X155378Y-263720D01*
X155339Y-263718D01*
X147733Y-256112D01*
X147818Y-255741D01*
X148050Y-255316D01*
X148484Y-255229D01*
X148973Y-254903D01*
X149299Y-254415D01*
X149414Y-253839D01*
X149299Y-253262D01*
X148973Y-252774D01*
X148484Y-252448D01*
X147908Y-252333D01*
X147332Y-252448D01*
X146844Y-252774D01*
X146518Y-253262D01*
X146431Y-253696D01*
X146005Y-253929D01*
X145635Y-254014D01*
X138197Y-246576D01*
X138225Y-246364D01*
X138507Y-245773D01*
X138835Y-245708D01*
X139291Y-245403D01*
X139595Y-244947D01*
X139702Y-244409D01*
X139595Y-243872D01*
X139497Y-243724D01*
Y-242864D01*
X139791Y-242636D01*
X140284Y-242382D01*
X140728Y-242470D01*
X141304Y-242355D01*
X141793Y-242029D01*
X142119Y-241541D01*
X142134Y-241466D01*
X142937D01*
X142940Y-241482D01*
X143266Y-241970D01*
X143755Y-242296D01*
X144331Y-242411D01*
X144907Y-242296D01*
X145395Y-241970D01*
X145721Y-241482D01*
X145836Y-240905D01*
X145721Y-240330D01*
X145616Y-240171D01*
Y-234514D01*
X145682Y-234415D01*
X145797Y-233839D01*
X145682Y-233262D01*
X145356Y-232774D01*
X144867Y-232448D01*
X144291Y-232333D01*
X143715Y-232448D01*
X143227Y-232774D01*
X142901Y-233262D01*
X142786Y-233839D01*
X142901Y-234415D01*
X143006Y-234573D01*
Y-239574D01*
X142219Y-239891D01*
X142003Y-239666D01*
Y-236330D01*
X142060Y-236245D01*
X142175Y-235669D01*
X142060Y-235093D01*
X141734Y-234605D01*
X141245Y-234279D01*
X140669Y-234164D01*
X140284Y-234241D01*
X139696Y-233913D01*
X139497Y-233730D01*
Y-231379D01*
X139585Y-231246D01*
X139618Y-231081D01*
X151619Y-219080D01*
X151619Y-219080D01*
X151880Y-218689D01*
X151972Y-218228D01*
X151972Y-218228D01*
Y-216131D01*
X152066Y-215990D01*
X152173Y-215453D01*
X152066Y-214915D01*
X151761Y-214459D01*
X151305Y-214155D01*
X150768Y-214048D01*
X150113Y-213375D01*
Y-205748D01*
X150556Y-205305D01*
X150556Y-205305D01*
X150656Y-205155D01*
X150698Y-205127D01*
X151003Y-204672D01*
X151110Y-204134D01*
X151003Y-203596D01*
X150698Y-203140D01*
X150242Y-202836D01*
X149705Y-202729D01*
X149167Y-202836D01*
X148711Y-203140D01*
X148407Y-203596D01*
X148300Y-204134D01*
X148303Y-204152D01*
X148057Y-204398D01*
X147796Y-204789D01*
X147705Y-205249D01*
X147705Y-205249D01*
Y-215701D01*
X133998Y-229407D01*
X133832Y-229440D01*
X133377Y-229745D01*
X133072Y-230201D01*
X132965Y-230738D01*
X133072Y-231276D01*
X133377Y-231732D01*
X133832Y-232036D01*
X134370Y-232143D01*
X134908Y-232036D01*
X135363Y-231732D01*
X135668Y-231276D01*
X135684Y-231197D01*
X136224Y-230848D01*
X136973Y-231162D01*
X136989Y-231246D01*
X137088Y-231394D01*
Y-243739D01*
X136999Y-243872D01*
X136934Y-244199D01*
X136343Y-244482D01*
X136131Y-244510D01*
X127533Y-235912D01*
X127012Y-235564D01*
X126398Y-235442D01*
X125783Y-235564D01*
X125262Y-235912D01*
X124914Y-236433D01*
X124792Y-237047D01*
X124914Y-237662D01*
X125262Y-238183D01*
X158158Y-271078D01*
X157857Y-271806D01*
X154103D01*
X123153Y-240856D01*
X123123Y-240704D01*
X122797Y-240215D01*
X122308Y-239889D01*
X121732Y-239774D01*
X121156Y-239889D01*
X120948Y-240028D01*
X120161Y-239664D01*
Y-238263D01*
X120948Y-237770D01*
X121219Y-237824D01*
X121795Y-237710D01*
X122283Y-237383D01*
X122609Y-236895D01*
X122724Y-236319D01*
X122609Y-235743D01*
X122283Y-235255D01*
X121795Y-234928D01*
X121219Y-234814D01*
X120643Y-234928D01*
X120226Y-235206D01*
X120154Y-235255D01*
X119229Y-235223D01*
X118330Y-234324D01*
Y-233302D01*
X118805Y-232912D01*
X119343Y-232805D01*
X119799Y-232501D01*
X120103Y-232045D01*
X120210Y-231507D01*
X120681Y-231216D01*
X121219Y-231109D01*
X121675Y-230804D01*
X121979Y-230349D01*
X122086Y-229811D01*
X121979Y-229273D01*
X121675Y-228818D01*
X121614Y-228200D01*
X140738Y-209075D01*
X140738Y-209075D01*
X140999Y-208684D01*
X141091Y-208223D01*
X141091Y-208223D01*
Y-206761D01*
X141878Y-206523D01*
X142046Y-206773D01*
X142534Y-207099D01*
X143110Y-207214D01*
X143686Y-207099D01*
X144175Y-206773D01*
X144501Y-206285D01*
X144615Y-205709D01*
X144501Y-205133D01*
X144175Y-204644D01*
X143686Y-204318D01*
X143110Y-204203D01*
X142534Y-204318D01*
X142046Y-204644D01*
X141878Y-204895D01*
X141091Y-204656D01*
Y-188944D01*
X141175Y-188524D01*
X141109Y-188193D01*
X141315Y-187779D01*
X142145Y-187557D01*
X143914Y-189327D01*
X144305Y-189588D01*
X144766Y-189680D01*
X145227Y-189588D01*
X145268Y-189561D01*
X145518Y-189610D01*
X145767Y-189561D01*
X145808Y-189588D01*
X146269Y-189680D01*
X146730Y-189588D01*
X147121Y-189327D01*
X147288Y-189160D01*
X147549Y-188769D01*
X147641Y-188308D01*
X147549Y-187847D01*
X147521Y-187807D01*
X147571Y-187557D01*
X147521Y-187307D01*
X147549Y-187266D01*
X147640Y-186805D01*
X148107Y-186339D01*
X148567Y-186247D01*
X148608Y-186220D01*
X148858Y-186270D01*
X149108Y-186220D01*
X149149Y-186247D01*
X149610Y-186339D01*
X150071Y-186247D01*
X150461Y-185986D01*
X150628Y-185819D01*
X150889Y-185429D01*
X150981Y-184968D01*
X150889Y-184507D01*
X150862Y-184466D01*
X150912Y-184216D01*
X150862Y-183966D01*
X150889Y-183925D01*
X150981Y-183464D01*
X151682Y-182952D01*
X151908Y-182907D01*
X151949Y-182879D01*
X152199Y-182929D01*
X152449Y-182879D01*
X152490Y-182907D01*
X152951Y-182998D01*
X153411Y-182907D01*
X153802Y-182646D01*
X153969Y-182478D01*
X154230Y-182088D01*
X154322Y-181627D01*
X154230Y-181166D01*
X154203Y-181125D01*
X154253Y-180875D01*
X154203Y-180625D01*
X154230Y-180585D01*
X154322Y-180124D01*
X154788Y-179658D01*
X155249Y-179566D01*
X155289Y-179539D01*
X155540Y-179588D01*
X155789Y-179539D01*
X155830Y-179566D01*
X156291Y-179658D01*
X156752Y-179566D01*
X157143Y-179305D01*
X157310Y-179138D01*
X157571Y-178747D01*
X157662Y-178286D01*
X157571Y-177825D01*
X157543Y-177785D01*
X157593Y-177535D01*
X157543Y-177285D01*
X157571Y-177244D01*
X157662Y-176783D01*
X158128Y-176317D01*
X158589Y-176225D01*
X158630Y-176198D01*
X158880Y-176248D01*
X159130Y-176198D01*
X159171Y-176225D01*
X159632Y-176317D01*
X160093Y-176225D01*
X160483Y-175964D01*
X160650Y-175797D01*
X160911Y-175407D01*
X161003Y-174946D01*
X160911Y-174485D01*
X160884Y-174444D01*
X160934Y-174194D01*
X160884Y-173944D01*
X160911Y-173903D01*
X161003Y-173442D01*
X161469Y-172976D01*
X161930Y-172885D01*
X161971Y-172857D01*
X162221Y-172907D01*
X162471Y-172857D01*
X162512Y-172885D01*
X162972Y-172976D01*
X163433Y-172885D01*
X163824Y-172624D01*
X163991Y-172457D01*
X164252Y-172066D01*
X164344Y-171605D01*
X164252Y-171144D01*
X164225Y-171103D01*
X164275Y-170853D01*
X164225Y-170603D01*
X164252Y-170563D01*
X164344Y-170102D01*
X164252Y-169641D01*
X163991Y-169250D01*
X162469Y-167728D01*
X166230Y-163967D01*
X166230Y-163967D01*
X173994Y-156203D01*
X174160Y-156170D01*
X174616Y-155866D01*
X174920Y-155410D01*
X175027Y-154872D01*
X174920Y-154334D01*
X174616Y-153879D01*
X174160Y-153574D01*
X173622Y-153467D01*
X173084Y-153574D01*
X172889Y-153705D01*
X172041Y-153853D01*
X171585Y-153549D01*
X171047Y-153442D01*
X170510Y-153549D01*
X170054Y-153853D01*
X169749Y-154309D01*
X169739Y-154359D01*
X168885Y-154619D01*
X164978Y-150712D01*
X165366Y-149986D01*
X165551Y-150023D01*
X182491D01*
X182632Y-150117D01*
X183169Y-150224D01*
X183707Y-150117D01*
X184163Y-149812D01*
X184467Y-149356D01*
X184574Y-148819D01*
X184467Y-148281D01*
X184163Y-147826D01*
X183707Y-147521D01*
X183169Y-147414D01*
X182632Y-147521D01*
X182491Y-147615D01*
X166050D01*
X165517Y-147081D01*
X165126Y-146820D01*
X164665Y-146729D01*
X164665Y-146729D01*
X154928D01*
X153890Y-145691D01*
X153857Y-145525D01*
X153552Y-145070D01*
X153097Y-144765D01*
X152559Y-144658D01*
X152417Y-144686D01*
X152197Y-144398D01*
X152027Y-143961D01*
X152367Y-143452D01*
X152414Y-143217D01*
D02*
G37*
G36*
X6316Y-146315D02*
X5596Y-146409D01*
X4926Y-146687D01*
X4350Y-147129D01*
X3908Y-147705D01*
X3631Y-148375D01*
X3536Y-149094D01*
X3631Y-149814D01*
X3908Y-150484D01*
X4350Y-151060D01*
X4926Y-151502D01*
X5596Y-151779D01*
X6316Y-151874D01*
X7035Y-151779D01*
X7706Y-151502D01*
X8281Y-151060D01*
X8723Y-150484D01*
X9001Y-149814D01*
X9095Y-149094D01*
X9001Y-148375D01*
X8723Y-147705D01*
X8281Y-147129D01*
X7706Y-146687D01*
X7035Y-146409D01*
X6316Y-146315D01*
D02*
G37*
G36*
X285394Y-144390D02*
X277520D01*
Y-152264D01*
X285394D01*
Y-144390D01*
D02*
G37*
G36*
X271457Y-144356D02*
X270429Y-144491D01*
X269471Y-144888D01*
X268649Y-145519D01*
X268018Y-146341D01*
X267621Y-147299D01*
X267486Y-148327D01*
X267621Y-149355D01*
X268018Y-150312D01*
X268649Y-151135D01*
X269471Y-151766D01*
X270429Y-152162D01*
X271457Y-152298D01*
X272484Y-152162D01*
X273442Y-151766D01*
X274265Y-151135D01*
X274896Y-150312D01*
X275292Y-149355D01*
X275428Y-148327D01*
X275292Y-147299D01*
X274896Y-146341D01*
X274265Y-145519D01*
X273442Y-144888D01*
X272484Y-144491D01*
X271457Y-144356D01*
D02*
G37*
G36*
X261457D02*
X260429Y-144491D01*
X259471Y-144888D01*
X258649Y-145519D01*
X258018Y-146341D01*
X257621Y-147299D01*
X257486Y-148327D01*
X257621Y-149355D01*
X258018Y-150312D01*
X258649Y-151135D01*
X259471Y-151766D01*
X260429Y-152162D01*
X261457Y-152298D01*
X262485Y-152162D01*
X263442Y-151766D01*
X264265Y-151135D01*
X264896Y-150312D01*
X265292Y-149355D01*
X265428Y-148327D01*
X265292Y-147299D01*
X264896Y-146341D01*
X264265Y-145519D01*
X263442Y-144888D01*
X262485Y-144491D01*
X261457Y-144356D01*
D02*
G37*
G36*
X251457D02*
X250429Y-144491D01*
X249471Y-144888D01*
X248649Y-145519D01*
X248018Y-146341D01*
X247621Y-147299D01*
X247486Y-148327D01*
X247621Y-149355D01*
X248018Y-150312D01*
X248649Y-151135D01*
X249471Y-151766D01*
X250429Y-152162D01*
X251457Y-152298D01*
X252484Y-152162D01*
X253442Y-151766D01*
X254265Y-151135D01*
X254896Y-150312D01*
X255292Y-149355D01*
X255428Y-148327D01*
X255292Y-147299D01*
X254896Y-146341D01*
X254265Y-145519D01*
X253442Y-144888D01*
X252484Y-144491D01*
X251457Y-144356D01*
D02*
G37*
G36*
X20154Y-145256D02*
X12477D01*
Y-152933D01*
X20154D01*
Y-145256D01*
D02*
G37*
G36*
X179890Y-152950D02*
Y-154274D01*
X181213D01*
X181166Y-154038D01*
X180749Y-153414D01*
X180126Y-152997D01*
X179890Y-152950D01*
D02*
G37*
G36*
X178890D02*
X178654Y-152997D01*
X178030Y-153414D01*
X177613Y-154038D01*
X177567Y-154274D01*
X178890D01*
Y-152950D01*
D02*
G37*
G36*
X156898Y-153177D02*
Y-154500D01*
X158221D01*
X158174Y-154264D01*
X157757Y-153640D01*
X157133Y-153224D01*
X156898Y-153177D01*
D02*
G37*
G36*
X155898D02*
X155662Y-153224D01*
X155038Y-153640D01*
X154621Y-154264D01*
X154574Y-154500D01*
X155898D01*
Y-153177D01*
D02*
G37*
G36*
X203732Y-118255D02*
X203497Y-118302D01*
X202873Y-118719D01*
X202456Y-119343D01*
X202396Y-119644D01*
X193463Y-128577D01*
X193115Y-129098D01*
X192993Y-129712D01*
X192993Y-129712D01*
Y-154052D01*
X192822Y-154307D01*
X192775Y-154543D01*
X196422D01*
X196375Y-154307D01*
X196204Y-154052D01*
Y-130377D01*
X204667Y-121915D01*
X204968Y-121855D01*
X205592Y-121438D01*
X206009Y-120814D01*
X206056Y-120579D01*
X204232D01*
Y-120079D01*
X203732D01*
Y-118255D01*
D02*
G37*
G36*
X187008Y-153219D02*
X186432Y-153334D01*
X185943Y-153660D01*
X185617Y-154148D01*
X185503Y-154724D01*
X185617Y-155300D01*
X185943Y-155789D01*
X186432Y-156115D01*
X187008Y-156230D01*
X187584Y-156115D01*
X188072Y-155789D01*
X188399Y-155300D01*
X188513Y-154724D01*
X188399Y-154148D01*
X188072Y-153660D01*
X187584Y-153334D01*
X187008Y-153219D01*
D02*
G37*
G36*
X309114Y-153357D02*
X308538Y-153472D01*
X308050Y-153798D01*
X307723Y-154286D01*
X307609Y-154862D01*
X307723Y-155438D01*
X308050Y-155927D01*
X308538Y-156253D01*
X309114Y-156368D01*
X309690Y-156253D01*
X310179Y-155927D01*
X310505Y-155438D01*
X310619Y-154862D01*
X310505Y-154286D01*
X310179Y-153798D01*
X309690Y-153472D01*
X309114Y-153357D01*
D02*
G37*
G36*
X388140Y-150882D02*
X387420Y-150977D01*
X386750Y-151254D01*
X386174Y-151696D01*
X385733Y-152272D01*
X385455Y-152942D01*
X385360Y-153661D01*
X385455Y-154381D01*
X385733Y-155051D01*
X386174Y-155627D01*
X386750Y-156069D01*
X387420Y-156346D01*
X388140Y-156441D01*
X388859Y-156346D01*
X389530Y-156069D01*
X390105Y-155627D01*
X390547Y-155051D01*
X390825Y-154381D01*
X390919Y-153661D01*
X390825Y-152942D01*
X390547Y-152272D01*
X390105Y-151696D01*
X389530Y-151254D01*
X388859Y-150977D01*
X388140Y-150882D01*
D02*
G37*
G36*
X181213Y-155274D02*
X179890D01*
Y-156597D01*
X180126Y-156550D01*
X180749Y-156133D01*
X181166Y-155509D01*
X181213Y-155274D01*
D02*
G37*
G36*
X178890D02*
X177567D01*
X177613Y-155509D01*
X178030Y-156133D01*
X178654Y-156550D01*
X178890Y-156597D01*
Y-155274D01*
D02*
G37*
G36*
X163181Y-155421D02*
X161858D01*
X161905Y-155657D01*
X162321Y-156281D01*
X162945Y-156698D01*
X163181Y-156745D01*
Y-155421D01*
D02*
G37*
G36*
X158221Y-155500D02*
X156898D01*
Y-156823D01*
X157133Y-156776D01*
X157757Y-156360D01*
X158174Y-155736D01*
X158221Y-155500D01*
D02*
G37*
G36*
X155898D02*
X154574D01*
X154621Y-155736D01*
X155038Y-156360D01*
X155662Y-156776D01*
X155898Y-156823D01*
Y-155500D01*
D02*
G37*
G36*
X196422Y-155543D02*
X195098D01*
Y-156867D01*
X195334Y-156820D01*
X195958Y-156403D01*
X196375Y-155779D01*
X196422Y-155543D01*
D02*
G37*
G36*
X194098D02*
X192775D01*
X192822Y-155779D01*
X193239Y-156403D01*
X193863Y-156820D01*
X194098Y-156867D01*
Y-155543D01*
D02*
G37*
G36*
X378140Y-149790D02*
X377138Y-149922D01*
X376204Y-150308D01*
X375402Y-150924D01*
X374787Y-151726D01*
X374400Y-152659D01*
X374268Y-153661D01*
X374400Y-154664D01*
X374787Y-155597D01*
X375402Y-156399D01*
X376204Y-157014D01*
X377138Y-157401D01*
X378140Y-157533D01*
X379142Y-157401D01*
X380076Y-157014D01*
X380877Y-156399D01*
X381493Y-155597D01*
X381879Y-154664D01*
X382012Y-153661D01*
X381879Y-152659D01*
X381493Y-151726D01*
X380877Y-150924D01*
X380076Y-150308D01*
X379142Y-149922D01*
X378140Y-149790D01*
D02*
G37*
G36*
X125591Y-157589D02*
X125014Y-157704D01*
X124526Y-158030D01*
X124200Y-158518D01*
X124085Y-159095D01*
X124200Y-159670D01*
X124526Y-160159D01*
X125014Y-160485D01*
X125591Y-160600D01*
X126167Y-160485D01*
X126655Y-160159D01*
X126981Y-159670D01*
X127096Y-159095D01*
X126981Y-158518D01*
X126655Y-158030D01*
X126167Y-157704D01*
X125591Y-157589D01*
D02*
G37*
G36*
X59646Y-158140D02*
X59070Y-158255D01*
X58581Y-158581D01*
X58255Y-159070D01*
X58140Y-159646D01*
X58255Y-160222D01*
X58581Y-160710D01*
X59070Y-161036D01*
X59646Y-161151D01*
X60222Y-161036D01*
X60710Y-160710D01*
X61036Y-160222D01*
X61151Y-159646D01*
X61036Y-159070D01*
X60710Y-158581D01*
X60222Y-158255D01*
X59646Y-158140D01*
D02*
G37*
G36*
X117776Y-158731D02*
X117200Y-158845D01*
X116711Y-159172D01*
X116385Y-159660D01*
X116270Y-160236D01*
X116385Y-160812D01*
X116711Y-161301D01*
X117200Y-161627D01*
X117776Y-161741D01*
X118352Y-161627D01*
X118840Y-161301D01*
X119166Y-160812D01*
X119281Y-160236D01*
X119166Y-159660D01*
X118840Y-159172D01*
X118352Y-158845D01*
X117776Y-158731D01*
D02*
G37*
G36*
X6316Y-156315D02*
X5596Y-156410D01*
X4926Y-156687D01*
X4350Y-157129D01*
X3908Y-157705D01*
X3631Y-158375D01*
X3536Y-159095D01*
X3631Y-159814D01*
X3908Y-160484D01*
X4350Y-161060D01*
X4926Y-161502D01*
X5596Y-161779D01*
X6316Y-161874D01*
X7035Y-161779D01*
X7706Y-161502D01*
X8281Y-161060D01*
X8723Y-160484D01*
X9001Y-159814D01*
X9095Y-159095D01*
X9001Y-158375D01*
X8723Y-157705D01*
X8281Y-157129D01*
X7706Y-156687D01*
X7035Y-156410D01*
X6316Y-156315D01*
D02*
G37*
G36*
X16316Y-155223D02*
X15314Y-155355D01*
X14380Y-155742D01*
X13578Y-156357D01*
X12963Y-157159D01*
X12576Y-158092D01*
X12444Y-159095D01*
X12576Y-160097D01*
X12963Y-161030D01*
X13578Y-161832D01*
X14380Y-162448D01*
X15314Y-162834D01*
X16316Y-162966D01*
X17318Y-162834D01*
X18252Y-162448D01*
X19053Y-161832D01*
X19669Y-161030D01*
X20055Y-160097D01*
X20187Y-159095D01*
X20055Y-158092D01*
X19669Y-157159D01*
X19053Y-156357D01*
X18252Y-155742D01*
X17318Y-155355D01*
X16316Y-155223D01*
D02*
G37*
G36*
X279784Y-160247D02*
X279207Y-160361D01*
X279079Y-160447D01*
X273071D01*
X272572Y-160547D01*
X272148Y-160829D01*
X267450Y-165528D01*
X267298Y-165558D01*
X266810Y-165884D01*
X266483Y-166373D01*
X266369Y-166949D01*
X266483Y-167525D01*
X266810Y-168013D01*
X267298Y-168340D01*
X267874Y-168454D01*
X268450Y-168340D01*
X268938Y-168013D01*
X269265Y-167525D01*
X269295Y-167373D01*
X273611Y-163057D01*
X279079D01*
X279207Y-163143D01*
X279784Y-163257D01*
X280360Y-163143D01*
X280848Y-162816D01*
X281174Y-162328D01*
X281289Y-161752D01*
X281174Y-161176D01*
X280848Y-160688D01*
X280360Y-160361D01*
X279784Y-160247D01*
D02*
G37*
G36*
X174303Y-165499D02*
X174067Y-165546D01*
X173603Y-165857D01*
X168268D01*
X167862Y-165586D01*
X167626Y-165539D01*
Y-167362D01*
Y-169185D01*
X167862Y-169139D01*
X168268Y-168868D01*
X173721D01*
X174067Y-169099D01*
X174303Y-169146D01*
Y-167323D01*
Y-165499D01*
D02*
G37*
G36*
X388140Y-160882D02*
X387420Y-160977D01*
X386750Y-161254D01*
X386174Y-161696D01*
X385733Y-162272D01*
X385455Y-162942D01*
X385360Y-163661D01*
X385455Y-164381D01*
X385733Y-165051D01*
X386174Y-165627D01*
X386750Y-166069D01*
X387420Y-166346D01*
X388140Y-166441D01*
X388859Y-166346D01*
X389530Y-166069D01*
X390105Y-165627D01*
X390547Y-165051D01*
X390825Y-164381D01*
X390919Y-163661D01*
X390825Y-162942D01*
X390547Y-162272D01*
X390105Y-161696D01*
X389530Y-161254D01*
X388859Y-160977D01*
X388140Y-160882D01*
D02*
G37*
G36*
X175303Y-165499D02*
Y-166823D01*
X176627D01*
X176580Y-166587D01*
X176163Y-165963D01*
X175539Y-165546D01*
X175303Y-165499D01*
D02*
G37*
G36*
X166626Y-165539D02*
X166390Y-165586D01*
X165766Y-166003D01*
X165350Y-166626D01*
X165303Y-166862D01*
X166626D01*
Y-165539D01*
D02*
G37*
G36*
X381978Y-159823D02*
X374301D01*
Y-167500D01*
X381978D01*
Y-159823D01*
D02*
G37*
G36*
X176627Y-167823D02*
X175303D01*
Y-169146D01*
X175539Y-169099D01*
X176163Y-168682D01*
X176580Y-168059D01*
X176627Y-167823D01*
D02*
G37*
G36*
X166626Y-167862D02*
X165303D01*
X165350Y-168098D01*
X165766Y-168722D01*
X166390Y-169139D01*
X166626Y-169185D01*
Y-167862D01*
D02*
G37*
G36*
X96850Y-158721D02*
X96082Y-158874D01*
X95431Y-159309D01*
X94996Y-159960D01*
X94843Y-160728D01*
X94996Y-161496D01*
X95431Y-162148D01*
X105175Y-171892D01*
X105826Y-172327D01*
X106595Y-172479D01*
X107363Y-172327D01*
X108014Y-171892D01*
X108449Y-171240D01*
X108601Y-170472D01*
X108449Y-169704D01*
X108014Y-169053D01*
X98270Y-159309D01*
X97619Y-158874D01*
X96850Y-158721D01*
D02*
G37*
G36*
X320315Y-177373D02*
X319739Y-177487D01*
X319251Y-177814D01*
X318924Y-178302D01*
X318810Y-178878D01*
X318924Y-179454D01*
X319251Y-179942D01*
X319739Y-180269D01*
X320315Y-180383D01*
X320891Y-180269D01*
X321379Y-179942D01*
X321706Y-179454D01*
X321820Y-178878D01*
X321706Y-178302D01*
X321379Y-177814D01*
X320891Y-177487D01*
X320315Y-177373D01*
D02*
G37*
G36*
X324980Y-178377D02*
X324404Y-178491D01*
X323916Y-178817D01*
X323590Y-179306D01*
X323475Y-179882D01*
X323590Y-180458D01*
X323916Y-180946D01*
X324404Y-181273D01*
X324980Y-181387D01*
X325556Y-181273D01*
X326045Y-180946D01*
X326371Y-180458D01*
X326486Y-179882D01*
X326371Y-179306D01*
X326045Y-178817D01*
X325556Y-178491D01*
X324980Y-178377D01*
D02*
G37*
G36*
X347756Y-180129D02*
X347180Y-180243D01*
X346691Y-180570D01*
X346365Y-181058D01*
X346251Y-181634D01*
X346365Y-182210D01*
X346691Y-182698D01*
X347180Y-183025D01*
X347756Y-183139D01*
X348332Y-183025D01*
X348820Y-182698D01*
X349147Y-182210D01*
X349261Y-181634D01*
X349147Y-181058D01*
X348820Y-180570D01*
X348332Y-180243D01*
X347756Y-180129D01*
D02*
G37*
G36*
X339705Y-180148D02*
X339129Y-180263D01*
X338640Y-180589D01*
X338314Y-181078D01*
X338199Y-181653D01*
X338314Y-182230D01*
X338640Y-182718D01*
X339129Y-183044D01*
X339705Y-183159D01*
X340281Y-183044D01*
X340769Y-182718D01*
X341095Y-182230D01*
X341210Y-181653D01*
X341095Y-181078D01*
X340769Y-180589D01*
X340281Y-180263D01*
X339705Y-180148D01*
D02*
G37*
G36*
X104535Y-183537D02*
Y-184861D01*
X105859D01*
X105812Y-184625D01*
X105395Y-184001D01*
X104771Y-183584D01*
X104535Y-183537D01*
D02*
G37*
G36*
X103535D02*
X103300Y-183584D01*
X102676Y-184001D01*
X102259Y-184625D01*
X102212Y-184861D01*
X103535D01*
Y-183537D01*
D02*
G37*
G36*
X105859Y-185861D02*
X104535D01*
Y-187184D01*
X104771Y-187137D01*
X105395Y-186720D01*
X105812Y-186097D01*
X105859Y-185861D01*
D02*
G37*
G36*
X103535D02*
X102212D01*
X102259Y-186097D01*
X102676Y-186720D01*
X103300Y-187137D01*
X103535Y-187184D01*
Y-185861D01*
D02*
G37*
G36*
X6316Y-182850D02*
X5596Y-182945D01*
X4926Y-183223D01*
X4350Y-183664D01*
X3908Y-184240D01*
X3631Y-184911D01*
X3536Y-185630D01*
X3631Y-186349D01*
X3908Y-187020D01*
X4350Y-187595D01*
X4926Y-188037D01*
X5596Y-188315D01*
X6316Y-188410D01*
X7035Y-188315D01*
X7706Y-188037D01*
X8281Y-187595D01*
X8723Y-187020D01*
X9001Y-186349D01*
X9095Y-185630D01*
X9001Y-184911D01*
X8723Y-184240D01*
X8281Y-183664D01*
X7706Y-183223D01*
X7035Y-182945D01*
X6316Y-182850D01*
D02*
G37*
G36*
X158268Y-185798D02*
X157692Y-185912D01*
X157203Y-186239D01*
X156877Y-186727D01*
X156762Y-187303D01*
X156877Y-187879D01*
X157203Y-188368D01*
X157692Y-188694D01*
X158268Y-188808D01*
X158844Y-188694D01*
X159332Y-188368D01*
X159658Y-187879D01*
X159773Y-187303D01*
X159658Y-186727D01*
X159332Y-186239D01*
X158844Y-185912D01*
X158268Y-185798D01*
D02*
G37*
G36*
X20154Y-181791D02*
X12477D01*
Y-189469D01*
X20154D01*
Y-181791D01*
D02*
G37*
G36*
X79331Y-184225D02*
X78793Y-184332D01*
X78337Y-184636D01*
X78033Y-185092D01*
X77926Y-185630D01*
X78026Y-186134D01*
Y-191425D01*
X77926Y-191929D01*
X78033Y-192467D01*
X78337Y-192923D01*
X78793Y-193227D01*
X79331Y-193334D01*
X79868Y-193227D01*
X80324Y-192923D01*
X80629Y-192467D01*
X80736Y-191929D01*
X80635Y-191425D01*
Y-186134D01*
X80736Y-185630D01*
X80629Y-185092D01*
X80324Y-184636D01*
X79868Y-184332D01*
X79331Y-184225D01*
D02*
G37*
G36*
X231181Y-191172D02*
X230605Y-191287D01*
X230117Y-191613D01*
X229790Y-192101D01*
X229676Y-192677D01*
X229790Y-193253D01*
X230117Y-193742D01*
X230605Y-194068D01*
X231181Y-194183D01*
X231757Y-194068D01*
X232245Y-193742D01*
X232572Y-193253D01*
X232686Y-192677D01*
X232572Y-192101D01*
X232245Y-191613D01*
X231757Y-191287D01*
X231181Y-191172D01*
D02*
G37*
G36*
X369921Y-191684D02*
X369345Y-191798D01*
X368857Y-192125D01*
X368531Y-192613D01*
X368416Y-193189D01*
X368531Y-193765D01*
X368857Y-194253D01*
X369345Y-194580D01*
X369921Y-194694D01*
X370497Y-194580D01*
X370986Y-194253D01*
X371312Y-193765D01*
X371427Y-193189D01*
X371312Y-192613D01*
X370986Y-192125D01*
X370497Y-191798D01*
X369921Y-191684D01*
D02*
G37*
G36*
X248543Y-193239D02*
X247967Y-193353D01*
X247479Y-193680D01*
X247153Y-194168D01*
X247038Y-194744D01*
X247153Y-195320D01*
X247479Y-195808D01*
X247967Y-196135D01*
X248543Y-196249D01*
X249119Y-196135D01*
X249608Y-195808D01*
X249934Y-195320D01*
X250049Y-194744D01*
X249934Y-194168D01*
X249608Y-193680D01*
X249119Y-193353D01*
X248543Y-193239D01*
D02*
G37*
G36*
X6316Y-192850D02*
X5596Y-192945D01*
X4926Y-193223D01*
X4350Y-193664D01*
X3908Y-194240D01*
X3631Y-194911D01*
X3536Y-195630D01*
X3631Y-196349D01*
X3908Y-197020D01*
X4350Y-197596D01*
X4926Y-198037D01*
X5596Y-198315D01*
X6316Y-198410D01*
X7035Y-198315D01*
X7706Y-198037D01*
X8281Y-197596D01*
X8723Y-197020D01*
X9001Y-196349D01*
X9095Y-195630D01*
X9001Y-194911D01*
X8723Y-194240D01*
X8281Y-193664D01*
X7706Y-193223D01*
X7035Y-192945D01*
X6316Y-192850D01*
D02*
G37*
G36*
X302224Y-195699D02*
X301648Y-195814D01*
X301160Y-196140D01*
X300834Y-196629D01*
X300719Y-197205D01*
X300834Y-197781D01*
X301160Y-198269D01*
X301648Y-198595D01*
X302224Y-198710D01*
X302800Y-198595D01*
X303289Y-198269D01*
X303615Y-197781D01*
X303730Y-197205D01*
X303615Y-196629D01*
X303289Y-196140D01*
X302800Y-195814D01*
X302224Y-195699D01*
D02*
G37*
G36*
X16316Y-191758D02*
X15314Y-191890D01*
X14380Y-192277D01*
X13578Y-192892D01*
X12963Y-193694D01*
X12576Y-194628D01*
X12444Y-195630D01*
X12576Y-196632D01*
X12963Y-197566D01*
X13578Y-198368D01*
X14380Y-198983D01*
X15314Y-199370D01*
X16316Y-199502D01*
X17318Y-199370D01*
X18252Y-198983D01*
X19053Y-198368D01*
X19669Y-197566D01*
X20055Y-196632D01*
X20187Y-195630D01*
X20055Y-194628D01*
X19669Y-193694D01*
X19053Y-192892D01*
X18252Y-192277D01*
X17318Y-191890D01*
X16316Y-191758D01*
D02*
G37*
G36*
X59055Y-197707D02*
X58479Y-197822D01*
X57991Y-198148D01*
X57664Y-198637D01*
X57550Y-199213D01*
X57664Y-199789D01*
X57991Y-200277D01*
X58479Y-200603D01*
X59055Y-200718D01*
X59631Y-200603D01*
X60119Y-200277D01*
X60446Y-199789D01*
X60560Y-199213D01*
X60446Y-198637D01*
X60119Y-198148D01*
X59631Y-197822D01*
X59055Y-197707D01*
D02*
G37*
G36*
X179350Y-207136D02*
X178774Y-207251D01*
X178286Y-207577D01*
X177960Y-208066D01*
X177845Y-208642D01*
X177960Y-209218D01*
X178286Y-209706D01*
X178774Y-210032D01*
X179350Y-210147D01*
X179926Y-210032D01*
X180415Y-209706D01*
X180741Y-209218D01*
X180856Y-208642D01*
X180741Y-208066D01*
X180415Y-207577D01*
X179926Y-207251D01*
X179350Y-207136D01*
D02*
G37*
G36*
X163386Y-207353D02*
X162810Y-207468D01*
X162321Y-207794D01*
X161995Y-208282D01*
X161881Y-208858D01*
X161995Y-209434D01*
X162321Y-209923D01*
X162810Y-210249D01*
X163386Y-210364D01*
X163962Y-210249D01*
X164450Y-209923D01*
X164777Y-209434D01*
X164891Y-208858D01*
X164777Y-208282D01*
X164450Y-207794D01*
X163962Y-207468D01*
X163386Y-207353D01*
D02*
G37*
G36*
X282874Y-207983D02*
X282298Y-208098D01*
X281810Y-208424D01*
X281483Y-208912D01*
X281369Y-209488D01*
X281483Y-210064D01*
X281810Y-210553D01*
X282298Y-210879D01*
X282874Y-210994D01*
X283450Y-210879D01*
X283938Y-210553D01*
X284265Y-210064D01*
X284379Y-209488D01*
X284265Y-208912D01*
X283938Y-208424D01*
X283450Y-208098D01*
X282874Y-207983D01*
D02*
G37*
G36*
X274843Y-209459D02*
X274267Y-209574D01*
X273778Y-209900D01*
X273452Y-210388D01*
X273337Y-210965D01*
X273452Y-211541D01*
X273778Y-212029D01*
X274267Y-212355D01*
X274843Y-212470D01*
X275419Y-212355D01*
X275907Y-212029D01*
X276233Y-211541D01*
X276348Y-210965D01*
X276233Y-210388D01*
X275907Y-209900D01*
X275419Y-209574D01*
X274843Y-209459D01*
D02*
G37*
G36*
X91339Y-212077D02*
X90763Y-212192D01*
X90274Y-212518D01*
X89948Y-213007D01*
X89833Y-213583D01*
X89948Y-214159D01*
X90274Y-214647D01*
X90763Y-214973D01*
X91339Y-215088D01*
X91915Y-214973D01*
X92403Y-214647D01*
X92729Y-214159D01*
X92844Y-213583D01*
X92729Y-213007D01*
X92403Y-212518D01*
X91915Y-212192D01*
X91339Y-212077D01*
D02*
G37*
G36*
X279921Y-213180D02*
X279345Y-213294D01*
X279216Y-213381D01*
X275217D01*
X274717Y-213480D01*
X274294Y-213763D01*
X264596Y-223461D01*
X264444Y-223491D01*
X263955Y-223817D01*
X263629Y-224306D01*
X263514Y-224882D01*
X263629Y-225458D01*
X263955Y-225946D01*
X264444Y-226273D01*
X265020Y-226387D01*
X265596Y-226273D01*
X266084Y-225946D01*
X266410Y-225458D01*
X266441Y-225306D01*
X275757Y-215990D01*
X279216D01*
X279345Y-216076D01*
X279921Y-216190D01*
X280497Y-216076D01*
X280986Y-215749D01*
X281312Y-215261D01*
X281427Y-214685D01*
X281312Y-214109D01*
X280986Y-213621D01*
X280497Y-213294D01*
X279921Y-213180D01*
D02*
G37*
G36*
X388140Y-217811D02*
X387420Y-217906D01*
X386750Y-218183D01*
X386174Y-218625D01*
X385733Y-219201D01*
X385455Y-219871D01*
X385360Y-220590D01*
X385455Y-221310D01*
X385733Y-221980D01*
X386174Y-222556D01*
X386750Y-222998D01*
X387420Y-223275D01*
X388140Y-223370D01*
X388859Y-223275D01*
X389530Y-222998D01*
X390105Y-222556D01*
X390547Y-221980D01*
X390825Y-221310D01*
X390919Y-220590D01*
X390825Y-219871D01*
X390547Y-219201D01*
X390105Y-218625D01*
X389530Y-218183D01*
X388859Y-217906D01*
X388140Y-217811D01*
D02*
G37*
G36*
X378140Y-216719D02*
X377138Y-216851D01*
X376204Y-217238D01*
X375402Y-217853D01*
X374787Y-218655D01*
X374400Y-219588D01*
X374268Y-220590D01*
X374400Y-221593D01*
X374787Y-222526D01*
X375402Y-223328D01*
X376204Y-223943D01*
X377138Y-224330D01*
X378140Y-224462D01*
X379142Y-224330D01*
X380076Y-223943D01*
X380877Y-223328D01*
X381493Y-222526D01*
X381879Y-221593D01*
X382012Y-220590D01*
X381879Y-219588D01*
X381493Y-218655D01*
X380877Y-217853D01*
X380076Y-217238D01*
X379142Y-216851D01*
X378140Y-216719D01*
D02*
G37*
G36*
X91839Y-225736D02*
Y-227059D01*
X93162D01*
X93115Y-226823D01*
X92698Y-226200D01*
X92074Y-225783D01*
X91839Y-225736D01*
D02*
G37*
G36*
X90839D02*
X90603Y-225783D01*
X89979Y-226200D01*
X89562Y-226823D01*
X89515Y-227059D01*
X90839D01*
Y-225736D01*
D02*
G37*
G36*
X329075Y-225896D02*
X328499Y-226011D01*
X328010Y-226337D01*
X327684Y-226825D01*
X327570Y-227402D01*
X327684Y-227978D01*
X328010Y-228466D01*
X328499Y-228792D01*
X329075Y-228907D01*
X329651Y-228792D01*
X330139Y-228466D01*
X330466Y-227978D01*
X330580Y-227402D01*
X330466Y-226825D01*
X330139Y-226337D01*
X329651Y-226011D01*
X329075Y-225896D01*
D02*
G37*
G36*
X93162Y-228059D02*
X91839D01*
Y-229382D01*
X92074Y-229335D01*
X92698Y-228919D01*
X93115Y-228295D01*
X93162Y-228059D01*
D02*
G37*
G36*
X90839D02*
X89515D01*
X89562Y-228295D01*
X89979Y-228919D01*
X90603Y-229335D01*
X90839Y-229382D01*
Y-228059D01*
D02*
G37*
G36*
X175303Y-228767D02*
Y-230090D01*
X176627D01*
X176580Y-229855D01*
X176163Y-229231D01*
X175539Y-228814D01*
X175303Y-228767D01*
D02*
G37*
G36*
X174303D02*
X174067Y-228814D01*
X173444Y-229231D01*
X173027Y-229855D01*
X172980Y-230090D01*
X174303D01*
Y-228767D01*
D02*
G37*
G36*
X152261Y-229740D02*
Y-231063D01*
X153585D01*
X153538Y-230827D01*
X153121Y-230203D01*
X152497Y-229787D01*
X152261Y-229740D01*
D02*
G37*
G36*
X151261D02*
X151025Y-229787D01*
X150402Y-230203D01*
X149985Y-230827D01*
X149938Y-231063D01*
X151261D01*
Y-229740D01*
D02*
G37*
G36*
X319587Y-229046D02*
X319011Y-229160D01*
X318522Y-229487D01*
X318196Y-229975D01*
X318081Y-230551D01*
X318196Y-231127D01*
X318522Y-231616D01*
X319011Y-231942D01*
X319587Y-232056D01*
X320163Y-231942D01*
X320651Y-231616D01*
X320977Y-231127D01*
X321092Y-230551D01*
X320977Y-229975D01*
X320651Y-229487D01*
X320163Y-229160D01*
X319587Y-229046D01*
D02*
G37*
G36*
X126490Y-229241D02*
X125914Y-229355D01*
X125425Y-229682D01*
X125099Y-230170D01*
X124985Y-230746D01*
X125099Y-231322D01*
X125425Y-231810D01*
X125914Y-232137D01*
X126490Y-232251D01*
X127066Y-232137D01*
X127554Y-231810D01*
X127881Y-231322D01*
X127995Y-230746D01*
X127881Y-230170D01*
X127554Y-229682D01*
X127066Y-229355D01*
X126490Y-229241D01*
D02*
G37*
G36*
X176627Y-231090D02*
X175303D01*
Y-232414D01*
X175539Y-232367D01*
X176163Y-231950D01*
X176580Y-231326D01*
X176627Y-231090D01*
D02*
G37*
G36*
X174303D02*
X172980D01*
X173027Y-231326D01*
X173444Y-231950D01*
X174067Y-232367D01*
X174303Y-232414D01*
Y-231090D01*
D02*
G37*
G36*
X157616Y-229631D02*
X157040Y-229745D01*
X156551Y-230072D01*
X156225Y-230560D01*
X156110Y-231136D01*
X156225Y-231712D01*
X156551Y-232200D01*
X157040Y-232527D01*
X157616Y-232641D01*
X158192Y-232527D01*
X158680Y-232200D01*
X159006Y-231712D01*
X159121Y-231136D01*
X159006Y-230560D01*
X158680Y-230072D01*
X158192Y-229745D01*
X157616Y-229631D01*
D02*
G37*
G36*
X388140Y-227811D02*
X387420Y-227906D01*
X386750Y-228183D01*
X386174Y-228625D01*
X385733Y-229201D01*
X385455Y-229871D01*
X385360Y-230591D01*
X385455Y-231310D01*
X385733Y-231980D01*
X386174Y-232556D01*
X386750Y-232998D01*
X387420Y-233276D01*
X388140Y-233370D01*
X388859Y-233276D01*
X389530Y-232998D01*
X390105Y-232556D01*
X390547Y-231980D01*
X390825Y-231310D01*
X390919Y-230591D01*
X390825Y-229871D01*
X390547Y-229201D01*
X390105Y-228625D01*
X389530Y-228183D01*
X388859Y-227906D01*
X388140Y-227811D01*
D02*
G37*
G36*
X153585Y-232063D02*
X152261D01*
Y-233386D01*
X152497Y-233339D01*
X153121Y-232923D01*
X153538Y-232299D01*
X153585Y-232063D01*
D02*
G37*
G36*
X151261D02*
X149938D01*
X149985Y-232299D01*
X150402Y-232923D01*
X151025Y-233339D01*
X151261Y-233386D01*
Y-232063D01*
D02*
G37*
G36*
X8071Y-227414D02*
X7249Y-227522D01*
X6482Y-227839D01*
X5824Y-228344D01*
X5320Y-229002D01*
X5002Y-229768D01*
X4894Y-230591D01*
X5002Y-231413D01*
X5320Y-232179D01*
X5824Y-232837D01*
X6482Y-233342D01*
X7249Y-233659D01*
X8071Y-233767D01*
X8893Y-233659D01*
X9659Y-233342D01*
X10317Y-232837D01*
X10822Y-232179D01*
X11139Y-231413D01*
X11248Y-230591D01*
X11139Y-229768D01*
X10822Y-229002D01*
X10317Y-228344D01*
X9659Y-227839D01*
X8893Y-227522D01*
X8071Y-227414D01*
D02*
G37*
G36*
X104232Y-231270D02*
X103656Y-231385D01*
X103168Y-231711D01*
X102842Y-232200D01*
X102727Y-232776D01*
X102842Y-233352D01*
X103168Y-233840D01*
X103656Y-234166D01*
X104232Y-234281D01*
X104808Y-234166D01*
X105297Y-233840D01*
X105623Y-233352D01*
X105738Y-232776D01*
X105623Y-232200D01*
X105297Y-231711D01*
X104808Y-231385D01*
X104232Y-231270D01*
D02*
G37*
G36*
X381978Y-226752D02*
X374301D01*
Y-234429D01*
X381978D01*
Y-226752D01*
D02*
G37*
G36*
X73073Y-226777D02*
X72045Y-226912D01*
X71088Y-227309D01*
X70265Y-227940D01*
X69634Y-228763D01*
X69237Y-229720D01*
X69102Y-230748D01*
X69237Y-231776D01*
X69634Y-232733D01*
X70265Y-233556D01*
X71088Y-234187D01*
X72045Y-234584D01*
X73073Y-234719D01*
X74101Y-234584D01*
X75059Y-234187D01*
X75881Y-233556D01*
X76512Y-232733D01*
X76909Y-231776D01*
X77044Y-230748D01*
X76909Y-229720D01*
X76512Y-228763D01*
X75881Y-227940D01*
X75059Y-227309D01*
X74101Y-226912D01*
X73073Y-226777D01*
D02*
G37*
G36*
X102272Y-234299D02*
Y-235622D01*
X103595D01*
X103548Y-235386D01*
X103131Y-234762D01*
X102507Y-234346D01*
X102272Y-234299D01*
D02*
G37*
G36*
X101272D02*
X101036Y-234346D01*
X100412Y-234762D01*
X99995Y-235386D01*
X99948Y-235622D01*
X101272D01*
Y-234299D01*
D02*
G37*
G36*
X103595Y-236622D02*
X102272D01*
Y-237945D01*
X102507Y-237898D01*
X103131Y-237482D01*
X103548Y-236858D01*
X103595Y-236622D01*
D02*
G37*
G36*
X101272D02*
X99948D01*
X99995Y-236858D01*
X100412Y-237482D01*
X101036Y-237898D01*
X101272Y-237945D01*
Y-236622D01*
D02*
G37*
G36*
X73073Y-236777D02*
X72045Y-236912D01*
X71088Y-237309D01*
X70265Y-237940D01*
X69634Y-238763D01*
X69237Y-239720D01*
X69102Y-240748D01*
X69237Y-241776D01*
X69561Y-242557D01*
X64643Y-247475D01*
X64382Y-247866D01*
X64290Y-248327D01*
X64290Y-248327D01*
Y-248965D01*
X64155Y-249167D01*
X64048Y-249705D01*
X64155Y-250242D01*
X64459Y-250698D01*
X64915Y-251003D01*
X65453Y-251110D01*
X65990Y-251003D01*
X66446Y-250698D01*
X66751Y-250242D01*
X66858Y-249705D01*
X66751Y-249167D01*
X66699Y-249089D01*
Y-248826D01*
X71264Y-244260D01*
X72045Y-244584D01*
X73073Y-244719D01*
X74101Y-244584D01*
X75059Y-244187D01*
X75881Y-243556D01*
X76512Y-242734D01*
X76909Y-241776D01*
X77044Y-240748D01*
X76909Y-239720D01*
X76512Y-238763D01*
X75881Y-237940D01*
X75059Y-237309D01*
X74101Y-236912D01*
X73073Y-236777D01*
D02*
G37*
G36*
X160138Y-242117D02*
X159562Y-242231D01*
X159073Y-242558D01*
X158747Y-243046D01*
X158633Y-243622D01*
X158747Y-244198D01*
X159073Y-244687D01*
X159562Y-245013D01*
X160138Y-245127D01*
X160714Y-245013D01*
X161202Y-244687D01*
X161529Y-244198D01*
X161643Y-243622D01*
X161529Y-243046D01*
X161202Y-242558D01*
X160714Y-242231D01*
X160138Y-242117D01*
D02*
G37*
G36*
X347303Y-243140D02*
X346727Y-243255D01*
X346239Y-243581D01*
X345912Y-244070D01*
X345798Y-244646D01*
X345912Y-245222D01*
X346239Y-245710D01*
X346727Y-246036D01*
X347303Y-246151D01*
X347879Y-246036D01*
X348368Y-245710D01*
X348694Y-245222D01*
X348808Y-244646D01*
X348694Y-244070D01*
X348368Y-243581D01*
X347879Y-243255D01*
X347303Y-243140D01*
D02*
G37*
G36*
X339370Y-243199D02*
X338794Y-243314D01*
X338306Y-243640D01*
X337979Y-244129D01*
X337865Y-244705D01*
X337979Y-245281D01*
X338306Y-245769D01*
X338794Y-246095D01*
X339370Y-246210D01*
X339946Y-246095D01*
X340435Y-245769D01*
X340761Y-245281D01*
X340875Y-244705D01*
X340761Y-244129D01*
X340435Y-243640D01*
X339946Y-243314D01*
X339370Y-243199D01*
D02*
G37*
G36*
X231476Y-243928D02*
X230900Y-244042D01*
X230412Y-244369D01*
X230086Y-244857D01*
X229971Y-245433D01*
X230086Y-246009D01*
X230412Y-246498D01*
X230900Y-246824D01*
X231476Y-246938D01*
X232052Y-246824D01*
X232541Y-246498D01*
X232867Y-246009D01*
X232982Y-245433D01*
X232867Y-244857D01*
X232541Y-244369D01*
X232052Y-244042D01*
X231476Y-243928D01*
D02*
G37*
G36*
X245158Y-244203D02*
X244581Y-244318D01*
X244093Y-244644D01*
X243767Y-245133D01*
X243652Y-245709D01*
X243767Y-246285D01*
X244093Y-246773D01*
X244581Y-247099D01*
X245158Y-247214D01*
X245733Y-247099D01*
X246222Y-246773D01*
X246548Y-246285D01*
X246663Y-245709D01*
X246548Y-245133D01*
X246222Y-244644D01*
X245733Y-244318D01*
X245158Y-244203D01*
D02*
G37*
G36*
X94685Y-244853D02*
X94109Y-244968D01*
X93621Y-245294D01*
X93294Y-245782D01*
X93180Y-246358D01*
X93294Y-246934D01*
X93621Y-247423D01*
X94109Y-247749D01*
X94685Y-247864D01*
X95261Y-247749D01*
X95749Y-247423D01*
X96076Y-246934D01*
X96190Y-246358D01*
X96076Y-245782D01*
X95749Y-245294D01*
X95261Y-244968D01*
X94685Y-244853D01*
D02*
G37*
G36*
X90551D02*
X89975Y-244968D01*
X89487Y-245294D01*
X89161Y-245782D01*
X89046Y-246358D01*
X89161Y-246934D01*
X89487Y-247423D01*
X89975Y-247749D01*
X90551Y-247864D01*
X91127Y-247749D01*
X91616Y-247423D01*
X91942Y-246934D01*
X92057Y-246358D01*
X91942Y-245782D01*
X91616Y-245294D01*
X91127Y-244968D01*
X90551Y-244853D01*
D02*
G37*
G36*
X300335Y-246152D02*
X299759Y-246267D01*
X299270Y-246593D01*
X298944Y-247081D01*
X298829Y-247657D01*
X298944Y-248234D01*
X299270Y-248722D01*
X299759Y-249048D01*
X300335Y-249163D01*
X300911Y-249048D01*
X301399Y-248722D01*
X301725Y-248234D01*
X301840Y-247657D01*
X301725Y-247081D01*
X301399Y-246593D01*
X300911Y-246267D01*
X300335Y-246152D01*
D02*
G37*
G36*
X46716Y-248789D02*
X46140Y-248904D01*
X45652Y-249230D01*
X45325Y-249718D01*
X45211Y-250294D01*
X45325Y-250871D01*
X45652Y-251359D01*
X46140Y-251685D01*
X46716Y-251800D01*
X47292Y-251685D01*
X47780Y-251359D01*
X48107Y-250871D01*
X48221Y-250294D01*
X48107Y-249718D01*
X47780Y-249230D01*
X47292Y-248904D01*
X46716Y-248789D01*
D02*
G37*
G36*
X73073Y-246777D02*
X72045Y-246912D01*
X71088Y-247309D01*
X70265Y-247940D01*
X69634Y-248763D01*
X69237Y-249720D01*
X69102Y-250748D01*
X69237Y-251776D01*
X69634Y-252733D01*
X70265Y-253556D01*
X71088Y-254187D01*
X72045Y-254584D01*
X73073Y-254719D01*
X74101Y-254584D01*
X75059Y-254187D01*
X75881Y-253556D01*
X76512Y-252733D01*
X76909Y-251776D01*
X77044Y-250748D01*
X76909Y-249720D01*
X76512Y-248763D01*
X75881Y-247940D01*
X75059Y-247309D01*
X74101Y-246912D01*
X73073Y-246777D01*
D02*
G37*
G36*
X198516Y-254797D02*
X197192D01*
X197239Y-255033D01*
X197656Y-255657D01*
X198280Y-256074D01*
X198516Y-256120D01*
Y-254797D01*
D02*
G37*
G36*
X212697Y-255877D02*
X212121Y-255991D01*
X211632Y-256317D01*
X211306Y-256806D01*
X211192Y-257382D01*
X211306Y-257958D01*
X211632Y-258446D01*
X212121Y-258773D01*
X212697Y-258887D01*
X213273Y-258773D01*
X213761Y-258446D01*
X214088Y-257958D01*
X214202Y-257382D01*
X214088Y-256806D01*
X213761Y-256317D01*
X213273Y-255991D01*
X212697Y-255877D01*
D02*
G37*
G36*
X374193Y-257865D02*
X373617Y-257979D01*
X373129Y-258306D01*
X372802Y-258794D01*
X372688Y-259370D01*
X372802Y-259946D01*
X373129Y-260435D01*
X373617Y-260761D01*
X374193Y-260875D01*
X374769Y-260761D01*
X375257Y-260435D01*
X375584Y-259946D01*
X375698Y-259370D01*
X375584Y-258794D01*
X375257Y-258306D01*
X374769Y-257979D01*
X374193Y-257865D01*
D02*
G37*
G36*
X34616Y-258033D02*
X34040Y-258148D01*
X33552Y-258474D01*
X33226Y-258963D01*
X33111Y-259539D01*
X33226Y-260115D01*
X33552Y-260603D01*
X34040Y-260929D01*
X34616Y-261044D01*
X35192Y-260929D01*
X35681Y-260603D01*
X36007Y-260115D01*
X36121Y-259539D01*
X36007Y-258963D01*
X35681Y-258474D01*
X35192Y-258148D01*
X34616Y-258033D01*
D02*
G37*
G36*
X198383Y-258259D02*
X197808Y-258373D01*
X197319Y-258699D01*
X196993Y-259188D01*
X196878Y-259764D01*
X196993Y-260340D01*
X197319Y-260828D01*
X197808Y-261155D01*
X198383Y-261269D01*
X198960Y-261155D01*
X199448Y-260828D01*
X199774Y-260340D01*
X199889Y-259764D01*
X199774Y-259188D01*
X199448Y-258699D01*
X198960Y-258373D01*
X198383Y-258259D01*
D02*
G37*
G36*
X282677Y-259302D02*
X282101Y-259416D01*
X281613Y-259743D01*
X281287Y-260231D01*
X281172Y-260807D01*
X281287Y-261383D01*
X281613Y-261872D01*
X282101Y-262198D01*
X282677Y-262312D01*
X283253Y-262198D01*
X283742Y-261872D01*
X284068Y-261383D01*
X284183Y-260807D01*
X284068Y-260231D01*
X283742Y-259743D01*
X283253Y-259416D01*
X282677Y-259302D01*
D02*
G37*
G36*
X274764Y-260581D02*
X274188Y-260696D01*
X273699Y-261022D01*
X273373Y-261511D01*
X273258Y-262087D01*
X273373Y-262663D01*
X273699Y-263151D01*
X274188Y-263477D01*
X274764Y-263592D01*
X275340Y-263477D01*
X275828Y-263151D01*
X276154Y-262663D01*
X276269Y-262087D01*
X276154Y-261511D01*
X275828Y-261022D01*
X275340Y-260696D01*
X274764Y-260581D01*
D02*
G37*
G36*
X104914Y-262322D02*
X103591D01*
Y-263645D01*
X103826Y-263598D01*
X104450Y-263182D01*
X104867Y-262558D01*
X104914Y-262322D01*
D02*
G37*
G36*
X102591D02*
X101267D01*
X101314Y-262558D01*
X101731Y-263182D01*
X102355Y-263598D01*
X102591Y-263645D01*
Y-262322D01*
D02*
G37*
G36*
X52950Y-263158D02*
X52374Y-263272D01*
X51886Y-263598D01*
X51560Y-264087D01*
X51445Y-264663D01*
X51560Y-265239D01*
X51886Y-265727D01*
X52374Y-266054D01*
X52950Y-266168D01*
X53526Y-266054D01*
X54015Y-265727D01*
X54341Y-265239D01*
X54456Y-264663D01*
X54341Y-264087D01*
X54015Y-263598D01*
X53526Y-263272D01*
X52950Y-263158D01*
D02*
G37*
G36*
X48797Y-263259D02*
X48221Y-263373D01*
X47732Y-263699D01*
X47406Y-264188D01*
X47291Y-264764D01*
X47406Y-265340D01*
X47732Y-265828D01*
X48221Y-266155D01*
X48797Y-266269D01*
X49373Y-266155D01*
X49861Y-265828D01*
X50187Y-265340D01*
X50302Y-264764D01*
X50187Y-264188D01*
X49861Y-263699D01*
X49373Y-263373D01*
X48797Y-263259D01*
D02*
G37*
G36*
X27165Y-77324D02*
X26397Y-77476D01*
X25746Y-77912D01*
X25311Y-78563D01*
X25158Y-79331D01*
Y-258465D01*
X25311Y-259233D01*
X25746Y-259884D01*
X29292Y-263430D01*
Y-264370D01*
X29445Y-265138D01*
X29880Y-265789D01*
X30531Y-266224D01*
X31299Y-266377D01*
X32067Y-266224D01*
X32718Y-265789D01*
X33154Y-265138D01*
X33306Y-264370D01*
Y-262598D01*
X33154Y-261830D01*
X32718Y-261179D01*
X29172Y-257633D01*
Y-79331D01*
X29020Y-78563D01*
X28585Y-77912D01*
X27933Y-77476D01*
X27165Y-77324D01*
D02*
G37*
G36*
X298799Y-266270D02*
X298223Y-266385D01*
X297735Y-266711D01*
X297409Y-267199D01*
X297294Y-267776D01*
X297409Y-268352D01*
X297735Y-268840D01*
X298223Y-269166D01*
X298799Y-269281D01*
X299375Y-269166D01*
X299864Y-268840D01*
X300190Y-268352D01*
X300305Y-267776D01*
X300190Y-267199D01*
X299864Y-266711D01*
X299375Y-266385D01*
X298799Y-266270D01*
D02*
G37*
G36*
X61327Y-268651D02*
Y-269874D01*
X62550D01*
X62511Y-269677D01*
X62115Y-269085D01*
X61524Y-268690D01*
X61327Y-268651D01*
D02*
G37*
G36*
X60327D02*
X60129Y-268690D01*
X59538Y-269085D01*
X59143Y-269677D01*
X59104Y-269874D01*
X60327D01*
Y-268651D01*
D02*
G37*
G36*
X197883Y-270322D02*
X197648Y-270369D01*
X197024Y-270786D01*
X196607Y-271410D01*
X196560Y-271646D01*
X197883D01*
Y-270322D01*
D02*
G37*
G36*
X62550Y-270874D02*
X61327D01*
Y-272097D01*
X61524Y-272058D01*
X62115Y-271663D01*
X62511Y-271071D01*
X62550Y-270874D01*
D02*
G37*
G36*
X60327D02*
X59104D01*
X59143Y-271071D01*
X59538Y-271663D01*
X60129Y-272058D01*
X60327Y-272097D01*
Y-270874D01*
D02*
G37*
G36*
X8307Y-266469D02*
X7485Y-266577D01*
X6719Y-266895D01*
X6061Y-267399D01*
X5556Y-268057D01*
X5239Y-268824D01*
X5130Y-269646D01*
X5239Y-270468D01*
X5556Y-271234D01*
X6061Y-271892D01*
X6719Y-272397D01*
X7485Y-272714D01*
X8307Y-272822D01*
X9129Y-272714D01*
X9895Y-272397D01*
X10553Y-271892D01*
X11058Y-271234D01*
X11376Y-270468D01*
X11484Y-269646D01*
X11376Y-268824D01*
X11058Y-268057D01*
X10553Y-267399D01*
X9895Y-266895D01*
X9129Y-266577D01*
X8307Y-266469D01*
D02*
G37*
G36*
X197883Y-272646D02*
X196560D01*
X196607Y-272882D01*
X197024Y-273505D01*
X197648Y-273922D01*
X197883Y-273969D01*
Y-272646D01*
D02*
G37*
G36*
X279823Y-272255D02*
X279247Y-272369D01*
X279118Y-272455D01*
X276929D01*
X276430Y-272555D01*
X276007Y-272837D01*
X267017Y-281827D01*
X266865Y-281857D01*
X266376Y-282184D01*
X266050Y-282672D01*
X265936Y-283248D01*
X266050Y-283824D01*
X266376Y-284312D01*
X266865Y-284639D01*
X267441Y-284753D01*
X268017Y-284639D01*
X268505Y-284312D01*
X268832Y-283824D01*
X268862Y-283672D01*
X277469Y-275064D01*
X279118D01*
X279247Y-275151D01*
X279823Y-275265D01*
X280399Y-275151D01*
X280887Y-274824D01*
X281213Y-274336D01*
X281328Y-273760D01*
X281213Y-273184D01*
X280887Y-272695D01*
X280399Y-272369D01*
X279823Y-272255D01*
D02*
G37*
G36*
X62762Y-275966D02*
X62186Y-276081D01*
X61697Y-276407D01*
X61371Y-276895D01*
X61256Y-277471D01*
X61371Y-278047D01*
X61697Y-278536D01*
X62186Y-278862D01*
X62762Y-278977D01*
X63338Y-278862D01*
X63826Y-278536D01*
X64152Y-278047D01*
X64267Y-277471D01*
X64152Y-276895D01*
X63826Y-276407D01*
X63338Y-276081D01*
X62762Y-275966D01*
D02*
G37*
G36*
X103937Y-277235D02*
X103361Y-277349D01*
X102873Y-277676D01*
X102546Y-278164D01*
X102432Y-278740D01*
X102546Y-279316D01*
X102873Y-279805D01*
X103361Y-280131D01*
X103937Y-280245D01*
X104513Y-280131D01*
X105001Y-279805D01*
X105328Y-279316D01*
X105442Y-278740D01*
X105328Y-278164D01*
X105001Y-277676D01*
X104513Y-277349D01*
X103937Y-277235D01*
D02*
G37*
G36*
X8307Y-276469D02*
X7485Y-276577D01*
X6719Y-276894D01*
X6061Y-277399D01*
X5556Y-278057D01*
X5239Y-278823D01*
X5130Y-279646D01*
X5239Y-280468D01*
X5556Y-281234D01*
X6061Y-281892D01*
X6719Y-282397D01*
X7485Y-282714D01*
X8307Y-282822D01*
X9129Y-282714D01*
X9895Y-282397D01*
X10553Y-281892D01*
X11058Y-281234D01*
X11376Y-280468D01*
X11484Y-279646D01*
X11376Y-278823D01*
X11058Y-278057D01*
X10553Y-277399D01*
X9895Y-276894D01*
X9129Y-276577D01*
X8307Y-276469D01*
D02*
G37*
G36*
X103767Y-282527D02*
Y-283850D01*
X105091D01*
X105044Y-283615D01*
X104627Y-282991D01*
X104003Y-282574D01*
X103767Y-282527D01*
D02*
G37*
G36*
X102767D02*
X102532Y-282574D01*
X101908Y-282991D01*
X101491Y-283615D01*
X101444Y-283850D01*
X102767D01*
Y-282527D01*
D02*
G37*
G36*
X105091Y-284850D02*
X103767D01*
Y-286174D01*
X104003Y-286127D01*
X104627Y-285710D01*
X105044Y-285086D01*
X105091Y-284850D01*
D02*
G37*
G36*
X102767D02*
X101444D01*
X101491Y-285086D01*
X101908Y-285710D01*
X102532Y-286127D01*
X102767Y-286174D01*
Y-284850D01*
D02*
G37*
G36*
X388140Y-282771D02*
X387420Y-282866D01*
X386750Y-283144D01*
X386174Y-283586D01*
X385733Y-284161D01*
X385455Y-284832D01*
X385360Y-285551D01*
X385455Y-286271D01*
X385733Y-286941D01*
X386174Y-287517D01*
X386750Y-287958D01*
X387420Y-288236D01*
X388140Y-288331D01*
X388859Y-288236D01*
X389530Y-287958D01*
X390105Y-287517D01*
X390547Y-286941D01*
X390825Y-286271D01*
X390919Y-285551D01*
X390825Y-284832D01*
X390547Y-284161D01*
X390105Y-283586D01*
X389530Y-283144D01*
X388859Y-282866D01*
X388140Y-282771D01*
D02*
G37*
G36*
X378140Y-281680D02*
X377138Y-281811D01*
X376204Y-282198D01*
X375402Y-282814D01*
X374787Y-283615D01*
X374400Y-284549D01*
X374268Y-285551D01*
X374400Y-286553D01*
X374787Y-287487D01*
X375402Y-288289D01*
X376204Y-288904D01*
X377138Y-289291D01*
X378140Y-289423D01*
X379142Y-289291D01*
X380076Y-288904D01*
X380877Y-288289D01*
X381493Y-287487D01*
X381879Y-286553D01*
X382012Y-285551D01*
X381879Y-284549D01*
X381493Y-283615D01*
X380877Y-282814D01*
X380076Y-282198D01*
X379142Y-281811D01*
X378140Y-281680D01*
D02*
G37*
G36*
X319291Y-288062D02*
X318715Y-288176D01*
X318227Y-288503D01*
X317901Y-288991D01*
X317786Y-289567D01*
X317901Y-290143D01*
X318227Y-290631D01*
X318715Y-290958D01*
X319291Y-291072D01*
X319867Y-290958D01*
X320356Y-290631D01*
X320682Y-290143D01*
X320797Y-289567D01*
X320682Y-288991D01*
X320356Y-288503D01*
X319867Y-288176D01*
X319291Y-288062D01*
D02*
G37*
G36*
X324803Y-288652D02*
X324227Y-288767D01*
X323739Y-289093D01*
X323412Y-289581D01*
X323298Y-290158D01*
X323412Y-290734D01*
X323739Y-291222D01*
X324227Y-291548D01*
X324803Y-291663D01*
X325379Y-291548D01*
X325868Y-291222D01*
X326194Y-290734D01*
X326308Y-290158D01*
X326194Y-289581D01*
X325868Y-289093D01*
X325379Y-288767D01*
X324803Y-288652D01*
D02*
G37*
G36*
X353445Y-280579D02*
X352171Y-280704D01*
X350947Y-281076D01*
X349818Y-281679D01*
X348829Y-282491D01*
X348018Y-283480D01*
X347414Y-284608D01*
X347043Y-285833D01*
X346917Y-287106D01*
X347043Y-288380D01*
X347414Y-289604D01*
X348018Y-290733D01*
X348829Y-291722D01*
X349818Y-292534D01*
X350947Y-293137D01*
X352171Y-293508D01*
X353445Y-293634D01*
X354718Y-293508D01*
X355943Y-293137D01*
X357071Y-292534D01*
X358061Y-291722D01*
X358872Y-290733D01*
X359475Y-289604D01*
X359847Y-288380D01*
X359972Y-287106D01*
X359847Y-285833D01*
X359475Y-284608D01*
X358872Y-283480D01*
X358061Y-282491D01*
X357071Y-281679D01*
X355943Y-281076D01*
X354718Y-280704D01*
X353445Y-280579D01*
D02*
G37*
G36*
X73073Y-286777D02*
X72045Y-286912D01*
X71088Y-287309D01*
X70265Y-287940D01*
X69634Y-288763D01*
X69237Y-289720D01*
X69102Y-290748D01*
X69237Y-291776D01*
X69634Y-292734D01*
X70265Y-293556D01*
X71088Y-294187D01*
X72045Y-294584D01*
X73073Y-294719D01*
X74101Y-294584D01*
X75059Y-294187D01*
X75881Y-293556D01*
X76512Y-292734D01*
X76909Y-291776D01*
X77044Y-290748D01*
X76909Y-289720D01*
X76512Y-288763D01*
X75881Y-287940D01*
X75059Y-287309D01*
X74101Y-286912D01*
X73073Y-286777D01*
D02*
G37*
G36*
X220571Y-292591D02*
X220033Y-292698D01*
X219577Y-293003D01*
X219273Y-293458D01*
X219166Y-293996D01*
X219273Y-294534D01*
X219577Y-294989D01*
X220033Y-295294D01*
X220571Y-295401D01*
X221109Y-295294D01*
X221564Y-294989D01*
X221869Y-294534D01*
X221976Y-293996D01*
X221869Y-293458D01*
X221564Y-293003D01*
X221109Y-292698D01*
X220571Y-292591D01*
D02*
G37*
G36*
X180020Y-294558D02*
X179444Y-294672D01*
X178955Y-294999D01*
X178629Y-295487D01*
X178514Y-296063D01*
X178629Y-296639D01*
X178955Y-297127D01*
X179444Y-297454D01*
X180020Y-297568D01*
X180596Y-297454D01*
X181084Y-297127D01*
X181410Y-296639D01*
X181525Y-296063D01*
X181410Y-295487D01*
X181084Y-294999D01*
X180596Y-294672D01*
X180020Y-294558D01*
D02*
G37*
G36*
X388140Y-292772D02*
X387420Y-292866D01*
X386750Y-293144D01*
X386174Y-293586D01*
X385733Y-294161D01*
X385455Y-294832D01*
X385360Y-295551D01*
X385455Y-296271D01*
X385733Y-296941D01*
X386174Y-297517D01*
X386750Y-297958D01*
X387420Y-298236D01*
X388140Y-298331D01*
X388859Y-298236D01*
X389530Y-297958D01*
X390105Y-297517D01*
X390547Y-296941D01*
X390825Y-296271D01*
X390919Y-295551D01*
X390825Y-294832D01*
X390547Y-294161D01*
X390105Y-293586D01*
X389530Y-293144D01*
X388859Y-292866D01*
X388140Y-292772D01*
D02*
G37*
G36*
X155602Y-297747D02*
X155367Y-297794D01*
X154743Y-298210D01*
X154326Y-298834D01*
X154279Y-299070D01*
X155602D01*
Y-297747D01*
D02*
G37*
G36*
X381978Y-291713D02*
X374301D01*
Y-299390D01*
X381978D01*
Y-291713D01*
D02*
G37*
G36*
X247638Y-278770D02*
X247062Y-278885D01*
X246573Y-279211D01*
X246247Y-279699D01*
X246132Y-280276D01*
X246247Y-280852D01*
X246333Y-280980D01*
Y-298110D01*
X246432Y-298609D01*
X246715Y-299033D01*
X249522Y-301839D01*
X249945Y-302122D01*
X250444Y-302221D01*
X250934D01*
X251188Y-302171D01*
X252642D01*
X252770Y-302257D01*
X253346Y-302371D01*
X253923Y-302257D01*
X254411Y-301930D01*
X254737Y-301442D01*
X254852Y-300866D01*
X254737Y-300290D01*
X254411Y-299802D01*
X253923Y-299475D01*
X253346Y-299361D01*
X252770Y-299475D01*
X252642Y-299562D01*
X250984D01*
X250942Y-299570D01*
X248942Y-297570D01*
Y-280980D01*
X249028Y-280852D01*
X249143Y-280276D01*
X249028Y-279699D01*
X248702Y-279211D01*
X248214Y-278885D01*
X247638Y-278770D01*
D02*
G37*
G36*
X142528Y-301049D02*
Y-302373D01*
X143851D01*
X143804Y-302137D01*
X143387Y-301513D01*
X142763Y-301096D01*
X142528Y-301049D01*
D02*
G37*
G36*
X141528D02*
X141292Y-301096D01*
X140668Y-301513D01*
X140251Y-302137D01*
X140204Y-302373D01*
X141528D01*
Y-301049D01*
D02*
G37*
G36*
X105224Y-302241D02*
Y-303564D01*
X106548D01*
X106501Y-303328D01*
X106084Y-302705D01*
X105460Y-302288D01*
X105224Y-302241D01*
D02*
G37*
G36*
X104224D02*
X103989Y-302288D01*
X103365Y-302705D01*
X102948Y-303328D01*
X102901Y-303564D01*
X104224D01*
Y-302241D01*
D02*
G37*
G36*
X183583Y-301154D02*
X183045Y-301261D01*
X182589Y-301566D01*
X182285Y-302021D01*
X182178Y-302559D01*
X182285Y-303097D01*
X182589Y-303553D01*
X183045Y-303857D01*
X183583Y-303964D01*
X184120Y-303857D01*
X184576Y-303553D01*
X184881Y-303097D01*
X184988Y-302559D01*
X184881Y-302021D01*
X184576Y-301566D01*
X184120Y-301261D01*
X183583Y-301154D01*
D02*
G37*
G36*
X50787Y-291110D02*
X49514Y-291236D01*
X48289Y-291607D01*
X47161Y-292210D01*
X46172Y-293022D01*
X45360Y-294011D01*
X44757Y-295140D01*
X44385Y-296364D01*
X44260Y-297638D01*
X44385Y-298911D01*
X44757Y-300136D01*
X45360Y-301264D01*
X46172Y-302253D01*
X47161Y-303065D01*
X48289Y-303668D01*
X49514Y-304040D01*
X50787Y-304165D01*
X52061Y-304040D01*
X53285Y-303668D01*
X54414Y-303065D01*
X55403Y-302253D01*
X56215Y-301264D01*
X56818Y-300136D01*
X57190Y-298911D01*
X57315Y-297638D01*
X57190Y-296364D01*
X56818Y-295140D01*
X56215Y-294011D01*
X55403Y-293022D01*
X54414Y-292210D01*
X53285Y-291607D01*
X52061Y-291236D01*
X50787Y-291110D01*
D02*
G37*
G36*
X136339Y-301644D02*
X135763Y-301759D01*
X135274Y-302085D01*
X134948Y-302574D01*
X134833Y-303150D01*
X134948Y-303726D01*
X135274Y-304214D01*
X135763Y-304540D01*
X136339Y-304655D01*
X136915Y-304540D01*
X137403Y-304214D01*
X137729Y-303726D01*
X137844Y-303150D01*
X137729Y-302574D01*
X137403Y-302085D01*
X136915Y-301759D01*
X136339Y-301644D01*
D02*
G37*
G36*
X143851Y-303373D02*
X142528D01*
Y-304696D01*
X142763Y-304649D01*
X143387Y-304232D01*
X143804Y-303609D01*
X143851Y-303373D01*
D02*
G37*
G36*
X141528D02*
X140204D01*
X140251Y-303609D01*
X140668Y-304232D01*
X141292Y-304649D01*
X141528Y-304696D01*
Y-303373D01*
D02*
G37*
G36*
X247441Y-302825D02*
X246865Y-302940D01*
X246376Y-303266D01*
X246050Y-303755D01*
X245936Y-304331D01*
X246050Y-304907D01*
X246376Y-305395D01*
X246865Y-305721D01*
X247441Y-305836D01*
X248017Y-305721D01*
X248505Y-305395D01*
X248832Y-304907D01*
X248946Y-304331D01*
X248832Y-303755D01*
X248505Y-303266D01*
X248017Y-302940D01*
X247441Y-302825D01*
D02*
G37*
G36*
X233465D02*
X232889Y-302940D01*
X232400Y-303266D01*
X232074Y-303755D01*
X231959Y-304331D01*
X232074Y-304907D01*
X232400Y-305395D01*
X232889Y-305721D01*
X233465Y-305836D01*
X234041Y-305721D01*
X234529Y-305395D01*
X234855Y-304907D01*
X234970Y-304331D01*
X234855Y-303755D01*
X234529Y-303266D01*
X234041Y-302940D01*
X233465Y-302825D01*
D02*
G37*
G36*
X106548Y-304564D02*
X105224D01*
Y-305888D01*
X105460Y-305841D01*
X106084Y-305424D01*
X106501Y-304800D01*
X106548Y-304564D01*
D02*
G37*
G36*
X104224D02*
X102901D01*
X102948Y-304800D01*
X103365Y-305424D01*
X103989Y-305841D01*
X104224Y-305888D01*
Y-304564D01*
D02*
G37*
G36*
X89764Y-302924D02*
X89188Y-303038D01*
X88699Y-303365D01*
X88373Y-303853D01*
X88258Y-304429D01*
X88373Y-305005D01*
X88699Y-305493D01*
X89188Y-305820D01*
X89764Y-305934D01*
X90340Y-305820D01*
X90828Y-305493D01*
X91154Y-305005D01*
X91269Y-304429D01*
X91154Y-303853D01*
X90828Y-303365D01*
X90340Y-303038D01*
X89764Y-302924D01*
D02*
G37*
G36*
X20564Y-302839D02*
X16816D01*
Y-306587D01*
X20564D01*
Y-302839D01*
D02*
G37*
G36*
X15816D02*
X12068D01*
Y-306587D01*
X15816D01*
Y-302839D01*
D02*
G37*
G36*
X339764Y-304564D02*
X339188Y-304678D01*
X338699Y-305005D01*
X338373Y-305493D01*
X338259Y-306069D01*
X338373Y-306645D01*
X338699Y-307133D01*
X339188Y-307460D01*
X339764Y-307574D01*
X340340Y-307460D01*
X340828Y-307133D01*
X341155Y-306645D01*
X341269Y-306069D01*
X341155Y-305493D01*
X340828Y-305005D01*
X340340Y-304678D01*
X339764Y-304564D01*
D02*
G37*
G36*
X347736Y-304915D02*
X347160Y-305030D01*
X346672Y-305356D01*
X346345Y-305844D01*
X346231Y-306420D01*
X346345Y-306996D01*
X346672Y-307485D01*
X347160Y-307811D01*
X347736Y-307926D01*
X348312Y-307811D01*
X348801Y-307485D01*
X349127Y-306996D01*
X349241Y-306420D01*
X349127Y-305844D01*
X348801Y-305356D01*
X348312Y-305030D01*
X347736Y-304915D01*
D02*
G37*
G36*
X299882Y-305483D02*
X299306Y-305597D01*
X298817Y-305924D01*
X298491Y-306412D01*
X298377Y-306988D01*
X298491Y-307564D01*
X298817Y-308053D01*
X299306Y-308379D01*
X299882Y-308493D01*
X300458Y-308379D01*
X300946Y-308053D01*
X301273Y-307564D01*
X301387Y-306988D01*
X301273Y-306412D01*
X300946Y-305924D01*
X300458Y-305597D01*
X299882Y-305483D01*
D02*
G37*
G36*
X6316Y-304307D02*
X5596Y-304402D01*
X4926Y-304679D01*
X4350Y-305121D01*
X3908Y-305697D01*
X3631Y-306367D01*
X3536Y-307087D01*
X3631Y-307806D01*
X3908Y-308476D01*
X4350Y-309052D01*
X4926Y-309494D01*
X5596Y-309772D01*
X6316Y-309866D01*
X7035Y-309772D01*
X7706Y-309494D01*
X8281Y-309052D01*
X8723Y-308476D01*
X9001Y-307806D01*
X9095Y-307087D01*
X9001Y-306367D01*
X8723Y-305697D01*
X8281Y-305121D01*
X7706Y-304679D01*
X7035Y-304402D01*
X6316Y-304307D01*
D02*
G37*
G36*
X202264Y-306979D02*
X201688Y-307094D01*
X201199Y-307420D01*
X200873Y-307908D01*
X200759Y-308484D01*
X200873Y-309060D01*
X201199Y-309549D01*
X201688Y-309875D01*
X202264Y-309990D01*
X202840Y-309875D01*
X203328Y-309549D01*
X203655Y-309060D01*
X203769Y-308484D01*
X203655Y-307908D01*
X203328Y-307420D01*
X202840Y-307094D01*
X202264Y-306979D01*
D02*
G37*
G36*
X188664Y-309397D02*
Y-310720D01*
X189988D01*
X189941Y-310485D01*
X189524Y-309861D01*
X188900Y-309444D01*
X188664Y-309397D01*
D02*
G37*
G36*
X187664D02*
X187428Y-309444D01*
X186805Y-309861D01*
X186388Y-310485D01*
X186341Y-310720D01*
X187664D01*
Y-309397D01*
D02*
G37*
G36*
X20564Y-307587D02*
X16816D01*
Y-311335D01*
X20564D01*
Y-307587D01*
D02*
G37*
G36*
X15816D02*
X12068D01*
Y-311335D01*
X15816D01*
Y-307587D01*
D02*
G37*
G36*
X189988Y-311720D02*
X188664D01*
Y-313044D01*
X188900Y-312997D01*
X189524Y-312580D01*
X189941Y-311956D01*
X189988Y-311720D01*
D02*
G37*
G36*
X187664D02*
X186341D01*
X186388Y-311956D01*
X186805Y-312580D01*
X187428Y-312997D01*
X187664Y-313044D01*
Y-311720D01*
D02*
G37*
G36*
X253130Y-313869D02*
X252554Y-313983D01*
X252065Y-314310D01*
X251739Y-314798D01*
X251625Y-315374D01*
X251739Y-315950D01*
X252065Y-316438D01*
X252554Y-316765D01*
X253130Y-316879D01*
X253706Y-316765D01*
X254194Y-316438D01*
X254521Y-315950D01*
X254635Y-315374D01*
X254521Y-314798D01*
X254194Y-314310D01*
X253706Y-313983D01*
X253130Y-313869D01*
D02*
G37*
G36*
X151339Y-314046D02*
X150762Y-314160D01*
X150274Y-314487D01*
X149948Y-314975D01*
X149833Y-315551D01*
X149948Y-316127D01*
X150274Y-316616D01*
X150762Y-316942D01*
X151339Y-317056D01*
X151915Y-316942D01*
X152403Y-316616D01*
X152729Y-316127D01*
X152844Y-315551D01*
X152729Y-314975D01*
X152403Y-314487D01*
X151915Y-314160D01*
X151339Y-314046D01*
D02*
G37*
G36*
X179390Y-314440D02*
X178814Y-314554D01*
X178325Y-314880D01*
X177999Y-315369D01*
X177884Y-315945D01*
X177999Y-316521D01*
X178325Y-317009D01*
X178814Y-317336D01*
X179390Y-317450D01*
X179966Y-317336D01*
X180454Y-317009D01*
X180780Y-316521D01*
X180895Y-315945D01*
X180780Y-315369D01*
X180454Y-314880D01*
X179966Y-314554D01*
X179390Y-314440D01*
D02*
G37*
G36*
X193996Y-314636D02*
X193420Y-314751D01*
X192932Y-315077D01*
X192605Y-315566D01*
X192491Y-316142D01*
X192605Y-316718D01*
X192932Y-317206D01*
X193420Y-317532D01*
X193996Y-317647D01*
X194572Y-317532D01*
X195061Y-317206D01*
X195387Y-316718D01*
X195501Y-316142D01*
X195387Y-315566D01*
X195061Y-315077D01*
X194572Y-314751D01*
X193996Y-314636D01*
D02*
G37*
G36*
X126575D02*
X125999Y-314751D01*
X125510Y-315077D01*
X125184Y-315566D01*
X125069Y-316142D01*
X125184Y-316718D01*
X125510Y-317206D01*
X125999Y-317532D01*
X126575Y-317647D01*
X127151Y-317532D01*
X127639Y-317206D01*
X127965Y-316718D01*
X128080Y-316142D01*
X127965Y-315566D01*
X127639Y-315077D01*
X127151Y-314751D01*
X126575Y-314636D01*
D02*
G37*
G36*
X6316Y-314307D02*
X5596Y-314402D01*
X4926Y-314679D01*
X4350Y-315121D01*
X3908Y-315697D01*
X3631Y-316367D01*
X3536Y-317087D01*
X3631Y-317806D01*
X3908Y-318477D01*
X4350Y-319052D01*
X4926Y-319494D01*
X5596Y-319772D01*
X6316Y-319866D01*
X7035Y-319772D01*
X7706Y-319494D01*
X8281Y-319052D01*
X8723Y-318477D01*
X9001Y-317806D01*
X9095Y-317087D01*
X9001Y-316367D01*
X8723Y-315697D01*
X8281Y-315121D01*
X7706Y-314679D01*
X7035Y-314402D01*
X6316Y-314307D01*
D02*
G37*
G36*
X16316Y-313215D02*
X15314Y-313347D01*
X14380Y-313734D01*
X13578Y-314349D01*
X12963Y-315151D01*
X12576Y-316085D01*
X12444Y-317087D01*
X12576Y-318089D01*
X12963Y-319022D01*
X13578Y-319824D01*
X14380Y-320440D01*
X15314Y-320826D01*
X16316Y-320958D01*
X17318Y-320826D01*
X18252Y-320440D01*
X19053Y-319824D01*
X19669Y-319022D01*
X20055Y-318089D01*
X20187Y-317087D01*
X20055Y-316085D01*
X19669Y-315151D01*
X19053Y-314349D01*
X18252Y-313734D01*
X17318Y-313347D01*
X16316Y-313215D01*
D02*
G37*
G36*
X370354Y-318731D02*
X369778Y-318846D01*
X369290Y-319172D01*
X368964Y-319660D01*
X368849Y-320236D01*
X368964Y-320812D01*
X369290Y-321301D01*
X369778Y-321627D01*
X370354Y-321742D01*
X370930Y-321627D01*
X371419Y-321301D01*
X371745Y-320812D01*
X371860Y-320236D01*
X371745Y-319660D01*
X371419Y-319172D01*
X370930Y-318846D01*
X370354Y-318731D01*
D02*
G37*
%LPD*%
G36*
X129936Y-185408D02*
X130327Y-185669D01*
X130788Y-185761D01*
X131249Y-185669D01*
X131290Y-185642D01*
X131539Y-185691D01*
X131790Y-185642D01*
X131830Y-185669D01*
X132291Y-185761D01*
X132752Y-185669D01*
X133143Y-185408D01*
X133310Y-185241D01*
X133571Y-184850D01*
X133662Y-184389D01*
X133571Y-183929D01*
X133544Y-183888D01*
X133593Y-183638D01*
X133544Y-183388D01*
X133571Y-183347D01*
X133662Y-182886D01*
X134363Y-182373D01*
X134589Y-182328D01*
X134630Y-182301D01*
X134880Y-182351D01*
X135130Y-182301D01*
X135171Y-182328D01*
X135632Y-182420D01*
X136012Y-182763D01*
X136104Y-183224D01*
X136131Y-183265D01*
X136082Y-183515D01*
X136131Y-183765D01*
X136104Y-183806D01*
X136012Y-184267D01*
X136104Y-184728D01*
X136365Y-185118D01*
X139022Y-187775D01*
X138774Y-188146D01*
X138683Y-188607D01*
X138683Y-188607D01*
Y-207725D01*
X119058Y-227349D01*
X118330Y-227048D01*
Y-184436D01*
X120208Y-182558D01*
X120819Y-183060D01*
X120646Y-183319D01*
X120599Y-183555D01*
X121923D01*
Y-182232D01*
X121687Y-182279D01*
X121428Y-182452D01*
X120926Y-181840D01*
X122828Y-179938D01*
X123038Y-179623D01*
X123206Y-179526D01*
X123923Y-179394D01*
X129936Y-185408D01*
D02*
G37*
%LPC*%
G36*
X122923Y-182232D02*
Y-183555D01*
X124246D01*
X124199Y-183319D01*
X123782Y-182695D01*
X123159Y-182279D01*
X122923Y-182232D01*
D02*
G37*
G36*
X124246Y-184555D02*
X122923D01*
Y-185878D01*
X123159Y-185831D01*
X123782Y-185415D01*
X124199Y-184791D01*
X124246Y-184555D01*
D02*
G37*
G36*
X121923D02*
X120599D01*
X120646Y-184791D01*
X121063Y-185415D01*
X121687Y-185831D01*
X121923Y-185878D01*
Y-184555D01*
D02*
G37*
G36*
X127953Y-186388D02*
X127377Y-186503D01*
X126888Y-186829D01*
X126562Y-187318D01*
X126447Y-187894D01*
X126562Y-188470D01*
X126888Y-188958D01*
X127377Y-189284D01*
X127953Y-189399D01*
X128529Y-189284D01*
X129017Y-188958D01*
X129343Y-188470D01*
X129458Y-187894D01*
X129343Y-187318D01*
X129017Y-186829D01*
X128529Y-186503D01*
X127953Y-186388D01*
D02*
G37*
G36*
X121358Y-205431D02*
X120782Y-205545D01*
X120294Y-205872D01*
X119968Y-206360D01*
X119853Y-206936D01*
X119968Y-207512D01*
X120294Y-208000D01*
X120782Y-208327D01*
X121358Y-208441D01*
X121934Y-208327D01*
X122423Y-208000D01*
X122749Y-207512D01*
X122864Y-206936D01*
X122749Y-206360D01*
X122423Y-205872D01*
X121934Y-205545D01*
X121358Y-205431D01*
D02*
G37*
G36*
X125815Y-213728D02*
Y-215051D01*
X127138D01*
X127091Y-214815D01*
X126674Y-214192D01*
X126051Y-213775D01*
X125815Y-213728D01*
D02*
G37*
G36*
X124815D02*
X124579Y-213775D01*
X123955Y-214192D01*
X123538Y-214815D01*
X123492Y-215051D01*
X124815D01*
Y-213728D01*
D02*
G37*
G36*
X127138Y-216051D02*
X125815D01*
Y-217374D01*
X126051Y-217328D01*
X126674Y-216911D01*
X127091Y-216287D01*
X127138Y-216051D01*
D02*
G37*
G36*
X124815D02*
X123492D01*
X123538Y-216287D01*
X123955Y-216911D01*
X124579Y-217328D01*
X124815Y-217374D01*
Y-216051D01*
D02*
G37*
G36*
X165997Y-94398D02*
X164673D01*
Y-95721D01*
X164909Y-95674D01*
X165533Y-95257D01*
X165950Y-94634D01*
X165997Y-94398D01*
D02*
G37*
G36*
X163673D02*
X162350D01*
X162397Y-94634D01*
X162814Y-95257D01*
X163437Y-95674D01*
X163673Y-95721D01*
Y-94398D01*
D02*
G37*
G36*
X129941Y-95027D02*
Y-96350D01*
X131265D01*
X131218Y-96115D01*
X130801Y-95491D01*
X130177Y-95074D01*
X129941Y-95027D01*
D02*
G37*
G36*
X128942D02*
X128706Y-95074D01*
X128082Y-95491D01*
X127665Y-96115D01*
X127618Y-96350D01*
X128942D01*
Y-95027D01*
D02*
G37*
G36*
X131265Y-97350D02*
X129941D01*
Y-98674D01*
X130177Y-98627D01*
X130801Y-98210D01*
X131218Y-97586D01*
X131265Y-97350D01*
D02*
G37*
G36*
X128942D02*
X127618D01*
X127665Y-97586D01*
X128082Y-98210D01*
X128706Y-98627D01*
X128942Y-98674D01*
Y-97350D01*
D02*
G37*
G36*
X140374Y-101959D02*
X139798Y-102074D01*
X139310Y-102400D01*
X139064Y-102768D01*
X138750Y-102882D01*
X138476Y-102874D01*
X138124Y-102639D01*
X137587Y-102532D01*
X137049Y-102639D01*
X136593Y-102944D01*
X136289Y-103399D01*
X136182Y-103937D01*
X136289Y-104475D01*
X136593Y-104930D01*
X136705Y-105005D01*
X136720Y-105028D01*
X138032Y-106340D01*
X138430Y-106605D01*
X138899Y-106699D01*
X139415D01*
X143985Y-111269D01*
X144382Y-111534D01*
X144851Y-111628D01*
X149080D01*
X151075Y-113622D01*
X150964Y-114121D01*
X150703Y-114304D01*
X150394Y-114243D01*
X149818Y-114357D01*
X149329Y-114684D01*
X149003Y-115172D01*
X148888Y-115748D01*
X149003Y-116324D01*
X149329Y-116812D01*
X149818Y-117139D01*
X150394Y-117253D01*
X150970Y-117139D01*
X151458Y-116812D01*
X151784Y-116324D01*
X151807Y-116208D01*
X151820Y-116183D01*
X151830Y-116171D01*
X152356Y-116012D01*
X153353Y-117008D01*
X153750Y-117274D01*
X154219Y-117367D01*
X161755D01*
X161864Y-117440D01*
X162402Y-117547D01*
X162939Y-117440D01*
X163048Y-117367D01*
X178950D01*
X179419Y-117274D01*
X179817Y-117008D01*
X181512Y-115313D01*
X181640Y-115288D01*
X182096Y-114983D01*
X182400Y-114527D01*
X182507Y-113990D01*
X182400Y-113452D01*
X182096Y-112996D01*
X181640Y-112692D01*
X181102Y-112585D01*
X180565Y-112692D01*
X180109Y-112996D01*
X179804Y-113452D01*
X179779Y-113580D01*
X178443Y-114916D01*
X163048D01*
X162939Y-114844D01*
X162402Y-114737D01*
X161864Y-114844D01*
X161755Y-114916D01*
X154727D01*
X154321Y-114511D01*
X154486Y-113968D01*
X154628Y-113940D01*
X155084Y-113636D01*
X155255Y-113379D01*
X155279Y-113359D01*
X155801Y-113233D01*
X155885Y-113244D01*
X156117Y-113399D01*
X156693Y-113513D01*
X157269Y-113399D01*
X157757Y-113072D01*
X158084Y-112584D01*
X158198Y-112008D01*
X158084Y-111432D01*
X157757Y-110943D01*
X157269Y-110617D01*
X156693Y-110503D01*
X156117Y-110617D01*
X155629Y-110943D01*
X155391Y-111299D01*
X155273Y-111433D01*
X154788Y-111451D01*
X154628Y-111344D01*
X154090Y-111237D01*
X154008Y-111253D01*
X153907Y-111233D01*
X153615D01*
X150882Y-108501D01*
X150485Y-108235D01*
X150016Y-108142D01*
X145787D01*
X143301Y-105656D01*
X143677Y-105280D01*
X143805Y-105255D01*
X144261Y-104950D01*
X144566Y-104494D01*
X144673Y-103957D01*
X144566Y-103419D01*
X144261Y-102963D01*
X143805Y-102659D01*
X143268Y-102552D01*
X142730Y-102659D01*
X142274Y-102963D01*
X141765Y-102889D01*
X141438Y-102400D01*
X140950Y-102074D01*
X140374Y-101959D01*
D02*
G37*
G36*
X171465Y-103970D02*
Y-105293D01*
X172788D01*
X172741Y-105057D01*
X172324Y-104433D01*
X171700Y-104016D01*
X171465Y-103970D01*
D02*
G37*
G36*
X170465D02*
X170229Y-104016D01*
X169605Y-104433D01*
X169188Y-105057D01*
X169141Y-105293D01*
X170465D01*
Y-103970D01*
D02*
G37*
G36*
X172788Y-106293D02*
X171465D01*
Y-107616D01*
X171700Y-107569D01*
X172324Y-107152D01*
X172741Y-106529D01*
X172788Y-106293D01*
D02*
G37*
G36*
X170465D02*
X169141D01*
X169188Y-106529D01*
X169605Y-107152D01*
X170229Y-107569D01*
X170465Y-107616D01*
Y-106293D01*
D02*
G37*
G36*
X160059Y-102965D02*
X159521Y-103072D01*
X159066Y-103377D01*
X158761Y-103832D01*
X158654Y-104370D01*
X158761Y-104908D01*
X159066Y-105364D01*
X159521Y-105668D01*
X159650Y-105694D01*
X162106Y-108150D01*
X162504Y-108415D01*
X162972Y-108509D01*
X166676D01*
X166785Y-108581D01*
X167323Y-108688D01*
X167860Y-108581D01*
X168316Y-108277D01*
X168621Y-107821D01*
X168728Y-107283D01*
X168621Y-106746D01*
X168316Y-106290D01*
X167860Y-105985D01*
X167323Y-105878D01*
X166785Y-105985D01*
X166676Y-106058D01*
X163480D01*
X161383Y-103961D01*
X161357Y-103832D01*
X161053Y-103377D01*
X160597Y-103072D01*
X160059Y-102965D01*
D02*
G37*
G36*
X180567Y-105828D02*
X180029Y-105935D01*
X179574Y-106239D01*
X179269Y-106695D01*
X179244Y-106823D01*
X175088Y-110979D01*
X171168D01*
X171059Y-110907D01*
X170522Y-110800D01*
X169984Y-110907D01*
X169528Y-111211D01*
X169224Y-111667D01*
X169117Y-112205D01*
X169224Y-112742D01*
X169528Y-113198D01*
X169984Y-113503D01*
X170522Y-113610D01*
X171059Y-113503D01*
X171168Y-113430D01*
X175595D01*
X176064Y-113337D01*
X176462Y-113071D01*
X180976Y-108556D01*
X181105Y-108531D01*
X181561Y-108226D01*
X181865Y-107770D01*
X181972Y-107233D01*
X181865Y-106695D01*
X181561Y-106239D01*
X181105Y-105935D01*
X180567Y-105828D01*
D02*
G37*
G36*
X133177Y-111563D02*
Y-112886D01*
X134501D01*
X134454Y-112650D01*
X134037Y-112026D01*
X133413Y-111609D01*
X133177Y-111563D01*
D02*
G37*
G36*
X132177D02*
X131941Y-111609D01*
X131318Y-112026D01*
X130901Y-112650D01*
X130854Y-112886D01*
X132177D01*
Y-111563D01*
D02*
G37*
G36*
X134501Y-113886D02*
X133177D01*
Y-115209D01*
X133413Y-115162D01*
X134037Y-114745D01*
X134454Y-114122D01*
X134501Y-113886D01*
D02*
G37*
G36*
X132177D02*
X130854D01*
X130901Y-114122D01*
X131318Y-114745D01*
X131941Y-115162D01*
X132177Y-115209D01*
Y-113886D01*
D02*
G37*
G36*
X151575Y-118674D02*
X151037Y-118781D01*
X150581Y-119085D01*
X150277Y-119541D01*
X150268Y-119585D01*
X150015Y-119838D01*
X147300D01*
X147191Y-119765D01*
X146653Y-119658D01*
X146116Y-119765D01*
X145660Y-120070D01*
X145355Y-120525D01*
X145249Y-121063D01*
X145355Y-121601D01*
X145660Y-122056D01*
X146116Y-122361D01*
X146653Y-122468D01*
X147191Y-122361D01*
X147300Y-122288D01*
X150523D01*
X150992Y-122195D01*
X151389Y-121929D01*
X151900Y-121419D01*
X152112Y-121377D01*
X152568Y-121072D01*
X152873Y-120616D01*
X152979Y-120079D01*
X152873Y-119541D01*
X152568Y-119085D01*
X152112Y-118781D01*
X151575Y-118674D01*
D02*
G37*
G36*
X162902Y-121838D02*
Y-123161D01*
X164225D01*
X164178Y-122926D01*
X163761Y-122302D01*
X163137Y-121885D01*
X162902Y-121838D01*
D02*
G37*
G36*
X161902D02*
X161666Y-121885D01*
X161042Y-122302D01*
X160625Y-122926D01*
X160578Y-123161D01*
X161902D01*
Y-121838D01*
D02*
G37*
G36*
X141543Y-123039D02*
Y-124362D01*
X142867D01*
X142820Y-124126D01*
X142403Y-123503D01*
X141779Y-123086D01*
X141543Y-123039D01*
D02*
G37*
G36*
X140543D02*
X140307Y-123086D01*
X139684Y-123503D01*
X139267Y-124126D01*
X139220Y-124362D01*
X140543D01*
Y-123039D01*
D02*
G37*
G36*
X164225Y-124161D02*
X162902D01*
Y-125485D01*
X163137Y-125438D01*
X163761Y-125021D01*
X164178Y-124397D01*
X164225Y-124161D01*
D02*
G37*
G36*
X161902D02*
X160578D01*
X160625Y-124397D01*
X161042Y-125021D01*
X161666Y-125438D01*
X161902Y-125485D01*
Y-124161D01*
D02*
G37*
G36*
X142867Y-125362D02*
X141543D01*
Y-126686D01*
X141779Y-126639D01*
X142403Y-126222D01*
X142820Y-125598D01*
X142867Y-125362D01*
D02*
G37*
G36*
X140543D02*
X139220D01*
X139267Y-125598D01*
X139684Y-126222D01*
X140307Y-126639D01*
X140543Y-126686D01*
Y-125362D01*
D02*
G37*
%LPD*%
D13*
X174764Y-167362D02*
X174803Y-167323D01*
X167126Y-167362D02*
X174764D01*
D18*
X116142Y-187480D02*
X115831Y-186729D01*
X115079Y-186417D01*
Y-188780D02*
X115831Y-188468D01*
X116142Y-187717D01*
X105984Y-188780D02*
X105233Y-189091D01*
X104921Y-189843D01*
Y-190079D02*
X105233Y-190830D01*
X105984Y-191142D01*
X116142Y-192205D02*
X115831Y-191453D01*
X115079Y-191142D01*
Y-193504D02*
X115831Y-193193D01*
X116142Y-192441D01*
X105984Y-193504D02*
X105233Y-193815D01*
X104921Y-194567D01*
Y-194803D02*
X105233Y-195555D01*
X105984Y-195866D01*
X116142Y-196929D02*
X115831Y-196177D01*
X115079Y-195866D01*
Y-198228D02*
X115831Y-197917D01*
X116142Y-197165D01*
X105984Y-198228D02*
X105233Y-198540D01*
X104921Y-199291D01*
Y-199528D02*
X105233Y-200279D01*
X105984Y-200591D01*
X116142Y-201654D02*
X115831Y-200902D01*
X115079Y-200591D01*
Y-202953D02*
X115831Y-202641D01*
X116142Y-201890D01*
X105984Y-202953D02*
X105233Y-203264D01*
X104921Y-204016D01*
Y-204252D02*
X105233Y-205004D01*
X105984Y-205315D01*
X116142Y-206378D02*
X115831Y-205626D01*
X115079Y-205315D01*
Y-207677D02*
X115831Y-207366D01*
X116142Y-206614D01*
X105984Y-207677D02*
X105233Y-207989D01*
X104921Y-208740D01*
Y-208976D02*
X105233Y-209728D01*
X105984Y-210039D01*
X115059Y-211102D02*
X114748Y-210351D01*
X113996Y-210039D01*
X139409Y-161653D02*
X139107Y-162383D01*
X139409Y-163112D01*
X145821Y-171027D02*
X146132Y-170275D01*
X145821Y-169523D01*
X144150Y-171194D02*
X144902Y-171505D01*
X145654Y-171194D01*
X137010Y-164053D02*
X135961D01*
X135340Y-164674D02*
Y-165724D01*
X142480Y-174367D02*
X142791Y-173616D01*
X142480Y-172864D01*
X140810Y-174534D02*
X141561Y-174846D01*
X142313Y-174534D01*
X133669Y-167394D02*
X132620D01*
X131999Y-168015D02*
Y-169064D01*
X139139Y-177708D02*
X139451Y-176956D01*
X139139Y-176205D01*
X137469Y-177875D02*
X138221Y-178186D01*
X138972Y-177875D01*
X130329Y-170734D02*
X129279D01*
X128658Y-171355D02*
Y-172405D01*
X135799Y-181049D02*
X136110Y-180297D01*
X135799Y-179545D01*
X134128Y-181216D02*
X134880Y-181527D01*
X135632Y-181216D01*
X126988Y-174075D02*
X125939D01*
X125318Y-174696D02*
Y-175745D01*
X132458Y-184389D02*
X132770Y-183638D01*
X132458Y-182886D01*
X130788Y-184556D02*
X131539Y-184868D01*
X132291Y-184556D01*
X123647Y-177416D02*
X122598D01*
X121977Y-178037D02*
Y-179086D01*
X161518Y-166976D02*
X161206Y-167728D01*
X161518Y-168480D01*
X163139Y-171605D02*
X163451Y-170853D01*
X163139Y-170102D01*
X161469Y-171772D02*
X162221Y-172083D01*
X162972Y-171772D01*
X155590Y-165893D02*
X154839Y-165582D01*
X154087Y-165893D01*
X153920Y-166060D02*
X153608Y-166812D01*
X153920Y-167563D01*
X159799Y-174946D02*
X160110Y-174194D01*
X159799Y-173442D01*
X158128Y-175113D02*
X158880Y-175424D01*
X159632Y-175113D01*
X152250Y-169234D02*
X151498Y-168922D01*
X150746Y-169234D01*
X150579Y-169401D02*
X150268Y-170152D01*
X150579Y-170904D01*
X156458Y-178286D02*
X156770Y-177535D01*
X156458Y-176783D01*
X154788Y-178453D02*
X155540Y-178765D01*
X156291Y-178453D01*
X148909Y-172574D02*
X148157Y-172263D01*
X147406Y-172574D01*
X147239Y-172741D02*
X146927Y-173493D01*
X147239Y-174245D01*
X153118Y-181627D02*
X153429Y-180875D01*
X153118Y-180124D01*
X151447Y-181794D02*
X152199Y-182105D01*
X152951Y-181794D01*
X145568Y-175915D02*
X144817Y-175604D01*
X144065Y-175915D01*
X143898Y-176082D02*
X143587Y-176834D01*
X143898Y-177585D01*
X149777Y-184968D02*
X150088Y-184216D01*
X149777Y-183464D01*
X148107Y-185135D02*
X148858Y-185446D01*
X149610Y-185135D01*
X142227Y-179256D02*
X141476Y-178944D01*
X140724Y-179256D01*
X140557Y-179423D02*
X140246Y-180174D01*
X140557Y-180926D01*
X146436Y-188308D02*
X146748Y-187557D01*
X146436Y-186805D01*
X144766Y-188475D02*
X145518Y-188787D01*
X146269Y-188475D01*
X138887Y-182596D02*
X138135Y-182285D01*
X137383Y-182596D01*
X137216Y-182763D02*
X136905Y-183515D01*
X137216Y-184267D01*
X139970Y-188524D02*
X140282Y-187772D01*
X139970Y-187021D01*
X161480Y-148917D02*
X169024Y-156461D01*
X152362Y-148917D02*
X161480D01*
X118805Y-231507D02*
Y-229305D01*
X117126Y-234823D02*
Y-183937D01*
X118805Y-229305D02*
X139887Y-208223D01*
X117126Y-183937D02*
X121142Y-179921D01*
X117126Y-234823D02*
X118957Y-236653D01*
X138292Y-244405D02*
X138297Y-244409D01*
X138292Y-244405D02*
Y-230714D01*
X138287Y-230709D02*
X138292Y-230714D01*
X157333Y-262598D02*
X193947Y-225984D01*
X157283Y-262598D02*
X157333D01*
X193947Y-225984D02*
X193996D01*
X118957Y-246654D02*
Y-236653D01*
X116870Y-243661D02*
Y-237185D01*
X115224Y-245307D02*
X116870Y-243661D01*
X117675Y-247936D02*
X118957Y-246654D01*
X115059Y-235374D02*
X116870Y-237185D01*
X116476Y-247936D02*
X117675D01*
X114891Y-245475D02*
X115059Y-245307D01*
X115224D01*
X147736Y-157579D02*
X148524Y-158366D01*
X139986Y-157579D02*
X147736D01*
X115059Y-182506D02*
X139986Y-157579D01*
X115059Y-185118D02*
Y-182506D01*
Y-235374D02*
Y-211221D01*
Y-186417D02*
Y-185118D01*
Y-186417D02*
X115079D01*
X116142Y-187717D02*
Y-187480D01*
X115059Y-188780D02*
X115079D01*
X105984D02*
X115059D01*
X104921Y-190079D02*
Y-189843D01*
X105984Y-191142D02*
X115059D01*
X115079D01*
X116142Y-192441D02*
Y-192205D01*
X115059Y-193504D02*
X115079D01*
X105984D02*
X115059D01*
X104921Y-194803D02*
Y-194567D01*
X105984Y-195866D02*
X115059D01*
X115079D01*
X116142Y-197165D02*
Y-196929D01*
X115059Y-198228D02*
X115079D01*
X105984D02*
X115059D01*
X104921Y-199528D02*
Y-199291D01*
X105984Y-200591D02*
X115059D01*
X115079D01*
X116142Y-201890D02*
Y-201654D01*
X115059Y-202953D02*
X115079D01*
X105984D02*
X115059D01*
X104921Y-204252D02*
Y-204016D01*
X105984Y-205315D02*
X115059D01*
X115079D01*
X116142Y-206614D02*
Y-206378D01*
X115059Y-207677D02*
X115079D01*
X105984D02*
X115059D01*
X104921Y-208976D02*
Y-208740D01*
X105984Y-210039D02*
X113996D01*
X115059Y-211221D02*
Y-211102D01*
X139409Y-161653D02*
X141024Y-160039D01*
X116476Y-247936D02*
X116493Y-247953D01*
X115059D02*
X116493D01*
X139887Y-208223D02*
Y-188607D01*
X65494Y-249663D02*
Y-248327D01*
X65453Y-249705D02*
X65494Y-249663D01*
Y-248327D02*
X73073Y-240748D01*
X69390Y-265453D02*
X79429D01*
X65453Y-261516D02*
X69390Y-265453D01*
X79429D02*
X83465Y-269488D01*
X117776D01*
X141024Y-160039D02*
Y-159153D01*
X165551Y-148819D02*
X183169D01*
X164665Y-147933D02*
X165551Y-148819D01*
X154429Y-147933D02*
X164665D01*
X152559Y-146063D02*
X154429Y-147933D01*
X148909Y-216199D02*
Y-205249D01*
X149705Y-204453D01*
Y-204134D01*
X134370Y-230738D02*
X148909Y-216199D01*
X138287Y-230709D02*
X150768Y-218228D01*
Y-215453D01*
X139409Y-163112D02*
X145821Y-169523D01*
X145654Y-171194D02*
X145821Y-171027D01*
X137010Y-164053D02*
X144150Y-171194D01*
X135340Y-164674D02*
X135961Y-164053D01*
X135340Y-165724D02*
X142480Y-172864D01*
X142313Y-174534D02*
X142480Y-174367D01*
X133669Y-167394D02*
X140810Y-174534D01*
X131999Y-168015D02*
X132620Y-167394D01*
X131999Y-169064D02*
X139139Y-176205D01*
X138972Y-177875D02*
X139139Y-177708D01*
X130329Y-170734D02*
X137469Y-177875D01*
X128658Y-171355D02*
X129279Y-170734D01*
X128658Y-172405D02*
X135799Y-179545D01*
X135632Y-181216D02*
X135799Y-181049D01*
X126988Y-174075D02*
X134128Y-181216D01*
X125318Y-174696D02*
X125939Y-174075D01*
X125318Y-175745D02*
X132458Y-182886D01*
X132291Y-184556D02*
X132458Y-184389D01*
X123647Y-177416D02*
X130788Y-184556D01*
X121977Y-178037D02*
X122598Y-177416D01*
X121142Y-179921D02*
X121977Y-179086D01*
X165379Y-163115D02*
X173622Y-154872D01*
X161518Y-166976D02*
X165379Y-163115D01*
X161518Y-168480D02*
X163139Y-170102D01*
X162972Y-171772D02*
X163139Y-171605D01*
X159096Y-169398D02*
X161469Y-171772D01*
X155590Y-165893D02*
X159096Y-169398D01*
X153920Y-166060D02*
X154087Y-165893D01*
X153920Y-167563D02*
X157425Y-171069D01*
X159799Y-173442D01*
X159632Y-175113D02*
X159799Y-174946D01*
X155755Y-172739D02*
X158128Y-175113D01*
X152250Y-169234D02*
X155755Y-172739D01*
X150579Y-169401D02*
X150746Y-169234D01*
X150579Y-170904D02*
X154085Y-174409D01*
X156458Y-176783D01*
X156291Y-178453D02*
X156458Y-178286D01*
X152414Y-176080D02*
X154788Y-178453D01*
X148909Y-172574D02*
X152414Y-176080D01*
X147239Y-172741D02*
X147406Y-172574D01*
X147239Y-174245D02*
X150744Y-177750D01*
X153118Y-180124D01*
X152951Y-181794D02*
X153118Y-181627D01*
X149074Y-179420D02*
X151447Y-181794D01*
X145568Y-175915D02*
X149074Y-179420D01*
X143898Y-176082D02*
X144065Y-175915D01*
X143898Y-177585D02*
X147403Y-181091D01*
X149777Y-183464D01*
X149610Y-185135D02*
X149777Y-184968D01*
X145733Y-182761D02*
X148107Y-185135D01*
X142227Y-179256D02*
X145733Y-182761D01*
X140557Y-179423D02*
X140724Y-179256D01*
X140557Y-180926D02*
X144063Y-184431D01*
X146436Y-186805D01*
X146269Y-188475D02*
X146436Y-188308D01*
X142392Y-186102D02*
X144766Y-188475D01*
X138887Y-182596D02*
X142392Y-186102D01*
X137216Y-182763D02*
X137383Y-182596D01*
X137216Y-184267D02*
X139970Y-187021D01*
X139887Y-188607D02*
X139970Y-188524D01*
X-0Y-326772D02*
X393701Y-326772D01*
X178740Y0D02*
X393701Y0D01*
X0D02*
X123386Y-0D01*
X123386Y-37480D02*
X178740Y-37480D01*
X393701Y-326772D02*
X393701Y0D01*
X-0Y-326772D02*
X0Y0D01*
X178740Y-37480D02*
X178740Y0D01*
X123386Y-37480D02*
X123386Y-0D01*
D76*
X389016Y-63150D02*
D03*
Y-73150D02*
D03*
X6316Y-159095D02*
D03*
Y-149094D02*
D03*
X6142Y-124862D02*
D03*
Y-114862D02*
D03*
X6240Y-97835D02*
D03*
Y-87835D02*
D03*
X6316Y-317087D02*
D03*
Y-307087D02*
D03*
X6339Y-30472D02*
D03*
Y-20472D02*
D03*
X6316Y-195630D02*
D03*
Y-185630D02*
D03*
X388140Y-153661D02*
D03*
Y-163661D02*
D03*
Y-220590D02*
D03*
Y-230591D02*
D03*
X389016Y-103583D02*
D03*
Y-113583D02*
D03*
X388140Y-285551D02*
D03*
Y-295551D02*
D03*
X6316Y-65118D02*
D03*
Y-55118D02*
D03*
D80*
X138892Y-312106D02*
X148046Y-302953D01*
X66831Y-312106D02*
X138892D01*
X198524Y-250295D02*
Y-249803D01*
X207776Y-240551D01*
Y-224213D01*
X211811Y-220177D01*
Y-178347D01*
X209547Y-219094D02*
Y-175886D01*
X205709Y-222933D02*
X209547Y-219094D01*
X205709Y-239843D02*
Y-222933D01*
X198602Y-246949D02*
X205709Y-239843D01*
X148046Y-302953D02*
X169685D01*
X214764Y-320472D02*
X215354Y-319882D01*
X167815Y-320472D02*
X214764D01*
X165945Y-318602D02*
X167815Y-320472D01*
X165945Y-318602D02*
Y-313583D01*
X248110Y-167402D02*
X248937Y-166575D01*
X248110Y-187736D02*
Y-167402D01*
Y-187736D02*
X248937Y-188563D01*
X251909D01*
X205630Y-198445D02*
X205709D01*
X205551Y-198366D02*
X205630Y-198445D01*
X193740Y-198366D02*
X205551D01*
X195728Y-196063D02*
X207185D01*
X195551Y-196240D02*
X195728Y-196063D01*
X144291Y-233839D02*
X144311Y-233858D01*
Y-240886D02*
Y-233858D01*
Y-240886D02*
X144331Y-240905D01*
X183366Y-279331D02*
X184665Y-280630D01*
X198721D01*
X140669Y-235669D02*
X140699Y-235699D01*
Y-240935D02*
Y-235699D01*
Y-240935D02*
X140728Y-240965D01*
X198524Y-283425D02*
X198602Y-283504D01*
X184665Y-283425D02*
X198524D01*
X184587Y-283347D02*
X184665Y-283425D01*
X257343Y-118307D02*
X258248D01*
X245787Y-129862D02*
X257343Y-118307D01*
X245787Y-140728D02*
Y-129862D01*
X221476Y-165039D02*
X245787Y-140728D01*
X221476Y-226220D02*
Y-165039D01*
X216339Y-231358D02*
X221476Y-226220D01*
X216339Y-240394D02*
Y-231358D01*
X205906Y-250827D02*
X216339Y-240394D01*
X205906Y-285866D02*
Y-250827D01*
X199016Y-292756D02*
X205906Y-285866D01*
X251535Y-63779D02*
X263957D01*
X241614Y-73701D02*
X251535Y-63779D01*
X241614Y-138681D02*
Y-73701D01*
X261595Y-111024D02*
X262815Y-112244D01*
Y-116929D02*
Y-112244D01*
X248031Y-131713D02*
X262815Y-116929D01*
X248031Y-141713D02*
Y-131713D01*
X223661Y-166083D02*
X248031Y-141713D01*
X223661Y-227126D02*
Y-166083D01*
X218681Y-232106D02*
X223661Y-227126D01*
X218681Y-241595D02*
Y-232106D01*
X208110Y-252165D02*
X218681Y-241595D01*
X208110Y-286890D02*
Y-252165D01*
X185216Y-294075D02*
Y-293779D01*
X229665Y-273150D02*
X249350D01*
X200768Y-302047D02*
X229665Y-273150D01*
X193189Y-302047D02*
X200768D01*
X231240Y-275394D02*
X232756D01*
X202421Y-304213D02*
X231240Y-275394D01*
X192106Y-304213D02*
X202421D01*
X199232Y-295768D02*
X208110Y-286890D01*
X185216Y-294075D02*
X193189Y-302047D01*
X184921Y-297028D02*
X192106Y-304213D01*
X243583Y-128051D02*
X258051Y-113583D01*
X243583Y-139685D02*
Y-128051D01*
X219252Y-164016D02*
X243583Y-139685D01*
X219252Y-225413D02*
Y-164016D01*
X214016Y-230650D02*
X219252Y-225413D01*
X214016Y-239528D02*
Y-230650D01*
X203898Y-249646D02*
X214016Y-239528D01*
X217264Y-163031D02*
X241614Y-138681D01*
X202126Y-248721D02*
X212224Y-238622D01*
X202126Y-283386D02*
Y-248721D01*
X203898Y-284764D02*
Y-249646D01*
X198839Y-289823D02*
X203898Y-284764D01*
X217264Y-224882D02*
Y-163031D01*
X212224Y-229921D02*
X217264Y-224882D01*
X212224Y-238622D02*
Y-229921D01*
X198484Y-287028D02*
X202126Y-283386D01*
X198484Y-287146D02*
Y-287028D01*
X273071Y-161752D02*
X279784D01*
X267874Y-166949D02*
X273071Y-161752D01*
X276929Y-273760D02*
X279823D01*
X267441Y-283248D02*
X276929Y-273760D01*
X265020Y-224882D02*
X275217Y-214685D01*
X279921D01*
X250315Y-241516D02*
X252894D01*
X248465Y-239665D02*
X250315Y-241516D01*
X248465Y-239665D02*
Y-221713D01*
X250934Y-300917D02*
X250984Y-300866D01*
X250444Y-300917D02*
X250934D01*
X250984Y-300866D02*
X253346D01*
X247638Y-298110D02*
X250444Y-300917D01*
X247638Y-298110D02*
Y-280276D01*
X108839Y-246831D02*
X144587Y-282579D01*
X108839Y-246831D02*
Y-221710D01*
X89491Y-202362D02*
X108839Y-221710D01*
X110020Y-245433D02*
X147343Y-282756D01*
X110020Y-245433D02*
Y-220059D01*
X92126Y-202165D02*
X110020Y-220059D01*
X152303Y-275276D02*
X162303D01*
X121673Y-244646D02*
X152303Y-275276D01*
X153563Y-273110D02*
X164823D01*
X121732Y-241280D02*
X153563Y-273110D01*
X180497Y-306279D02*
X186260D01*
X188071Y-304468D01*
X168213Y-293996D02*
X180497Y-306279D01*
X79825Y-293996D02*
X168213D01*
X156791Y-287106D02*
X179035Y-264862D01*
X143878Y-287106D02*
X156791D01*
X179035Y-264862D02*
Y-264748D01*
X123356Y-266585D02*
X143878Y-287106D01*
X90305Y-266585D02*
X123356D01*
X124213Y-289567D02*
X134646D01*
X185893Y-257890D02*
Y-257776D01*
X179035Y-264748D02*
X185893Y-257890D01*
X90256Y-266634D02*
X90305Y-266585D01*
X79331Y-191929D02*
Y-185630D01*
X161676Y-297441D02*
X165293Y-301058D01*
X159252Y-297441D02*
X161676D01*
X157480Y-295669D02*
X159252Y-297441D01*
X165293Y-301058D02*
X165354D01*
X167520Y-295669D02*
X173031Y-301181D01*
X162992Y-295669D02*
X167520D01*
X73073Y-300748D02*
X79825Y-293996D01*
X81892Y-289567D02*
X124213D01*
X73073Y-280748D02*
X81892Y-289567D01*
X134646D02*
X167638D01*
X179646Y-301575D01*
D81*
X106595Y-170472D02*
X106595D01*
X194598Y-129712D02*
X204232Y-120079D01*
X194598Y-155043D02*
Y-129712D01*
X286756Y-318862D02*
X287275Y-319381D01*
Y-319812D02*
Y-319381D01*
Y-319812D02*
X288071Y-320608D01*
Y-320768D02*
Y-320608D01*
X358642Y-71063D02*
Y-44311D01*
X333780Y-95925D02*
X358642Y-71063D01*
X333780Y-98366D02*
Y-95925D01*
X350335Y-96398D02*
X364094Y-82638D01*
Y-44311D01*
X334114Y-98701D02*
Y-98701D01*
X333780Y-98366D02*
X334114Y-98701D01*
X292676Y-47441D02*
X302658D01*
X290806Y-45571D02*
X292676Y-47441D01*
X290787Y-45571D02*
X290806D01*
X249173Y-256004D02*
X249311D01*
X227815Y-270768D02*
X234409D01*
X199350Y-299232D02*
X227815Y-270768D01*
X193957Y-299232D02*
X199350D01*
X234409Y-270768D02*
X249173Y-256004D01*
X184921Y-290197D02*
X193957Y-299232D01*
X254488Y-189469D02*
X255276Y-190256D01*
Y-249764D02*
Y-190256D01*
X249173Y-255866D02*
X255276Y-249764D01*
X249311Y-256004D02*
X254468Y-261161D01*
Y-286142D02*
Y-261161D01*
X253248Y-287362D02*
X254468Y-286142D01*
X301486Y-315699D02*
X305453Y-311732D01*
X295276Y-239469D02*
X295335Y-239409D01*
Y-188209D01*
X295394Y-188150D01*
X306201Y-221791D02*
X306240Y-221752D01*
Y-170394D01*
X306279Y-170354D01*
X282666Y-322953D02*
X286756Y-318862D01*
X60187Y-322953D02*
X282666D01*
X33868Y-296634D02*
X60187Y-322953D01*
X33868Y-296634D02*
Y-276388D01*
X57815Y-325157D02*
X292028D01*
X28032Y-295374D02*
X57815Y-325157D01*
X292028D02*
X301486Y-315699D01*
Y-314953D01*
X299902Y-313369D02*
X301486Y-314953D01*
X299902Y-313369D02*
Y-313209D01*
X286756Y-318862D02*
X291201Y-314418D01*
Y-301811D01*
Y-243543D02*
X295276Y-239469D01*
X305453Y-311732D02*
Y-311496D01*
X306102Y-310846D01*
Y-281102D01*
X8071Y-250590D02*
X33868Y-276388D01*
X291201Y-301811D02*
Y-243543D01*
X306152Y-221841D02*
X306201Y-221791D01*
X306152Y-281053D02*
Y-221841D01*
X306102Y-281102D02*
X306152Y-281053D01*
X28032Y-295374D02*
Y-291240D01*
X161890Y-270866D02*
X161988Y-270965D01*
X160216Y-270866D02*
X161890D01*
X126398Y-237047D02*
X160216Y-270866D01*
X103150Y-256791D02*
X114469D01*
D82*
X96850Y-160728D02*
X106595Y-170472D01*
X231496Y-42520D02*
X307874D01*
X315059Y-35335D01*
X231496Y-141732D02*
Y-42520D01*
X193209Y-180020D02*
X231496Y-141732D01*
X162894Y-180020D02*
X193209D01*
X31299Y-264370D02*
Y-262598D01*
X27165Y-258465D02*
X31299Y-262598D01*
X27165Y-258465D02*
Y-79331D01*
D84*
X137587Y-104161D02*
X138899Y-105473D01*
X137587Y-104161D02*
Y-103937D01*
X152559Y-114482D02*
X154219Y-116142D01*
X160059Y-104370D02*
X162972Y-107283D01*
X167323D01*
X154219Y-116142D02*
X162402D01*
X142067Y-106154D02*
Y-105157D01*
X143268Y-103957D01*
X142067Y-106154D02*
X145280Y-109367D01*
X152559Y-114482D02*
Y-114173D01*
X152375Y-113990D02*
X152559Y-114173D01*
X138899Y-105473D02*
X139922D01*
X144851Y-110402D01*
X146653Y-121063D02*
X150523D01*
X178950Y-116142D02*
X181102Y-113990D01*
X162402Y-116142D02*
X178950D01*
X175595Y-112205D02*
X180567Y-107233D01*
X170522Y-112205D02*
X175595D01*
X153907Y-112459D02*
X154090Y-112642D01*
X153107Y-112459D02*
X153907D01*
X150016Y-109367D02*
X153107Y-112459D01*
X145280Y-109367D02*
X150016D01*
X152375Y-113990D02*
Y-113190D01*
X149587Y-110402D02*
X152375Y-113190D01*
X144851Y-110402D02*
X149587D01*
X150523Y-121063D02*
X151507Y-120079D01*
D87*
X185443Y-42726D02*
X185551Y-42618D01*
X179411Y-42726D02*
X185443D01*
X179372Y-42687D02*
X179411Y-42726D01*
X194390Y-91142D02*
Y-58366D01*
Y-91142D02*
X194416Y-91168D01*
Y-123583D02*
Y-91168D01*
X179372Y-43349D02*
Y-42835D01*
X186292Y-131707D02*
X194416Y-123583D01*
X143321Y-131707D02*
X186292D01*
X179372Y-43349D02*
X194390Y-58366D01*
X178858Y-42835D02*
X179372D01*
X107894Y-107480D02*
X115157D01*
X101909Y-101496D02*
X107894Y-107480D01*
X113425Y-48465D02*
X127953D01*
X101772Y-60118D02*
X113425Y-48465D01*
X101772Y-91929D02*
Y-60118D01*
X115157Y-107480D02*
X138484Y-130807D01*
X141043Y-129429D02*
X143321Y-131707D01*
D92*
X353445Y-287106D02*
D03*
X379724Y-42323D02*
D03*
X62894Y-16535D02*
D03*
X50787Y-297638D02*
D03*
D93*
X251457Y-148327D02*
D03*
X261457D02*
D03*
X271457D02*
D03*
X73073Y-230748D02*
D03*
Y-240748D02*
D03*
Y-250748D02*
D03*
Y-260748D02*
D03*
Y-290748D02*
D03*
Y-280748D02*
D03*
Y-270748D02*
D03*
X96457Y-317520D02*
D03*
X86457D02*
D03*
X76457D02*
D03*
D94*
X281457Y-148327D02*
D03*
X106457Y-317520D02*
D03*
D95*
X330866Y-7874D02*
D03*
X320866Y-7874D02*
D03*
X349921Y-7638D02*
D03*
X369921D02*
D03*
X248110Y-7854D02*
D03*
X238110Y-7854D02*
D03*
X267165Y-7618D02*
D03*
X287165D02*
D03*
X8307Y-269646D02*
D03*
X8307Y-279646D02*
D03*
X8071Y-250590D02*
D03*
Y-230591D02*
D03*
D96*
X119409Y-21890D02*
D03*
X182717D02*
D03*
D97*
X132283Y-42835D02*
D03*
X165118Y-51417D02*
D03*
X161102Y-47087D02*
D03*
X157087Y-51417D02*
D03*
X153071Y-47087D02*
D03*
X149055Y-51417D02*
D03*
X145039Y-47087D02*
D03*
X141024Y-51417D02*
D03*
X123268Y-42835D02*
D03*
X169843D02*
D03*
X178858D02*
D03*
D98*
X137008Y-47087D02*
D03*
D99*
X379016Y-63150D02*
D03*
X16316Y-159095D02*
D03*
X16142Y-124862D02*
D03*
X16240Y-97835D02*
D03*
X16316Y-317087D02*
D03*
X16339Y-30472D02*
D03*
X16316Y-195630D02*
D03*
X378140Y-153661D02*
D03*
Y-220590D02*
D03*
X379016Y-103583D02*
D03*
X378140Y-285551D02*
D03*
X16316Y-65118D02*
D03*
D100*
X379016Y-73150D02*
D03*
X16316Y-149094D02*
D03*
X16142Y-114862D02*
D03*
X16240Y-87835D02*
D03*
X16316Y-307087D02*
D03*
X16339Y-20472D02*
D03*
X16316Y-185630D02*
D03*
X378140Y-163661D02*
D03*
Y-230591D02*
D03*
X379016Y-113583D02*
D03*
X378140Y-295551D02*
D03*
X16316Y-55118D02*
D03*
D101*
X73073Y-300748D02*
D03*
D102*
X347736Y-306420D02*
D03*
X52950Y-264663D02*
D03*
X48797Y-264764D02*
D03*
X66831Y-312106D02*
D03*
X61221Y-34055D02*
D03*
X46211Y-21850D02*
D03*
X103267Y-284350D02*
D03*
X104724Y-304064D02*
D03*
X188164Y-311221D02*
D03*
X156102Y-299570D02*
D03*
X142028Y-302873D02*
D03*
X122423Y-184055D02*
D03*
X104035Y-185361D02*
D03*
X125315Y-215551D02*
D03*
X198383Y-272146D02*
D03*
X199016Y-254297D02*
D03*
X106595Y-170472D02*
D03*
X151761Y-231563D02*
D03*
X160138Y-243622D02*
D03*
X174803Y-230591D02*
D03*
X157616Y-231136D02*
D03*
X164173Y-93898D02*
D03*
X176024Y-134843D02*
D03*
X198524Y-250295D02*
D03*
X211811Y-178347D02*
D03*
X209547Y-175886D02*
D03*
X198602Y-246949D02*
D03*
X180020Y-296063D02*
D03*
X147908Y-253839D02*
D03*
X121219Y-236319D02*
D03*
X90256Y-9449D02*
D03*
X199311Y-43071D02*
D03*
X179390Y-154774D02*
D03*
X262697Y-130610D02*
D03*
X264961Y-80650D02*
D03*
X215354Y-319882D02*
D03*
X165945Y-313583D02*
D03*
X179390Y-315945D02*
D03*
X150394Y-115748D02*
D03*
X104232Y-232776D02*
D03*
X156693Y-112008D02*
D03*
X170965Y-105793D02*
D03*
X141043Y-124862D02*
D03*
X132677Y-113386D02*
D03*
X129441Y-96850D02*
D03*
X174803Y-167323D02*
D03*
X167126Y-167362D02*
D03*
X271665Y-108575D02*
D03*
X271685Y-100972D02*
D03*
X126490Y-230746D02*
D03*
X194598Y-155043D02*
D03*
X329075Y-227402D02*
D03*
X370354Y-320236D02*
D03*
X288071Y-320768D02*
D03*
X264724Y-58425D02*
D03*
X350335Y-96398D02*
D03*
X364094Y-44311D02*
D03*
X358642D02*
D03*
X334114Y-98701D02*
D03*
X302658Y-47441D02*
D03*
X290787Y-45571D02*
D03*
X248937Y-166575D02*
D03*
X251909Y-188563D02*
D03*
X231181Y-192677D02*
D03*
X205709Y-198445D02*
D03*
X193740Y-198366D02*
D03*
X207185Y-196063D02*
D03*
X195551Y-196240D02*
D03*
X213760Y-220472D02*
D03*
X203622Y-236673D02*
D03*
X144291Y-233839D02*
D03*
X144331Y-240905D02*
D03*
X183366Y-279331D02*
D03*
X198721Y-280630D02*
D03*
X140669Y-235669D02*
D03*
X140728Y-240965D02*
D03*
X186752Y-285453D02*
D03*
X184587Y-283347D02*
D03*
X198602Y-283504D02*
D03*
X186831Y-278524D02*
D03*
X211378Y-275118D02*
D03*
X261575Y-121319D02*
D03*
X275020Y-71260D02*
D03*
X276654Y-130748D02*
D03*
X279370Y-80650D02*
D03*
X260295Y-115748D02*
D03*
X261595Y-111024D02*
D03*
X199232Y-295768D02*
D03*
X258051Y-113583D02*
D03*
X258248Y-118307D02*
D03*
X199016Y-292756D02*
D03*
X198839Y-289823D02*
D03*
X263957Y-63779D02*
D03*
X198484Y-287146D02*
D03*
X309114Y-154862D02*
D03*
X279784Y-161752D02*
D03*
X267874Y-166949D02*
D03*
X254488Y-189469D02*
D03*
X252165Y-202854D02*
D03*
X248543Y-194744D02*
D03*
X279823Y-273760D02*
D03*
X265020Y-224882D02*
D03*
X279921Y-214685D02*
D03*
X248465Y-221713D02*
D03*
X252894Y-241516D02*
D03*
X253346Y-300866D02*
D03*
X247638Y-280276D02*
D03*
X257933Y-252047D02*
D03*
X253248Y-287362D02*
D03*
X247618Y-275807D02*
D03*
X274843Y-210965D02*
D03*
X282874Y-209488D02*
D03*
X298957Y-208347D02*
D03*
X302224Y-197205D02*
D03*
X320315Y-178878D02*
D03*
X324980Y-179882D02*
D03*
X339705Y-181653D02*
D03*
X315059Y-35335D02*
D03*
X300335Y-247657D02*
D03*
X179350Y-208642D02*
D03*
X96161Y-122992D02*
D03*
X96496Y-146339D02*
D03*
X282047Y-320000D02*
D03*
X274961Y-320886D02*
D03*
X296240Y-316968D02*
D03*
X309331Y-309114D02*
D03*
X299902Y-313209D02*
D03*
X347756Y-181634D02*
D03*
X369921Y-193189D02*
D03*
X319587Y-230551D02*
D03*
X347303Y-244646D02*
D03*
X339370Y-244705D02*
D03*
X299882Y-306988D02*
D03*
X374193Y-259370D02*
D03*
X267441Y-283248D02*
D03*
X274764Y-262087D02*
D03*
X282677Y-260807D02*
D03*
X298799Y-267776D02*
D03*
X295394Y-188150D02*
D03*
X291201Y-301811D02*
D03*
X306279Y-170354D02*
D03*
X306201Y-221791D02*
D03*
X306102Y-281102D02*
D03*
X28032Y-291240D02*
D03*
X231476Y-245433D02*
D03*
X245158Y-245709D02*
D03*
X249173Y-255866D02*
D03*
X253130Y-315374D02*
D03*
X184921Y-290197D02*
D03*
Y-293779D02*
D03*
X162303Y-275276D02*
D03*
X161988Y-270965D02*
D03*
X126398Y-237047D02*
D03*
X164823Y-273110D02*
D03*
X232756Y-275394D02*
D03*
X184921Y-297028D02*
D03*
X159331Y-277658D02*
D03*
X121673Y-244646D02*
D03*
X249350Y-273150D02*
D03*
X121732Y-241280D02*
D03*
X140374Y-103465D02*
D03*
X201398Y-26319D02*
D03*
X331102Y-33686D02*
D03*
X264862Y-50591D02*
D03*
X241240Y-35531D02*
D03*
X231496Y-42520D02*
D03*
X162894Y-180020D02*
D03*
X96850Y-160728D02*
D03*
X103150Y-259252D02*
D03*
X94685Y-246358D02*
D03*
X90551D02*
D03*
X31299Y-264370D02*
D03*
X98622Y-272736D02*
D03*
X101772Y-236122D02*
D03*
X111791Y-226673D02*
D03*
X103091Y-261822D02*
D03*
X102854Y-207972D02*
D03*
X212697Y-257382D02*
D03*
X198383Y-259764D02*
D03*
X295276Y-239469D02*
D03*
X59646Y-159646D02*
D03*
X59055Y-199213D02*
D03*
X46716Y-250294D02*
D03*
X34616Y-259539D02*
D03*
X62762Y-277471D02*
D03*
X27165Y-79331D02*
D03*
X35935Y-289075D02*
D03*
X103937Y-278740D02*
D03*
X91339Y-296260D02*
D03*
X247441Y-304331D02*
D03*
X233465D02*
D03*
X91339Y-227559D02*
D03*
Y-213583D02*
D03*
X319291Y-289567D02*
D03*
X324803Y-290158D02*
D03*
X339764Y-306069D02*
D03*
X151339Y-315551D02*
D03*
X126575Y-316142D02*
D03*
X202264Y-308484D02*
D03*
X57972Y-78465D02*
D03*
X47343Y-34154D02*
D03*
X47539Y-44390D02*
D03*
X57874Y-84941D02*
D03*
X89764Y-304429D02*
D03*
X204232Y-127334D02*
D03*
Y-134350D02*
D03*
X156398Y-155000D02*
D03*
X163681Y-154921D02*
D03*
X121358Y-206936D02*
D03*
X158268Y-187303D02*
D03*
X127953Y-187894D02*
D03*
X163386Y-208858D02*
D03*
X143110Y-205709D02*
D03*
X204232Y-112500D02*
D03*
X187008Y-154724D02*
D03*
X204232Y-120079D02*
D03*
X162402Y-123661D02*
D03*
X189764Y-106299D02*
D03*
X125591Y-159095D02*
D03*
X117776Y-160236D02*
D03*
X125984Y-140157D02*
D03*
X116929Y-103347D02*
D03*
X110236Y-103150D02*
D03*
X136264Y-146260D02*
D03*
X150591Y-142717D02*
D03*
X125315Y-126575D02*
D03*
X84049Y-28059D02*
D03*
X193996Y-316142D02*
D03*
X136339Y-303150D02*
D03*
D103*
X60827Y-270374D02*
D03*
X185551Y-42618D02*
D03*
X220571Y-293996D02*
D03*
X169024Y-156461D02*
D03*
X118805Y-231507D02*
D03*
X101909Y-101496D02*
D03*
X138297Y-244409D02*
D03*
X157283Y-262598D02*
D03*
X188071Y-304468D02*
D03*
X183583Y-302559D02*
D03*
X183150Y-256909D02*
D03*
X196752Y-226142D02*
D03*
X159075Y-264469D02*
D03*
X144587Y-282579D02*
D03*
X147343Y-282756D02*
D03*
X117283Y-245866D02*
D03*
X114891Y-245475D02*
D03*
X120681Y-229811D02*
D03*
X151024Y-158366D02*
D03*
X143740Y-159213D02*
D03*
X171047Y-154847D02*
D03*
X127953Y-48465D02*
D03*
X137587Y-103937D02*
D03*
X160059Y-104370D02*
D03*
X167323Y-107283D02*
D03*
X143268Y-103957D02*
D03*
X152559Y-114482D02*
D03*
X65453Y-249705D02*
D03*
Y-261516D02*
D03*
X117776Y-269488D02*
D03*
X185893Y-257776D02*
D03*
X90256Y-266634D02*
D03*
X103150Y-256791D02*
D03*
X114469D02*
D03*
X79331Y-191929D02*
D03*
Y-185630D02*
D03*
X157480Y-295669D02*
D03*
X173031Y-301181D02*
D03*
X162992Y-295669D02*
D03*
X115059Y-247953D02*
D03*
X92126Y-202165D02*
D03*
X169685Y-302953D02*
D03*
X165354Y-301058D02*
D03*
X89491Y-202362D02*
D03*
X179646Y-301575D02*
D03*
X141024Y-159153D02*
D03*
X152362Y-148917D02*
D03*
X149705Y-204134D02*
D03*
X134370Y-230738D02*
D03*
X183169Y-148819D02*
D03*
X152559Y-146063D02*
D03*
X150768Y-215453D02*
D03*
X138287Y-230709D02*
D03*
X148524Y-158366D02*
D03*
X173622Y-154872D02*
D03*
X193996Y-225984D02*
D03*
X101772Y-91929D02*
D03*
X138484Y-130807D02*
D03*
X141043Y-129429D02*
D03*
X146653Y-121063D02*
D03*
X181102Y-113990D02*
D03*
X180567Y-107233D02*
D03*
X170522Y-112205D02*
D03*
X162402Y-116142D02*
D03*
X154090Y-112642D02*
D03*
X151575Y-120079D02*
D03*
D104*
X82972Y-75492D02*
D03*
X87992Y-69390D02*
D03*
X87205Y-44980D02*
D03*
X88090Y-56693D02*
D03*
X80413Y-42717D02*
D03*
X87894Y-62402D02*
D03*
X88090Y-50787D02*
D03*
X84744Y-80216D02*
D03*
D105*
X149213Y-129528D02*
D03*
X153937D02*
D03*
M02*
