G04*
G04 #@! TF.GenerationSoftware,Altium Limited,Altium Designer,19.0.9 (268)*
G04*
G04 Layer_Color=8388736*
%FSLAX25Y25*%
%MOIN*%
G70*
G01*
G75*
%ADD18C,0.00394*%
%ADD42R,0.02913X0.05906*%
%ADD43R,0.03150X0.04134*%
%ADD44R,0.07480X0.04921*%
%ADD45R,0.04134X0.03150*%
%ADD46R,0.09055X0.07480*%
%ADD47R,0.05906X0.07874*%
%ADD48R,0.08268X0.03150*%
%ADD49R,0.06398X0.02953*%
%ADD50R,0.05906X0.01968*%
%ADD51R,0.03110X0.01496*%
%ADD52R,0.01496X0.03110*%
%ADD53R,0.10236X0.10236*%
%ADD54R,0.04724X0.02756*%
%ADD55R,0.02559X0.04724*%
%ADD56R,0.12205X0.06693*%
%ADD57R,0.24803X0.23228*%
%ADD58R,0.01575X0.06890*%
%ADD59R,0.06890X0.01575*%
%ADD60R,0.03937X0.03150*%
%ADD61R,0.02756X0.03150*%
%ADD62R,0.04134X0.03937*%
%ADD63R,0.02756X0.03543*%
%ADD64R,0.03937X0.04134*%
%ADD65C,0.11811*%
%ADD66C,0.07087*%
%ADD67R,0.07087X0.07087*%
%ADD68C,0.05512*%
%ADD69O,0.04331X0.10630*%
%ADD70C,0.04331*%
%ADD71R,0.04331X0.04331*%
%ADD72C,0.02559*%
%ADD73C,0.06890*%
%ADD74R,0.06890X0.06890*%
%ADD75R,0.07087X0.07087*%
%ADD76C,0.02165*%
%ADD77C,0.01968*%
%ADD78C,0.03150*%
%ADD79C,0.02992*%
D18*
X-0Y-326772D02*
X393701Y-326772D01*
X178740Y0D02*
X393701Y0D01*
X0D02*
X123386Y-0D01*
X123386Y-37480D02*
X178740Y-37480D01*
X393701Y-326772D02*
X393701Y0D01*
X-0Y-326772D02*
X0Y0D01*
X178740Y-37480D02*
X178740Y0D01*
X123386Y-37480D02*
X123386Y-0D01*
D42*
X169075Y-62953D02*
D03*
X134075Y-98465D02*
D03*
X139075D02*
D03*
X144075D02*
D03*
X149075D02*
D03*
X154075D02*
D03*
X159075D02*
D03*
X164075D02*
D03*
X169075D02*
D03*
X134075Y-62953D02*
D03*
X139075D02*
D03*
X144075D02*
D03*
X149075D02*
D03*
X154075D02*
D03*
X159075D02*
D03*
X164075D02*
D03*
D43*
X33907Y-320079D02*
D03*
X39321D02*
D03*
X33907D02*
D03*
X94768Y-28059D02*
D03*
X89354D02*
D03*
X94768D02*
D03*
X110782Y-6496D02*
D03*
X105368D02*
D03*
X110782D02*
D03*
X364085Y-34232D02*
D03*
X358671D02*
D03*
X364085D02*
D03*
X321408Y-33686D02*
D03*
X326821D02*
D03*
X321408D02*
D03*
X58711Y-177589D02*
D03*
X64124D02*
D03*
X58711D02*
D03*
Y-216828D02*
D03*
X64124D02*
D03*
X58711D02*
D03*
X44971Y-149094D02*
D03*
X50384D02*
D03*
X44971D02*
D03*
Y-156968D02*
D03*
X50384D02*
D03*
X44971D02*
D03*
Y-164842D02*
D03*
X50384D02*
D03*
X44971D02*
D03*
X34695Y-126654D02*
D03*
X40108D02*
D03*
X34695D02*
D03*
Y-101971D02*
D03*
X40108D02*
D03*
X34695D02*
D03*
X34222Y-21535D02*
D03*
X39636D02*
D03*
X34222D02*
D03*
X45364Y-182756D02*
D03*
X50778D02*
D03*
X45364D02*
D03*
Y-190630D02*
D03*
X50778D02*
D03*
X45364D02*
D03*
Y-198504D02*
D03*
X50778D02*
D03*
X45364D02*
D03*
X305482Y-190945D02*
D03*
X310896D02*
D03*
X305482D02*
D03*
X236732Y-166535D02*
D03*
X242146D02*
D03*
X236732D02*
D03*
X313730Y-157480D02*
D03*
X319144D02*
D03*
X313730D02*
D03*
X366939Y-143189D02*
D03*
X372352D02*
D03*
X366939D02*
D03*
X304262Y-242677D02*
D03*
X309675D02*
D03*
X304262D02*
D03*
X236732Y-220158D02*
D03*
X242146D02*
D03*
X236732D02*
D03*
X312254Y-210630D02*
D03*
X317667D02*
D03*
X312254D02*
D03*
X368622Y-209842D02*
D03*
X374035D02*
D03*
X368622D02*
D03*
X302805Y-302362D02*
D03*
X308219D02*
D03*
X302805D02*
D03*
X236732Y-278740D02*
D03*
X242146D02*
D03*
X236732D02*
D03*
X312254Y-269685D02*
D03*
X317667D02*
D03*
X312254D02*
D03*
X367175Y-274803D02*
D03*
X372589D02*
D03*
X367175D02*
D03*
X191732Y-26378D02*
D03*
X197146D02*
D03*
X191732D02*
D03*
X189616Y-42815D02*
D03*
X195029D02*
D03*
X189616D02*
D03*
X135896Y-126575D02*
D03*
X130482D02*
D03*
X135896D02*
D03*
X176329Y-55709D02*
D03*
X181742D02*
D03*
X176329D02*
D03*
X124065Y-55866D02*
D03*
X118652D02*
D03*
X124065D02*
D03*
X128297Y-64567D02*
D03*
X122884D02*
D03*
X128297D02*
D03*
X176427Y-63287D02*
D03*
X181841D02*
D03*
X176427D02*
D03*
X134301Y-116929D02*
D03*
X139715D02*
D03*
X134301D02*
D03*
X130561Y-109646D02*
D03*
X135974D02*
D03*
X130561D02*
D03*
X171782Y-124016D02*
D03*
X166368D02*
D03*
X171782D02*
D03*
Y-116591D02*
D03*
X166368D02*
D03*
X171782D02*
D03*
X206860Y-216535D02*
D03*
X212274D02*
D03*
X206860D02*
D03*
X200541Y-119728D02*
D03*
X195128D02*
D03*
X200541D02*
D03*
X108711Y-219636D02*
D03*
X103297D02*
D03*
X108711D02*
D03*
X200689Y-232192D02*
D03*
X206102D02*
D03*
X200689D02*
D03*
X291742Y-321398D02*
D03*
X297155D02*
D03*
X291742D02*
D03*
X303848Y-313268D02*
D03*
X309262D02*
D03*
X303848D02*
D03*
X108711Y-212697D02*
D03*
X103297D02*
D03*
X108711D02*
D03*
X141467Y-315846D02*
D03*
X146880D02*
D03*
X141467D02*
D03*
X99163Y-304429D02*
D03*
X93750D02*
D03*
X99163D02*
D03*
X58750Y-168780D02*
D03*
X64163D02*
D03*
X58750D02*
D03*
Y-208150D02*
D03*
X64163D02*
D03*
X58750D02*
D03*
X339518Y-47284D02*
D03*
X344931D02*
D03*
X339518D02*
D03*
X270404Y-80669D02*
D03*
X275817D02*
D03*
X270404D02*
D03*
X298415Y-79331D02*
D03*
X303829D02*
D03*
X298415D02*
D03*
X339813Y-99429D02*
D03*
X345226D02*
D03*
X339813D02*
D03*
X266900Y-130689D02*
D03*
X272313D02*
D03*
X266900D02*
D03*
X297392Y-129941D02*
D03*
X302805D02*
D03*
X297392D02*
D03*
X102106Y-142343D02*
D03*
X96693D02*
D03*
X102106D02*
D03*
X194931Y-127246D02*
D03*
X200344D02*
D03*
X194931D02*
D03*
X169911Y-131122D02*
D03*
X175325D02*
D03*
X169911D02*
D03*
X195108Y-134252D02*
D03*
X200522D02*
D03*
X195108D02*
D03*
X102106Y-127382D02*
D03*
X96693D02*
D03*
X102106D02*
D03*
X139045Y-140157D02*
D03*
X133632D02*
D03*
X139045D02*
D03*
X195128Y-112482D02*
D03*
X200541D02*
D03*
X195128D02*
D03*
X203100Y-257382D02*
D03*
X208514D02*
D03*
X203100D02*
D03*
X200561Y-241378D02*
D03*
X205974D02*
D03*
X200561D02*
D03*
X202037Y-275118D02*
D03*
X207451D02*
D03*
X202037D02*
D03*
X103297Y-226575D02*
D03*
X108711D02*
D03*
X103297D02*
D03*
X170128Y-315846D02*
D03*
X175541D02*
D03*
X170128D02*
D03*
X135660Y-316043D02*
D03*
X130246D02*
D03*
X135660D02*
D03*
X161939Y-315846D02*
D03*
X156526D02*
D03*
X161939D02*
D03*
X192175Y-308484D02*
D03*
X197589D02*
D03*
X192175D02*
D03*
X53362Y-277471D02*
D03*
X58776D02*
D03*
X53362D02*
D03*
X56588Y-249499D02*
D03*
X51175D02*
D03*
X56588D02*
D03*
X278809Y-33819D02*
D03*
X273396D02*
D03*
X278809D02*
D03*
X231545Y-35433D02*
D03*
X236959D02*
D03*
X231545D02*
D03*
X95522Y-296260D02*
D03*
X100935D02*
D03*
X95522D02*
D03*
X188927Y-316043D02*
D03*
X183514D02*
D03*
X188927D02*
D03*
X57136Y-41634D02*
D03*
X51723D02*
D03*
X57136D02*
D03*
X57333Y-34154D02*
D03*
X51919D02*
D03*
X57333D02*
D03*
X48376Y-78347D02*
D03*
X53789D02*
D03*
X48376D02*
D03*
X48474Y-84941D02*
D03*
X53888D02*
D03*
X48474D02*
D03*
D44*
X111614Y-32783D02*
D03*
Y-20972D02*
D03*
D45*
X218209Y-297146D02*
D03*
Y-302559D02*
D03*
Y-297146D02*
D03*
X215256Y-311181D02*
D03*
Y-316595D02*
D03*
Y-311181D02*
D03*
X358268Y-65856D02*
D03*
Y-60443D02*
D03*
Y-65856D02*
D03*
X253219Y-179577D02*
D03*
Y-184990D02*
D03*
Y-179577D02*
D03*
X351644Y-176112D02*
D03*
Y-181526D02*
D03*
Y-176112D02*
D03*
X266998Y-201230D02*
D03*
Y-206644D02*
D03*
Y-201230D02*
D03*
X253219Y-165797D02*
D03*
Y-171211D02*
D03*
Y-165797D02*
D03*
X237559Y-181211D02*
D03*
Y-175797D02*
D03*
Y-181211D02*
D03*
X343711Y-152667D02*
D03*
Y-158081D02*
D03*
Y-152667D02*
D03*
X335837D02*
D03*
Y-158081D02*
D03*
Y-152667D02*
D03*
X324803Y-170522D02*
D03*
Y-175935D02*
D03*
Y-170522D02*
D03*
X279744Y-168652D02*
D03*
Y-174065D02*
D03*
Y-168652D02*
D03*
X253268Y-232549D02*
D03*
Y-237963D02*
D03*
Y-232549D02*
D03*
X335403Y-239282D02*
D03*
Y-244695D02*
D03*
Y-239282D02*
D03*
X266998Y-252411D02*
D03*
Y-257825D02*
D03*
Y-252411D02*
D03*
X253219Y-219262D02*
D03*
Y-224675D02*
D03*
Y-219262D02*
D03*
X237471Y-234675D02*
D03*
Y-229262D02*
D03*
Y-234675D02*
D03*
X343770Y-215778D02*
D03*
Y-221191D02*
D03*
Y-215778D02*
D03*
X351644D02*
D03*
Y-221191D02*
D03*
Y-215778D02*
D03*
X324803Y-221703D02*
D03*
Y-227116D02*
D03*
Y-221703D02*
D03*
X279587Y-220404D02*
D03*
Y-225817D02*
D03*
Y-220404D02*
D03*
X253219Y-291781D02*
D03*
Y-297195D02*
D03*
Y-291781D02*
D03*
X351841Y-301886D02*
D03*
Y-307299D02*
D03*
Y-301886D02*
D03*
X266998Y-311309D02*
D03*
Y-316722D02*
D03*
Y-311309D02*
D03*
X253219Y-278002D02*
D03*
Y-283415D02*
D03*
Y-278002D02*
D03*
X237471Y-293258D02*
D03*
Y-287844D02*
D03*
Y-293258D02*
D03*
X345541Y-266978D02*
D03*
Y-272392D02*
D03*
Y-266978D02*
D03*
X353415D02*
D03*
Y-272392D02*
D03*
Y-266978D02*
D03*
X324803Y-280758D02*
D03*
Y-286171D02*
D03*
Y-280758D02*
D03*
X281378Y-280364D02*
D03*
Y-285778D02*
D03*
Y-280364D02*
D03*
X186850Y-151526D02*
D03*
Y-146112D02*
D03*
Y-151526D02*
D03*
X171575Y-146112D02*
D03*
Y-151526D02*
D03*
Y-146112D02*
D03*
X140945Y-149262D02*
D03*
Y-154675D02*
D03*
Y-149262D02*
D03*
X148425D02*
D03*
Y-154675D02*
D03*
Y-149262D02*
D03*
X194488Y-151801D02*
D03*
Y-146388D02*
D03*
Y-151801D02*
D03*
X163787Y-146358D02*
D03*
Y-151772D02*
D03*
Y-146358D02*
D03*
X156385Y-151526D02*
D03*
Y-146112D02*
D03*
Y-151526D02*
D03*
X133071Y-149262D02*
D03*
Y-154675D02*
D03*
Y-149262D02*
D03*
X179213Y-151526D02*
D03*
Y-146112D02*
D03*
Y-151526D02*
D03*
X303031Y-272982D02*
D03*
Y-267569D02*
D03*
Y-272982D02*
D03*
X303366Y-213947D02*
D03*
Y-208534D02*
D03*
Y-213947D02*
D03*
X304508Y-160384D02*
D03*
Y-154971D02*
D03*
Y-160384D02*
D03*
X296673Y-244242D02*
D03*
Y-249656D02*
D03*
Y-244242D02*
D03*
X297539Y-191683D02*
D03*
Y-197096D02*
D03*
Y-191683D02*
D03*
X90551Y-256742D02*
D03*
Y-251329D02*
D03*
Y-256742D02*
D03*
X253219Y-193356D02*
D03*
Y-198770D02*
D03*
Y-193356D02*
D03*
X335896Y-176112D02*
D03*
Y-181526D02*
D03*
Y-176112D02*
D03*
X343770D02*
D03*
Y-181526D02*
D03*
Y-176112D02*
D03*
X351585Y-152667D02*
D03*
Y-158081D02*
D03*
Y-152667D02*
D03*
X253219Y-246506D02*
D03*
Y-251919D02*
D03*
Y-246506D02*
D03*
X351152Y-239282D02*
D03*
Y-244695D02*
D03*
Y-239282D02*
D03*
X343278D02*
D03*
Y-244695D02*
D03*
Y-239282D02*
D03*
X335896Y-215778D02*
D03*
Y-221191D02*
D03*
Y-215778D02*
D03*
X356299Y-117884D02*
D03*
Y-112470D02*
D03*
Y-117884D02*
D03*
X253219Y-305561D02*
D03*
Y-310974D02*
D03*
Y-305561D02*
D03*
X335896Y-300606D02*
D03*
Y-306020D02*
D03*
Y-300606D02*
D03*
X343967Y-301886D02*
D03*
Y-307299D02*
D03*
Y-301886D02*
D03*
X335896Y-273622D02*
D03*
Y-279035D02*
D03*
Y-273622D02*
D03*
X117283Y-93863D02*
D03*
Y-99277D02*
D03*
Y-93863D02*
D03*
X109823D02*
D03*
Y-99277D02*
D03*
Y-93863D02*
D03*
X125591Y-149262D02*
D03*
Y-154675D02*
D03*
Y-149262D02*
D03*
X117717Y-150955D02*
D03*
Y-156368D02*
D03*
Y-150955D02*
D03*
X183012Y-213868D02*
D03*
Y-208455D02*
D03*
Y-213868D02*
D03*
X175787Y-214006D02*
D03*
Y-208593D02*
D03*
Y-214006D02*
D03*
X121457Y-216828D02*
D03*
Y-211414D02*
D03*
Y-216828D02*
D03*
X159134Y-214518D02*
D03*
Y-209104D02*
D03*
Y-214518D02*
D03*
X296043Y-301466D02*
D03*
Y-306880D02*
D03*
Y-301466D02*
D03*
X98524Y-264026D02*
D03*
Y-269439D02*
D03*
Y-264026D02*
D03*
X98721Y-281250D02*
D03*
Y-275837D02*
D03*
Y-281250D02*
D03*
X91339Y-223770D02*
D03*
Y-218356D02*
D03*
Y-223770D02*
D03*
X99902Y-252628D02*
D03*
Y-247215D02*
D03*
Y-252628D02*
D03*
X123228Y-195522D02*
D03*
Y-190108D02*
D03*
Y-195522D02*
D03*
X153689Y-192864D02*
D03*
Y-187451D02*
D03*
Y-192864D02*
D03*
X34705Y-250139D02*
D03*
Y-255552D02*
D03*
Y-250139D02*
D03*
X35935Y-279675D02*
D03*
Y-285089D02*
D03*
Y-279675D02*
D03*
D46*
X113189Y-127382D02*
D03*
Y-142343D02*
D03*
D47*
X133071Y-211614D02*
D03*
X143071D02*
D03*
Y-187205D02*
D03*
X133071D02*
D03*
D48*
X314242Y-183976D02*
D03*
Y-178976D02*
D03*
Y-173976D02*
D03*
Y-168976D02*
D03*
X294557Y-183976D02*
D03*
Y-178976D02*
D03*
Y-173976D02*
D03*
Y-168976D02*
D03*
X312992Y-235472D02*
D03*
Y-230472D02*
D03*
Y-225472D02*
D03*
Y-220472D02*
D03*
X293307Y-235472D02*
D03*
Y-230472D02*
D03*
Y-225472D02*
D03*
Y-220472D02*
D03*
X312992Y-294528D02*
D03*
Y-289528D02*
D03*
Y-284528D02*
D03*
Y-279528D02*
D03*
X293307Y-294528D02*
D03*
Y-289528D02*
D03*
Y-284528D02*
D03*
Y-279528D02*
D03*
D49*
X343354Y-70650D02*
D03*
Y-65650D02*
D03*
Y-60650D02*
D03*
Y-55650D02*
D03*
X322000D02*
D03*
Y-60650D02*
D03*
Y-65650D02*
D03*
Y-70650D02*
D03*
X343354Y-122677D02*
D03*
Y-117677D02*
D03*
Y-112677D02*
D03*
Y-107677D02*
D03*
X322000D02*
D03*
Y-112677D02*
D03*
Y-117677D02*
D03*
Y-122677D02*
D03*
D50*
X270472Y-50748D02*
D03*
Y-53307D02*
D03*
Y-55866D02*
D03*
Y-58425D02*
D03*
Y-60984D02*
D03*
Y-63543D02*
D03*
Y-66102D02*
D03*
Y-68661D02*
D03*
Y-71220D02*
D03*
Y-73779D02*
D03*
X298031Y-50748D02*
D03*
Y-53307D02*
D03*
Y-55866D02*
D03*
Y-58425D02*
D03*
Y-60984D02*
D03*
Y-63543D02*
D03*
Y-66102D02*
D03*
Y-68661D02*
D03*
Y-71220D02*
D03*
Y-73779D02*
D03*
X266535Y-100807D02*
D03*
Y-103366D02*
D03*
Y-105925D02*
D03*
Y-108484D02*
D03*
Y-111043D02*
D03*
Y-113602D02*
D03*
Y-116161D02*
D03*
Y-118720D02*
D03*
Y-121280D02*
D03*
Y-123839D02*
D03*
X294094Y-100807D02*
D03*
Y-103366D02*
D03*
Y-105925D02*
D03*
Y-108484D02*
D03*
Y-111043D02*
D03*
Y-113602D02*
D03*
Y-116161D02*
D03*
Y-118720D02*
D03*
Y-121280D02*
D03*
Y-123839D02*
D03*
D51*
X144095Y-126969D02*
D03*
Y-128937D02*
D03*
Y-130905D02*
D03*
Y-132874D02*
D03*
Y-134843D02*
D03*
Y-136811D02*
D03*
X159055D02*
D03*
Y-134843D02*
D03*
Y-132874D02*
D03*
Y-130905D02*
D03*
Y-128937D02*
D03*
Y-126969D02*
D03*
D52*
X146654Y-139370D02*
D03*
X148622D02*
D03*
X150591D02*
D03*
X152559D02*
D03*
X154528D02*
D03*
X156496D02*
D03*
Y-124409D02*
D03*
X150591D02*
D03*
X148622D02*
D03*
X146654D02*
D03*
X152559D02*
D03*
X154528D02*
D03*
D53*
X151575Y-131890D02*
D03*
D54*
X184843Y-110039D02*
D03*
Y-106299D02*
D03*
Y-102559D02*
D03*
X175394D02*
D03*
Y-106299D02*
D03*
Y-110039D02*
D03*
D55*
X52897Y-270168D02*
D03*
X56637D02*
D03*
X49157D02*
D03*
Y-259144D02*
D03*
X56637D02*
D03*
X52897D02*
D03*
D56*
X43878Y-50532D02*
D03*
Y-68524D02*
D03*
D57*
X72303Y-59547D02*
D03*
D58*
X185551Y-224823D02*
D03*
X183583D02*
D03*
X181614D02*
D03*
X179646D02*
D03*
X177677D02*
D03*
X175709D02*
D03*
X173740D02*
D03*
X171772D02*
D03*
X169803D02*
D03*
X167835D02*
D03*
X165866D02*
D03*
X163898D02*
D03*
X161929D02*
D03*
X159961D02*
D03*
X157992D02*
D03*
X156024D02*
D03*
X154055D02*
D03*
X152087D02*
D03*
X150118D02*
D03*
X148150D02*
D03*
X146181D02*
D03*
X144213D02*
D03*
X142244D02*
D03*
X140276D02*
D03*
X138307D02*
D03*
X136339D02*
D03*
X134370D02*
D03*
X132402D02*
D03*
X130433D02*
D03*
X128465D02*
D03*
X126496D02*
D03*
X124528D02*
D03*
X122559D02*
D03*
X120590D02*
D03*
X118622D02*
D03*
X116654D02*
D03*
Y-308484D02*
D03*
X118622D02*
D03*
X120590D02*
D03*
X122559D02*
D03*
X124528D02*
D03*
X126496D02*
D03*
X128465D02*
D03*
X130433D02*
D03*
X132402D02*
D03*
X134370D02*
D03*
X136339D02*
D03*
X138307D02*
D03*
X140276D02*
D03*
X142244D02*
D03*
X144213D02*
D03*
X146181D02*
D03*
X148150D02*
D03*
X150118D02*
D03*
X152087D02*
D03*
X154055D02*
D03*
X156024D02*
D03*
X157992D02*
D03*
X159961D02*
D03*
X161929D02*
D03*
X163898D02*
D03*
X165866D02*
D03*
X167835D02*
D03*
X169803D02*
D03*
X171772D02*
D03*
X173740D02*
D03*
X175709D02*
D03*
X177677D02*
D03*
X179646D02*
D03*
X181614D02*
D03*
X183583D02*
D03*
X185551D02*
D03*
D59*
X109272Y-232205D02*
D03*
Y-234173D02*
D03*
Y-236142D02*
D03*
Y-238110D02*
D03*
Y-240079D02*
D03*
Y-242047D02*
D03*
Y-244016D02*
D03*
Y-245984D02*
D03*
Y-247953D02*
D03*
Y-249921D02*
D03*
Y-251890D02*
D03*
Y-253858D02*
D03*
Y-255827D02*
D03*
Y-257795D02*
D03*
Y-259764D02*
D03*
Y-261732D02*
D03*
Y-263701D02*
D03*
Y-265669D02*
D03*
Y-267638D02*
D03*
Y-269606D02*
D03*
Y-271575D02*
D03*
Y-273543D02*
D03*
Y-275512D02*
D03*
Y-277480D02*
D03*
Y-279449D02*
D03*
Y-281417D02*
D03*
Y-283386D02*
D03*
Y-285354D02*
D03*
Y-287323D02*
D03*
Y-289291D02*
D03*
Y-291260D02*
D03*
Y-293228D02*
D03*
Y-295197D02*
D03*
Y-297165D02*
D03*
Y-299134D02*
D03*
Y-301102D02*
D03*
X192933D02*
D03*
Y-299134D02*
D03*
Y-297165D02*
D03*
Y-295197D02*
D03*
Y-293228D02*
D03*
Y-291260D02*
D03*
Y-289291D02*
D03*
Y-287323D02*
D03*
Y-285354D02*
D03*
Y-283386D02*
D03*
Y-281417D02*
D03*
Y-279449D02*
D03*
Y-277480D02*
D03*
Y-275512D02*
D03*
Y-273543D02*
D03*
Y-271575D02*
D03*
Y-269606D02*
D03*
Y-267638D02*
D03*
Y-265669D02*
D03*
Y-263701D02*
D03*
Y-261732D02*
D03*
Y-259764D02*
D03*
Y-257795D02*
D03*
Y-255827D02*
D03*
Y-253858D02*
D03*
Y-251890D02*
D03*
Y-249921D02*
D03*
Y-247953D02*
D03*
Y-245984D02*
D03*
Y-244016D02*
D03*
Y-242047D02*
D03*
Y-240079D02*
D03*
Y-238110D02*
D03*
Y-236142D02*
D03*
Y-234173D02*
D03*
Y-232205D02*
D03*
D60*
X71496Y-151260D02*
D03*
Y-158740D02*
D03*
X63228Y-155000D02*
D03*
X71496Y-190630D02*
D03*
Y-198110D02*
D03*
X63228Y-194370D02*
D03*
D61*
X245148Y-196063D02*
D03*
X237667D02*
D03*
X241407Y-203937D02*
D03*
X231368Y-196063D02*
D03*
X223888D02*
D03*
X227628Y-203937D02*
D03*
X245148Y-249213D02*
D03*
X237667D02*
D03*
X241407Y-257087D02*
D03*
X231368Y-249213D02*
D03*
X223888D02*
D03*
X227628Y-257087D02*
D03*
X245148Y-308268D02*
D03*
X237667D02*
D03*
X241407Y-316142D02*
D03*
X231368Y-308268D02*
D03*
X223888D02*
D03*
X227628Y-316142D02*
D03*
D62*
X35433Y-147126D02*
D03*
Y-159528D02*
D03*
X35728Y-183366D02*
D03*
Y-195768D02*
D03*
D63*
X282746Y-195276D02*
D03*
X282746Y-204724D02*
D03*
X274872Y-206693D02*
D03*
X274872Y-197244D02*
D03*
X282746Y-246457D02*
D03*
X282746Y-255906D02*
D03*
X274872Y-257874D02*
D03*
X274872Y-248425D02*
D03*
X282746Y-305512D02*
D03*
X282746Y-314961D02*
D03*
X274872Y-316929D02*
D03*
X274872Y-307480D02*
D03*
D64*
X386988Y-193189D02*
D03*
X374587D02*
D03*
X387205Y-186063D02*
D03*
X374803D02*
D03*
X387638Y-254882D02*
D03*
X375236D02*
D03*
X387667Y-245748D02*
D03*
X375266D02*
D03*
X386398Y-319902D02*
D03*
X373996D02*
D03*
X386201Y-310925D02*
D03*
X373799D02*
D03*
D65*
X353445Y-287106D02*
D03*
X379724Y-42323D02*
D03*
X62894Y-16535D02*
D03*
X50787Y-297638D02*
D03*
D66*
X251457Y-148327D02*
D03*
X261457D02*
D03*
X271457D02*
D03*
X73073Y-230748D02*
D03*
Y-240748D02*
D03*
Y-250748D02*
D03*
Y-260748D02*
D03*
Y-290748D02*
D03*
Y-280748D02*
D03*
Y-270748D02*
D03*
X96457Y-317520D02*
D03*
X86457D02*
D03*
X76457D02*
D03*
D67*
X281457Y-148327D02*
D03*
X106457Y-317520D02*
D03*
D68*
X330866Y-7874D02*
D03*
X320866Y-7874D02*
D03*
X349921Y-7638D02*
D03*
X369921D02*
D03*
X248110Y-7854D02*
D03*
X238110Y-7854D02*
D03*
X267165Y-7618D02*
D03*
X287165D02*
D03*
X8307Y-269646D02*
D03*
X8307Y-279646D02*
D03*
X8071Y-250590D02*
D03*
Y-230591D02*
D03*
D69*
X119409Y-21890D02*
D03*
X182717D02*
D03*
D70*
X132283Y-42835D02*
D03*
X165118Y-51417D02*
D03*
X161102Y-47087D02*
D03*
X157087Y-51417D02*
D03*
X153071Y-47087D02*
D03*
X149055Y-51417D02*
D03*
X145039Y-47087D02*
D03*
X141024Y-51417D02*
D03*
X123268Y-42835D02*
D03*
X169843D02*
D03*
X178858D02*
D03*
D71*
X137008Y-47087D02*
D03*
D72*
X389016Y-63150D02*
D03*
Y-73150D02*
D03*
X6316Y-159095D02*
D03*
Y-149094D02*
D03*
X6142Y-124862D02*
D03*
Y-114862D02*
D03*
X6240Y-97835D02*
D03*
Y-87835D02*
D03*
X6316Y-317087D02*
D03*
Y-307087D02*
D03*
X6339Y-30472D02*
D03*
Y-20472D02*
D03*
X6316Y-195630D02*
D03*
Y-185630D02*
D03*
X388140Y-153661D02*
D03*
Y-163661D02*
D03*
Y-220590D02*
D03*
Y-230591D02*
D03*
X389016Y-103583D02*
D03*
Y-113583D02*
D03*
X388140Y-285551D02*
D03*
Y-295551D02*
D03*
X6316Y-65118D02*
D03*
Y-55118D02*
D03*
D73*
X379016Y-63150D02*
D03*
X16316Y-159095D02*
D03*
X16142Y-124862D02*
D03*
X16240Y-97835D02*
D03*
X16316Y-317087D02*
D03*
X16339Y-30472D02*
D03*
X16316Y-195630D02*
D03*
X378140Y-153661D02*
D03*
Y-220590D02*
D03*
X379016Y-103583D02*
D03*
X378140Y-285551D02*
D03*
X16316Y-65118D02*
D03*
D74*
X379016Y-73150D02*
D03*
X16316Y-149094D02*
D03*
X16142Y-114862D02*
D03*
X16240Y-87835D02*
D03*
X16316Y-307087D02*
D03*
X16339Y-20472D02*
D03*
X16316Y-185630D02*
D03*
X378140Y-163661D02*
D03*
Y-230591D02*
D03*
X379016Y-113583D02*
D03*
X378140Y-295551D02*
D03*
X16316Y-55118D02*
D03*
D75*
X73073Y-300748D02*
D03*
D76*
X347736Y-306420D02*
D03*
X52950Y-264663D02*
D03*
X48797Y-264764D02*
D03*
X66831Y-312106D02*
D03*
X61221Y-34055D02*
D03*
X46211Y-21850D02*
D03*
X103267Y-284350D02*
D03*
X104724Y-304064D02*
D03*
X188164Y-311221D02*
D03*
X156102Y-299570D02*
D03*
X142028Y-302873D02*
D03*
X122423Y-184055D02*
D03*
X104035Y-185361D02*
D03*
X125315Y-215551D02*
D03*
X198383Y-272146D02*
D03*
X199016Y-254297D02*
D03*
X106595Y-170472D02*
D03*
X151761Y-231563D02*
D03*
X160138Y-243622D02*
D03*
X174803Y-230591D02*
D03*
X157616Y-231136D02*
D03*
X164173Y-93898D02*
D03*
X176024Y-134843D02*
D03*
X198524Y-250295D02*
D03*
X211811Y-178347D02*
D03*
X209547Y-175886D02*
D03*
X198602Y-246949D02*
D03*
X180020Y-296063D02*
D03*
X147908Y-253839D02*
D03*
X121219Y-236319D02*
D03*
X90256Y-9449D02*
D03*
X199311Y-43071D02*
D03*
X179390Y-154774D02*
D03*
X262697Y-130610D02*
D03*
X264961Y-80650D02*
D03*
X215354Y-319882D02*
D03*
X165945Y-313583D02*
D03*
X179390Y-315945D02*
D03*
X150394Y-115748D02*
D03*
X104232Y-232776D02*
D03*
X156693Y-112008D02*
D03*
X170965Y-105793D02*
D03*
X141043Y-124862D02*
D03*
X132677Y-113386D02*
D03*
X129441Y-96850D02*
D03*
X174803Y-167323D02*
D03*
X167126Y-167362D02*
D03*
X271665Y-108575D02*
D03*
X271685Y-100972D02*
D03*
X126490Y-230746D02*
D03*
X194598Y-155043D02*
D03*
X329075Y-227402D02*
D03*
X370354Y-320236D02*
D03*
X288071Y-320768D02*
D03*
X264724Y-58425D02*
D03*
X350335Y-96398D02*
D03*
X364094Y-44311D02*
D03*
X358642D02*
D03*
X334114Y-98701D02*
D03*
X302658Y-47441D02*
D03*
X290787Y-45571D02*
D03*
X248937Y-166575D02*
D03*
X251909Y-188563D02*
D03*
X231181Y-192677D02*
D03*
X205709Y-198445D02*
D03*
X193740Y-198366D02*
D03*
X207185Y-196063D02*
D03*
X195551Y-196240D02*
D03*
X213760Y-220472D02*
D03*
X203622Y-236673D02*
D03*
X144291Y-233839D02*
D03*
X144331Y-240905D02*
D03*
X183366Y-279331D02*
D03*
X198721Y-280630D02*
D03*
X140669Y-235669D02*
D03*
X140728Y-240965D02*
D03*
X186752Y-285453D02*
D03*
X184587Y-283347D02*
D03*
X198602Y-283504D02*
D03*
X186831Y-278524D02*
D03*
X211378Y-275118D02*
D03*
X261575Y-121319D02*
D03*
X275020Y-71260D02*
D03*
X276654Y-130748D02*
D03*
X279370Y-80650D02*
D03*
X260295Y-115748D02*
D03*
X261595Y-111024D02*
D03*
X199232Y-295768D02*
D03*
X258051Y-113583D02*
D03*
X258248Y-118307D02*
D03*
X199016Y-292756D02*
D03*
X198839Y-289823D02*
D03*
X263957Y-63779D02*
D03*
X198484Y-287146D02*
D03*
X309114Y-154862D02*
D03*
X279784Y-161752D02*
D03*
X267874Y-166949D02*
D03*
X254488Y-189469D02*
D03*
X252165Y-202854D02*
D03*
X248543Y-194744D02*
D03*
X279823Y-273760D02*
D03*
X265020Y-224882D02*
D03*
X279921Y-214685D02*
D03*
X248465Y-221713D02*
D03*
X252894Y-241516D02*
D03*
X253346Y-300866D02*
D03*
X247638Y-280276D02*
D03*
X257933Y-252047D02*
D03*
X253248Y-287362D02*
D03*
X247618Y-275807D02*
D03*
X274843Y-210965D02*
D03*
X282874Y-209488D02*
D03*
X298957Y-208347D02*
D03*
X302224Y-197205D02*
D03*
X320315Y-178878D02*
D03*
X324980Y-179882D02*
D03*
X339705Y-181653D02*
D03*
X315059Y-35335D02*
D03*
X300335Y-247657D02*
D03*
X179350Y-208642D02*
D03*
X96161Y-122992D02*
D03*
X96496Y-146339D02*
D03*
X282047Y-320000D02*
D03*
X274961Y-320886D02*
D03*
X296240Y-316968D02*
D03*
X309331Y-309114D02*
D03*
X299902Y-313209D02*
D03*
X347756Y-181634D02*
D03*
X369921Y-193189D02*
D03*
X319587Y-230551D02*
D03*
X347303Y-244646D02*
D03*
X339370Y-244705D02*
D03*
X299882Y-306988D02*
D03*
X374193Y-259370D02*
D03*
X267441Y-283248D02*
D03*
X274764Y-262087D02*
D03*
X282677Y-260807D02*
D03*
X298799Y-267776D02*
D03*
X295394Y-188150D02*
D03*
X291201Y-301811D02*
D03*
X306279Y-170354D02*
D03*
X306201Y-221791D02*
D03*
X306102Y-281102D02*
D03*
X28032Y-291240D02*
D03*
X231476Y-245433D02*
D03*
X245158Y-245709D02*
D03*
X249173Y-255866D02*
D03*
X253130Y-315374D02*
D03*
X184921Y-290197D02*
D03*
Y-293779D02*
D03*
X162303Y-275276D02*
D03*
X161988Y-270965D02*
D03*
X126398Y-237047D02*
D03*
X164823Y-273110D02*
D03*
X232756Y-275394D02*
D03*
X184921Y-297028D02*
D03*
X159331Y-277658D02*
D03*
X121673Y-244646D02*
D03*
X249350Y-273150D02*
D03*
X121732Y-241280D02*
D03*
X140374Y-103465D02*
D03*
X201398Y-26319D02*
D03*
X331102Y-33686D02*
D03*
X264862Y-50591D02*
D03*
X241240Y-35531D02*
D03*
X231496Y-42520D02*
D03*
X162894Y-180020D02*
D03*
X96850Y-160728D02*
D03*
X103150Y-259252D02*
D03*
X94685Y-246358D02*
D03*
X90551D02*
D03*
X31299Y-264370D02*
D03*
X98622Y-272736D02*
D03*
X101772Y-236122D02*
D03*
X111791Y-226673D02*
D03*
X103091Y-261822D02*
D03*
X102854Y-207972D02*
D03*
X212697Y-257382D02*
D03*
X198383Y-259764D02*
D03*
X295276Y-239469D02*
D03*
X59646Y-159646D02*
D03*
X59055Y-199213D02*
D03*
X46716Y-250294D02*
D03*
X34616Y-259539D02*
D03*
X62762Y-277471D02*
D03*
X27165Y-79331D02*
D03*
X35935Y-289075D02*
D03*
X103937Y-278740D02*
D03*
X91339Y-296260D02*
D03*
X247441Y-304331D02*
D03*
X233465D02*
D03*
X91339Y-227559D02*
D03*
Y-213583D02*
D03*
X319291Y-289567D02*
D03*
X324803Y-290158D02*
D03*
X339764Y-306069D02*
D03*
X151339Y-315551D02*
D03*
X126575Y-316142D02*
D03*
X202264Y-308484D02*
D03*
X57972Y-78465D02*
D03*
X47343Y-34154D02*
D03*
X47539Y-44390D02*
D03*
X57874Y-84941D02*
D03*
X89764Y-304429D02*
D03*
X204232Y-127334D02*
D03*
Y-134350D02*
D03*
X156398Y-155000D02*
D03*
X163681Y-154921D02*
D03*
X121358Y-206936D02*
D03*
X158268Y-187303D02*
D03*
X127953Y-187894D02*
D03*
X163386Y-208858D02*
D03*
X143110Y-205709D02*
D03*
X204232Y-112500D02*
D03*
X187008Y-154724D02*
D03*
X204232Y-120079D02*
D03*
X162402Y-123661D02*
D03*
X189764Y-106299D02*
D03*
X125591Y-159095D02*
D03*
X117776Y-160236D02*
D03*
X125984Y-140157D02*
D03*
X116929Y-103347D02*
D03*
X110236Y-103150D02*
D03*
X136264Y-146260D02*
D03*
X150591Y-142717D02*
D03*
X125315Y-126575D02*
D03*
X84049Y-28059D02*
D03*
X193996Y-316142D02*
D03*
X136339Y-303150D02*
D03*
D77*
X60827Y-270374D02*
D03*
X185551Y-42618D02*
D03*
X220571Y-293996D02*
D03*
X169024Y-156461D02*
D03*
X118805Y-231507D02*
D03*
X101909Y-101496D02*
D03*
X138297Y-244409D02*
D03*
X157283Y-262598D02*
D03*
X188071Y-304468D02*
D03*
X183583Y-302559D02*
D03*
X183150Y-256909D02*
D03*
X196752Y-226142D02*
D03*
X159075Y-264469D02*
D03*
X144587Y-282579D02*
D03*
X147343Y-282756D02*
D03*
X117283Y-245866D02*
D03*
X114891Y-245475D02*
D03*
X120681Y-229811D02*
D03*
X151024Y-158366D02*
D03*
X143740Y-159213D02*
D03*
X171047Y-154847D02*
D03*
X127953Y-48465D02*
D03*
X137587Y-103937D02*
D03*
X160059Y-104370D02*
D03*
X167323Y-107283D02*
D03*
X143268Y-103957D02*
D03*
X152559Y-114482D02*
D03*
X65453Y-249705D02*
D03*
Y-261516D02*
D03*
X117776Y-269488D02*
D03*
X185893Y-257776D02*
D03*
X90256Y-266634D02*
D03*
X103150Y-256791D02*
D03*
X114469D02*
D03*
X79331Y-191929D02*
D03*
Y-185630D02*
D03*
X157480Y-295669D02*
D03*
X173031Y-301181D02*
D03*
X162992Y-295669D02*
D03*
X115059Y-247953D02*
D03*
X92126Y-202165D02*
D03*
X169685Y-302953D02*
D03*
X165354Y-301058D02*
D03*
X89491Y-202362D02*
D03*
X179646Y-301575D02*
D03*
X141024Y-159153D02*
D03*
X152362Y-148917D02*
D03*
X149705Y-204134D02*
D03*
X134370Y-230738D02*
D03*
X183169Y-148819D02*
D03*
X152559Y-146063D02*
D03*
X150768Y-215453D02*
D03*
X138287Y-230709D02*
D03*
X148524Y-158366D02*
D03*
X173622Y-154872D02*
D03*
X193996Y-225984D02*
D03*
X101772Y-91929D02*
D03*
X138484Y-130807D02*
D03*
X141043Y-129429D02*
D03*
X146653Y-121063D02*
D03*
X181102Y-113990D02*
D03*
X180567Y-107233D02*
D03*
X170522Y-112205D02*
D03*
X162402Y-116142D02*
D03*
X154090Y-112642D02*
D03*
X151575Y-120079D02*
D03*
D78*
X82972Y-75492D02*
D03*
X87992Y-69390D02*
D03*
X87205Y-44980D02*
D03*
X88090Y-56693D02*
D03*
X80413Y-42717D02*
D03*
X87894Y-62402D02*
D03*
X88090Y-50787D02*
D03*
X84744Y-80216D02*
D03*
D79*
X149213Y-129528D02*
D03*
X153937D02*
D03*
M02*
