G04*
G04 #@! TF.GenerationSoftware,Altium Limited,Altium Designer,19.0.9 (268)*
G04*
G04 Layer_Color=16711935*
%FSLAX25Y25*%
%MOIN*%
G70*
G01*
G75*
%ADD16C,0.01000*%
%ADD18C,0.00394*%
%ADD106C,0.00500*%
D16*
X256455Y135525D02*
X255456Y136525D01*
X253456D01*
X252457Y135525D01*
Y134525D01*
X253456Y133526D01*
X255456D01*
X256455Y132526D01*
Y131526D01*
X255456Y130526D01*
X253456D01*
X252457Y131526D01*
X259454Y135525D02*
Y134525D01*
X258455D01*
X260454D01*
X259454D01*
Y131526D01*
X260454Y130526D01*
X263453Y134525D02*
Y131526D01*
X264453Y130526D01*
X267452D01*
Y134525D01*
X273450D02*
X270451D01*
X269451Y133526D01*
Y131526D01*
X270451Y130526D01*
X273450D01*
X275449D02*
Y136525D01*
Y132526D02*
X278448Y134525D01*
X275449Y132526D02*
X278448Y130526D01*
X281447Y134525D02*
Y131526D01*
X282447Y130526D01*
X285446D01*
Y134525D01*
X287445Y128527D02*
Y134525D01*
X290444D01*
X291444Y133526D01*
Y131526D01*
X290444Y130526D01*
X287445D01*
X293443Y134525D02*
X294443D01*
Y133526D01*
X293443D01*
Y134525D01*
Y131526D02*
X294443D01*
Y130526D01*
X293443D01*
Y131526D01*
X252457Y121929D02*
X256455D01*
X258455D02*
X262454D01*
X264453D02*
X268451D01*
X276449Y118930D02*
X279448D01*
X280448Y119929D01*
X279448Y120929D01*
X277449D01*
X276449Y121929D01*
X277449Y122928D01*
X280448D01*
X282447Y118930D02*
X284446D01*
X283447D01*
Y122928D01*
X282447D01*
X289445Y116930D02*
X290444D01*
X291444Y117930D01*
Y122928D01*
X288445D01*
X287445Y121929D01*
Y119929D01*
X288445Y118930D01*
X291444D01*
X293443D02*
Y122928D01*
X296443D01*
X297442Y121929D01*
Y118930D01*
X300441Y122928D02*
X302441D01*
X303440Y121929D01*
Y118930D01*
X300441D01*
X299442Y119929D01*
X300441Y120929D01*
X303440D01*
X305440Y118930D02*
X307439D01*
X306439D01*
Y124928D01*
X305440D01*
X316436Y118930D02*
X320435Y122928D01*
X332431Y123928D02*
X331431Y124928D01*
X329432D01*
X328432Y123928D01*
Y119929D01*
X329432Y118930D01*
X331431D01*
X332431Y119929D01*
Y121929D01*
X330432D01*
X334430Y118930D02*
Y124928D01*
X338429Y118930D01*
Y124928D01*
X340428D02*
Y118930D01*
X343427D01*
X344427Y119929D01*
Y123928D01*
X343427Y124928D01*
X340428D01*
X352424Y121929D02*
X356423D01*
X358422D02*
X362421D01*
X364421D02*
X368419D01*
X370419D02*
X374417D01*
X252457Y110331D02*
X256455D01*
X258455D02*
X262454D01*
X264453D02*
X268451D01*
X270451D02*
X274450D01*
X276449D02*
X280448D01*
X282447D02*
X286446D01*
X288445D02*
X292444D01*
X304440Y112331D02*
X303440Y113330D01*
X301441D01*
X300441Y112331D01*
Y108332D01*
X301441Y107333D01*
X303440D01*
X304440Y108332D01*
Y110331D01*
X302441D01*
X306439Y107333D02*
Y113330D01*
X310438Y107333D01*
Y113330D01*
X312437D02*
Y107333D01*
X315436D01*
X316436Y108332D01*
Y112331D01*
X315436Y113330D01*
X312437D01*
X324433Y110331D02*
X328432D01*
X330432D02*
X334430D01*
X336430D02*
X340428D01*
X342428D02*
X346426D01*
X348426D02*
X352424D01*
X354424D02*
X358422D01*
X360422D02*
X364421D01*
X366420D02*
X370419D01*
X252457Y100734D02*
X256455D01*
X258455D02*
X262454D01*
X264453D02*
X268451D01*
X270451D02*
X274450D01*
X276449D02*
X280448D01*
X282447D02*
X286446D01*
X288445D02*
X292444D01*
X304440Y102733D02*
X303440Y103733D01*
X301441D01*
X300441Y102733D01*
Y98734D01*
X301441Y97735D01*
X303440D01*
X304440Y98734D01*
Y100734D01*
X302441D01*
X306439Y97735D02*
Y103733D01*
X310438Y97735D01*
Y103733D01*
X312437D02*
Y97735D01*
X315436D01*
X316436Y98734D01*
Y102733D01*
X315436Y103733D01*
X312437D01*
X324433Y100734D02*
X328432D01*
X330432D02*
X334430D01*
X336430D02*
X340428D01*
X342428D02*
X346426D01*
X348426D02*
X352424D01*
X354424D02*
X358422D01*
X360422D02*
X364421D01*
X366420D02*
X370419D01*
X252457Y91136D02*
X256455D01*
X258455D02*
X262454D01*
X264453D02*
X268451D01*
X276449Y88137D02*
X279448D01*
X280448Y89137D01*
X279448Y90136D01*
X277449D01*
X276449Y91136D01*
X277449Y92136D01*
X280448D01*
X282447Y88137D02*
X284446D01*
X283447D01*
Y92136D01*
X282447D01*
X289445Y86138D02*
X290444D01*
X291444Y87138D01*
Y92136D01*
X288445D01*
X287445Y91136D01*
Y89137D01*
X288445Y88137D01*
X291444D01*
X293443D02*
Y92136D01*
X296443D01*
X297442Y91136D01*
Y88137D01*
X300441Y92136D02*
X302441D01*
X303440Y91136D01*
Y88137D01*
X300441D01*
X299442Y89137D01*
X300441Y90136D01*
X303440D01*
X305440Y88137D02*
X307439D01*
X306439D01*
Y94135D01*
X305440D01*
X316436Y88137D02*
X320435Y92136D01*
X328432Y93135D02*
X329432Y94135D01*
X331431D01*
X332431Y93135D01*
Y92136D01*
X331431Y91136D01*
X330432D01*
X331431D01*
X332431Y90136D01*
Y89137D01*
X331431Y88137D01*
X329432D01*
X328432Y89137D01*
X334430Y88137D02*
Y89137D01*
X335430D01*
Y88137D01*
X334430D01*
X339428Y93135D02*
X340428Y94135D01*
X342428D01*
X343427Y93135D01*
Y92136D01*
X342428Y91136D01*
X341428D01*
X342428D01*
X343427Y90136D01*
Y89137D01*
X342428Y88137D01*
X340428D01*
X339428Y89137D01*
X345427Y94135D02*
Y90136D01*
X347426Y88137D01*
X349425Y90136D01*
Y94135D01*
X357423Y91136D02*
X361421D01*
X363421D02*
X367420D01*
X369419D02*
X373418D01*
X251886Y74073D02*
X254444D01*
X255297Y74926D01*
X254444Y75778D01*
X252739D01*
X251886Y76631D01*
X252739Y77484D01*
X255297D01*
X257855Y78337D02*
Y77484D01*
X257002D01*
X258708D01*
X257855D01*
Y74926D01*
X258708Y74073D01*
X261266Y77484D02*
Y74926D01*
X262119Y74073D01*
X264677D01*
Y77484D01*
X269793D02*
X267235D01*
X266383Y76631D01*
Y74926D01*
X267235Y74073D01*
X269793D01*
X271499D02*
Y79189D01*
Y75778D02*
X274057Y77484D01*
X271499Y75778D02*
X274057Y74073D01*
X276615Y77484D02*
Y74926D01*
X277468Y74073D01*
X280026D01*
Y77484D01*
X281732Y72367D02*
Y77484D01*
X284290D01*
X285143Y76631D01*
Y74926D01*
X284290Y74073D01*
X281732D01*
X295376Y79189D02*
X293670D01*
X294523D01*
Y74926D01*
X293670Y74073D01*
X292817D01*
X291965Y74926D01*
X297081Y79189D02*
Y74073D01*
X300492D01*
X305609Y78337D02*
X304756Y79189D01*
X303050D01*
X302198Y78337D01*
Y74926D01*
X303050Y74073D01*
X304756D01*
X305609Y74926D01*
X310725Y74073D02*
X307314D01*
X310725Y77484D01*
Y78337D01*
X309872Y79189D01*
X308167D01*
X307314Y78337D01*
X312431Y74073D02*
X314136D01*
X313283D01*
Y79189D01*
X312431Y78337D01*
X316694Y74073D02*
X318400D01*
X317547D01*
Y79189D01*
X316694Y78337D01*
X320958D02*
X321811Y79189D01*
X323516D01*
X324369Y78337D01*
Y77484D01*
X323516Y76631D01*
X322663D01*
X323516D01*
X324369Y75778D01*
Y74926D01*
X323516Y74073D01*
X321811D01*
X320958Y74926D01*
X255297Y68091D02*
X254444Y68944D01*
X252739D01*
X251886Y68091D01*
Y67238D01*
X252739Y66386D01*
X254444D01*
X255297Y65533D01*
Y64680D01*
X254444Y63828D01*
X252739D01*
X251886Y64680D01*
X257855Y63828D02*
X259560D01*
X260413Y64680D01*
Y66386D01*
X259560Y67238D01*
X257855D01*
X257002Y66386D01*
Y64680D01*
X257855Y63828D01*
X262119D02*
X263824D01*
X262971D01*
Y68944D01*
X262119D01*
X269793D02*
Y63828D01*
X267235D01*
X266383Y64680D01*
Y66386D01*
X267235Y67238D01*
X269793D01*
X274057Y63828D02*
X272352D01*
X271499Y64680D01*
Y66386D01*
X272352Y67238D01*
X274057D01*
X274910Y66386D01*
Y65533D01*
X271499D01*
X276615Y67238D02*
Y63828D01*
Y65533D01*
X277468Y66386D01*
X278321Y67238D01*
X279174D01*
X286848Y63828D02*
Y67238D01*
X287701D01*
X288554Y66386D01*
Y63828D01*
Y66386D01*
X289406Y67238D01*
X290259Y66386D01*
Y63828D01*
X292817Y67238D02*
X294523D01*
X295376Y66386D01*
Y63828D01*
X292817D01*
X291965Y64680D01*
X292817Y65533D01*
X295376D01*
X297081Y63828D02*
X299639D01*
X300492Y64680D01*
X299639Y65533D01*
X297934D01*
X297081Y66386D01*
X297934Y67238D01*
X300492D01*
X302198Y63828D02*
Y68944D01*
Y65533D02*
X304756Y67238D01*
X302198Y65533D02*
X304756Y63828D01*
X312431D02*
X314989D01*
X315842Y64680D01*
X314989Y65533D01*
X313283D01*
X312431Y66386D01*
X313283Y67238D01*
X315842D01*
X317547Y63828D02*
X319253D01*
X318400D01*
Y68944D01*
X317547D01*
X321811Y63828D02*
X323516D01*
X322663D01*
Y67238D01*
X321811D01*
X326075D02*
X327780Y63828D01*
X329485Y67238D01*
X333749Y63828D02*
X332044D01*
X331191Y64680D01*
Y66386D01*
X332044Y67238D01*
X333749D01*
X334602Y66386D01*
Y65533D01*
X331191D01*
X336307Y67238D02*
Y63828D01*
Y65533D01*
X337160Y66386D01*
X338013Y67238D01*
X338866D01*
X346540D02*
Y63828D01*
Y65533D01*
X347393Y66386D01*
X348246Y67238D01*
X349098D01*
X354215Y63828D02*
X352509D01*
X351657Y64680D01*
Y66386D01*
X352509Y67238D01*
X354215D01*
X355068Y66386D01*
Y65533D01*
X351657D01*
X360184Y62122D02*
Y67238D01*
X357626D01*
X356773Y66386D01*
Y64680D01*
X357626Y63828D01*
X360184D01*
X361890Y67238D02*
Y64680D01*
X362742Y63828D01*
X365301D01*
Y67238D01*
X367006Y63828D02*
X368712D01*
X367859D01*
Y67238D01*
X367006D01*
X371270D02*
Y63828D01*
Y65533D01*
X372123Y66386D01*
X372975Y67238D01*
X373828D01*
X378945Y63828D02*
X377239D01*
X376386Y64680D01*
Y66386D01*
X377239Y67238D01*
X378945D01*
X379797Y66386D01*
Y65533D01*
X376386D01*
X384914Y68944D02*
Y63828D01*
X382355D01*
X381503Y64680D01*
Y66386D01*
X382355Y67238D01*
X384914D01*
X391736Y68944D02*
Y63828D01*
X394294D01*
X395147Y64680D01*
Y65533D01*
Y66386D01*
X394294Y67238D01*
X391736D01*
X399410Y63828D02*
X397705D01*
X396852Y64680D01*
Y66386D01*
X397705Y67238D01*
X399410D01*
X400263Y66386D01*
Y65533D01*
X396852D01*
X402821Y68091D02*
Y67238D01*
X401969D01*
X403674D01*
X402821D01*
Y64680D01*
X403674Y63828D01*
X406232Y67238D02*
Y64680D01*
X407085Y63828D01*
X407938Y64680D01*
X408791Y63828D01*
X409643Y64680D01*
Y67238D01*
X413907Y63828D02*
X412201D01*
X411349Y64680D01*
Y66386D01*
X412201Y67238D01*
X413907D01*
X414760Y66386D01*
Y65533D01*
X411349D01*
X419024Y63828D02*
X417318D01*
X416465Y64680D01*
Y66386D01*
X417318Y67238D01*
X419024D01*
X419876Y66386D01*
Y65533D01*
X416465D01*
X421582Y63828D02*
Y67238D01*
X424140D01*
X424993Y66386D01*
Y63828D01*
X431815Y62122D02*
Y67238D01*
X434373D01*
X435226Y66386D01*
Y64680D01*
X434373Y63828D01*
X431815D01*
X437784Y67238D02*
X439489D01*
X440342Y66386D01*
Y63828D01*
X437784D01*
X436931Y64680D01*
X437784Y65533D01*
X440342D01*
X445459Y68944D02*
Y63828D01*
X442900D01*
X442048Y64680D01*
Y66386D01*
X442900Y67238D01*
X445459D01*
X447164Y63828D02*
X449722D01*
X450575Y64680D01*
X449722Y65533D01*
X448017D01*
X447164Y66386D01*
X448017Y67238D01*
X450575D01*
X458250Y63828D02*
X459955D01*
X460808Y64680D01*
Y66386D01*
X459955Y67238D01*
X458250D01*
X457397Y66386D01*
Y64680D01*
X458250Y63828D01*
X462513D02*
Y67238D01*
X465072D01*
X465924Y66386D01*
Y63828D01*
X472746Y68944D02*
Y64680D01*
X473599Y63828D01*
X475305D01*
X476157Y64680D01*
Y68944D01*
X477863Y68091D02*
X478716Y68944D01*
X480421D01*
X481274Y68091D01*
Y67238D01*
X480421Y66386D01*
X481274Y65533D01*
Y64680D01*
X480421Y63828D01*
X478716D01*
X477863Y64680D01*
Y65533D01*
X478716Y66386D01*
X477863Y67238D01*
Y68091D01*
X478716Y66386D02*
X480421D01*
X488948Y67238D02*
X490654D01*
X491507Y66386D01*
Y63828D01*
X488948D01*
X488096Y64680D01*
X488948Y65533D01*
X491507D01*
X493212Y63828D02*
Y67238D01*
X495770D01*
X496623Y66386D01*
Y63828D01*
X501740Y68944D02*
Y63828D01*
X499181D01*
X498329Y64680D01*
Y66386D01*
X499181Y67238D01*
X501740D01*
X508562Y68944D02*
Y64680D01*
X509414Y63828D01*
X511120D01*
X511973Y64680D01*
Y68944D01*
X513678Y63828D02*
X515383D01*
X514531D01*
Y68944D01*
X513678Y68091D01*
D18*
X-0Y-326772D02*
X393701Y-326772D01*
X178740Y0D02*
X393701Y0D01*
X0D02*
X123386Y-0D01*
X123386Y-37480D02*
X178740Y-37480D01*
X393701Y-326772D02*
X393701Y0D01*
X-0Y-326772D02*
X0Y0D01*
X178740Y-37480D02*
X178740Y0D01*
X123386Y-37480D02*
X123386Y-0D01*
D106*
X123504Y-37638D02*
X178622D01*
Y-37638D02*
Y9606D01*
X123504Y-37638D02*
Y9606D01*
X178622D01*
X123504Y-236D02*
X178622D01*
M02*
