G04*
G04 #@! TF.GenerationSoftware,Altium Limited,Altium Designer,19.0.9 (268)*
G04*
G04 Layer_Physical_Order=3*
G04 Layer_Color=16440176*
%FSLAX25Y25*%
%MOIN*%
G70*
G01*
G75*
%ADD18C,0.00394*%
%ADD93C,0.06693*%
%ADD95C,0.05118*%
%ADD99C,0.06496*%
%ADD100R,0.06496X0.06496*%
%ADD102C,0.01772*%
%ADD103C,0.01575*%
%ADD105C,0.02598*%
G36*
X392697Y-1003D02*
X392697Y-325768D01*
X1003Y-325768D01*
X1003Y-1003D01*
X38730Y-1003D01*
X38730Y-1003D01*
X105315Y-1003D01*
Y-68898D01*
X125984D01*
X125984Y-92106D01*
X126398Y-92520D01*
X162747D01*
X162984Y-93020D01*
X162783Y-93322D01*
X162668Y-93898D01*
X162783Y-94474D01*
X163109Y-94962D01*
X163597Y-95288D01*
X164173Y-95403D01*
X164749Y-95288D01*
X165238Y-94962D01*
X165564Y-94474D01*
X165679Y-93898D01*
X165564Y-93322D01*
X165362Y-93020D01*
X165600Y-92520D01*
X177216D01*
Y-68898D01*
X191858Y-68898D01*
X192283D01*
X192323Y-68813D01*
X192323Y-68813D01*
X192323Y-68414D01*
X192323Y-1003D01*
X392697Y-1003D01*
D02*
G37*
%LPC*%
G36*
X248610Y-4330D02*
Y-7354D01*
X251634D01*
X251578Y-6925D01*
X251219Y-6059D01*
X250649Y-5316D01*
X249905Y-4746D01*
X249039Y-4387D01*
X248610Y-4330D01*
D02*
G37*
G36*
X247610D02*
X247181Y-4387D01*
X246315Y-4746D01*
X245572Y-5316D01*
X245001Y-6059D01*
X244643Y-6925D01*
X244586Y-7354D01*
X247610D01*
Y-4330D01*
D02*
G37*
G36*
X331366Y-4350D02*
Y-7374D01*
X334390D01*
X334334Y-6945D01*
X333975Y-6079D01*
X333404Y-5336D01*
X332661Y-4765D01*
X331795Y-4407D01*
X331366Y-4350D01*
D02*
G37*
G36*
X330366D02*
X329937Y-4407D01*
X329071Y-4765D01*
X328328Y-5336D01*
X327757Y-6079D01*
X327399Y-6945D01*
X327342Y-7374D01*
X330366D01*
Y-4350D01*
D02*
G37*
G36*
X90756Y-7626D02*
Y-8949D01*
X92079D01*
X92032Y-8713D01*
X91615Y-8089D01*
X90992Y-7672D01*
X90756Y-7626D01*
D02*
G37*
G36*
X89756D02*
X89520Y-7672D01*
X88896Y-8089D01*
X88480Y-8713D01*
X88433Y-8949D01*
X89756D01*
Y-7626D01*
D02*
G37*
G36*
X287165Y-4441D02*
X286343Y-4550D01*
X285577Y-4867D01*
X284919Y-5372D01*
X284414Y-6030D01*
X284097Y-6796D01*
X283989Y-7618D01*
X284097Y-8440D01*
X284414Y-9206D01*
X284919Y-9864D01*
X285577Y-10369D01*
X286343Y-10687D01*
X287165Y-10795D01*
X287988Y-10687D01*
X288754Y-10369D01*
X289412Y-9864D01*
X289916Y-9206D01*
X290234Y-8440D01*
X290342Y-7618D01*
X290234Y-6796D01*
X289916Y-6030D01*
X289412Y-5372D01*
X288754Y-4867D01*
X287988Y-4550D01*
X287165Y-4441D01*
D02*
G37*
G36*
X267165D02*
X266343Y-4550D01*
X265577Y-4867D01*
X264919Y-5372D01*
X264414Y-6030D01*
X264097Y-6796D01*
X263989Y-7618D01*
X264097Y-8440D01*
X264414Y-9206D01*
X264919Y-9864D01*
X265577Y-10369D01*
X266343Y-10687D01*
X267165Y-10795D01*
X267988Y-10687D01*
X268754Y-10369D01*
X269412Y-9864D01*
X269917Y-9206D01*
X270234Y-8440D01*
X270342Y-7618D01*
X270234Y-6796D01*
X269917Y-6030D01*
X269412Y-5372D01*
X268754Y-4867D01*
X267988Y-4550D01*
X267165Y-4441D01*
D02*
G37*
G36*
X369921Y-4461D02*
X369099Y-4569D01*
X368333Y-4887D01*
X367675Y-5392D01*
X367170Y-6049D01*
X366853Y-6816D01*
X366744Y-7638D01*
X366853Y-8460D01*
X367170Y-9226D01*
X367675Y-9884D01*
X368333Y-10389D01*
X369099Y-10706D01*
X369921Y-10815D01*
X370743Y-10706D01*
X371510Y-10389D01*
X372168Y-9884D01*
X372672Y-9226D01*
X372990Y-8460D01*
X373098Y-7638D01*
X372990Y-6816D01*
X372672Y-6049D01*
X372168Y-5392D01*
X371510Y-4887D01*
X370743Y-4569D01*
X369921Y-4461D01*
D02*
G37*
G36*
X349921D02*
X349099Y-4569D01*
X348333Y-4887D01*
X347675Y-5392D01*
X347170Y-6049D01*
X346853Y-6816D01*
X346744Y-7638D01*
X346853Y-8460D01*
X347170Y-9226D01*
X347675Y-9884D01*
X348333Y-10389D01*
X349099Y-10706D01*
X349921Y-10815D01*
X350743Y-10706D01*
X351510Y-10389D01*
X352168Y-9884D01*
X352672Y-9226D01*
X352990Y-8460D01*
X353098Y-7638D01*
X352990Y-6816D01*
X352672Y-6049D01*
X352168Y-5392D01*
X351510Y-4887D01*
X350743Y-4569D01*
X349921Y-4461D01*
D02*
G37*
G36*
X238110Y-4677D02*
X237288Y-4786D01*
X236522Y-5103D01*
X235864Y-5608D01*
X235359Y-6266D01*
X235042Y-7032D01*
X234933Y-7854D01*
X235042Y-8676D01*
X235359Y-9443D01*
X235864Y-10101D01*
X236522Y-10605D01*
X237288Y-10923D01*
X238110Y-11031D01*
X238932Y-10923D01*
X239699Y-10605D01*
X240357Y-10101D01*
X240861Y-9443D01*
X241179Y-8676D01*
X241287Y-7854D01*
X241179Y-7032D01*
X240861Y-6266D01*
X240357Y-5608D01*
X239699Y-5103D01*
X238932Y-4786D01*
X238110Y-4677D01*
D02*
G37*
G36*
X320866Y-4697D02*
X320044Y-4806D01*
X319278Y-5123D01*
X318620Y-5628D01*
X318115Y-6286D01*
X317798Y-7052D01*
X317689Y-7874D01*
X317798Y-8696D01*
X318115Y-9462D01*
X318620Y-10120D01*
X319278Y-10625D01*
X320044Y-10943D01*
X320866Y-11051D01*
X321688Y-10943D01*
X322455Y-10625D01*
X323112Y-10120D01*
X323617Y-9462D01*
X323935Y-8696D01*
X324043Y-7874D01*
X323935Y-7052D01*
X323617Y-6286D01*
X323112Y-5628D01*
X322455Y-5123D01*
X321688Y-4806D01*
X320866Y-4697D01*
D02*
G37*
G36*
X92079Y-9949D02*
X90756D01*
Y-11272D01*
X90992Y-11225D01*
X91615Y-10808D01*
X92032Y-10185D01*
X92079Y-9949D01*
D02*
G37*
G36*
X89756D02*
X88433D01*
X88480Y-10185D01*
X88896Y-10808D01*
X89520Y-11225D01*
X89756Y-11272D01*
Y-9949D01*
D02*
G37*
G36*
X251634Y-8354D02*
X248610D01*
Y-11378D01*
X249039Y-11322D01*
X249905Y-10963D01*
X250649Y-10393D01*
X251219Y-9649D01*
X251578Y-8783D01*
X251634Y-8354D01*
D02*
G37*
G36*
X247610D02*
X244586D01*
X244643Y-8783D01*
X245001Y-9649D01*
X245572Y-10393D01*
X246315Y-10963D01*
X247181Y-11322D01*
X247610Y-11378D01*
Y-8354D01*
D02*
G37*
G36*
X334390Y-8374D02*
X331366D01*
Y-11398D01*
X331795Y-11342D01*
X332661Y-10983D01*
X333404Y-10412D01*
X333975Y-9669D01*
X334334Y-8803D01*
X334390Y-8374D01*
D02*
G37*
G36*
X330366D02*
X327342D01*
X327399Y-8803D01*
X327757Y-9669D01*
X328328Y-10412D01*
X329071Y-10983D01*
X329937Y-11342D01*
X330366Y-11398D01*
Y-8374D01*
D02*
G37*
G36*
X62894Y-10008D02*
X61620Y-10133D01*
X60396Y-10505D01*
X59267Y-11108D01*
X58278Y-11920D01*
X57466Y-12909D01*
X56863Y-14038D01*
X56492Y-15262D01*
X56366Y-16535D01*
X56492Y-17809D01*
X56863Y-19033D01*
X57466Y-20162D01*
X58278Y-21151D01*
X59267Y-21963D01*
X60396Y-22566D01*
X61620Y-22938D01*
X62894Y-23063D01*
X64167Y-22938D01*
X65392Y-22566D01*
X66520Y-21963D01*
X67509Y-21151D01*
X68321Y-20162D01*
X68924Y-19033D01*
X69296Y-17809D01*
X69421Y-16535D01*
X69296Y-15262D01*
X68924Y-14038D01*
X68321Y-12909D01*
X67509Y-11920D01*
X66520Y-11108D01*
X65392Y-10505D01*
X64167Y-10133D01*
X62894Y-10008D01*
D02*
G37*
G36*
X6339Y-17693D02*
X5619Y-17787D01*
X4949Y-18065D01*
X4373Y-18507D01*
X3931Y-19083D01*
X3654Y-19753D01*
X3559Y-20472D01*
X3654Y-21192D01*
X3931Y-21862D01*
X4373Y-22438D01*
X4949Y-22880D01*
X5619Y-23157D01*
X6339Y-23252D01*
X7058Y-23157D01*
X7728Y-22880D01*
X8304Y-22438D01*
X8746Y-21862D01*
X9024Y-21192D01*
X9118Y-20472D01*
X9024Y-19753D01*
X8746Y-19083D01*
X8304Y-18507D01*
X7728Y-18065D01*
X7058Y-17787D01*
X6339Y-17693D01*
D02*
G37*
G36*
X46211Y-20345D02*
X45635Y-20460D01*
X45146Y-20786D01*
X44820Y-21274D01*
X44705Y-21850D01*
X44820Y-22426D01*
X45146Y-22915D01*
X45635Y-23241D01*
X46211Y-23356D01*
X46787Y-23241D01*
X47275Y-22915D01*
X47601Y-22426D01*
X47716Y-21850D01*
X47601Y-21274D01*
X47275Y-20786D01*
X46787Y-20460D01*
X46211Y-20345D01*
D02*
G37*
G36*
X20177Y-16634D02*
X12500D01*
Y-24311D01*
X20177D01*
Y-16634D01*
D02*
G37*
G36*
X201898Y-24496D02*
Y-25819D01*
X203221D01*
X203174Y-25583D01*
X202757Y-24959D01*
X202133Y-24543D01*
X201898Y-24496D01*
D02*
G37*
G36*
X200898D02*
X200662Y-24543D01*
X200038Y-24959D01*
X199621Y-25583D01*
X199574Y-25819D01*
X200898D01*
Y-24496D01*
D02*
G37*
G36*
X84549Y-26236D02*
Y-27559D01*
X85873D01*
X85826Y-27323D01*
X85409Y-26700D01*
X84785Y-26283D01*
X84549Y-26236D01*
D02*
G37*
G36*
X83549D02*
X83313Y-26283D01*
X82690Y-26700D01*
X82273Y-27323D01*
X82226Y-27559D01*
X83549D01*
Y-26236D01*
D02*
G37*
G36*
X203221Y-26819D02*
X201898D01*
Y-28142D01*
X202133Y-28095D01*
X202757Y-27678D01*
X203174Y-27055D01*
X203221Y-26819D01*
D02*
G37*
G36*
X200898D02*
X199574D01*
X199621Y-27055D01*
X200038Y-27678D01*
X200662Y-28095D01*
X200898Y-28142D01*
Y-26819D01*
D02*
G37*
G36*
X85873Y-28559D02*
X84549D01*
Y-29882D01*
X84785Y-29836D01*
X85409Y-29419D01*
X85826Y-28795D01*
X85873Y-28559D01*
D02*
G37*
G36*
X83549D02*
X82226D01*
X82273Y-28795D01*
X82690Y-29419D01*
X83313Y-29836D01*
X83549Y-29882D01*
Y-28559D01*
D02*
G37*
G36*
X16839Y-26254D02*
Y-29972D01*
X20558D01*
X20477Y-29364D01*
X20049Y-28330D01*
X19368Y-27443D01*
X18481Y-26762D01*
X17448Y-26334D01*
X16839Y-26254D01*
D02*
G37*
G36*
X15839Y-26254D02*
X15230Y-26334D01*
X14196Y-26762D01*
X13309Y-27443D01*
X12628Y-28330D01*
X12200Y-29364D01*
X12120Y-29972D01*
X15839D01*
Y-26254D01*
D02*
G37*
G36*
X331602Y-31863D02*
Y-33186D01*
X332926D01*
X332879Y-32950D01*
X332462Y-32326D01*
X331838Y-31910D01*
X331602Y-31863D01*
D02*
G37*
G36*
X330602D02*
X330367Y-31910D01*
X329743Y-32326D01*
X329326Y-32950D01*
X329279Y-33186D01*
X330602D01*
Y-31863D01*
D02*
G37*
G36*
X6339Y-27693D02*
X5619Y-27788D01*
X4949Y-28065D01*
X4373Y-28507D01*
X3931Y-29083D01*
X3654Y-29753D01*
X3559Y-30472D01*
X3654Y-31192D01*
X3931Y-31862D01*
X4373Y-32438D01*
X4949Y-32880D01*
X5619Y-33157D01*
X6339Y-33252D01*
X7058Y-33157D01*
X7728Y-32880D01*
X8304Y-32438D01*
X8746Y-31862D01*
X9024Y-31192D01*
X9118Y-30472D01*
X9024Y-29753D01*
X8746Y-29083D01*
X8304Y-28507D01*
X7728Y-28065D01*
X7058Y-27788D01*
X6339Y-27693D01*
D02*
G37*
G36*
X47842Y-32330D02*
Y-33654D01*
X49166D01*
X49119Y-33418D01*
X48702Y-32794D01*
X48078Y-32377D01*
X47842Y-32330D01*
D02*
G37*
G36*
X46843D02*
X46607Y-32377D01*
X45983Y-32794D01*
X45566Y-33418D01*
X45519Y-33654D01*
X46843D01*
Y-32330D01*
D02*
G37*
G36*
X20558Y-30972D02*
X16839D01*
Y-34691D01*
X17448Y-34611D01*
X18481Y-34183D01*
X19368Y-33502D01*
X20049Y-32615D01*
X20477Y-31581D01*
X20558Y-30972D01*
D02*
G37*
G36*
X15839D02*
X12120D01*
X12200Y-31581D01*
X12628Y-32615D01*
X13309Y-33502D01*
X14196Y-34183D01*
X15230Y-34611D01*
X15839Y-34691D01*
Y-30972D01*
D02*
G37*
G36*
X241740Y-33708D02*
Y-35032D01*
X243063D01*
X243017Y-34796D01*
X242600Y-34172D01*
X241976Y-33755D01*
X241740Y-33708D01*
D02*
G37*
G36*
X240740D02*
X240504Y-33755D01*
X239881Y-34172D01*
X239464Y-34796D01*
X239417Y-35032D01*
X240740D01*
Y-33708D01*
D02*
G37*
G36*
X332926Y-34186D02*
X331602D01*
Y-35509D01*
X331838Y-35462D01*
X332462Y-35046D01*
X332879Y-34422D01*
X332926Y-34186D01*
D02*
G37*
G36*
X330602D02*
X329279D01*
X329326Y-34422D01*
X329743Y-35046D01*
X330367Y-35462D01*
X330602Y-35509D01*
Y-34186D01*
D02*
G37*
G36*
X61221Y-32550D02*
X60644Y-32664D01*
X60156Y-32991D01*
X59830Y-33479D01*
X59715Y-34055D01*
X59830Y-34631D01*
X60156Y-35120D01*
X60644Y-35446D01*
X61221Y-35560D01*
X61796Y-35446D01*
X62285Y-35120D01*
X62611Y-34631D01*
X62726Y-34055D01*
X62611Y-33479D01*
X62285Y-32991D01*
X61796Y-32664D01*
X61221Y-32550D01*
D02*
G37*
G36*
X49166Y-34653D02*
X47842D01*
Y-35977D01*
X48078Y-35930D01*
X48702Y-35513D01*
X49119Y-34889D01*
X49166Y-34653D01*
D02*
G37*
G36*
X46843D02*
X45519D01*
X45566Y-34889D01*
X45983Y-35513D01*
X46607Y-35930D01*
X46843Y-35977D01*
Y-34653D01*
D02*
G37*
G36*
X315059Y-33829D02*
X314483Y-33944D01*
X313995Y-34270D01*
X313668Y-34759D01*
X313554Y-35335D01*
X313668Y-35911D01*
X313995Y-36399D01*
X314483Y-36725D01*
X315059Y-36840D01*
X315635Y-36725D01*
X316124Y-36399D01*
X316450Y-35911D01*
X316564Y-35335D01*
X316450Y-34759D01*
X316124Y-34270D01*
X315635Y-33944D01*
X315059Y-33829D01*
D02*
G37*
G36*
X243063Y-36031D02*
X241740D01*
Y-37355D01*
X241976Y-37308D01*
X242600Y-36891D01*
X243017Y-36267D01*
X243063Y-36031D01*
D02*
G37*
G36*
X240740D02*
X239417D01*
X239464Y-36267D01*
X239881Y-36891D01*
X240504Y-37308D01*
X240740Y-37355D01*
Y-36031D01*
D02*
G37*
G36*
X199811Y-41248D02*
Y-42571D01*
X201134D01*
X201087Y-42335D01*
X200671Y-41711D01*
X200047Y-41295D01*
X199811Y-41248D01*
D02*
G37*
G36*
X198811D02*
X198575Y-41295D01*
X197951Y-41711D01*
X197535Y-42335D01*
X197488Y-42571D01*
X198811D01*
Y-41248D01*
D02*
G37*
G36*
X48039Y-42566D02*
Y-43890D01*
X49363D01*
X49316Y-43654D01*
X48899Y-43030D01*
X48275Y-42613D01*
X48039Y-42566D01*
D02*
G37*
G36*
X47039D02*
X46804Y-42613D01*
X46180Y-43030D01*
X45763Y-43654D01*
X45716Y-43890D01*
X47039D01*
Y-42566D01*
D02*
G37*
G36*
X231496Y-41014D02*
X230920Y-41129D01*
X230432Y-41455D01*
X230105Y-41944D01*
X229991Y-42520D01*
X230105Y-43096D01*
X230432Y-43584D01*
X230920Y-43910D01*
X231496Y-44025D01*
X232072Y-43910D01*
X232560Y-43584D01*
X232887Y-43096D01*
X233001Y-42520D01*
X232887Y-41944D01*
X232560Y-41455D01*
X232072Y-41129D01*
X231496Y-41014D01*
D02*
G37*
G36*
X80413Y-40709D02*
X79645Y-40862D01*
X78994Y-41297D01*
X78559Y-41949D01*
X78406Y-42717D01*
X78559Y-43485D01*
X78994Y-44136D01*
X79645Y-44571D01*
X80413Y-44724D01*
X81182Y-44571D01*
X81833Y-44136D01*
X82268Y-43485D01*
X82420Y-42717D01*
X82268Y-41949D01*
X81833Y-41297D01*
X81182Y-40862D01*
X80413Y-40709D01*
D02*
G37*
G36*
X201134Y-43571D02*
X199811D01*
Y-44894D01*
X200047Y-44847D01*
X200671Y-44431D01*
X201087Y-43807D01*
X201134Y-43571D01*
D02*
G37*
G36*
X198811D02*
X197488D01*
X197535Y-43807D01*
X197951Y-44431D01*
X198575Y-44847D01*
X198811Y-44894D01*
Y-43571D01*
D02*
G37*
G36*
X364094Y-42806D02*
X363518Y-42920D01*
X363030Y-43247D01*
X362704Y-43735D01*
X362589Y-44311D01*
X362704Y-44887D01*
X363030Y-45375D01*
X363518Y-45702D01*
X364094Y-45816D01*
X364670Y-45702D01*
X365159Y-45375D01*
X365485Y-44887D01*
X365600Y-44311D01*
X365485Y-43735D01*
X365159Y-43247D01*
X364670Y-42920D01*
X364094Y-42806D01*
D02*
G37*
G36*
X358642D02*
X358066Y-42920D01*
X357577Y-43247D01*
X357251Y-43735D01*
X357136Y-44311D01*
X357251Y-44887D01*
X357577Y-45375D01*
X358066Y-45702D01*
X358642Y-45816D01*
X359218Y-45702D01*
X359706Y-45375D01*
X360032Y-44887D01*
X360147Y-44311D01*
X360032Y-43735D01*
X359706Y-43247D01*
X359218Y-42920D01*
X358642Y-42806D01*
D02*
G37*
G36*
X49363Y-44890D02*
X48039D01*
Y-46213D01*
X48275Y-46166D01*
X48899Y-45749D01*
X49316Y-45126D01*
X49363Y-44890D01*
D02*
G37*
G36*
X47039D02*
X45716D01*
X45763Y-45126D01*
X46180Y-45749D01*
X46804Y-46166D01*
X47039Y-46213D01*
Y-44890D01*
D02*
G37*
G36*
X87205Y-42973D02*
X86437Y-43126D01*
X85786Y-43561D01*
X85350Y-44212D01*
X85198Y-44980D01*
X85350Y-45748D01*
X85786Y-46400D01*
X86437Y-46835D01*
X87205Y-46987D01*
X87973Y-46835D01*
X88624Y-46400D01*
X89059Y-45748D01*
X89212Y-44980D01*
X89059Y-44212D01*
X88624Y-43561D01*
X87973Y-43126D01*
X87205Y-42973D01*
D02*
G37*
G36*
X290787Y-44066D02*
X290211Y-44180D01*
X289723Y-44506D01*
X289397Y-44995D01*
X289282Y-45571D01*
X289397Y-46147D01*
X289723Y-46635D01*
X290211Y-46962D01*
X290787Y-47076D01*
X291364Y-46962D01*
X291852Y-46635D01*
X292178Y-46147D01*
X292293Y-45571D01*
X292178Y-44995D01*
X291852Y-44506D01*
X291364Y-44180D01*
X290787Y-44066D01*
D02*
G37*
G36*
X379724Y-35795D02*
X378451Y-35921D01*
X377226Y-36292D01*
X376098Y-36895D01*
X375109Y-37707D01*
X374297Y-38696D01*
X373694Y-39825D01*
X373322Y-41049D01*
X373197Y-42323D01*
X373322Y-43596D01*
X373694Y-44821D01*
X374297Y-45949D01*
X375109Y-46938D01*
X376098Y-47750D01*
X377226Y-48353D01*
X378451Y-48725D01*
X379724Y-48850D01*
X380998Y-48725D01*
X382222Y-48353D01*
X383351Y-47750D01*
X384340Y-46938D01*
X385152Y-45949D01*
X385755Y-44821D01*
X386126Y-43596D01*
X386252Y-42323D01*
X386126Y-41049D01*
X385755Y-39825D01*
X385152Y-38696D01*
X384340Y-37707D01*
X383351Y-36895D01*
X382222Y-36292D01*
X380998Y-35921D01*
X379724Y-35795D01*
D02*
G37*
G36*
X302658Y-45936D02*
X302081Y-46050D01*
X301593Y-46376D01*
X301267Y-46865D01*
X301152Y-47441D01*
X301267Y-48017D01*
X301593Y-48505D01*
X302081Y-48832D01*
X302658Y-48946D01*
X303234Y-48832D01*
X303722Y-48505D01*
X304048Y-48017D01*
X304163Y-47441D01*
X304048Y-46865D01*
X303722Y-46376D01*
X303234Y-46050D01*
X302658Y-45936D01*
D02*
G37*
G36*
X265362Y-48767D02*
Y-50091D01*
X266686D01*
X266639Y-49855D01*
X266222Y-49231D01*
X265598Y-48814D01*
X265362Y-48767D01*
D02*
G37*
G36*
X264362D02*
X264126Y-48814D01*
X263503Y-49231D01*
X263086Y-49855D01*
X263039Y-50091D01*
X264362D01*
Y-48767D01*
D02*
G37*
G36*
X266686Y-51091D02*
X265362D01*
Y-52414D01*
X265598Y-52367D01*
X266222Y-51950D01*
X266639Y-51326D01*
X266686Y-51091D01*
D02*
G37*
G36*
X264362D02*
X263039D01*
X263086Y-51326D01*
X263503Y-51950D01*
X264126Y-52367D01*
X264362Y-52414D01*
Y-51091D01*
D02*
G37*
G36*
X88090Y-48780D02*
X87322Y-48933D01*
X86671Y-49368D01*
X86236Y-50019D01*
X86084Y-50787D01*
X86236Y-51556D01*
X86671Y-52207D01*
X87322Y-52642D01*
X88090Y-52794D01*
X88859Y-52642D01*
X89510Y-52207D01*
X89945Y-51556D01*
X90098Y-50787D01*
X89945Y-50019D01*
X89510Y-49368D01*
X88859Y-48933D01*
X88090Y-48780D01*
D02*
G37*
G36*
X20564Y-50870D02*
X16816D01*
Y-54618D01*
X20564D01*
Y-50870D01*
D02*
G37*
G36*
X15816D02*
X12068D01*
Y-54618D01*
X15816D01*
Y-50870D01*
D02*
G37*
G36*
X6316Y-52338D02*
X5596Y-52433D01*
X4926Y-52711D01*
X4350Y-53153D01*
X3908Y-53728D01*
X3631Y-54399D01*
X3536Y-55118D01*
X3631Y-55838D01*
X3908Y-56508D01*
X4350Y-57084D01*
X4926Y-57525D01*
X5596Y-57803D01*
X6316Y-57898D01*
X7035Y-57803D01*
X7706Y-57525D01*
X8281Y-57084D01*
X8723Y-56508D01*
X9001Y-55838D01*
X9095Y-55118D01*
X9001Y-54399D01*
X8723Y-53728D01*
X8281Y-53153D01*
X7706Y-52711D01*
X7035Y-52433D01*
X6316Y-52338D01*
D02*
G37*
G36*
X265224Y-56602D02*
Y-57925D01*
X266548D01*
X266501Y-57689D01*
X266084Y-57066D01*
X265460Y-56649D01*
X265224Y-56602D01*
D02*
G37*
G36*
X264224D02*
X263989Y-56649D01*
X263365Y-57066D01*
X262948Y-57689D01*
X262901Y-57925D01*
X264224D01*
Y-56602D01*
D02*
G37*
G36*
X88090Y-54686D02*
X87322Y-54839D01*
X86671Y-55274D01*
X86236Y-55925D01*
X86084Y-56693D01*
X86236Y-57461D01*
X86671Y-58112D01*
X87322Y-58547D01*
X88090Y-58700D01*
X88859Y-58547D01*
X89510Y-58112D01*
X89945Y-57461D01*
X90098Y-56693D01*
X89945Y-55925D01*
X89510Y-55274D01*
X88859Y-54839D01*
X88090Y-54686D01*
D02*
G37*
G36*
X20564Y-55618D02*
X16816D01*
Y-59366D01*
X20564D01*
Y-55618D01*
D02*
G37*
G36*
X15816D02*
X12068D01*
Y-59366D01*
X15816D01*
Y-55618D01*
D02*
G37*
G36*
X266548Y-58925D02*
X265224D01*
Y-60249D01*
X265460Y-60202D01*
X266084Y-59785D01*
X266501Y-59161D01*
X266548Y-58925D01*
D02*
G37*
G36*
X264224D02*
X262901D01*
X262948Y-59161D01*
X263365Y-59785D01*
X263989Y-60202D01*
X264224Y-60249D01*
Y-58925D01*
D02*
G37*
G36*
X87894Y-60395D02*
X87126Y-60547D01*
X86475Y-60982D01*
X86039Y-61633D01*
X85887Y-62402D01*
X86039Y-63170D01*
X86475Y-63821D01*
X87126Y-64256D01*
X87894Y-64409D01*
X88662Y-64256D01*
X89313Y-63821D01*
X89748Y-63170D01*
X89901Y-62402D01*
X89748Y-61633D01*
X89313Y-60982D01*
X88662Y-60547D01*
X87894Y-60395D01*
D02*
G37*
G36*
X263957Y-62274D02*
X263381Y-62389D01*
X262892Y-62715D01*
X262566Y-63204D01*
X262451Y-63779D01*
X262566Y-64356D01*
X262892Y-64844D01*
X263381Y-65170D01*
X263957Y-65285D01*
X264533Y-65170D01*
X265021Y-64844D01*
X265347Y-64356D01*
X265462Y-63779D01*
X265347Y-63204D01*
X265021Y-62715D01*
X264533Y-62389D01*
X263957Y-62274D01*
D02*
G37*
G36*
X389016Y-60370D02*
X388296Y-60465D01*
X387626Y-60742D01*
X387050Y-61184D01*
X386609Y-61760D01*
X386331Y-62430D01*
X386236Y-63150D01*
X386331Y-63869D01*
X386609Y-64539D01*
X387050Y-65115D01*
X387626Y-65557D01*
X388296Y-65835D01*
X389016Y-65929D01*
X389735Y-65835D01*
X390406Y-65557D01*
X390981Y-65115D01*
X391423Y-64539D01*
X391701Y-63869D01*
X391795Y-63150D01*
X391701Y-62430D01*
X391423Y-61760D01*
X390981Y-61184D01*
X390406Y-60742D01*
X389735Y-60465D01*
X389016Y-60370D01*
D02*
G37*
G36*
X379016Y-59278D02*
X378014Y-59410D01*
X377080Y-59797D01*
X376278Y-60412D01*
X375663Y-61214D01*
X375276Y-62147D01*
X375144Y-63150D01*
X375276Y-64152D01*
X375663Y-65086D01*
X376278Y-65887D01*
X377080Y-66503D01*
X378014Y-66889D01*
X379016Y-67021D01*
X380018Y-66889D01*
X380952Y-66503D01*
X381753Y-65887D01*
X382369Y-65086D01*
X382755Y-64152D01*
X382887Y-63150D01*
X382755Y-62147D01*
X382369Y-61214D01*
X381753Y-60412D01*
X380952Y-59797D01*
X380018Y-59410D01*
X379016Y-59278D01*
D02*
G37*
G36*
X6316Y-62338D02*
X5596Y-62433D01*
X4926Y-62711D01*
X4350Y-63153D01*
X3908Y-63728D01*
X3631Y-64399D01*
X3536Y-65118D01*
X3631Y-65838D01*
X3908Y-66508D01*
X4350Y-67084D01*
X4926Y-67525D01*
X5596Y-67803D01*
X6316Y-67898D01*
X7035Y-67803D01*
X7706Y-67525D01*
X8281Y-67084D01*
X8723Y-66508D01*
X9001Y-65838D01*
X9095Y-65118D01*
X9001Y-64399D01*
X8723Y-63728D01*
X8281Y-63153D01*
X7706Y-62711D01*
X7035Y-62433D01*
X6316Y-62338D01*
D02*
G37*
G36*
X16316Y-61246D02*
X15314Y-61378D01*
X14380Y-61765D01*
X13578Y-62380D01*
X12963Y-63182D01*
X12576Y-64116D01*
X12444Y-65118D01*
X12576Y-66120D01*
X12963Y-67054D01*
X13578Y-67856D01*
X14380Y-68471D01*
X15314Y-68858D01*
X16316Y-68990D01*
X17318Y-68858D01*
X18252Y-68471D01*
X19053Y-67856D01*
X19669Y-67054D01*
X20055Y-66120D01*
X20187Y-65118D01*
X20055Y-64116D01*
X19669Y-63182D01*
X19053Y-62380D01*
X18252Y-61765D01*
X17318Y-61378D01*
X16316Y-61246D01*
D02*
G37*
G36*
X275520Y-69437D02*
Y-70760D01*
X276843D01*
X276796Y-70524D01*
X276379Y-69900D01*
X275756Y-69483D01*
X275520Y-69437D01*
D02*
G37*
G36*
X274520D02*
X274284Y-69483D01*
X273660Y-69900D01*
X273243Y-70524D01*
X273196Y-70760D01*
X274520D01*
Y-69437D01*
D02*
G37*
G36*
X87992Y-67383D02*
X87224Y-67536D01*
X86573Y-67971D01*
X86138Y-68622D01*
X85985Y-69390D01*
X86138Y-70158D01*
X86573Y-70809D01*
X87224Y-71244D01*
X87992Y-71397D01*
X88760Y-71244D01*
X89411Y-70809D01*
X89846Y-70158D01*
X89999Y-69390D01*
X89846Y-68622D01*
X89411Y-67971D01*
X88760Y-67536D01*
X87992Y-67383D01*
D02*
G37*
G36*
X276843Y-71760D02*
X275520D01*
Y-73083D01*
X275756Y-73036D01*
X276379Y-72619D01*
X276796Y-71996D01*
X276843Y-71760D01*
D02*
G37*
G36*
X274520D02*
X273196D01*
X273243Y-71996D01*
X273660Y-72619D01*
X274284Y-73036D01*
X274520Y-73083D01*
Y-71760D01*
D02*
G37*
G36*
X389016Y-70370D02*
X388296Y-70465D01*
X387626Y-70742D01*
X387050Y-71184D01*
X386609Y-71760D01*
X386331Y-72430D01*
X386236Y-73150D01*
X386331Y-73869D01*
X386609Y-74539D01*
X387050Y-75115D01*
X387626Y-75557D01*
X388296Y-75835D01*
X389016Y-75929D01*
X389735Y-75835D01*
X390406Y-75557D01*
X390981Y-75115D01*
X391423Y-74539D01*
X391701Y-73869D01*
X391795Y-73150D01*
X391701Y-72430D01*
X391423Y-71760D01*
X390981Y-71184D01*
X390406Y-70742D01*
X389735Y-70465D01*
X389016Y-70370D01*
D02*
G37*
G36*
X382854Y-69311D02*
X375177D01*
Y-76988D01*
X382854D01*
Y-69311D01*
D02*
G37*
G36*
X82972Y-73485D02*
X82204Y-73638D01*
X81553Y-74073D01*
X81118Y-74724D01*
X80965Y-75492D01*
X81118Y-76260D01*
X81553Y-76911D01*
X82204Y-77346D01*
X82972Y-77499D01*
X83741Y-77346D01*
X84392Y-76911D01*
X84827Y-76260D01*
X84979Y-75492D01*
X84827Y-74724D01*
X84392Y-74073D01*
X83741Y-73638D01*
X82972Y-73485D01*
D02*
G37*
G36*
X58472Y-76641D02*
Y-77965D01*
X59796D01*
X59749Y-77729D01*
X59332Y-77105D01*
X58708Y-76688D01*
X58472Y-76641D01*
D02*
G37*
G36*
X57472D02*
X57237Y-76688D01*
X56613Y-77105D01*
X56196Y-77729D01*
X56149Y-77965D01*
X57472D01*
Y-76641D01*
D02*
G37*
G36*
X279870Y-78826D02*
Y-80150D01*
X281193D01*
X281147Y-79914D01*
X280730Y-79290D01*
X280106Y-78873D01*
X279870Y-78826D01*
D02*
G37*
G36*
X278870D02*
X278634Y-78873D01*
X278011Y-79290D01*
X277594Y-79914D01*
X277547Y-80150D01*
X278870D01*
Y-78826D01*
D02*
G37*
G36*
X59796Y-78965D02*
X58472D01*
Y-80288D01*
X58708Y-80241D01*
X59332Y-79824D01*
X59749Y-79200D01*
X59796Y-78965D01*
D02*
G37*
G36*
X57472D02*
X56149D01*
X56196Y-79200D01*
X56613Y-79824D01*
X57237Y-80241D01*
X57472Y-80288D01*
Y-78965D01*
D02*
G37*
G36*
X27165Y-77825D02*
X26589Y-77940D01*
X26101Y-78266D01*
X25775Y-78755D01*
X25660Y-79331D01*
X25775Y-79907D01*
X26101Y-80395D01*
X26589Y-80721D01*
X27165Y-80836D01*
X27741Y-80721D01*
X28230Y-80395D01*
X28556Y-79907D01*
X28671Y-79331D01*
X28556Y-78755D01*
X28230Y-78266D01*
X27741Y-77940D01*
X27165Y-77825D01*
D02*
G37*
G36*
X264961Y-79144D02*
X264385Y-79259D01*
X263896Y-79585D01*
X263570Y-80074D01*
X263455Y-80650D01*
X263570Y-81226D01*
X263896Y-81714D01*
X264385Y-82040D01*
X264961Y-82155D01*
X265537Y-82040D01*
X266025Y-81714D01*
X266351Y-81226D01*
X266466Y-80650D01*
X266351Y-80074D01*
X266025Y-79585D01*
X265537Y-79259D01*
X264961Y-79144D01*
D02*
G37*
G36*
X84744Y-78210D02*
X83976Y-78362D01*
X83325Y-78797D01*
X82890Y-79448D01*
X82737Y-80216D01*
X82890Y-80985D01*
X83325Y-81636D01*
X83976Y-82071D01*
X84744Y-82224D01*
X85512Y-82071D01*
X86163Y-81636D01*
X86598Y-80985D01*
X86751Y-80216D01*
X86598Y-79448D01*
X86163Y-78797D01*
X85512Y-78362D01*
X84744Y-78210D01*
D02*
G37*
G36*
X281193Y-81150D02*
X279870D01*
Y-82473D01*
X280106Y-82426D01*
X280730Y-82009D01*
X281147Y-81385D01*
X281193Y-81150D01*
D02*
G37*
G36*
X278870D02*
X277547D01*
X277594Y-81385D01*
X278011Y-82009D01*
X278634Y-82426D01*
X278870Y-82473D01*
Y-81150D01*
D02*
G37*
G36*
X58374Y-83118D02*
Y-84441D01*
X59697D01*
X59650Y-84205D01*
X59234Y-83581D01*
X58610Y-83165D01*
X58374Y-83118D01*
D02*
G37*
G36*
X57374D02*
X57138Y-83165D01*
X56514Y-83581D01*
X56098Y-84205D01*
X56051Y-84441D01*
X57374D01*
Y-83118D01*
D02*
G37*
G36*
X59697Y-85441D02*
X58374D01*
Y-86764D01*
X58610Y-86717D01*
X59234Y-86300D01*
X59650Y-85677D01*
X59697Y-85441D01*
D02*
G37*
G36*
X57374D02*
X56051D01*
X56098Y-85677D01*
X56514Y-86300D01*
X57138Y-86717D01*
X57374Y-86764D01*
Y-85441D01*
D02*
G37*
G36*
X6240Y-85055D02*
X5521Y-85150D01*
X4850Y-85427D01*
X4275Y-85869D01*
X3833Y-86445D01*
X3555Y-87115D01*
X3461Y-87835D01*
X3555Y-88554D01*
X3833Y-89224D01*
X4275Y-89800D01*
X4850Y-90242D01*
X5521Y-90520D01*
X6240Y-90614D01*
X6960Y-90520D01*
X7630Y-90242D01*
X8206Y-89800D01*
X8647Y-89224D01*
X8925Y-88554D01*
X9020Y-87835D01*
X8925Y-87115D01*
X8647Y-86445D01*
X8206Y-85869D01*
X7630Y-85427D01*
X6960Y-85150D01*
X6240Y-85055D01*
D02*
G37*
G36*
X20079Y-83996D02*
X12402D01*
Y-91673D01*
X20079D01*
Y-83996D01*
D02*
G37*
G36*
X101772Y-90524D02*
X101234Y-90631D01*
X100778Y-90936D01*
X100474Y-91391D01*
X100367Y-91929D01*
X100474Y-92467D01*
X100778Y-92923D01*
X101234Y-93227D01*
X101772Y-93334D01*
X102309Y-93227D01*
X102765Y-92923D01*
X103070Y-92467D01*
X103177Y-91929D01*
X103070Y-91391D01*
X102765Y-90936D01*
X102309Y-90631D01*
X101772Y-90524D01*
D02*
G37*
G36*
X350335Y-94892D02*
X349759Y-95007D01*
X349270Y-95333D01*
X348944Y-95822D01*
X348829Y-96398D01*
X348944Y-96974D01*
X349270Y-97462D01*
X349759Y-97788D01*
X350335Y-97903D01*
X350911Y-97788D01*
X351399Y-97462D01*
X351725Y-96974D01*
X351840Y-96398D01*
X351725Y-95822D01*
X351399Y-95333D01*
X350911Y-95007D01*
X350335Y-94892D01*
D02*
G37*
G36*
X129441Y-95345D02*
X128866Y-95460D01*
X128377Y-95786D01*
X128051Y-96274D01*
X127936Y-96850D01*
X128051Y-97426D01*
X128377Y-97915D01*
X128866Y-98241D01*
X129441Y-98356D01*
X130018Y-98241D01*
X130506Y-97915D01*
X130832Y-97426D01*
X130947Y-96850D01*
X130832Y-96274D01*
X130506Y-95786D01*
X130018Y-95460D01*
X129441Y-95345D01*
D02*
G37*
G36*
X334114Y-97196D02*
X333538Y-97310D01*
X333050Y-97636D01*
X332723Y-98125D01*
X332609Y-98701D01*
X332723Y-99277D01*
X333050Y-99765D01*
X333538Y-100092D01*
X334114Y-100206D01*
X334690Y-100092D01*
X335179Y-99765D01*
X335505Y-99277D01*
X335619Y-98701D01*
X335505Y-98125D01*
X335179Y-97636D01*
X334690Y-97310D01*
X334114Y-97196D01*
D02*
G37*
G36*
X272185Y-99149D02*
Y-100472D01*
X273508D01*
X273462Y-100237D01*
X273045Y-99613D01*
X272421Y-99196D01*
X272185Y-99149D01*
D02*
G37*
G36*
X271185D02*
X270949Y-99196D01*
X270325Y-99613D01*
X269909Y-100237D01*
X269862Y-100472D01*
X271185D01*
Y-99149D01*
D02*
G37*
G36*
X6240Y-95055D02*
X5521Y-95150D01*
X4850Y-95427D01*
X4275Y-95869D01*
X3833Y-96445D01*
X3555Y-97115D01*
X3461Y-97835D01*
X3555Y-98554D01*
X3833Y-99225D01*
X4275Y-99800D01*
X4850Y-100242D01*
X5521Y-100520D01*
X6240Y-100614D01*
X6960Y-100520D01*
X7630Y-100242D01*
X8206Y-99800D01*
X8647Y-99225D01*
X8925Y-98554D01*
X9020Y-97835D01*
X8925Y-97115D01*
X8647Y-96445D01*
X8206Y-95869D01*
X7630Y-95427D01*
X6960Y-95150D01*
X6240Y-95055D01*
D02*
G37*
G36*
X16240Y-93963D02*
X15238Y-94095D01*
X14304Y-94482D01*
X13502Y-95097D01*
X12887Y-95899D01*
X12500Y-96833D01*
X12369Y-97835D01*
X12500Y-98837D01*
X12887Y-99770D01*
X13502Y-100572D01*
X14304Y-101188D01*
X15238Y-101574D01*
X16240Y-101706D01*
X17242Y-101574D01*
X18176Y-101188D01*
X18978Y-100572D01*
X19593Y-99770D01*
X19980Y-98837D01*
X20112Y-97835D01*
X19980Y-96833D01*
X19593Y-95899D01*
X18978Y-95097D01*
X18176Y-94482D01*
X17242Y-94095D01*
X16240Y-93963D01*
D02*
G37*
G36*
X110736Y-101326D02*
Y-102650D01*
X112059D01*
X112013Y-102414D01*
X111596Y-101790D01*
X110972Y-101373D01*
X110736Y-101326D01*
D02*
G37*
G36*
X109736D02*
X109500Y-101373D01*
X108877Y-101790D01*
X108460Y-102414D01*
X108413Y-102650D01*
X109736D01*
Y-101326D01*
D02*
G37*
G36*
X139874Y-101641D02*
X139638Y-101688D01*
X139014Y-102105D01*
X138598Y-102729D01*
X138106Y-102636D01*
X137587Y-102532D01*
X137049Y-102639D01*
X136593Y-102944D01*
X136289Y-103399D01*
X136182Y-103937D01*
X136289Y-104475D01*
X136593Y-104930D01*
X137049Y-105235D01*
X137587Y-105342D01*
X138124Y-105235D01*
X138580Y-104930D01*
X139179Y-104934D01*
X139638Y-105241D01*
X139874Y-105288D01*
Y-103465D01*
Y-101641D01*
D02*
G37*
G36*
X273508Y-101472D02*
X272185D01*
Y-102796D01*
X272421Y-102749D01*
X273045Y-102332D01*
X273462Y-101708D01*
X273508Y-101472D01*
D02*
G37*
G36*
X271185D02*
X269862D01*
X269909Y-101708D01*
X270325Y-102332D01*
X270949Y-102749D01*
X271185Y-102796D01*
Y-101472D01*
D02*
G37*
G36*
X117429Y-101523D02*
Y-102847D01*
X118752D01*
X118705Y-102611D01*
X118289Y-101987D01*
X117665Y-101570D01*
X117429Y-101523D01*
D02*
G37*
G36*
X116429D02*
X116193Y-101570D01*
X115569Y-101987D01*
X115153Y-102611D01*
X115106Y-102847D01*
X116429D01*
Y-101523D01*
D02*
G37*
G36*
X101909Y-100091D02*
X101372Y-100198D01*
X100916Y-100503D01*
X100611Y-100958D01*
X100505Y-101496D01*
X100611Y-102034D01*
X100916Y-102489D01*
X101372Y-102794D01*
X101909Y-102901D01*
X102447Y-102794D01*
X102903Y-102489D01*
X103207Y-102034D01*
X103314Y-101496D01*
X103207Y-100958D01*
X102903Y-100503D01*
X102447Y-100198D01*
X101909Y-100091D01*
D02*
G37*
G36*
X112059Y-103650D02*
X110736D01*
Y-104973D01*
X110972Y-104926D01*
X111596Y-104509D01*
X112013Y-103885D01*
X112059Y-103650D01*
D02*
G37*
G36*
X109736D02*
X108413D01*
X108460Y-103885D01*
X108877Y-104509D01*
X109500Y-104926D01*
X109736Y-104973D01*
Y-103650D01*
D02*
G37*
G36*
X118752Y-103847D02*
X117429D01*
Y-105170D01*
X117665Y-105123D01*
X118289Y-104706D01*
X118705Y-104082D01*
X118752Y-103847D01*
D02*
G37*
G36*
X116429D02*
X115106D01*
X115153Y-104082D01*
X115569Y-104706D01*
X116193Y-105123D01*
X116429Y-105170D01*
Y-103847D01*
D02*
G37*
G36*
X140874Y-101641D02*
Y-103465D01*
Y-105288D01*
X141110Y-105241D01*
X141633Y-104891D01*
X141961Y-104871D01*
X142262Y-104933D01*
X142274Y-104950D01*
X142730Y-105255D01*
X143268Y-105362D01*
X143805Y-105255D01*
X144261Y-104950D01*
X144566Y-104494D01*
X144673Y-103957D01*
X144566Y-103419D01*
X144261Y-102963D01*
X143805Y-102659D01*
X143268Y-102552D01*
X142730Y-102659D01*
X142656Y-102708D01*
X142150Y-102729D01*
X141734Y-102105D01*
X141110Y-101688D01*
X140874Y-101641D01*
D02*
G37*
G36*
X160059Y-102965D02*
X159521Y-103072D01*
X159066Y-103377D01*
X158761Y-103832D01*
X158654Y-104370D01*
X158761Y-104908D01*
X159066Y-105364D01*
X159521Y-105668D01*
X160059Y-105775D01*
X160597Y-105668D01*
X161053Y-105364D01*
X161357Y-104908D01*
X161464Y-104370D01*
X161357Y-103832D01*
X161053Y-103377D01*
X160597Y-103072D01*
X160059Y-102965D01*
D02*
G37*
G36*
X190264Y-104476D02*
Y-105799D01*
X191587D01*
X191540Y-105563D01*
X191123Y-104940D01*
X190500Y-104523D01*
X190264Y-104476D01*
D02*
G37*
G36*
X189264D02*
X189028Y-104523D01*
X188404Y-104940D01*
X187987Y-105563D01*
X187941Y-105799D01*
X189264D01*
Y-104476D01*
D02*
G37*
G36*
X389016Y-100803D02*
X388296Y-100898D01*
X387626Y-101175D01*
X387050Y-101617D01*
X386609Y-102193D01*
X386331Y-102863D01*
X386236Y-103583D01*
X386331Y-104302D01*
X386609Y-104973D01*
X387050Y-105548D01*
X387626Y-105990D01*
X388296Y-106268D01*
X389016Y-106362D01*
X389735Y-106268D01*
X390406Y-105990D01*
X390981Y-105548D01*
X391423Y-104973D01*
X391701Y-104302D01*
X391795Y-103583D01*
X391701Y-102863D01*
X391423Y-102193D01*
X390981Y-101617D01*
X390406Y-101175D01*
X389735Y-100898D01*
X389016Y-100803D01*
D02*
G37*
G36*
X170965Y-104288D02*
X170388Y-104402D01*
X169900Y-104728D01*
X169574Y-105217D01*
X169459Y-105793D01*
X169574Y-106369D01*
X169900Y-106857D01*
X170388Y-107184D01*
X170965Y-107298D01*
X171541Y-107184D01*
X172029Y-106857D01*
X172355Y-106369D01*
X172470Y-105793D01*
X172355Y-105217D01*
X172029Y-104728D01*
X171541Y-104402D01*
X170965Y-104288D01*
D02*
G37*
G36*
X379016Y-99711D02*
X378014Y-99843D01*
X377080Y-100230D01*
X376278Y-100845D01*
X375663Y-101647D01*
X375276Y-102581D01*
X375144Y-103583D01*
X375276Y-104585D01*
X375663Y-105518D01*
X376278Y-106320D01*
X377080Y-106936D01*
X378014Y-107323D01*
X379016Y-107454D01*
X380018Y-107323D01*
X380952Y-106936D01*
X381753Y-106320D01*
X382369Y-105518D01*
X382755Y-104585D01*
X382887Y-103583D01*
X382755Y-102581D01*
X382369Y-101647D01*
X381753Y-100845D01*
X380952Y-100230D01*
X380018Y-99843D01*
X379016Y-99711D01*
D02*
G37*
G36*
X272165Y-106752D02*
Y-108075D01*
X273489D01*
X273442Y-107839D01*
X273025Y-107215D01*
X272401Y-106798D01*
X272165Y-106752D01*
D02*
G37*
G36*
X271165D02*
X270930Y-106798D01*
X270306Y-107215D01*
X269889Y-107839D01*
X269842Y-108075D01*
X271165D01*
Y-106752D01*
D02*
G37*
G36*
X191587Y-106799D02*
X190264D01*
Y-108123D01*
X190500Y-108076D01*
X191123Y-107659D01*
X191540Y-107035D01*
X191587Y-106799D01*
D02*
G37*
G36*
X189264D02*
X187941D01*
X187987Y-107035D01*
X188404Y-107659D01*
X189028Y-108076D01*
X189264Y-108123D01*
Y-106799D01*
D02*
G37*
G36*
X180567Y-105828D02*
X180029Y-105935D01*
X179574Y-106239D01*
X179269Y-106695D01*
X179162Y-107233D01*
X179269Y-107770D01*
X179574Y-108226D01*
X180029Y-108531D01*
X180567Y-108638D01*
X181105Y-108531D01*
X181561Y-108226D01*
X181865Y-107770D01*
X181972Y-107233D01*
X181865Y-106695D01*
X181561Y-106239D01*
X181105Y-105935D01*
X180567Y-105828D01*
D02*
G37*
G36*
X167323Y-105878D02*
X166785Y-105985D01*
X166329Y-106290D01*
X166025Y-106746D01*
X165918Y-107283D01*
X166025Y-107821D01*
X166329Y-108277D01*
X166785Y-108581D01*
X167323Y-108688D01*
X167860Y-108581D01*
X168316Y-108277D01*
X168621Y-107821D01*
X168728Y-107283D01*
X168621Y-106746D01*
X168316Y-106290D01*
X167860Y-105985D01*
X167323Y-105878D01*
D02*
G37*
G36*
X273489Y-109075D02*
X272165D01*
Y-110398D01*
X272401Y-110351D01*
X273025Y-109934D01*
X273442Y-109311D01*
X273489Y-109075D01*
D02*
G37*
G36*
X271165D02*
X269842D01*
X269889Y-109311D01*
X270306Y-109934D01*
X270930Y-110351D01*
X271165Y-110398D01*
Y-109075D01*
D02*
G37*
G36*
X156193Y-110185D02*
X155957Y-110231D01*
X155333Y-110648D01*
X154917Y-111272D01*
X154401Y-111299D01*
X154090Y-111237D01*
X153552Y-111344D01*
X153097Y-111649D01*
X152792Y-112104D01*
X152685Y-112642D01*
X152273Y-113134D01*
X152021Y-113184D01*
X151566Y-113488D01*
X151486Y-113608D01*
X151129Y-113972D01*
X150894Y-113925D01*
Y-115748D01*
Y-117571D01*
X151129Y-117524D01*
X151753Y-117108D01*
X152170Y-116484D01*
X152248Y-116095D01*
X152559Y-115887D01*
X153097Y-115780D01*
X153552Y-115475D01*
X153857Y-115019D01*
X153954Y-114530D01*
X154090Y-114047D01*
X154628Y-113940D01*
X155084Y-113636D01*
X155700Y-113613D01*
X155957Y-113784D01*
X156193Y-113831D01*
Y-112008D01*
Y-110185D01*
D02*
G37*
G36*
X157193D02*
Y-111508D01*
X158516D01*
X158469Y-111272D01*
X158053Y-110648D01*
X157429Y-110231D01*
X157193Y-110185D01*
D02*
G37*
G36*
X204732Y-110677D02*
Y-112000D01*
X206056D01*
X206009Y-111764D01*
X205592Y-111140D01*
X204968Y-110724D01*
X204732Y-110677D01*
D02*
G37*
G36*
X203732D02*
X203497Y-110724D01*
X202873Y-111140D01*
X202456Y-111764D01*
X202409Y-112000D01*
X203732D01*
Y-110677D01*
D02*
G37*
G36*
X261595Y-109518D02*
X261018Y-109633D01*
X260530Y-109959D01*
X260204Y-110448D01*
X260089Y-111024D01*
X260204Y-111600D01*
X260530Y-112088D01*
X261018Y-112414D01*
X261595Y-112529D01*
X262171Y-112414D01*
X262659Y-112088D01*
X262985Y-111600D01*
X263100Y-111024D01*
X262985Y-110448D01*
X262659Y-109959D01*
X262171Y-109633D01*
X261595Y-109518D01*
D02*
G37*
G36*
X170522Y-110800D02*
X169984Y-110907D01*
X169528Y-111211D01*
X169224Y-111667D01*
X169117Y-112205D01*
X169224Y-112742D01*
X169528Y-113198D01*
X169984Y-113503D01*
X170522Y-113610D01*
X171059Y-113503D01*
X171515Y-113198D01*
X171820Y-112742D01*
X171927Y-112205D01*
X171820Y-111667D01*
X171515Y-111211D01*
X171059Y-110907D01*
X170522Y-110800D01*
D02*
G37*
G36*
X158516Y-112508D02*
X157193D01*
Y-113831D01*
X157429Y-113784D01*
X158053Y-113367D01*
X158469Y-112744D01*
X158516Y-112508D01*
D02*
G37*
G36*
X206056Y-113000D02*
X204732D01*
Y-114323D01*
X204968Y-114276D01*
X205592Y-113860D01*
X206009Y-113236D01*
X206056Y-113000D01*
D02*
G37*
G36*
X203732D02*
X202409D01*
X202456Y-113236D01*
X202873Y-113860D01*
X203497Y-114276D01*
X203732Y-114323D01*
Y-113000D01*
D02*
G37*
G36*
X132677Y-111881D02*
X132101Y-111995D01*
X131613Y-112321D01*
X131287Y-112810D01*
X131172Y-113386D01*
X131287Y-113962D01*
X131613Y-114450D01*
X132101Y-114777D01*
X132677Y-114891D01*
X133253Y-114777D01*
X133742Y-114450D01*
X134068Y-113962D01*
X134183Y-113386D01*
X134068Y-112810D01*
X133742Y-112321D01*
X133253Y-111995D01*
X132677Y-111881D01*
D02*
G37*
G36*
X260795Y-113925D02*
Y-115248D01*
X262119D01*
X262072Y-115012D01*
X261655Y-114388D01*
X261031Y-113972D01*
X260795Y-113925D01*
D02*
G37*
G36*
X258051Y-112077D02*
X257475Y-112192D01*
X256987Y-112518D01*
X256661Y-113007D01*
X256546Y-113583D01*
X256661Y-114159D01*
X256987Y-114647D01*
X257475Y-114973D01*
X257996Y-115077D01*
X258075Y-115116D01*
X258185Y-115248D01*
X259795D01*
Y-113742D01*
X259739Y-113705D01*
X259533Y-113467D01*
X259442Y-113007D01*
X259116Y-112518D01*
X258627Y-112192D01*
X258051Y-112077D01*
D02*
G37*
G36*
X149894Y-113925D02*
X149658Y-113972D01*
X149034Y-114388D01*
X148617Y-115012D01*
X148570Y-115248D01*
X149894D01*
Y-113925D01*
D02*
G37*
G36*
X181102Y-112585D02*
X180565Y-112692D01*
X180109Y-112996D01*
X179804Y-113452D01*
X179697Y-113990D01*
X179804Y-114527D01*
X180109Y-114983D01*
X180565Y-115288D01*
X181102Y-115395D01*
X181640Y-115288D01*
X182096Y-114983D01*
X182400Y-114527D01*
X182507Y-113990D01*
X182400Y-113452D01*
X182096Y-112996D01*
X181640Y-112692D01*
X181102Y-112585D01*
D02*
G37*
G36*
X389016Y-110803D02*
X388296Y-110898D01*
X387626Y-111175D01*
X387050Y-111617D01*
X386609Y-112193D01*
X386331Y-112863D01*
X386236Y-113583D01*
X386331Y-114302D01*
X386609Y-114972D01*
X387050Y-115548D01*
X387626Y-115990D01*
X388296Y-116268D01*
X389016Y-116362D01*
X389735Y-116268D01*
X390406Y-115990D01*
X390981Y-115548D01*
X391423Y-114972D01*
X391701Y-114302D01*
X391795Y-113583D01*
X391701Y-112863D01*
X391423Y-112193D01*
X390981Y-111617D01*
X390406Y-111175D01*
X389735Y-110898D01*
X389016Y-110803D01*
D02*
G37*
G36*
X382854Y-109744D02*
X375177D01*
Y-117421D01*
X382854D01*
Y-109744D01*
D02*
G37*
G36*
X162402Y-114737D02*
X161864Y-114844D01*
X161408Y-115148D01*
X161104Y-115604D01*
X160997Y-116142D01*
X161104Y-116679D01*
X161408Y-117135D01*
X161864Y-117440D01*
X162402Y-117547D01*
X162939Y-117440D01*
X163395Y-117135D01*
X163700Y-116679D01*
X163806Y-116142D01*
X163700Y-115604D01*
X163395Y-115148D01*
X162939Y-114844D01*
X162402Y-114737D01*
D02*
G37*
G36*
X262119Y-116248D02*
X260795D01*
Y-117571D01*
X261031Y-117524D01*
X261655Y-117108D01*
X262072Y-116484D01*
X262119Y-116248D01*
D02*
G37*
G36*
X149894D02*
X148570D01*
X148617Y-116484D01*
X149034Y-117108D01*
X149658Y-117524D01*
X149894Y-117571D01*
Y-116248D01*
D02*
G37*
G36*
X6142Y-112083D02*
X5422Y-112177D01*
X4752Y-112455D01*
X4176Y-112897D01*
X3734Y-113472D01*
X3457Y-114143D01*
X3362Y-114862D01*
X3457Y-115582D01*
X3734Y-116252D01*
X4176Y-116828D01*
X4752Y-117270D01*
X5422Y-117547D01*
X6142Y-117642D01*
X6861Y-117547D01*
X7532Y-117270D01*
X8107Y-116828D01*
X8549Y-116252D01*
X8827Y-115582D01*
X8921Y-114862D01*
X8827Y-114143D01*
X8549Y-113472D01*
X8107Y-112897D01*
X7532Y-112455D01*
X6861Y-112177D01*
X6142Y-112083D01*
D02*
G37*
G36*
X19980Y-111024D02*
X12303D01*
Y-118701D01*
X19980D01*
Y-111024D01*
D02*
G37*
G36*
X259795Y-116248D02*
X258472D01*
X258490Y-116340D01*
X258392Y-116527D01*
X258244Y-116732D01*
X258144Y-116823D01*
X257672Y-116916D01*
X257184Y-117243D01*
X256857Y-117731D01*
X256743Y-118307D01*
X256857Y-118883D01*
X257184Y-119371D01*
X257672Y-119698D01*
X258248Y-119812D01*
X258824Y-119698D01*
X259312Y-119371D01*
X259639Y-118883D01*
X259753Y-118307D01*
X259705Y-118063D01*
X259795Y-117973D01*
Y-116248D01*
D02*
G37*
G36*
X262075Y-119496D02*
Y-120819D01*
X263398D01*
X263351Y-120583D01*
X262934Y-119959D01*
X262311Y-119543D01*
X262075Y-119496D01*
D02*
G37*
G36*
X261075D02*
X260839Y-119543D01*
X260215Y-119959D01*
X259798Y-120583D01*
X259752Y-120819D01*
X261075D01*
Y-119496D01*
D02*
G37*
G36*
X151575Y-118674D02*
X151037Y-118781D01*
X150581Y-119085D01*
X150277Y-119541D01*
X150170Y-120079D01*
X150277Y-120616D01*
X150581Y-121072D01*
X151037Y-121377D01*
X151575Y-121483D01*
X152112Y-121377D01*
X152568Y-121072D01*
X152873Y-120616D01*
X152979Y-120079D01*
X152873Y-119541D01*
X152568Y-119085D01*
X152112Y-118781D01*
X151575Y-118674D01*
D02*
G37*
G36*
X204232Y-118573D02*
X203656Y-118688D01*
X203168Y-119014D01*
X202842Y-119502D01*
X202727Y-120079D01*
X202842Y-120654D01*
X203168Y-121143D01*
X203656Y-121469D01*
X204232Y-121584D01*
X204808Y-121469D01*
X205297Y-121143D01*
X205623Y-120654D01*
X205738Y-120079D01*
X205623Y-119502D01*
X205297Y-119014D01*
X204808Y-118688D01*
X204232Y-118573D01*
D02*
G37*
G36*
X146653Y-119658D02*
X146116Y-119765D01*
X145660Y-120070D01*
X145355Y-120525D01*
X145249Y-121063D01*
X145355Y-121601D01*
X145660Y-122056D01*
X146116Y-122361D01*
X146653Y-122468D01*
X147191Y-122361D01*
X147647Y-122056D01*
X147951Y-121601D01*
X148058Y-121063D01*
X147951Y-120525D01*
X147647Y-120070D01*
X147191Y-119765D01*
X146653Y-119658D01*
D02*
G37*
G36*
X96661Y-121169D02*
Y-122492D01*
X97985D01*
X97938Y-122256D01*
X97521Y-121633D01*
X96897Y-121216D01*
X96661Y-121169D01*
D02*
G37*
G36*
X95661D02*
X95426Y-121216D01*
X94802Y-121633D01*
X94385Y-122256D01*
X94338Y-122492D01*
X95661D01*
Y-121169D01*
D02*
G37*
G36*
X263398Y-121819D02*
X262075D01*
Y-123142D01*
X262311Y-123095D01*
X262934Y-122678D01*
X263351Y-122055D01*
X263398Y-121819D01*
D02*
G37*
G36*
X261075D02*
X259752D01*
X259798Y-122055D01*
X260215Y-122678D01*
X260839Y-123095D01*
X261075Y-123142D01*
Y-121819D01*
D02*
G37*
G36*
X97985Y-123492D02*
X96661D01*
Y-124815D01*
X96897Y-124768D01*
X97521Y-124352D01*
X97938Y-123728D01*
X97985Y-123492D01*
D02*
G37*
G36*
X95661D02*
X94338D01*
X94385Y-123728D01*
X94802Y-124352D01*
X95426Y-124768D01*
X95661Y-124815D01*
Y-123492D01*
D02*
G37*
G36*
X162402Y-122156D02*
X161826Y-122271D01*
X161337Y-122597D01*
X161011Y-123085D01*
X160896Y-123661D01*
X161011Y-124238D01*
X161337Y-124726D01*
X161826Y-125052D01*
X162402Y-125167D01*
X162978Y-125052D01*
X163466Y-124726D01*
X163792Y-124238D01*
X163907Y-123661D01*
X163792Y-123085D01*
X163466Y-122597D01*
X162978Y-122271D01*
X162402Y-122156D01*
D02*
G37*
G36*
X125815Y-124751D02*
Y-126075D01*
X127138D01*
X127091Y-125839D01*
X126674Y-125215D01*
X126051Y-124798D01*
X125815Y-124751D01*
D02*
G37*
G36*
X124815D02*
X124579Y-124798D01*
X123955Y-125215D01*
X123538Y-125839D01*
X123492Y-126075D01*
X124815D01*
Y-124751D01*
D02*
G37*
G36*
X141043Y-123357D02*
X140467Y-123471D01*
X139979Y-123798D01*
X139653Y-124286D01*
X139538Y-124862D01*
X139653Y-125438D01*
X139979Y-125927D01*
X140467Y-126253D01*
X141043Y-126367D01*
X141619Y-126253D01*
X142108Y-125927D01*
X142434Y-125438D01*
X142549Y-124862D01*
X142434Y-124286D01*
X142108Y-123798D01*
X141619Y-123471D01*
X141043Y-123357D01*
D02*
G37*
G36*
X204732Y-125511D02*
Y-126834D01*
X206056D01*
X206009Y-126599D01*
X205592Y-125975D01*
X204968Y-125558D01*
X204732Y-125511D01*
D02*
G37*
G36*
X203732D02*
X203497Y-125558D01*
X202873Y-125975D01*
X202456Y-126599D01*
X202409Y-126834D01*
X203732D01*
Y-125511D01*
D02*
G37*
G36*
X6142Y-122082D02*
X5422Y-122177D01*
X4752Y-122455D01*
X4176Y-122897D01*
X3734Y-123472D01*
X3457Y-124143D01*
X3362Y-124862D01*
X3457Y-125582D01*
X3734Y-126252D01*
X4176Y-126828D01*
X4752Y-127269D01*
X5422Y-127547D01*
X6142Y-127642D01*
X6861Y-127547D01*
X7532Y-127269D01*
X8107Y-126828D01*
X8549Y-126252D01*
X8827Y-125582D01*
X8921Y-124862D01*
X8827Y-124143D01*
X8549Y-123472D01*
X8107Y-122897D01*
X7532Y-122455D01*
X6861Y-122177D01*
X6142Y-122082D01*
D02*
G37*
G36*
X127138Y-127075D02*
X125815D01*
Y-128398D01*
X126051Y-128351D01*
X126674Y-127934D01*
X127091Y-127311D01*
X127138Y-127075D01*
D02*
G37*
G36*
X124815D02*
X123492D01*
X123538Y-127311D01*
X123955Y-127934D01*
X124579Y-128351D01*
X124815Y-128398D01*
Y-127075D01*
D02*
G37*
G36*
X153437Y-127283D02*
X153040Y-127362D01*
X152279Y-127870D01*
X151853Y-128509D01*
X151730Y-128540D01*
X151420D01*
X151297Y-128509D01*
X150870Y-127870D01*
X150110Y-127362D01*
X149713Y-127283D01*
Y-129528D01*
Y-131772D01*
X150110Y-131693D01*
X150870Y-131185D01*
X151297Y-130546D01*
X151420Y-130515D01*
X151730D01*
X151853Y-130546D01*
X152279Y-131185D01*
X153040Y-131693D01*
X153437Y-131772D01*
Y-129528D01*
Y-127283D01*
D02*
G37*
G36*
X16142Y-120991D02*
X15140Y-121122D01*
X14206Y-121509D01*
X13404Y-122125D01*
X12789Y-122926D01*
X12402Y-123860D01*
X12270Y-124862D01*
X12402Y-125864D01*
X12789Y-126798D01*
X13404Y-127600D01*
X14206Y-128215D01*
X15140Y-128602D01*
X16142Y-128734D01*
X17144Y-128602D01*
X18078Y-128215D01*
X18879Y-127600D01*
X19495Y-126798D01*
X19882Y-125864D01*
X20013Y-124862D01*
X19882Y-123860D01*
X19495Y-122926D01*
X18879Y-122125D01*
X18078Y-121509D01*
X17144Y-121122D01*
X16142Y-120991D01*
D02*
G37*
G36*
X154437Y-127283D02*
Y-129028D01*
X156182D01*
X156103Y-128630D01*
X155595Y-127870D01*
X154834Y-127362D01*
X154437Y-127283D01*
D02*
G37*
G36*
X148713D02*
X148316Y-127362D01*
X147555Y-127870D01*
X147047Y-128630D01*
X146968Y-129028D01*
X148713D01*
Y-127283D01*
D02*
G37*
G36*
X206056Y-127834D02*
X204732D01*
Y-129158D01*
X204968Y-129111D01*
X205592Y-128694D01*
X206009Y-128070D01*
X206056Y-127834D01*
D02*
G37*
G36*
X203732D02*
X202409D01*
X202456Y-128070D01*
X202873Y-128694D01*
X203497Y-129111D01*
X203732Y-129158D01*
Y-127834D01*
D02*
G37*
G36*
X141043Y-128024D02*
X140506Y-128131D01*
X140050Y-128436D01*
X139745Y-128892D01*
X139658Y-129332D01*
X139361Y-129531D01*
X139163Y-129604D01*
X139022Y-129509D01*
X138484Y-129402D01*
X137947Y-129509D01*
X137491Y-129814D01*
X137186Y-130269D01*
X137079Y-130807D01*
X137186Y-131345D01*
X137491Y-131800D01*
X137947Y-132105D01*
X138484Y-132212D01*
X139022Y-132105D01*
X139478Y-131800D01*
X139782Y-131345D01*
X139870Y-130904D01*
X140166Y-130705D01*
X140364Y-130633D01*
X140506Y-130727D01*
X141043Y-130834D01*
X141581Y-130727D01*
X142037Y-130423D01*
X142341Y-129967D01*
X142448Y-129429D01*
X142341Y-128892D01*
X142037Y-128436D01*
X141581Y-128131D01*
X141043Y-128024D01*
D02*
G37*
G36*
X277153Y-128925D02*
Y-130248D01*
X278477D01*
X278430Y-130012D01*
X278013Y-129388D01*
X277389Y-128972D01*
X277153Y-128925D01*
D02*
G37*
G36*
X276153D02*
X275918Y-128972D01*
X275294Y-129388D01*
X274877Y-130012D01*
X274830Y-130248D01*
X276153D01*
Y-128925D01*
D02*
G37*
G36*
X156182Y-130028D02*
X154437D01*
Y-131772D01*
X154834Y-131693D01*
X155595Y-131185D01*
X156103Y-130425D01*
X156182Y-130028D01*
D02*
G37*
G36*
X148713D02*
X146968D01*
X147047Y-130425D01*
X147555Y-131185D01*
X148316Y-131693D01*
X148713Y-131772D01*
Y-130028D01*
D02*
G37*
G36*
X262697Y-129105D02*
X262121Y-129219D01*
X261632Y-129546D01*
X261306Y-130034D01*
X261192Y-130610D01*
X261306Y-131186D01*
X261632Y-131675D01*
X262121Y-132001D01*
X262697Y-132115D01*
X263273Y-132001D01*
X263761Y-131675D01*
X264088Y-131186D01*
X264202Y-130610D01*
X264088Y-130034D01*
X263761Y-129546D01*
X263273Y-129219D01*
X262697Y-129105D01*
D02*
G37*
G36*
X278477Y-131248D02*
X277153D01*
Y-132571D01*
X277389Y-132524D01*
X278013Y-132108D01*
X278430Y-131484D01*
X278477Y-131248D01*
D02*
G37*
G36*
X276153D02*
X274830D01*
X274877Y-131484D01*
X275294Y-132108D01*
X275918Y-132524D01*
X276153Y-132571D01*
Y-131248D01*
D02*
G37*
G36*
X204732Y-132527D02*
Y-133850D01*
X206056D01*
X206009Y-133615D01*
X205592Y-132991D01*
X204968Y-132574D01*
X204732Y-132527D01*
D02*
G37*
G36*
X203732D02*
X203497Y-132574D01*
X202873Y-132991D01*
X202456Y-133615D01*
X202409Y-133850D01*
X203732D01*
Y-132527D01*
D02*
G37*
G36*
X176524Y-133019D02*
Y-134343D01*
X177847D01*
X177800Y-134107D01*
X177383Y-133483D01*
X176759Y-133066D01*
X176524Y-133019D01*
D02*
G37*
G36*
X175524D02*
X175288Y-133066D01*
X174664Y-133483D01*
X174247Y-134107D01*
X174200Y-134343D01*
X175524D01*
Y-133019D01*
D02*
G37*
G36*
X206056Y-134850D02*
X204732D01*
Y-136174D01*
X204968Y-136127D01*
X205592Y-135710D01*
X206009Y-135086D01*
X206056Y-134850D01*
D02*
G37*
G36*
X203732D02*
X202409D01*
X202456Y-135086D01*
X202873Y-135710D01*
X203497Y-136127D01*
X203732Y-136174D01*
Y-134850D01*
D02*
G37*
G36*
X177847Y-135343D02*
X176524D01*
Y-136666D01*
X176759Y-136619D01*
X177383Y-136202D01*
X177800Y-135578D01*
X177847Y-135343D01*
D02*
G37*
G36*
X175524D02*
X174200D01*
X174247Y-135578D01*
X174664Y-136202D01*
X175288Y-136619D01*
X175524Y-136666D01*
Y-135343D01*
D02*
G37*
G36*
X126484Y-138334D02*
Y-139657D01*
X127808D01*
X127761Y-139422D01*
X127344Y-138798D01*
X126720Y-138381D01*
X126484Y-138334D01*
D02*
G37*
G36*
X125484D02*
X125248Y-138381D01*
X124625Y-138798D01*
X124208Y-139422D01*
X124161Y-139657D01*
X125484D01*
Y-138334D01*
D02*
G37*
G36*
X127808Y-140657D02*
X126484D01*
Y-141981D01*
X126720Y-141934D01*
X127344Y-141517D01*
X127761Y-140893D01*
X127808Y-140657D01*
D02*
G37*
G36*
X125484D02*
X124161D01*
X124208Y-140893D01*
X124625Y-141517D01*
X125248Y-141934D01*
X125484Y-141981D01*
Y-140657D01*
D02*
G37*
G36*
X150591Y-141211D02*
X150014Y-141326D01*
X149526Y-141652D01*
X149200Y-142140D01*
X149085Y-142717D01*
X149200Y-143293D01*
X149526Y-143781D01*
X150014Y-144107D01*
X150591Y-144222D01*
X151167Y-144107D01*
X151655Y-143781D01*
X151981Y-143293D01*
X152096Y-142717D01*
X151981Y-142140D01*
X151655Y-141652D01*
X151167Y-141326D01*
X150591Y-141211D01*
D02*
G37*
G36*
X96996Y-144515D02*
Y-145839D01*
X98319D01*
X98273Y-145603D01*
X97856Y-144979D01*
X97232Y-144562D01*
X96996Y-144515D01*
D02*
G37*
G36*
X95996D02*
X95760Y-144562D01*
X95136Y-144979D01*
X94720Y-145603D01*
X94673Y-145839D01*
X95996D01*
Y-144515D01*
D02*
G37*
G36*
X136264Y-144755D02*
X135687Y-144869D01*
X135199Y-145195D01*
X134873Y-145684D01*
X134758Y-146260D01*
X134873Y-146836D01*
X135199Y-147324D01*
X135687Y-147651D01*
X136264Y-147765D01*
X136840Y-147651D01*
X137328Y-147324D01*
X137654Y-146836D01*
X137769Y-146260D01*
X137654Y-145684D01*
X137328Y-145195D01*
X136840Y-144869D01*
X136264Y-144755D01*
D02*
G37*
G36*
X271957Y-144009D02*
Y-147827D01*
X275775D01*
X275691Y-147192D01*
X275253Y-146135D01*
X274557Y-145227D01*
X273649Y-144530D01*
X272591Y-144092D01*
X271957Y-144009D01*
D02*
G37*
G36*
X251957D02*
Y-147827D01*
X255775D01*
X255691Y-147192D01*
X255253Y-146135D01*
X254557Y-145227D01*
X253649Y-144530D01*
X252591Y-144092D01*
X251957Y-144009D01*
D02*
G37*
G36*
X270957D02*
X270322Y-144092D01*
X269265Y-144530D01*
X268357Y-145227D01*
X267660Y-146135D01*
X267222Y-147192D01*
X267139Y-147827D01*
X270957D01*
Y-144009D01*
D02*
G37*
G36*
X250957D02*
X250322Y-144092D01*
X249265Y-144530D01*
X248357Y-145227D01*
X247660Y-146135D01*
X247222Y-147192D01*
X247139Y-147827D01*
X250957D01*
Y-144009D01*
D02*
G37*
G36*
X98319Y-146839D02*
X96996D01*
Y-148162D01*
X97232Y-148115D01*
X97856Y-147698D01*
X98273Y-147074D01*
X98319Y-146839D01*
D02*
G37*
G36*
X95996D02*
X94673D01*
X94720Y-147074D01*
X95136Y-147698D01*
X95760Y-148115D01*
X95996Y-148162D01*
Y-146839D01*
D02*
G37*
G36*
X183169Y-147414D02*
X182632Y-147521D01*
X182176Y-147826D01*
X181871Y-148281D01*
X181764Y-148819D01*
X181871Y-149356D01*
X182176Y-149812D01*
X182632Y-150117D01*
X183169Y-150224D01*
X183707Y-150117D01*
X184163Y-149812D01*
X184467Y-149356D01*
X184574Y-148819D01*
X184467Y-148281D01*
X184163Y-147826D01*
X183707Y-147521D01*
X183169Y-147414D01*
D02*
G37*
G36*
X152559Y-144658D02*
X152021Y-144765D01*
X151566Y-145070D01*
X151261Y-145525D01*
X151154Y-146063D01*
X151261Y-146601D01*
X151566Y-147056D01*
X151700Y-147147D01*
X151723Y-147233D01*
X151666Y-147725D01*
X151369Y-147924D01*
X151064Y-148380D01*
X150957Y-148917D01*
X151064Y-149455D01*
X151369Y-149911D01*
X151824Y-150215D01*
X152362Y-150322D01*
X152900Y-150215D01*
X153356Y-149911D01*
X153660Y-149455D01*
X153767Y-148917D01*
X153660Y-148380D01*
X153356Y-147924D01*
X153221Y-147834D01*
X153198Y-147747D01*
X153255Y-147255D01*
X153552Y-147056D01*
X153857Y-146601D01*
X153964Y-146063D01*
X153857Y-145525D01*
X153552Y-145070D01*
X153097Y-144765D01*
X152559Y-144658D01*
D02*
G37*
G36*
X6316Y-146315D02*
X5596Y-146409D01*
X4926Y-146687D01*
X4350Y-147129D01*
X3908Y-147705D01*
X3631Y-148375D01*
X3536Y-149094D01*
X3631Y-149814D01*
X3908Y-150484D01*
X4350Y-151060D01*
X4926Y-151502D01*
X5596Y-151779D01*
X6316Y-151874D01*
X7035Y-151779D01*
X7706Y-151502D01*
X8281Y-151060D01*
X8723Y-150484D01*
X9001Y-149814D01*
X9095Y-149094D01*
X9001Y-148375D01*
X8723Y-147705D01*
X8281Y-147129D01*
X7706Y-146687D01*
X7035Y-146409D01*
X6316Y-146315D01*
D02*
G37*
G36*
X285394Y-144390D02*
X277520D01*
Y-152264D01*
X285394D01*
Y-144390D01*
D02*
G37*
G36*
X261457Y-144356D02*
X260429Y-144491D01*
X259471Y-144888D01*
X258649Y-145519D01*
X258018Y-146341D01*
X257621Y-147299D01*
X257486Y-148327D01*
X257621Y-149355D01*
X258018Y-150312D01*
X258649Y-151135D01*
X259471Y-151766D01*
X260429Y-152162D01*
X261457Y-152298D01*
X262485Y-152162D01*
X263442Y-151766D01*
X264265Y-151135D01*
X264896Y-150312D01*
X265292Y-149355D01*
X265428Y-148327D01*
X265292Y-147299D01*
X264896Y-146341D01*
X264265Y-145519D01*
X263442Y-144888D01*
X262485Y-144491D01*
X261457Y-144356D01*
D02*
G37*
G36*
X270957Y-148827D02*
X267139D01*
X267222Y-149461D01*
X267660Y-150519D01*
X268357Y-151427D01*
X269265Y-152123D01*
X270322Y-152561D01*
X270957Y-152645D01*
Y-148827D01*
D02*
G37*
G36*
X250957D02*
X247139D01*
X247222Y-149461D01*
X247660Y-150519D01*
X248357Y-151427D01*
X249265Y-152123D01*
X250322Y-152561D01*
X250957Y-152645D01*
Y-148827D01*
D02*
G37*
G36*
X255775D02*
X251957D01*
Y-152645D01*
X252591Y-152561D01*
X253649Y-152123D01*
X254557Y-151427D01*
X255253Y-150519D01*
X255691Y-149461D01*
X255775Y-148827D01*
D02*
G37*
G36*
X275775D02*
X271957D01*
Y-152645D01*
X272591Y-152561D01*
X273649Y-152123D01*
X274557Y-151427D01*
X275253Y-150519D01*
X275691Y-149461D01*
X275775Y-148827D01*
D02*
G37*
G36*
X20154Y-145256D02*
X12477D01*
Y-152933D01*
X20154D01*
Y-145256D01*
D02*
G37*
G36*
X187508Y-152901D02*
Y-154224D01*
X188831D01*
X188784Y-153989D01*
X188367Y-153365D01*
X187744Y-152948D01*
X187508Y-152901D01*
D02*
G37*
G36*
X186508D02*
X186272Y-152948D01*
X185648Y-153365D01*
X185231Y-153989D01*
X185185Y-154224D01*
X186508D01*
Y-152901D01*
D02*
G37*
G36*
X309614Y-153039D02*
Y-154362D01*
X310938D01*
X310891Y-154126D01*
X310474Y-153503D01*
X309850Y-153086D01*
X309614Y-153039D01*
D02*
G37*
G36*
X308614D02*
X308378Y-153086D01*
X307755Y-153503D01*
X307338Y-154126D01*
X307291Y-154362D01*
X308614D01*
Y-153039D01*
D02*
G37*
G36*
X171547Y-153123D02*
Y-154847D01*
Y-156569D01*
X171745Y-156530D01*
X172336Y-156135D01*
X172358Y-156102D01*
X172629Y-155866D01*
X173084Y-156170D01*
X173622Y-156277D01*
X174160Y-156170D01*
X174616Y-155866D01*
X174920Y-155410D01*
X175027Y-154872D01*
X174920Y-154334D01*
X174616Y-153879D01*
X174160Y-153574D01*
X173622Y-153467D01*
X173084Y-153574D01*
X172629Y-153879D01*
X172362Y-153597D01*
X172336Y-153558D01*
X171745Y-153163D01*
X171547Y-153123D01*
D02*
G37*
G36*
X179390Y-153268D02*
X178814Y-153383D01*
X178325Y-153709D01*
X177999Y-154198D01*
X177884Y-154774D01*
X177999Y-155350D01*
X178325Y-155838D01*
X178814Y-156164D01*
X179390Y-156279D01*
X179966Y-156164D01*
X180454Y-155838D01*
X180780Y-155350D01*
X180895Y-154774D01*
X180780Y-154198D01*
X180454Y-153709D01*
X179966Y-153383D01*
X179390Y-153268D01*
D02*
G37*
G36*
X163681Y-153416D02*
X163105Y-153531D01*
X162617Y-153857D01*
X162290Y-154345D01*
X162176Y-154921D01*
X162290Y-155497D01*
X162617Y-155986D01*
X163105Y-156312D01*
X163681Y-156427D01*
X164257Y-156312D01*
X164745Y-155986D01*
X165072Y-155497D01*
X165186Y-154921D01*
X165072Y-154345D01*
X164745Y-153857D01*
X164257Y-153531D01*
X163681Y-153416D01*
D02*
G37*
G36*
X388140Y-150882D02*
X387420Y-150977D01*
X386750Y-151254D01*
X386174Y-151696D01*
X385733Y-152272D01*
X385455Y-152942D01*
X385360Y-153661D01*
X385455Y-154381D01*
X385733Y-155051D01*
X386174Y-155627D01*
X386750Y-156069D01*
X387420Y-156346D01*
X388140Y-156441D01*
X388859Y-156346D01*
X389530Y-156069D01*
X390105Y-155627D01*
X390547Y-155051D01*
X390825Y-154381D01*
X390919Y-153661D01*
X390825Y-152942D01*
X390547Y-152272D01*
X390105Y-151696D01*
X389530Y-151254D01*
X388859Y-150977D01*
X388140Y-150882D01*
D02*
G37*
G36*
X156398Y-153495D02*
X155822Y-153609D01*
X155333Y-153936D01*
X155007Y-154424D01*
X154892Y-155000D01*
X155007Y-155576D01*
X155333Y-156064D01*
X155822Y-156391D01*
X156398Y-156505D01*
X156974Y-156391D01*
X157462Y-156064D01*
X157788Y-155576D01*
X157903Y-155000D01*
X157788Y-154424D01*
X157462Y-153936D01*
X156974Y-153609D01*
X156398Y-153495D01*
D02*
G37*
G36*
X188831Y-155224D02*
X187508D01*
Y-156548D01*
X187744Y-156501D01*
X188367Y-156084D01*
X188784Y-155460D01*
X188831Y-155224D01*
D02*
G37*
G36*
X186508D02*
X185185D01*
X185231Y-155460D01*
X185648Y-156084D01*
X186272Y-156501D01*
X186508Y-156548D01*
Y-155224D01*
D02*
G37*
G36*
X194598Y-153538D02*
X194022Y-153653D01*
X193534Y-153979D01*
X193208Y-154467D01*
X193093Y-155043D01*
X193208Y-155619D01*
X193534Y-156108D01*
X194022Y-156434D01*
X194598Y-156549D01*
X195175Y-156434D01*
X195663Y-156108D01*
X195989Y-155619D01*
X196104Y-155043D01*
X195989Y-154467D01*
X195663Y-153979D01*
X195175Y-153653D01*
X194598Y-153538D01*
D02*
G37*
G36*
X170547Y-153123D02*
X170350Y-153163D01*
X169759Y-153558D01*
X169363Y-154149D01*
X169275Y-154596D01*
X169024Y-155056D01*
X168486Y-155163D01*
X168030Y-155467D01*
X167726Y-155923D01*
X167619Y-156461D01*
X167726Y-156998D01*
X168030Y-157454D01*
X168486Y-157759D01*
X169024Y-157866D01*
X169561Y-157759D01*
X170017Y-157454D01*
X170322Y-156998D01*
X170412Y-156543D01*
X170547Y-156569D01*
Y-154847D01*
Y-153123D01*
D02*
G37*
G36*
X310938Y-155362D02*
X309614D01*
Y-156685D01*
X309850Y-156639D01*
X310474Y-156222D01*
X310891Y-155598D01*
X310938Y-155362D01*
D02*
G37*
G36*
X308614D02*
X307291D01*
X307338Y-155598D01*
X307755Y-156222D01*
X308378Y-156639D01*
X308614Y-156685D01*
Y-155362D01*
D02*
G37*
G36*
X150524Y-156643D02*
X150326Y-156682D01*
X149957Y-156929D01*
X149821Y-157020D01*
X149821Y-157020D01*
X149735Y-157078D01*
X149199Y-157133D01*
X149120Y-157107D01*
X149061Y-157068D01*
X148524Y-156961D01*
X147986Y-157068D01*
X147530Y-157373D01*
X147226Y-157828D01*
X147119Y-158366D01*
X147226Y-158904D01*
X147530Y-159360D01*
X147986Y-159664D01*
X148524Y-159771D01*
X149061Y-159664D01*
X149164Y-159596D01*
X149735Y-159655D01*
X149821Y-159712D01*
X149821Y-159712D01*
X149957Y-159803D01*
X150326Y-160050D01*
X150524Y-160089D01*
Y-158366D01*
Y-156643D01*
D02*
G37*
G36*
X378140Y-149790D02*
X377138Y-149922D01*
X376204Y-150308D01*
X375402Y-150924D01*
X374787Y-151726D01*
X374400Y-152659D01*
X374268Y-153661D01*
X374400Y-154664D01*
X374787Y-155597D01*
X375402Y-156399D01*
X376204Y-157014D01*
X377138Y-157401D01*
X378140Y-157533D01*
X379142Y-157401D01*
X380076Y-157014D01*
X380877Y-156399D01*
X381493Y-155597D01*
X381879Y-154664D01*
X382012Y-153661D01*
X381879Y-152659D01*
X381493Y-151726D01*
X380877Y-150924D01*
X380076Y-150308D01*
X379142Y-149922D01*
X378140Y-149790D01*
D02*
G37*
G36*
X151524Y-156643D02*
Y-157866D01*
X152747D01*
X152707Y-157669D01*
X152312Y-157078D01*
X151721Y-156682D01*
X151524Y-156643D01*
D02*
G37*
G36*
X143240Y-157490D02*
X143043Y-157529D01*
X142458Y-157920D01*
X142068Y-158160D01*
X142017D01*
X141561Y-157855D01*
X141024Y-157749D01*
X140486Y-157855D01*
X140030Y-158160D01*
X139726Y-158616D01*
X139619Y-159153D01*
X139726Y-159691D01*
X140030Y-160147D01*
X140486Y-160451D01*
X141024Y-160558D01*
X141561Y-160451D01*
X142017Y-160147D01*
X142215D01*
X142452Y-160501D01*
X143043Y-160896D01*
X143240Y-160936D01*
Y-159213D01*
Y-157490D01*
D02*
G37*
G36*
X16816Y-154876D02*
Y-158595D01*
X20535D01*
X20454Y-157985D01*
X20026Y-156952D01*
X19345Y-156065D01*
X18458Y-155384D01*
X17425Y-154956D01*
X16816Y-154876D01*
D02*
G37*
G36*
X15816Y-154876D02*
X15207Y-154956D01*
X14173Y-155384D01*
X13286Y-156065D01*
X12605Y-156952D01*
X12177Y-157985D01*
X12097Y-158595D01*
X15816D01*
Y-154876D01*
D02*
G37*
G36*
X126091Y-157271D02*
Y-158595D01*
X127414D01*
X127367Y-158359D01*
X126950Y-157735D01*
X126326Y-157318D01*
X126091Y-157271D01*
D02*
G37*
G36*
X125091D02*
X124855Y-157318D01*
X124231Y-157735D01*
X123814Y-158359D01*
X123767Y-158595D01*
X125091D01*
Y-157271D01*
D02*
G37*
G36*
X144240Y-157490D02*
Y-158713D01*
X145463D01*
X145424Y-158515D01*
X145029Y-157924D01*
X144438Y-157529D01*
X144240Y-157490D01*
D02*
G37*
G36*
X60146Y-157822D02*
Y-159146D01*
X61469D01*
X61422Y-158910D01*
X61005Y-158286D01*
X60382Y-157869D01*
X60146Y-157822D01*
D02*
G37*
G36*
X59146D02*
X58910Y-157869D01*
X58286Y-158286D01*
X57869Y-158910D01*
X57822Y-159146D01*
X59146D01*
Y-157822D01*
D02*
G37*
G36*
X118276Y-158413D02*
Y-159736D01*
X119599D01*
X119552Y-159500D01*
X119135Y-158877D01*
X118511Y-158460D01*
X118276Y-158413D01*
D02*
G37*
G36*
X117276D02*
X117040Y-158460D01*
X116416Y-158877D01*
X115999Y-159500D01*
X115952Y-159736D01*
X117276D01*
Y-158413D01*
D02*
G37*
G36*
X152747Y-158866D02*
X151524D01*
Y-160089D01*
X151721Y-160050D01*
X152312Y-159655D01*
X152707Y-159064D01*
X152747Y-158866D01*
D02*
G37*
G36*
X127414Y-159595D02*
X126091D01*
Y-160918D01*
X126326Y-160871D01*
X126950Y-160454D01*
X127367Y-159830D01*
X127414Y-159595D01*
D02*
G37*
G36*
X125091D02*
X123767D01*
X123814Y-159830D01*
X124231Y-160454D01*
X124855Y-160871D01*
X125091Y-160918D01*
Y-159595D01*
D02*
G37*
G36*
X145463Y-159713D02*
X144240D01*
Y-160936D01*
X144438Y-160896D01*
X145029Y-160501D01*
X145424Y-159910D01*
X145463Y-159713D01*
D02*
G37*
G36*
X61469Y-160146D02*
X60146D01*
Y-161469D01*
X60382Y-161422D01*
X61005Y-161005D01*
X61422Y-160381D01*
X61469Y-160146D01*
D02*
G37*
G36*
X59146D02*
X57822D01*
X57869Y-160381D01*
X58286Y-161005D01*
X58910Y-161422D01*
X59146Y-161469D01*
Y-160146D01*
D02*
G37*
G36*
X6316Y-156315D02*
X5596Y-156410D01*
X4926Y-156687D01*
X4350Y-157129D01*
X3908Y-157705D01*
X3631Y-158375D01*
X3536Y-159095D01*
X3631Y-159814D01*
X3908Y-160484D01*
X4350Y-161060D01*
X4926Y-161502D01*
X5596Y-161779D01*
X6316Y-161874D01*
X7035Y-161779D01*
X7706Y-161502D01*
X8281Y-161060D01*
X8723Y-160484D01*
X9001Y-159814D01*
X9095Y-159095D01*
X9001Y-158375D01*
X8723Y-157705D01*
X8281Y-157129D01*
X7706Y-156687D01*
X7035Y-156410D01*
X6316Y-156315D01*
D02*
G37*
G36*
X119599Y-160736D02*
X118276D01*
Y-162059D01*
X118511Y-162013D01*
X119135Y-161596D01*
X119552Y-160972D01*
X119599Y-160736D01*
D02*
G37*
G36*
X117276D02*
X115952D01*
X115999Y-160972D01*
X116416Y-161596D01*
X117040Y-162013D01*
X117276Y-162059D01*
Y-160736D01*
D02*
G37*
G36*
X96850Y-159223D02*
X96274Y-159338D01*
X95786Y-159664D01*
X95460Y-160152D01*
X95345Y-160728D01*
X95460Y-161304D01*
X95786Y-161793D01*
X96274Y-162119D01*
X96850Y-162234D01*
X97426Y-162119D01*
X97915Y-161793D01*
X98241Y-161304D01*
X98356Y-160728D01*
X98241Y-160152D01*
X97915Y-159664D01*
X97426Y-159338D01*
X96850Y-159223D01*
D02*
G37*
G36*
X382388Y-159413D02*
X378640D01*
Y-163161D01*
X382388D01*
Y-159413D01*
D02*
G37*
G36*
X377640D02*
X373892D01*
Y-163161D01*
X377640D01*
Y-159413D01*
D02*
G37*
G36*
X279784Y-160247D02*
X279207Y-160361D01*
X278719Y-160688D01*
X278393Y-161176D01*
X278278Y-161752D01*
X278393Y-162328D01*
X278719Y-162816D01*
X279207Y-163143D01*
X279784Y-163257D01*
X280360Y-163143D01*
X280848Y-162816D01*
X281174Y-162328D01*
X281289Y-161752D01*
X281174Y-161176D01*
X280848Y-160688D01*
X280360Y-160361D01*
X279784Y-160247D01*
D02*
G37*
G36*
X20535Y-159595D02*
X16816D01*
Y-163313D01*
X17425Y-163233D01*
X18458Y-162805D01*
X19345Y-162124D01*
X20026Y-161237D01*
X20454Y-160203D01*
X20535Y-159595D01*
D02*
G37*
G36*
X15816D02*
X12097D01*
X12177Y-160203D01*
X12605Y-161237D01*
X13286Y-162124D01*
X14173Y-162805D01*
X15207Y-163233D01*
X15816Y-163313D01*
Y-159595D01*
D02*
G37*
G36*
X388140Y-160882D02*
X387420Y-160977D01*
X386750Y-161254D01*
X386174Y-161696D01*
X385733Y-162272D01*
X385455Y-162942D01*
X385360Y-163661D01*
X385455Y-164381D01*
X385733Y-165051D01*
X386174Y-165627D01*
X386750Y-166069D01*
X387420Y-166346D01*
X388140Y-166441D01*
X388859Y-166346D01*
X389530Y-166069D01*
X390105Y-165627D01*
X390547Y-165051D01*
X390825Y-164381D01*
X390919Y-163661D01*
X390825Y-162942D01*
X390547Y-162272D01*
X390105Y-161696D01*
X389530Y-161254D01*
X388859Y-160977D01*
X388140Y-160882D01*
D02*
G37*
G36*
X382388Y-164161D02*
X378640D01*
Y-167909D01*
X382388D01*
Y-164161D01*
D02*
G37*
G36*
X377640D02*
X373892D01*
Y-167909D01*
X377640D01*
Y-164161D01*
D02*
G37*
G36*
X248937Y-165069D02*
X248361Y-165184D01*
X247873Y-165510D01*
X247546Y-165999D01*
X247432Y-166575D01*
X247546Y-167151D01*
X247873Y-167639D01*
X248361Y-167965D01*
X248937Y-168080D01*
X249513Y-167965D01*
X250001Y-167639D01*
X250328Y-167151D01*
X250442Y-166575D01*
X250328Y-165999D01*
X250001Y-165510D01*
X249513Y-165184D01*
X248937Y-165069D01*
D02*
G37*
G36*
X267874Y-165444D02*
X267298Y-165558D01*
X266810Y-165884D01*
X266483Y-166373D01*
X266369Y-166949D01*
X266483Y-167525D01*
X266810Y-168013D01*
X267298Y-168340D01*
X267874Y-168454D01*
X268450Y-168340D01*
X268938Y-168013D01*
X269265Y-167525D01*
X269379Y-166949D01*
X269265Y-166373D01*
X268938Y-165884D01*
X268450Y-165558D01*
X267874Y-165444D01*
D02*
G37*
G36*
X174803Y-165817D02*
X174227Y-165932D01*
X173739Y-166258D01*
X173412Y-166747D01*
X173298Y-167323D01*
X173412Y-167899D01*
X173739Y-168387D01*
X174227Y-168713D01*
X174803Y-168828D01*
X175379Y-168713D01*
X175868Y-168387D01*
X176194Y-167899D01*
X176308Y-167323D01*
X176194Y-166747D01*
X175868Y-166258D01*
X175379Y-165932D01*
X174803Y-165817D01*
D02*
G37*
G36*
X167126Y-165857D02*
X166550Y-165972D01*
X166062Y-166298D01*
X165735Y-166786D01*
X165621Y-167362D01*
X165735Y-167938D01*
X166062Y-168427D01*
X166550Y-168753D01*
X167126Y-168868D01*
X167702Y-168753D01*
X168190Y-168427D01*
X168517Y-167938D01*
X168631Y-167362D01*
X168517Y-166786D01*
X168190Y-166298D01*
X167702Y-165972D01*
X167126Y-165857D01*
D02*
G37*
G36*
X306279Y-168849D02*
X305703Y-168964D01*
X305215Y-169290D01*
X304889Y-169778D01*
X304774Y-170354D01*
X304889Y-170930D01*
X305215Y-171419D01*
X305703Y-171745D01*
X306279Y-171860D01*
X306856Y-171745D01*
X307344Y-171419D01*
X307670Y-170930D01*
X307785Y-170354D01*
X307670Y-169778D01*
X307344Y-169290D01*
X306856Y-168964D01*
X306279Y-168849D01*
D02*
G37*
G36*
X106595Y-168967D02*
X106018Y-169082D01*
X105530Y-169408D01*
X105204Y-169896D01*
X105089Y-170472D01*
X105204Y-171048D01*
X105530Y-171537D01*
X106018Y-171863D01*
X106595Y-171978D01*
X107170Y-171863D01*
X107659Y-171537D01*
X107985Y-171048D01*
X108100Y-170472D01*
X107985Y-169896D01*
X107659Y-169408D01*
X107170Y-169082D01*
X106595Y-168967D01*
D02*
G37*
G36*
X320815Y-177055D02*
Y-178378D01*
X322138D01*
X322091Y-178142D01*
X321675Y-177518D01*
X321051Y-177102D01*
X320815Y-177055D01*
D02*
G37*
G36*
X319815D02*
X319579Y-177102D01*
X318955Y-177518D01*
X318538Y-178142D01*
X318492Y-178378D01*
X319815D01*
Y-177055D01*
D02*
G37*
G36*
X325480Y-178059D02*
Y-179382D01*
X326804D01*
X326757Y-179146D01*
X326340Y-178522D01*
X325716Y-178105D01*
X325480Y-178059D01*
D02*
G37*
G36*
X324480D02*
X324244Y-178105D01*
X323621Y-178522D01*
X323204Y-179146D01*
X323157Y-179382D01*
X324480D01*
Y-178059D01*
D02*
G37*
G36*
X209547Y-174381D02*
X208971Y-174495D01*
X208483Y-174821D01*
X208156Y-175310D01*
X208042Y-175886D01*
X208156Y-176462D01*
X208483Y-176950D01*
X208971Y-177277D01*
X209547Y-177391D01*
X210123Y-177277D01*
X210170Y-177246D01*
X210530Y-177606D01*
X210420Y-177770D01*
X210306Y-178347D01*
X210420Y-178922D01*
X210747Y-179411D01*
X211235Y-179737D01*
X211811Y-179852D01*
X212387Y-179737D01*
X212875Y-179411D01*
X213202Y-178922D01*
X213316Y-178347D01*
X213202Y-177770D01*
X212875Y-177282D01*
X212387Y-176956D01*
X211811Y-176841D01*
X211235Y-176956D01*
X211189Y-176987D01*
X210828Y-176626D01*
X210938Y-176462D01*
X211052Y-175886D01*
X210938Y-175310D01*
X210612Y-174821D01*
X210123Y-174495D01*
X209547Y-174381D01*
D02*
G37*
G36*
X322138Y-179378D02*
X320815D01*
Y-180701D01*
X321051Y-180654D01*
X321675Y-180238D01*
X322091Y-179614D01*
X322138Y-179378D01*
D02*
G37*
G36*
X319815D02*
X318492D01*
X318538Y-179614D01*
X318955Y-180238D01*
X319579Y-180654D01*
X319815Y-180701D01*
Y-179378D01*
D02*
G37*
G36*
X348256Y-179811D02*
Y-181134D01*
X349579D01*
X349532Y-180898D01*
X349115Y-180274D01*
X348492Y-179857D01*
X348256Y-179811D01*
D02*
G37*
G36*
X347256D02*
X347020Y-179857D01*
X346396Y-180274D01*
X345979Y-180898D01*
X345933Y-181134D01*
X347256D01*
Y-179811D01*
D02*
G37*
G36*
X340205Y-179830D02*
Y-181154D01*
X341528D01*
X341481Y-180918D01*
X341064Y-180294D01*
X340441Y-179877D01*
X340205Y-179830D01*
D02*
G37*
G36*
X339205D02*
X338969Y-179877D01*
X338345Y-180294D01*
X337928Y-180918D01*
X337881Y-181154D01*
X339205D01*
Y-179830D01*
D02*
G37*
G36*
X162894Y-178514D02*
X162318Y-178629D01*
X161829Y-178955D01*
X161503Y-179444D01*
X161388Y-180020D01*
X161503Y-180596D01*
X161829Y-181084D01*
X162318Y-181410D01*
X162894Y-181525D01*
X163470Y-181410D01*
X163958Y-181084D01*
X164284Y-180596D01*
X164399Y-180020D01*
X164284Y-179444D01*
X163958Y-178955D01*
X163470Y-178629D01*
X162894Y-178514D01*
D02*
G37*
G36*
X326804Y-180382D02*
X325480D01*
Y-181705D01*
X325716Y-181658D01*
X326340Y-181242D01*
X326757Y-180618D01*
X326804Y-180382D01*
D02*
G37*
G36*
X324480D02*
X323157D01*
X323204Y-180618D01*
X323621Y-181242D01*
X324244Y-181658D01*
X324480Y-181705D01*
Y-180382D01*
D02*
G37*
G36*
X349579Y-182134D02*
X348256D01*
Y-183457D01*
X348492Y-183410D01*
X349115Y-182993D01*
X349532Y-182370D01*
X349579Y-182134D01*
D02*
G37*
G36*
X347256D02*
X345933D01*
X345979Y-182370D01*
X346396Y-182993D01*
X347020Y-183410D01*
X347256Y-183457D01*
Y-182134D01*
D02*
G37*
G36*
X341528Y-182153D02*
X340205D01*
Y-183477D01*
X340441Y-183430D01*
X341064Y-183013D01*
X341481Y-182389D01*
X341528Y-182153D01*
D02*
G37*
G36*
X339205D02*
X337881D01*
X337928Y-182389D01*
X338345Y-183013D01*
X338969Y-183430D01*
X339205Y-183477D01*
Y-182153D01*
D02*
G37*
G36*
X122423Y-182550D02*
X121847Y-182664D01*
X121358Y-182991D01*
X121032Y-183479D01*
X120917Y-184055D01*
X121032Y-184631D01*
X121358Y-185119D01*
X121847Y-185446D01*
X122423Y-185560D01*
X122999Y-185446D01*
X123487Y-185119D01*
X123813Y-184631D01*
X123928Y-184055D01*
X123813Y-183479D01*
X123487Y-182991D01*
X122999Y-182664D01*
X122423Y-182550D01*
D02*
G37*
G36*
X158768Y-185480D02*
Y-186803D01*
X160091D01*
X160044Y-186567D01*
X159627Y-185944D01*
X159003Y-185527D01*
X158768Y-185480D01*
D02*
G37*
G36*
X157768D02*
X157532Y-185527D01*
X156908Y-185944D01*
X156491Y-186567D01*
X156444Y-186803D01*
X157768D01*
Y-185480D01*
D02*
G37*
G36*
X104035Y-183855D02*
X103459Y-183970D01*
X102971Y-184296D01*
X102645Y-184785D01*
X102530Y-185361D01*
X102645Y-185937D01*
X102971Y-186425D01*
X103459Y-186751D01*
X104035Y-186866D01*
X104612Y-186751D01*
X105100Y-186425D01*
X105426Y-185937D01*
X105541Y-185361D01*
X105426Y-184785D01*
X105100Y-184296D01*
X104612Y-183970D01*
X104035Y-183855D01*
D02*
G37*
G36*
X79331Y-184225D02*
X78793Y-184332D01*
X78337Y-184636D01*
X78033Y-185092D01*
X77926Y-185630D01*
X78033Y-186168D01*
X78337Y-186623D01*
X78793Y-186928D01*
X79331Y-187035D01*
X79868Y-186928D01*
X80324Y-186623D01*
X80629Y-186168D01*
X80736Y-185630D01*
X80629Y-185092D01*
X80324Y-184636D01*
X79868Y-184332D01*
X79331Y-184225D01*
D02*
G37*
G36*
X128453Y-186070D02*
Y-187394D01*
X129776D01*
X129729Y-187158D01*
X129312Y-186534D01*
X128689Y-186117D01*
X128453Y-186070D01*
D02*
G37*
G36*
X127453D02*
X127217Y-186117D01*
X126593Y-186534D01*
X126176Y-187158D01*
X126129Y-187394D01*
X127453D01*
Y-186070D01*
D02*
G37*
G36*
X6316Y-182850D02*
X5596Y-182945D01*
X4926Y-183223D01*
X4350Y-183664D01*
X3908Y-184240D01*
X3631Y-184911D01*
X3536Y-185630D01*
X3631Y-186349D01*
X3908Y-187020D01*
X4350Y-187595D01*
X4926Y-188037D01*
X5596Y-188315D01*
X6316Y-188410D01*
X7035Y-188315D01*
X7706Y-188037D01*
X8281Y-187595D01*
X8723Y-187020D01*
X9001Y-186349D01*
X9095Y-185630D01*
X9001Y-184911D01*
X8723Y-184240D01*
X8281Y-183664D01*
X7706Y-183223D01*
X7035Y-182945D01*
X6316Y-182850D01*
D02*
G37*
G36*
X160091Y-187803D02*
X158768D01*
Y-189127D01*
X159003Y-189080D01*
X159627Y-188663D01*
X160044Y-188039D01*
X160091Y-187803D01*
D02*
G37*
G36*
X157768D02*
X156444D01*
X156491Y-188039D01*
X156908Y-188663D01*
X157532Y-189080D01*
X157768Y-189127D01*
Y-187803D01*
D02*
G37*
G36*
X20154Y-181791D02*
X12477D01*
Y-189469D01*
X20154D01*
Y-181791D01*
D02*
G37*
G36*
X295394Y-186644D02*
X294818Y-186759D01*
X294329Y-187085D01*
X294003Y-187574D01*
X293888Y-188150D01*
X294003Y-188726D01*
X294329Y-189214D01*
X294818Y-189540D01*
X295394Y-189655D01*
X295970Y-189540D01*
X296458Y-189214D01*
X296784Y-188726D01*
X296899Y-188150D01*
X296784Y-187574D01*
X296458Y-187085D01*
X295970Y-186759D01*
X295394Y-186644D01*
D02*
G37*
G36*
X129776Y-188394D02*
X128453D01*
Y-189717D01*
X128689Y-189670D01*
X129312Y-189253D01*
X129729Y-188629D01*
X129776Y-188394D01*
D02*
G37*
G36*
X127453D02*
X126129D01*
X126176Y-188629D01*
X126593Y-189253D01*
X127217Y-189670D01*
X127453Y-189717D01*
Y-188394D01*
D02*
G37*
G36*
X251909Y-187058D02*
X251333Y-187172D01*
X250845Y-187499D01*
X250519Y-187987D01*
X250404Y-188563D01*
X250519Y-189139D01*
X250845Y-189627D01*
X251333Y-189954D01*
X251909Y-190068D01*
X252485Y-189954D01*
X252560Y-189904D01*
X253098Y-190045D01*
X253424Y-190533D01*
X253912Y-190859D01*
X254488Y-190974D01*
X255064Y-190859D01*
X255553Y-190533D01*
X255879Y-190045D01*
X255994Y-189469D01*
X255879Y-188892D01*
X255553Y-188404D01*
X255064Y-188078D01*
X254488Y-187963D01*
X253912Y-188078D01*
X253838Y-188127D01*
X253300Y-187987D01*
X252974Y-187499D01*
X252485Y-187172D01*
X251909Y-187058D01*
D02*
G37*
G36*
X231681Y-190854D02*
Y-192177D01*
X233004D01*
X232958Y-191941D01*
X232541Y-191318D01*
X231917Y-190901D01*
X231681Y-190854D01*
D02*
G37*
G36*
X230681D02*
X230445Y-190901D01*
X229821Y-191318D01*
X229405Y-191941D01*
X229358Y-192177D01*
X230681D01*
Y-190854D01*
D02*
G37*
G36*
X370421Y-191366D02*
Y-192689D01*
X371744D01*
X371698Y-192453D01*
X371281Y-191829D01*
X370657Y-191413D01*
X370421Y-191366D01*
D02*
G37*
G36*
X369421D02*
X369185Y-191413D01*
X368562Y-191829D01*
X368145Y-192453D01*
X368098Y-192689D01*
X369421D01*
Y-191366D01*
D02*
G37*
G36*
X79331Y-190524D02*
X78793Y-190631D01*
X78337Y-190936D01*
X78033Y-191392D01*
X77926Y-191929D01*
X78033Y-192467D01*
X78337Y-192923D01*
X78793Y-193227D01*
X79331Y-193334D01*
X79868Y-193227D01*
X80324Y-192923D01*
X80629Y-192467D01*
X80736Y-191929D01*
X80629Y-191392D01*
X80324Y-190936D01*
X79868Y-190631D01*
X79331Y-190524D01*
D02*
G37*
G36*
X249043Y-192921D02*
Y-194244D01*
X250367D01*
X250320Y-194008D01*
X249903Y-193385D01*
X249279Y-192968D01*
X249043Y-192921D01*
D02*
G37*
G36*
X248043D02*
X247808Y-192968D01*
X247184Y-193385D01*
X246767Y-194008D01*
X246720Y-194244D01*
X248043D01*
Y-192921D01*
D02*
G37*
G36*
X233004Y-193177D02*
X231681D01*
Y-194501D01*
X231917Y-194454D01*
X232541Y-194037D01*
X232958Y-193413D01*
X233004Y-193177D01*
D02*
G37*
G36*
X230681D02*
X229358D01*
X229405Y-193413D01*
X229821Y-194037D01*
X230445Y-194454D01*
X230681Y-194501D01*
Y-193177D01*
D02*
G37*
G36*
X371744Y-193689D02*
X370421D01*
Y-195012D01*
X370657Y-194965D01*
X371281Y-194549D01*
X371698Y-193925D01*
X371744Y-193689D01*
D02*
G37*
G36*
X369421D02*
X368098D01*
X368145Y-193925D01*
X368562Y-194549D01*
X369185Y-194965D01*
X369421Y-195012D01*
Y-193689D01*
D02*
G37*
G36*
X16816Y-191411D02*
Y-195130D01*
X20535D01*
X20454Y-194521D01*
X20026Y-193488D01*
X19345Y-192600D01*
X18458Y-191919D01*
X17425Y-191491D01*
X16816Y-191411D01*
D02*
G37*
G36*
X15816Y-191411D02*
X15207Y-191491D01*
X14173Y-191919D01*
X13286Y-192600D01*
X12605Y-193488D01*
X12177Y-194521D01*
X12097Y-195130D01*
X15816D01*
Y-191411D01*
D02*
G37*
G36*
X250367Y-195244D02*
X249043D01*
Y-196567D01*
X249279Y-196520D01*
X249903Y-196104D01*
X250320Y-195480D01*
X250367Y-195244D01*
D02*
G37*
G36*
X248043D02*
X246720D01*
X246767Y-195480D01*
X247184Y-196104D01*
X247808Y-196520D01*
X248043Y-196567D01*
Y-195244D01*
D02*
G37*
G36*
X302724Y-195381D02*
Y-196705D01*
X304048D01*
X304001Y-196469D01*
X303584Y-195845D01*
X302960Y-195428D01*
X302724Y-195381D01*
D02*
G37*
G36*
X301724D02*
X301489Y-195428D01*
X300865Y-195845D01*
X300448Y-196469D01*
X300401Y-196705D01*
X301724D01*
Y-195381D01*
D02*
G37*
G36*
X6316Y-192850D02*
X5596Y-192945D01*
X4926Y-193223D01*
X4350Y-193664D01*
X3908Y-194240D01*
X3631Y-194911D01*
X3536Y-195630D01*
X3631Y-196349D01*
X3908Y-197020D01*
X4350Y-197596D01*
X4926Y-198037D01*
X5596Y-198315D01*
X6316Y-198410D01*
X7035Y-198315D01*
X7706Y-198037D01*
X8281Y-197596D01*
X8723Y-197020D01*
X9001Y-196349D01*
X9095Y-195630D01*
X9001Y-194911D01*
X8723Y-194240D01*
X8281Y-193664D01*
X7706Y-193223D01*
X7035Y-192945D01*
X6316Y-192850D01*
D02*
G37*
G36*
X59555Y-197389D02*
Y-198713D01*
X60878D01*
X60831Y-198477D01*
X60415Y-197853D01*
X59791Y-197436D01*
X59555Y-197389D01*
D02*
G37*
G36*
X58555D02*
X58319Y-197436D01*
X57696Y-197853D01*
X57279Y-198477D01*
X57232Y-198713D01*
X58555D01*
Y-197389D01*
D02*
G37*
G36*
X304048Y-197705D02*
X302724D01*
Y-199028D01*
X302960Y-198981D01*
X303584Y-198564D01*
X304001Y-197941D01*
X304048Y-197705D01*
D02*
G37*
G36*
X301724D02*
X300401D01*
X300448Y-197941D01*
X300865Y-198564D01*
X301489Y-198981D01*
X301724Y-199028D01*
Y-197705D01*
D02*
G37*
G36*
X20535Y-196130D02*
X16816D01*
Y-199849D01*
X17425Y-199769D01*
X18458Y-199341D01*
X19345Y-198660D01*
X20026Y-197772D01*
X20454Y-196739D01*
X20535Y-196130D01*
D02*
G37*
G36*
X15816D02*
X12097D01*
X12177Y-196739D01*
X12605Y-197772D01*
X13286Y-198660D01*
X14173Y-199341D01*
X15207Y-199769D01*
X15816Y-199849D01*
Y-196130D01*
D02*
G37*
G36*
X195551Y-194735D02*
X194975Y-194850D01*
X194487Y-195176D01*
X194160Y-195664D01*
X194046Y-196240D01*
X194081Y-196419D01*
X193740Y-196861D01*
X193164Y-196975D01*
X192676Y-197302D01*
X192350Y-197790D01*
X192235Y-198366D01*
X192350Y-198942D01*
X192676Y-199431D01*
X193164Y-199757D01*
X193740Y-199871D01*
X194316Y-199757D01*
X194805Y-199431D01*
X195131Y-198942D01*
X195246Y-198366D01*
X195210Y-198187D01*
X195551Y-197746D01*
X196127Y-197631D01*
X196616Y-197305D01*
X196942Y-196816D01*
X197056Y-196240D01*
X196942Y-195664D01*
X196616Y-195176D01*
X196127Y-194850D01*
X195551Y-194735D01*
D02*
G37*
G36*
X207185Y-194558D02*
X206609Y-194672D01*
X206121Y-194999D01*
X205794Y-195487D01*
X205680Y-196063D01*
X205759Y-196459D01*
X205734Y-196698D01*
X205431Y-196995D01*
X205133Y-197054D01*
X204644Y-197380D01*
X204318Y-197869D01*
X204203Y-198445D01*
X204318Y-199021D01*
X204644Y-199509D01*
X205133Y-199836D01*
X205709Y-199950D01*
X206285Y-199836D01*
X206773Y-199509D01*
X207099Y-199021D01*
X207214Y-198445D01*
X207135Y-198049D01*
X207160Y-197809D01*
X207463Y-197513D01*
X207761Y-197454D01*
X208249Y-197127D01*
X208576Y-196639D01*
X208690Y-196063D01*
X208576Y-195487D01*
X208249Y-194999D01*
X207761Y-194672D01*
X207185Y-194558D01*
D02*
G37*
G36*
X60878Y-199713D02*
X59555D01*
Y-201036D01*
X59791Y-200989D01*
X60415Y-200572D01*
X60831Y-199948D01*
X60878Y-199713D01*
D02*
G37*
G36*
X58555D02*
X57232D01*
X57279Y-199948D01*
X57696Y-200572D01*
X58319Y-200989D01*
X58555Y-201036D01*
Y-199713D01*
D02*
G37*
G36*
X92126Y-200760D02*
X91588Y-200867D01*
X91132Y-201172D01*
X91044Y-201305D01*
X90485Y-201369D01*
X90029Y-201064D01*
X89491Y-200957D01*
X88954Y-201064D01*
X88498Y-201369D01*
X88193Y-201824D01*
X88086Y-202362D01*
X88193Y-202900D01*
X88498Y-203356D01*
X88954Y-203660D01*
X89491Y-203767D01*
X90029Y-203660D01*
X90485Y-203356D01*
X90574Y-203222D01*
X91132Y-203159D01*
X91588Y-203463D01*
X92126Y-203570D01*
X92664Y-203463D01*
X93119Y-203159D01*
X93424Y-202703D01*
X93531Y-202165D01*
X93424Y-201628D01*
X93119Y-201172D01*
X92664Y-200867D01*
X92126Y-200760D01*
D02*
G37*
G36*
X252665Y-201031D02*
Y-202354D01*
X253989D01*
X253942Y-202118D01*
X253525Y-201495D01*
X252901Y-201078D01*
X252665Y-201031D01*
D02*
G37*
G36*
X251665D02*
X251430Y-201078D01*
X250806Y-201495D01*
X250389Y-202118D01*
X250342Y-202354D01*
X251665D01*
Y-201031D01*
D02*
G37*
G36*
X253989Y-203354D02*
X252665D01*
Y-204678D01*
X252901Y-204631D01*
X253525Y-204214D01*
X253942Y-203590D01*
X253989Y-203354D01*
D02*
G37*
G36*
X251665D02*
X250342D01*
X250389Y-203590D01*
X250806Y-204214D01*
X251430Y-204631D01*
X251665Y-204678D01*
Y-203354D01*
D02*
G37*
G36*
X143610Y-203885D02*
Y-205209D01*
X144933D01*
X144887Y-204973D01*
X144470Y-204349D01*
X143846Y-203932D01*
X143610Y-203885D01*
D02*
G37*
G36*
X142610D02*
X142374Y-203932D01*
X141751Y-204349D01*
X141334Y-204973D01*
X141287Y-205209D01*
X142610D01*
Y-203885D01*
D02*
G37*
G36*
X149705Y-202729D02*
X149167Y-202836D01*
X148711Y-203140D01*
X148407Y-203596D01*
X148300Y-204134D01*
X148407Y-204672D01*
X148711Y-205127D01*
X149167Y-205432D01*
X149705Y-205539D01*
X150242Y-205432D01*
X150698Y-205127D01*
X151003Y-204672D01*
X151110Y-204134D01*
X151003Y-203596D01*
X150698Y-203140D01*
X150242Y-202836D01*
X149705Y-202729D01*
D02*
G37*
G36*
X121858Y-205113D02*
Y-206436D01*
X123182D01*
X123135Y-206200D01*
X122718Y-205576D01*
X122094Y-205160D01*
X121858Y-205113D01*
D02*
G37*
G36*
X120858D02*
X120623Y-205160D01*
X119999Y-205576D01*
X119582Y-206200D01*
X119535Y-206436D01*
X120858D01*
Y-205113D01*
D02*
G37*
G36*
X103354Y-206149D02*
Y-207472D01*
X104678D01*
X104631Y-207237D01*
X104214Y-206613D01*
X103590Y-206196D01*
X103354Y-206149D01*
D02*
G37*
G36*
X102354D02*
X102119Y-206196D01*
X101495Y-206613D01*
X101078Y-207237D01*
X101031Y-207472D01*
X102354D01*
Y-206149D01*
D02*
G37*
G36*
X144933Y-206209D02*
X143610D01*
Y-207532D01*
X143846Y-207485D01*
X144470Y-207068D01*
X144887Y-206445D01*
X144933Y-206209D01*
D02*
G37*
G36*
X142610D02*
X141287D01*
X141334Y-206445D01*
X141751Y-207068D01*
X142374Y-207485D01*
X142610Y-207532D01*
Y-206209D01*
D02*
G37*
G36*
X299457Y-206523D02*
Y-207846D01*
X300780D01*
X300733Y-207611D01*
X300316Y-206987D01*
X299693Y-206570D01*
X299457Y-206523D01*
D02*
G37*
G36*
X298457D02*
X298221Y-206570D01*
X297597Y-206987D01*
X297180Y-207611D01*
X297133Y-207846D01*
X298457D01*
Y-206523D01*
D02*
G37*
G36*
X179850Y-206818D02*
Y-208142D01*
X181174D01*
X181127Y-207906D01*
X180710Y-207282D01*
X180086Y-206865D01*
X179850Y-206818D01*
D02*
G37*
G36*
X178850D02*
X178615Y-206865D01*
X177991Y-207282D01*
X177574Y-207906D01*
X177527Y-208142D01*
X178850D01*
Y-206818D01*
D02*
G37*
G36*
X163886Y-207035D02*
Y-208358D01*
X165209D01*
X165162Y-208122D01*
X164745Y-207499D01*
X164122Y-207082D01*
X163886Y-207035D01*
D02*
G37*
G36*
X162886D02*
X162650Y-207082D01*
X162026Y-207499D01*
X161609Y-208122D01*
X161563Y-208358D01*
X162886D01*
Y-207035D01*
D02*
G37*
G36*
X123182Y-207436D02*
X121858D01*
Y-208759D01*
X122094Y-208712D01*
X122718Y-208296D01*
X123135Y-207672D01*
X123182Y-207436D01*
D02*
G37*
G36*
X120858D02*
X119535D01*
X119582Y-207672D01*
X119999Y-208296D01*
X120623Y-208712D01*
X120858Y-208759D01*
Y-207436D01*
D02*
G37*
G36*
X283374Y-207665D02*
Y-208988D01*
X284697D01*
X284650Y-208752D01*
X284234Y-208129D01*
X283610Y-207712D01*
X283374Y-207665D01*
D02*
G37*
G36*
X282374D02*
X282138Y-207712D01*
X281514Y-208129D01*
X281098Y-208752D01*
X281051Y-208988D01*
X282374D01*
Y-207665D01*
D02*
G37*
G36*
X104678Y-208472D02*
X103354D01*
Y-209796D01*
X103590Y-209749D01*
X104214Y-209332D01*
X104631Y-208708D01*
X104678Y-208472D01*
D02*
G37*
G36*
X102354D02*
X101031D01*
X101078Y-208708D01*
X101495Y-209332D01*
X102119Y-209749D01*
X102354Y-209796D01*
Y-208472D01*
D02*
G37*
G36*
X300780Y-208846D02*
X299457D01*
Y-210170D01*
X299693Y-210123D01*
X300316Y-209706D01*
X300733Y-209082D01*
X300780Y-208846D01*
D02*
G37*
G36*
X298457D02*
X297133D01*
X297180Y-209082D01*
X297597Y-209706D01*
X298221Y-210123D01*
X298457Y-210170D01*
Y-208846D01*
D02*
G37*
G36*
X275342Y-209141D02*
Y-210465D01*
X276666D01*
X276619Y-210229D01*
X276202Y-209605D01*
X275578Y-209188D01*
X275342Y-209141D01*
D02*
G37*
G36*
X274342D02*
X274107Y-209188D01*
X273483Y-209605D01*
X273066Y-210229D01*
X273019Y-210465D01*
X274342D01*
Y-209141D01*
D02*
G37*
G36*
X181174Y-209142D02*
X179850D01*
Y-210465D01*
X180086Y-210418D01*
X180710Y-210001D01*
X181127Y-209378D01*
X181174Y-209142D01*
D02*
G37*
G36*
X178850D02*
X177527D01*
X177574Y-209378D01*
X177991Y-210001D01*
X178615Y-210418D01*
X178850Y-210465D01*
Y-209142D01*
D02*
G37*
G36*
X165209Y-209358D02*
X163886D01*
Y-210682D01*
X164122Y-210635D01*
X164745Y-210218D01*
X165162Y-209594D01*
X165209Y-209358D01*
D02*
G37*
G36*
X162886D02*
X161563D01*
X161609Y-209594D01*
X162026Y-210218D01*
X162650Y-210635D01*
X162886Y-210682D01*
Y-209358D01*
D02*
G37*
G36*
X284697Y-209988D02*
X283374D01*
Y-211312D01*
X283610Y-211265D01*
X284234Y-210848D01*
X284650Y-210224D01*
X284697Y-209988D01*
D02*
G37*
G36*
X282374D02*
X281051D01*
X281098Y-210224D01*
X281514Y-210848D01*
X282138Y-211265D01*
X282374Y-211312D01*
Y-209988D01*
D02*
G37*
G36*
X276666Y-211465D02*
X275342D01*
Y-212788D01*
X275578Y-212741D01*
X276202Y-212324D01*
X276619Y-211700D01*
X276666Y-211465D01*
D02*
G37*
G36*
X274342D02*
X273019D01*
X273066Y-211700D01*
X273483Y-212324D01*
X274107Y-212741D01*
X274342Y-212788D01*
Y-211465D01*
D02*
G37*
G36*
X91839Y-211759D02*
Y-213083D01*
X93162D01*
X93115Y-212847D01*
X92698Y-212223D01*
X92074Y-211806D01*
X91839Y-211759D01*
D02*
G37*
G36*
X90839D02*
X90603Y-211806D01*
X89979Y-212223D01*
X89562Y-212847D01*
X89515Y-213083D01*
X90839D01*
Y-211759D01*
D02*
G37*
G36*
X93162Y-214083D02*
X91839D01*
Y-215406D01*
X92074Y-215359D01*
X92698Y-214942D01*
X93115Y-214318D01*
X93162Y-214083D01*
D02*
G37*
G36*
X90839D02*
X89515D01*
X89562Y-214318D01*
X89979Y-214942D01*
X90603Y-215359D01*
X90839Y-215406D01*
Y-214083D01*
D02*
G37*
G36*
X279921Y-213180D02*
X279345Y-213294D01*
X278857Y-213621D01*
X278531Y-214109D01*
X278416Y-214685D01*
X278531Y-215261D01*
X278857Y-215749D01*
X279345Y-216076D01*
X279921Y-216190D01*
X280497Y-216076D01*
X280986Y-215749D01*
X281312Y-215261D01*
X281427Y-214685D01*
X281312Y-214109D01*
X280986Y-213621D01*
X280497Y-213294D01*
X279921Y-213180D01*
D02*
G37*
G36*
X150768Y-214048D02*
X150230Y-214155D01*
X149774Y-214459D01*
X149470Y-214915D01*
X149363Y-215453D01*
X149470Y-215990D01*
X149774Y-216446D01*
X150230Y-216751D01*
X150768Y-216858D01*
X151305Y-216751D01*
X151761Y-216446D01*
X152066Y-215990D01*
X152173Y-215453D01*
X152066Y-214915D01*
X151761Y-214459D01*
X151305Y-214155D01*
X150768Y-214048D01*
D02*
G37*
G36*
X125315Y-214046D02*
X124739Y-214160D01*
X124250Y-214487D01*
X123924Y-214975D01*
X123810Y-215551D01*
X123924Y-216127D01*
X124250Y-216616D01*
X124739Y-216942D01*
X125315Y-217056D01*
X125891Y-216942D01*
X126379Y-216616D01*
X126706Y-216127D01*
X126820Y-215551D01*
X126706Y-214975D01*
X126379Y-214487D01*
X125891Y-214160D01*
X125315Y-214046D01*
D02*
G37*
G36*
X214260Y-218649D02*
Y-219972D01*
X215583D01*
X215536Y-219737D01*
X215119Y-219113D01*
X214496Y-218696D01*
X214260Y-218649D01*
D02*
G37*
G36*
X213260D02*
X213024Y-218696D01*
X212400Y-219113D01*
X211983Y-219737D01*
X211936Y-219972D01*
X213260D01*
Y-218649D01*
D02*
G37*
G36*
X215583Y-220972D02*
X214260D01*
Y-222296D01*
X214496Y-222249D01*
X215119Y-221832D01*
X215536Y-221208D01*
X215583Y-220972D01*
D02*
G37*
G36*
X213260D02*
X211936D01*
X211983Y-221208D01*
X212400Y-221832D01*
X213024Y-222249D01*
X213260Y-222296D01*
Y-220972D01*
D02*
G37*
G36*
X248465Y-220207D02*
X247888Y-220322D01*
X247400Y-220648D01*
X247074Y-221136D01*
X246959Y-221713D01*
X247074Y-222289D01*
X247400Y-222777D01*
X247888Y-223103D01*
X248465Y-223218D01*
X249041Y-223103D01*
X249529Y-222777D01*
X249855Y-222289D01*
X249970Y-221713D01*
X249855Y-221136D01*
X249529Y-220648D01*
X249041Y-220322D01*
X248465Y-220207D01*
D02*
G37*
G36*
X306201Y-220286D02*
X305625Y-220401D01*
X305136Y-220727D01*
X304810Y-221215D01*
X304696Y-221791D01*
X304810Y-222367D01*
X305136Y-222856D01*
X305625Y-223182D01*
X306201Y-223297D01*
X306777Y-223182D01*
X307265Y-222856D01*
X307592Y-222367D01*
X307706Y-221791D01*
X307592Y-221215D01*
X307265Y-220727D01*
X306777Y-220401D01*
X306201Y-220286D01*
D02*
G37*
G36*
X388140Y-217811D02*
X387420Y-217906D01*
X386750Y-218183D01*
X386174Y-218625D01*
X385733Y-219201D01*
X385455Y-219871D01*
X385360Y-220590D01*
X385455Y-221310D01*
X385733Y-221980D01*
X386174Y-222556D01*
X386750Y-222998D01*
X387420Y-223275D01*
X388140Y-223370D01*
X388859Y-223275D01*
X389530Y-222998D01*
X390105Y-222556D01*
X390547Y-221980D01*
X390825Y-221310D01*
X390919Y-220590D01*
X390825Y-219871D01*
X390547Y-219201D01*
X390105Y-218625D01*
X389530Y-218183D01*
X388859Y-217906D01*
X388140Y-217811D01*
D02*
G37*
G36*
X378140Y-216719D02*
X377138Y-216851D01*
X376204Y-217238D01*
X375402Y-217853D01*
X374787Y-218655D01*
X374400Y-219588D01*
X374268Y-220590D01*
X374400Y-221593D01*
X374787Y-222526D01*
X375402Y-223328D01*
X376204Y-223943D01*
X377138Y-224330D01*
X378140Y-224462D01*
X379142Y-224330D01*
X380076Y-223943D01*
X380877Y-223328D01*
X381493Y-222526D01*
X381879Y-221593D01*
X382012Y-220590D01*
X381879Y-219588D01*
X381493Y-218655D01*
X380877Y-217853D01*
X380076Y-217238D01*
X379142Y-216851D01*
X378140Y-216719D01*
D02*
G37*
G36*
X196252Y-224419D02*
X196055Y-224458D01*
X195488Y-224837D01*
X195167Y-224991D01*
X194990D01*
X194534Y-224686D01*
X193996Y-224579D01*
X193458Y-224686D01*
X193003Y-224991D01*
X192698Y-225447D01*
X192591Y-225984D01*
X192698Y-226522D01*
X193003Y-226978D01*
X193458Y-227282D01*
X193996Y-227389D01*
X194534Y-227282D01*
X194990Y-226978D01*
X195161D01*
X195463Y-227430D01*
X196055Y-227825D01*
X196252Y-227865D01*
Y-226142D01*
Y-224419D01*
D02*
G37*
G36*
X197252D02*
Y-225642D01*
X198475D01*
X198436Y-225444D01*
X198041Y-224853D01*
X197449Y-224458D01*
X197252Y-224419D01*
D02*
G37*
G36*
X112291Y-224850D02*
Y-226173D01*
X113615D01*
X113568Y-225937D01*
X113151Y-225314D01*
X112527Y-224897D01*
X112291Y-224850D01*
D02*
G37*
G36*
X111291D02*
X111056Y-224897D01*
X110432Y-225314D01*
X110015Y-225937D01*
X109968Y-226173D01*
X111291D01*
Y-224850D01*
D02*
G37*
G36*
X265020Y-223377D02*
X264444Y-223491D01*
X263955Y-223817D01*
X263629Y-224306D01*
X263514Y-224882D01*
X263629Y-225458D01*
X263955Y-225946D01*
X264444Y-226273D01*
X265020Y-226387D01*
X265596Y-226273D01*
X266084Y-225946D01*
X266410Y-225458D01*
X266525Y-224882D01*
X266410Y-224306D01*
X266084Y-223817D01*
X265596Y-223491D01*
X265020Y-223377D01*
D02*
G37*
G36*
X329575Y-225578D02*
Y-226902D01*
X330898D01*
X330851Y-226666D01*
X330434Y-226042D01*
X329811Y-225625D01*
X329575Y-225578D01*
D02*
G37*
G36*
X328575D02*
X328339Y-225625D01*
X327715Y-226042D01*
X327298Y-226666D01*
X327252Y-226902D01*
X328575D01*
Y-225578D01*
D02*
G37*
G36*
X198475Y-226642D02*
X197252D01*
Y-227865D01*
X197449Y-227825D01*
X198041Y-227430D01*
X198436Y-226839D01*
X198475Y-226642D01*
D02*
G37*
G36*
X113615Y-227173D02*
X112291D01*
Y-228497D01*
X112527Y-228450D01*
X113151Y-228033D01*
X113568Y-227409D01*
X113615Y-227173D01*
D02*
G37*
G36*
X111291D02*
X109968D01*
X110015Y-227409D01*
X110432Y-228033D01*
X111056Y-228450D01*
X111291Y-228497D01*
Y-227173D01*
D02*
G37*
G36*
X91339Y-226054D02*
X90763Y-226168D01*
X90274Y-226495D01*
X89948Y-226983D01*
X89833Y-227559D01*
X89948Y-228135D01*
X90274Y-228624D01*
X90763Y-228950D01*
X91339Y-229064D01*
X91915Y-228950D01*
X92403Y-228624D01*
X92729Y-228135D01*
X92844Y-227559D01*
X92729Y-226983D01*
X92403Y-226495D01*
X91915Y-226168D01*
X91339Y-226054D01*
D02*
G37*
G36*
X330898Y-227902D02*
X329575D01*
Y-229225D01*
X329811Y-229178D01*
X330434Y-228761D01*
X330851Y-228137D01*
X330898Y-227902D01*
D02*
G37*
G36*
X328575D02*
X327252D01*
X327298Y-228137D01*
X327715Y-228761D01*
X328339Y-229178D01*
X328575Y-229225D01*
Y-227902D01*
D02*
G37*
G36*
X121181Y-228088D02*
Y-229311D01*
X122404D01*
X122365Y-229114D01*
X121970Y-228522D01*
X121379Y-228127D01*
X121181Y-228088D01*
D02*
G37*
G36*
X320087Y-228728D02*
Y-230051D01*
X321410D01*
X321363Y-229815D01*
X320946Y-229192D01*
X320322Y-228775D01*
X320087Y-228728D01*
D02*
G37*
G36*
X319087D02*
X318851Y-228775D01*
X318227Y-229192D01*
X317810Y-229815D01*
X317763Y-230051D01*
X319087D01*
Y-228728D01*
D02*
G37*
G36*
X8571Y-227067D02*
Y-230090D01*
X11595D01*
X11538Y-229661D01*
X11180Y-228796D01*
X10609Y-228052D01*
X9866Y-227482D01*
X9000Y-227123D01*
X8571Y-227067D01*
D02*
G37*
G36*
X7571Y-227067D02*
X7142Y-227123D01*
X6276Y-227482D01*
X5533Y-228052D01*
X4962Y-228796D01*
X4603Y-229661D01*
X4547Y-230090D01*
X7571D01*
Y-227067D01*
D02*
G37*
G36*
X382388Y-226343D02*
X378640D01*
Y-230091D01*
X382388D01*
Y-226343D01*
D02*
G37*
G36*
X377640D02*
X373892D01*
Y-230091D01*
X377640D01*
Y-226343D01*
D02*
G37*
G36*
X126990Y-228923D02*
Y-230246D01*
X128313D01*
X128266Y-230010D01*
X127849Y-229386D01*
X127226Y-228970D01*
X126990Y-228923D01*
D02*
G37*
G36*
X125990D02*
X125754Y-228970D01*
X125130Y-229386D01*
X124713Y-230010D01*
X124667Y-230246D01*
X125990D01*
Y-228923D01*
D02*
G37*
G36*
X73573Y-226430D02*
Y-230248D01*
X77391D01*
X77308Y-229613D01*
X76870Y-228556D01*
X76173Y-227648D01*
X75265Y-226951D01*
X74208Y-226514D01*
X73573Y-226430D01*
D02*
G37*
G36*
X72573Y-226430D02*
X71938Y-226514D01*
X70881Y-226951D01*
X69973Y-227648D01*
X69276Y-228556D01*
X68839Y-229613D01*
X68755Y-230248D01*
X72573D01*
Y-226430D01*
D02*
G37*
G36*
X158116Y-229313D02*
Y-230636D01*
X159439D01*
X159392Y-230400D01*
X158975Y-229776D01*
X158352Y-229360D01*
X158116Y-229313D01*
D02*
G37*
G36*
X157116D02*
X156880Y-229360D01*
X156256Y-229776D01*
X155839Y-230400D01*
X155792Y-230636D01*
X157116D01*
Y-229313D01*
D02*
G37*
G36*
X120181Y-228088D02*
X119984Y-228127D01*
X119393Y-228522D01*
X118997Y-229114D01*
X118859Y-229811D01*
X118860Y-229816D01*
X118805Y-230102D01*
X118267Y-230209D01*
X117812Y-230514D01*
X117507Y-230970D01*
X117400Y-231507D01*
X117507Y-232045D01*
X117812Y-232501D01*
X118267Y-232805D01*
X118805Y-232912D01*
X119343Y-232805D01*
X119799Y-232501D01*
X120103Y-232045D01*
X120204Y-231539D01*
X120681Y-231633D01*
X121379Y-231495D01*
X121970Y-231100D01*
X122365Y-230508D01*
X122404Y-230311D01*
X120681D01*
Y-229811D01*
X120181D01*
Y-228088D01*
D02*
G37*
G36*
X174803Y-229085D02*
X174227Y-229200D01*
X173739Y-229526D01*
X173412Y-230014D01*
X173298Y-230591D01*
X173412Y-231167D01*
X173739Y-231655D01*
X174227Y-231981D01*
X174803Y-232096D01*
X175379Y-231981D01*
X175868Y-231655D01*
X176194Y-231167D01*
X176308Y-230591D01*
X176194Y-230014D01*
X175868Y-229526D01*
X175379Y-229200D01*
X174803Y-229085D01*
D02*
G37*
G36*
X138287Y-229304D02*
X137750Y-229411D01*
X137294Y-229715D01*
X136989Y-230171D01*
X136882Y-230709D01*
X136989Y-231246D01*
X137294Y-231702D01*
X137750Y-232007D01*
X138287Y-232114D01*
X138825Y-232007D01*
X139281Y-231702D01*
X139585Y-231246D01*
X139692Y-230709D01*
X139585Y-230171D01*
X139281Y-229715D01*
X138825Y-229411D01*
X138287Y-229304D01*
D02*
G37*
G36*
X134370Y-229333D02*
X133832Y-229440D01*
X133377Y-229745D01*
X133072Y-230201D01*
X132965Y-230738D01*
X133072Y-231276D01*
X133377Y-231732D01*
X133832Y-232036D01*
X134370Y-232143D01*
X134908Y-232036D01*
X135363Y-231732D01*
X135668Y-231276D01*
X135775Y-230738D01*
X135668Y-230201D01*
X135363Y-229745D01*
X134908Y-229440D01*
X134370Y-229333D01*
D02*
G37*
G36*
X104732Y-230952D02*
Y-232276D01*
X106056D01*
X106009Y-232040D01*
X105592Y-231416D01*
X104968Y-230999D01*
X104732Y-230952D01*
D02*
G37*
G36*
X103732D02*
X103497Y-230999D01*
X102873Y-231416D01*
X102456Y-232040D01*
X102409Y-232276D01*
X103732D01*
Y-230952D01*
D02*
G37*
G36*
X321410Y-231051D02*
X320087D01*
Y-232375D01*
X320322Y-232328D01*
X320946Y-231911D01*
X321363Y-231287D01*
X321410Y-231051D01*
D02*
G37*
G36*
X319087D02*
X317763D01*
X317810Y-231287D01*
X318227Y-231911D01*
X318851Y-232328D01*
X319087Y-232375D01*
Y-231051D01*
D02*
G37*
G36*
X128313Y-231246D02*
X126990D01*
Y-232569D01*
X127226Y-232523D01*
X127849Y-232106D01*
X128266Y-231482D01*
X128313Y-231246D01*
D02*
G37*
G36*
X125990D02*
X124667D01*
X124713Y-231482D01*
X125130Y-232106D01*
X125754Y-232523D01*
X125990Y-232569D01*
Y-231246D01*
D02*
G37*
G36*
X159439Y-231636D02*
X158116D01*
Y-232959D01*
X158352Y-232912D01*
X158975Y-232496D01*
X159392Y-231872D01*
X159439Y-231636D01*
D02*
G37*
G36*
X157116D02*
X155792D01*
X155839Y-231872D01*
X156256Y-232496D01*
X156880Y-232912D01*
X157116Y-232959D01*
Y-231636D01*
D02*
G37*
G36*
X151761Y-230058D02*
X151185Y-230172D01*
X150697Y-230499D01*
X150371Y-230987D01*
X150256Y-231563D01*
X150371Y-232139D01*
X150697Y-232627D01*
X151185Y-232954D01*
X151761Y-233068D01*
X152337Y-232954D01*
X152826Y-232627D01*
X153152Y-232139D01*
X153267Y-231563D01*
X153152Y-230987D01*
X152826Y-230499D01*
X152337Y-230172D01*
X151761Y-230058D01*
D02*
G37*
G36*
X388140Y-227811D02*
X387420Y-227906D01*
X386750Y-228183D01*
X386174Y-228625D01*
X385733Y-229201D01*
X385455Y-229871D01*
X385360Y-230591D01*
X385455Y-231310D01*
X385733Y-231980D01*
X386174Y-232556D01*
X386750Y-232998D01*
X387420Y-233276D01*
X388140Y-233370D01*
X388859Y-233276D01*
X389530Y-232998D01*
X390105Y-232556D01*
X390547Y-231980D01*
X390825Y-231310D01*
X390919Y-230591D01*
X390825Y-229871D01*
X390547Y-229201D01*
X390105Y-228625D01*
X389530Y-228183D01*
X388859Y-227906D01*
X388140Y-227811D01*
D02*
G37*
G36*
X7571Y-231090D02*
X4547D01*
X4603Y-231520D01*
X4962Y-232385D01*
X5533Y-233129D01*
X6276Y-233699D01*
X7142Y-234058D01*
X7571Y-234115D01*
Y-231090D01*
D02*
G37*
G36*
X11595D02*
X8571D01*
Y-234115D01*
X9000Y-234058D01*
X9866Y-233699D01*
X10609Y-233129D01*
X11180Y-232385D01*
X11538Y-231520D01*
X11595Y-231090D01*
D02*
G37*
G36*
X106056Y-233276D02*
X104732D01*
Y-234599D01*
X104968Y-234552D01*
X105592Y-234135D01*
X106009Y-233511D01*
X106056Y-233276D01*
D02*
G37*
G36*
X103732D02*
X102409D01*
X102456Y-233511D01*
X102873Y-234135D01*
X103497Y-234552D01*
X103732Y-234599D01*
Y-233276D01*
D02*
G37*
G36*
X382388Y-231091D02*
X378640D01*
Y-234839D01*
X382388D01*
Y-231091D01*
D02*
G37*
G36*
X377640D02*
X373892D01*
Y-234839D01*
X377640D01*
Y-231091D01*
D02*
G37*
G36*
X72573Y-231248D02*
X68755D01*
X68839Y-231883D01*
X69276Y-232940D01*
X69973Y-233848D01*
X70881Y-234545D01*
X71938Y-234983D01*
X72573Y-235066D01*
Y-231248D01*
D02*
G37*
G36*
X77391D02*
X73573D01*
Y-235066D01*
X74208Y-234983D01*
X75265Y-234545D01*
X76173Y-233848D01*
X76870Y-232940D01*
X77308Y-231883D01*
X77391Y-231248D01*
D02*
G37*
G36*
X144291Y-232333D02*
X143715Y-232448D01*
X143227Y-232774D01*
X142901Y-233262D01*
X142786Y-233839D01*
X142901Y-234415D01*
X143227Y-234903D01*
X143715Y-235229D01*
X144291Y-235344D01*
X144867Y-235229D01*
X145356Y-234903D01*
X145682Y-234415D01*
X145797Y-233839D01*
X145682Y-233262D01*
X145356Y-232774D01*
X144867Y-232448D01*
X144291Y-232333D01*
D02*
G37*
G36*
X121719Y-234496D02*
Y-235819D01*
X123042D01*
X122995Y-235583D01*
X122578Y-234959D01*
X121955Y-234542D01*
X121719Y-234496D01*
D02*
G37*
G36*
X120719D02*
X120483Y-234542D01*
X119859Y-234959D01*
X119442Y-235583D01*
X119395Y-235819D01*
X120719D01*
Y-234496D01*
D02*
G37*
G36*
X204122Y-234850D02*
Y-236173D01*
X205445D01*
X205399Y-235937D01*
X204982Y-235314D01*
X204358Y-234897D01*
X204122Y-234850D01*
D02*
G37*
G36*
X203122D02*
X202886Y-234897D01*
X202262Y-235314D01*
X201846Y-235937D01*
X201799Y-236173D01*
X203122D01*
Y-234850D01*
D02*
G37*
G36*
X140669Y-234164D02*
X140093Y-234279D01*
X139605Y-234605D01*
X139279Y-235093D01*
X139164Y-235669D01*
X139279Y-236245D01*
X139605Y-236734D01*
X140093Y-237060D01*
X140669Y-237175D01*
X141245Y-237060D01*
X141734Y-236734D01*
X142060Y-236245D01*
X142175Y-235669D01*
X142060Y-235093D01*
X141734Y-234605D01*
X141245Y-234279D01*
X140669Y-234164D01*
D02*
G37*
G36*
X101772Y-234617D02*
X101196Y-234731D01*
X100707Y-235058D01*
X100381Y-235546D01*
X100266Y-236122D01*
X100381Y-236698D01*
X100707Y-237187D01*
X101196Y-237513D01*
X101772Y-237627D01*
X102348Y-237513D01*
X102836Y-237187D01*
X103162Y-236698D01*
X103277Y-236122D01*
X103162Y-235546D01*
X102836Y-235058D01*
X102348Y-234731D01*
X101772Y-234617D01*
D02*
G37*
G36*
X123042Y-236819D02*
X121719D01*
Y-238142D01*
X121955Y-238095D01*
X122578Y-237679D01*
X122995Y-237055D01*
X123042Y-236819D01*
D02*
G37*
G36*
X120719D02*
X119395D01*
X119442Y-237055D01*
X119859Y-237679D01*
X120483Y-238095D01*
X120719Y-238142D01*
Y-236819D01*
D02*
G37*
G36*
X205445Y-237173D02*
X204122D01*
Y-238496D01*
X204358Y-238450D01*
X204982Y-238033D01*
X205399Y-237409D01*
X205445Y-237173D01*
D02*
G37*
G36*
X203122D02*
X201799D01*
X201846Y-237409D01*
X202262Y-238033D01*
X202886Y-238450D01*
X203122Y-238496D01*
Y-237173D01*
D02*
G37*
G36*
X126398Y-235542D02*
X125822Y-235656D01*
X125333Y-235983D01*
X125007Y-236471D01*
X124892Y-237047D01*
X125007Y-237623D01*
X125333Y-238112D01*
X125822Y-238438D01*
X126398Y-238552D01*
X126974Y-238438D01*
X127462Y-238112D01*
X127788Y-237623D01*
X127903Y-237047D01*
X127788Y-236471D01*
X127462Y-235983D01*
X126974Y-235656D01*
X126398Y-235542D01*
D02*
G37*
G36*
X295276Y-237963D02*
X294700Y-238078D01*
X294211Y-238404D01*
X293885Y-238893D01*
X293770Y-239469D01*
X293885Y-240044D01*
X294211Y-240533D01*
X294700Y-240859D01*
X295276Y-240974D01*
X295852Y-240859D01*
X296340Y-240533D01*
X296666Y-240044D01*
X296781Y-239469D01*
X296666Y-238893D01*
X296340Y-238404D01*
X295852Y-238078D01*
X295276Y-237963D01*
D02*
G37*
G36*
X144331Y-239400D02*
X143755Y-239515D01*
X143266Y-239841D01*
X142940Y-240330D01*
X142825Y-240905D01*
X142940Y-241482D01*
X143266Y-241970D01*
X143755Y-242296D01*
X144331Y-242411D01*
X144907Y-242296D01*
X145395Y-241970D01*
X145721Y-241482D01*
X145836Y-240905D01*
X145721Y-240330D01*
X145395Y-239841D01*
X144907Y-239515D01*
X144331Y-239400D01*
D02*
G37*
G36*
X140728Y-239459D02*
X140152Y-239574D01*
X139664Y-239900D01*
X139338Y-240388D01*
X139223Y-240965D01*
X139338Y-241541D01*
X139664Y-242029D01*
X140152Y-242355D01*
X140728Y-242470D01*
X141304Y-242355D01*
X141793Y-242029D01*
X142119Y-241541D01*
X142234Y-240965D01*
X142119Y-240388D01*
X141793Y-239900D01*
X141304Y-239574D01*
X140728Y-239459D01*
D02*
G37*
G36*
X252894Y-240010D02*
X252318Y-240125D01*
X251829Y-240451D01*
X251503Y-240940D01*
X251388Y-241516D01*
X251503Y-242092D01*
X251829Y-242580D01*
X252318Y-242906D01*
X252894Y-243021D01*
X253470Y-242906D01*
X253958Y-242580D01*
X254284Y-242092D01*
X254399Y-241516D01*
X254284Y-240940D01*
X253958Y-240451D01*
X253470Y-240125D01*
X252894Y-240010D01*
D02*
G37*
G36*
X160638Y-241799D02*
Y-243122D01*
X161961D01*
X161914Y-242886D01*
X161497Y-242263D01*
X160874Y-241846D01*
X160638Y-241799D01*
D02*
G37*
G36*
X159638D02*
X159402Y-241846D01*
X158778Y-242263D01*
X158361Y-242886D01*
X158315Y-243122D01*
X159638D01*
Y-241799D01*
D02*
G37*
G36*
X347803Y-242822D02*
Y-244146D01*
X349127D01*
X349080Y-243910D01*
X348663Y-243286D01*
X348039Y-242869D01*
X347803Y-242822D01*
D02*
G37*
G36*
X346803D02*
X346567Y-242869D01*
X345944Y-243286D01*
X345527Y-243910D01*
X345480Y-244146D01*
X346803D01*
Y-242822D01*
D02*
G37*
G36*
X339870Y-242881D02*
Y-244205D01*
X341193D01*
X341146Y-243969D01*
X340730Y-243345D01*
X340106Y-242928D01*
X339870Y-242881D01*
D02*
G37*
G36*
X338870D02*
X338634Y-242928D01*
X338011Y-243345D01*
X337594Y-243969D01*
X337547Y-244205D01*
X338870D01*
Y-242881D01*
D02*
G37*
G36*
X73073Y-236777D02*
X72045Y-236912D01*
X71088Y-237309D01*
X70265Y-237940D01*
X69634Y-238763D01*
X69237Y-239720D01*
X69102Y-240748D01*
X69237Y-241776D01*
X69634Y-242734D01*
X70265Y-243556D01*
X71088Y-244187D01*
X72045Y-244584D01*
X73073Y-244719D01*
X74101Y-244584D01*
X75059Y-244187D01*
X75881Y-243556D01*
X76512Y-242734D01*
X76909Y-241776D01*
X77044Y-240748D01*
X76909Y-239720D01*
X76512Y-238763D01*
X75881Y-237940D01*
X75059Y-237309D01*
X74101Y-236912D01*
X73073Y-236777D01*
D02*
G37*
G36*
X231976Y-243610D02*
Y-244933D01*
X233300D01*
X233253Y-244697D01*
X232836Y-244074D01*
X232212Y-243657D01*
X231976Y-243610D01*
D02*
G37*
G36*
X230976D02*
X230741Y-243657D01*
X230117Y-244074D01*
X229700Y-244697D01*
X229653Y-244933D01*
X230976D01*
Y-243610D01*
D02*
G37*
G36*
X245657Y-243885D02*
Y-245209D01*
X246981D01*
X246934Y-244973D01*
X246517Y-244349D01*
X245893Y-243932D01*
X245657Y-243885D01*
D02*
G37*
G36*
X244657D02*
X244422Y-243932D01*
X243798Y-244349D01*
X243381Y-244973D01*
X243334Y-245209D01*
X244657D01*
Y-243885D01*
D02*
G37*
G36*
X117783Y-244143D02*
Y-245366D01*
X119006D01*
X118967Y-245169D01*
X118572Y-244578D01*
X117981Y-244182D01*
X117783Y-244143D01*
D02*
G37*
G36*
X161961Y-244122D02*
X160638D01*
Y-245445D01*
X160874Y-245398D01*
X161497Y-244982D01*
X161914Y-244358D01*
X161961Y-244122D01*
D02*
G37*
G36*
X159638D02*
X158315D01*
X158361Y-244358D01*
X158778Y-244982D01*
X159402Y-245398D01*
X159638Y-245445D01*
Y-244122D01*
D02*
G37*
G36*
X94185Y-244535D02*
X93949Y-244582D01*
X93325Y-244999D01*
X92909Y-245622D01*
X92873Y-245801D01*
X92363D01*
X92328Y-245622D01*
X91911Y-244999D01*
X91287Y-244582D01*
X91051Y-244535D01*
Y-246358D01*
Y-248182D01*
X91287Y-248135D01*
X91911Y-247718D01*
X92328Y-247094D01*
X92363Y-246915D01*
X92873D01*
X92909Y-247094D01*
X93325Y-247718D01*
X93949Y-248135D01*
X94185Y-248182D01*
Y-246358D01*
Y-244535D01*
D02*
G37*
G36*
X138297Y-243004D02*
X137760Y-243111D01*
X137304Y-243416D01*
X136999Y-243872D01*
X136892Y-244409D01*
X136999Y-244947D01*
X137304Y-245403D01*
X137760Y-245708D01*
X138297Y-245814D01*
X138835Y-245708D01*
X139291Y-245403D01*
X139595Y-244947D01*
X139702Y-244409D01*
X139595Y-243872D01*
X139291Y-243416D01*
X138835Y-243111D01*
X138297Y-243004D01*
D02*
G37*
G36*
X95185Y-244535D02*
Y-245858D01*
X96508D01*
X96461Y-245622D01*
X96045Y-244999D01*
X95421Y-244582D01*
X95185Y-244535D01*
D02*
G37*
G36*
X90051D02*
X89815Y-244582D01*
X89192Y-244999D01*
X88775Y-245622D01*
X88728Y-245858D01*
X90051D01*
Y-244535D01*
D02*
G37*
G36*
X121732Y-239774D02*
X121156Y-239889D01*
X120668Y-240215D01*
X120342Y-240704D01*
X120227Y-241280D01*
X120342Y-241856D01*
X120668Y-242344D01*
X121156Y-242670D01*
X121315Y-242702D01*
Y-243212D01*
X121097Y-243255D01*
X120609Y-243581D01*
X120282Y-244070D01*
X120168Y-244646D01*
X120282Y-245222D01*
X120609Y-245710D01*
X121097Y-246036D01*
X121673Y-246151D01*
X122249Y-246036D01*
X122738Y-245710D01*
X123064Y-245222D01*
X123179Y-244646D01*
X123064Y-244070D01*
X122738Y-243581D01*
X122249Y-243255D01*
X122090Y-243223D01*
Y-242714D01*
X122308Y-242670D01*
X122797Y-242344D01*
X123123Y-241856D01*
X123238Y-241280D01*
X123123Y-240704D01*
X122797Y-240215D01*
X122308Y-239889D01*
X121732Y-239774D01*
D02*
G37*
G36*
X349127Y-245146D02*
X347803D01*
Y-246469D01*
X348039Y-246422D01*
X348663Y-246005D01*
X349080Y-245381D01*
X349127Y-245146D01*
D02*
G37*
G36*
X346803D02*
X345480D01*
X345527Y-245381D01*
X345944Y-246005D01*
X346567Y-246422D01*
X346803Y-246469D01*
Y-245146D01*
D02*
G37*
G36*
X341193Y-245205D02*
X339870D01*
Y-246528D01*
X340106Y-246481D01*
X340730Y-246064D01*
X341146Y-245441D01*
X341193Y-245205D01*
D02*
G37*
G36*
X338870D02*
X337547D01*
X337594Y-245441D01*
X338011Y-246064D01*
X338634Y-246481D01*
X338870Y-246528D01*
Y-245205D01*
D02*
G37*
G36*
X300835Y-245834D02*
Y-247158D01*
X302158D01*
X302111Y-246922D01*
X301694Y-246298D01*
X301070Y-245881D01*
X300835Y-245834D01*
D02*
G37*
G36*
X299835D02*
X299599Y-245881D01*
X298975Y-246298D01*
X298558Y-246922D01*
X298511Y-247158D01*
X299835D01*
Y-245834D01*
D02*
G37*
G36*
X233300Y-245933D02*
X231976D01*
Y-247256D01*
X232212Y-247210D01*
X232836Y-246793D01*
X233253Y-246169D01*
X233300Y-245933D01*
D02*
G37*
G36*
X230976D02*
X229653D01*
X229700Y-246169D01*
X230117Y-246793D01*
X230741Y-247210D01*
X230976Y-247256D01*
Y-245933D01*
D02*
G37*
G36*
X246981Y-246209D02*
X245657D01*
Y-247532D01*
X245893Y-247485D01*
X246517Y-247068D01*
X246934Y-246445D01*
X246981Y-246209D01*
D02*
G37*
G36*
X244657D02*
X243334D01*
X243381Y-246445D01*
X243798Y-247068D01*
X244422Y-247485D01*
X244657Y-247532D01*
Y-246209D01*
D02*
G37*
G36*
X119006Y-246366D02*
X117783D01*
Y-247589D01*
X117981Y-247550D01*
X118572Y-247155D01*
X118967Y-246564D01*
X119006Y-246366D01*
D02*
G37*
G36*
X96508Y-246858D02*
X95185D01*
Y-248182D01*
X95421Y-248135D01*
X96045Y-247718D01*
X96461Y-247094D01*
X96508Y-246858D01*
D02*
G37*
G36*
X90051D02*
X88728D01*
X88775Y-247094D01*
X89192Y-247718D01*
X89815Y-248135D01*
X90051Y-248182D01*
Y-246858D01*
D02*
G37*
G36*
X114891Y-244070D02*
X114354Y-244177D01*
X113898Y-244482D01*
X113593Y-244938D01*
X113486Y-245475D01*
X113593Y-246013D01*
X113898Y-246469D01*
X113933Y-246492D01*
X113963Y-247113D01*
X113761Y-247415D01*
X113654Y-247953D01*
X113761Y-248490D01*
X114066Y-248946D01*
X114521Y-249251D01*
X115059Y-249358D01*
X115597Y-249251D01*
X116052Y-248946D01*
X116357Y-248490D01*
X116456Y-247995D01*
X116469Y-247949D01*
X116783Y-247708D01*
Y-245866D01*
Y-244143D01*
X116586Y-244182D01*
X116379Y-244321D01*
X115885Y-244482D01*
X115429Y-244177D01*
X114891Y-244070D01*
D02*
G37*
G36*
X302158Y-248158D02*
X300835D01*
Y-249481D01*
X301070Y-249434D01*
X301694Y-249017D01*
X302111Y-248393D01*
X302158Y-248158D01*
D02*
G37*
G36*
X299835D02*
X298511D01*
X298558Y-248393D01*
X298975Y-249017D01*
X299599Y-249434D01*
X299835Y-249481D01*
Y-248158D01*
D02*
G37*
G36*
X47216Y-248471D02*
Y-249795D01*
X48539D01*
X48493Y-249559D01*
X48076Y-248935D01*
X47452Y-248518D01*
X47216Y-248471D01*
D02*
G37*
G36*
X46216D02*
X45980Y-248518D01*
X45357Y-248935D01*
X44940Y-249559D01*
X44893Y-249795D01*
X46216D01*
Y-248471D01*
D02*
G37*
G36*
X73573Y-246430D02*
Y-250248D01*
X77391D01*
X77308Y-249613D01*
X76870Y-248556D01*
X76173Y-247648D01*
X75265Y-246951D01*
X74208Y-246514D01*
X73573Y-246430D01*
D02*
G37*
G36*
X72573Y-246430D02*
X71938Y-246514D01*
X70881Y-246951D01*
X69973Y-247648D01*
X69276Y-248556D01*
X68839Y-249613D01*
X68755Y-250248D01*
X72573D01*
Y-246430D01*
D02*
G37*
G36*
X65453Y-248300D02*
X64915Y-248407D01*
X64459Y-248711D01*
X64155Y-249167D01*
X64048Y-249705D01*
X64155Y-250242D01*
X64459Y-250698D01*
X64915Y-251003D01*
X65453Y-251110D01*
X65990Y-251003D01*
X66446Y-250698D01*
X66751Y-250242D01*
X66858Y-249705D01*
X66751Y-249167D01*
X66446Y-248711D01*
X65990Y-248407D01*
X65453Y-248300D01*
D02*
G37*
G36*
X258433Y-250224D02*
Y-251547D01*
X259756D01*
X259710Y-251311D01*
X259293Y-250688D01*
X258669Y-250271D01*
X258433Y-250224D01*
D02*
G37*
G36*
X257433D02*
X257197Y-250271D01*
X256574Y-250688D01*
X256157Y-251311D01*
X256110Y-251547D01*
X257433D01*
Y-250224D01*
D02*
G37*
G36*
X198602Y-245444D02*
X198026Y-245558D01*
X197538Y-245884D01*
X197212Y-246373D01*
X197097Y-246949D01*
X197212Y-247525D01*
X197538Y-248013D01*
X198026Y-248340D01*
X198126Y-248359D01*
Y-248869D01*
X197948Y-248905D01*
X197459Y-249231D01*
X197133Y-249719D01*
X197018Y-250295D01*
X197133Y-250871D01*
X197459Y-251360D01*
X197948Y-251686D01*
X198524Y-251801D01*
X199100Y-251686D01*
X199588Y-251360D01*
X199914Y-250871D01*
X200029Y-250295D01*
X199914Y-249719D01*
X199588Y-249231D01*
X199100Y-248905D01*
X199000Y-248885D01*
Y-248375D01*
X199178Y-248340D01*
X199667Y-248013D01*
X199993Y-247525D01*
X200108Y-246949D01*
X199993Y-246373D01*
X199667Y-245884D01*
X199178Y-245558D01*
X198602Y-245444D01*
D02*
G37*
G36*
X48539Y-250795D02*
X47216D01*
Y-252118D01*
X47452Y-252071D01*
X48076Y-251654D01*
X48493Y-251030D01*
X48539Y-250795D01*
D02*
G37*
G36*
X46216D02*
X44893D01*
X44940Y-251030D01*
X45357Y-251654D01*
X45980Y-252071D01*
X46216Y-252118D01*
Y-250795D01*
D02*
G37*
G36*
X148408Y-252015D02*
Y-253339D01*
X149732D01*
X149685Y-253103D01*
X149268Y-252479D01*
X148644Y-252062D01*
X148408Y-252015D01*
D02*
G37*
G36*
X147408D02*
X147172Y-252062D01*
X146549Y-252479D01*
X146132Y-253103D01*
X146085Y-253339D01*
X147408D01*
Y-252015D01*
D02*
G37*
G36*
X8071Y-247414D02*
X7249Y-247522D01*
X6482Y-247839D01*
X5824Y-248344D01*
X5320Y-249002D01*
X5002Y-249768D01*
X4894Y-250590D01*
X5002Y-251413D01*
X5320Y-252179D01*
X5824Y-252837D01*
X6482Y-253342D01*
X7249Y-253659D01*
X8071Y-253767D01*
X8893Y-253659D01*
X9659Y-253342D01*
X10317Y-252837D01*
X10822Y-252179D01*
X11139Y-251413D01*
X11248Y-250590D01*
X11139Y-249768D01*
X10822Y-249002D01*
X10317Y-248344D01*
X9659Y-247839D01*
X8893Y-247522D01*
X8071Y-247414D01*
D02*
G37*
G36*
X259756Y-252547D02*
X258433D01*
Y-253871D01*
X258669Y-253824D01*
X259293Y-253407D01*
X259710Y-252783D01*
X259756Y-252547D01*
D02*
G37*
G36*
X257433D02*
X256110D01*
X256157Y-252783D01*
X256574Y-253407D01*
X257197Y-253824D01*
X257433Y-253871D01*
Y-252547D01*
D02*
G37*
G36*
X72573Y-251248D02*
X68755D01*
X68839Y-251883D01*
X69276Y-252940D01*
X69973Y-253848D01*
X70881Y-254545D01*
X71938Y-254983D01*
X72573Y-255066D01*
Y-251248D01*
D02*
G37*
G36*
X77391D02*
X73573D01*
Y-255066D01*
X74208Y-254983D01*
X75265Y-254545D01*
X76173Y-253848D01*
X76870Y-252940D01*
X77308Y-251883D01*
X77391Y-251248D01*
D02*
G37*
G36*
X149732Y-254339D02*
X148408D01*
Y-255662D01*
X148644Y-255615D01*
X149268Y-255198D01*
X149685Y-254574D01*
X149732Y-254339D01*
D02*
G37*
G36*
X147408D02*
X146085D01*
X146132Y-254574D01*
X146549Y-255198D01*
X147172Y-255615D01*
X147408Y-255662D01*
Y-254339D01*
D02*
G37*
G36*
X199016Y-252792D02*
X198440Y-252906D01*
X197951Y-253233D01*
X197625Y-253721D01*
X197511Y-254297D01*
X197625Y-254873D01*
X197951Y-255362D01*
X198440Y-255688D01*
X199016Y-255802D01*
X199592Y-255688D01*
X200080Y-255362D01*
X200407Y-254873D01*
X200521Y-254297D01*
X200407Y-253721D01*
X200080Y-253233D01*
X199592Y-252906D01*
X199016Y-252792D01*
D02*
G37*
G36*
X182650Y-255187D02*
X182452Y-255226D01*
X181861Y-255621D01*
X181466Y-256212D01*
X181427Y-256410D01*
X182650D01*
Y-255187D01*
D02*
G37*
G36*
X213197Y-255559D02*
Y-256882D01*
X214520D01*
X214473Y-256646D01*
X214056Y-256022D01*
X213433Y-255606D01*
X213197Y-255559D01*
D02*
G37*
G36*
X212197D02*
X211961Y-255606D01*
X211337Y-256022D01*
X210920Y-256646D01*
X210874Y-256882D01*
X212197D01*
Y-255559D01*
D02*
G37*
G36*
X249173Y-254361D02*
X248597Y-254475D01*
X248109Y-254802D01*
X247782Y-255290D01*
X247668Y-255866D01*
X247782Y-256442D01*
X248109Y-256930D01*
X248597Y-257257D01*
X249173Y-257371D01*
X249749Y-257257D01*
X250238Y-256930D01*
X250564Y-256442D01*
X250678Y-255866D01*
X250564Y-255290D01*
X250238Y-254802D01*
X249749Y-254475D01*
X249173Y-254361D01*
D02*
G37*
G36*
X114469Y-255386D02*
X113931Y-255493D01*
X113475Y-255798D01*
X113171Y-256254D01*
X113064Y-256791D01*
X113171Y-257329D01*
X113475Y-257785D01*
X113931Y-258089D01*
X114469Y-258196D01*
X115006Y-258089D01*
X115462Y-257785D01*
X115767Y-257329D01*
X115874Y-256791D01*
X115767Y-256254D01*
X115462Y-255798D01*
X115006Y-255493D01*
X114469Y-255386D01*
D02*
G37*
G36*
X182650Y-257410D02*
X181427D01*
X181466Y-257607D01*
X181861Y-258198D01*
X182452Y-258593D01*
X182650Y-258632D01*
Y-257410D01*
D02*
G37*
G36*
X103150Y-255386D02*
X102612Y-255493D01*
X102156Y-255798D01*
X101852Y-256254D01*
X101745Y-256791D01*
X101852Y-257329D01*
X102093Y-257690D01*
X101790Y-257892D01*
X101373Y-258516D01*
X101326Y-258752D01*
X104973D01*
X104926Y-258516D01*
X104509Y-257892D01*
X104206Y-257690D01*
X104448Y-257329D01*
X104555Y-256791D01*
X104448Y-256254D01*
X104143Y-255798D01*
X103687Y-255493D01*
X103150Y-255386D01*
D02*
G37*
G36*
X374693Y-257547D02*
Y-258870D01*
X376016D01*
X375969Y-258634D01*
X375553Y-258011D01*
X374929Y-257594D01*
X374693Y-257547D01*
D02*
G37*
G36*
X373693D02*
X373457Y-257594D01*
X372833Y-258011D01*
X372416Y-258634D01*
X372370Y-258870D01*
X373693D01*
Y-257547D01*
D02*
G37*
G36*
X35116Y-257715D02*
Y-259039D01*
X36439D01*
X36393Y-258803D01*
X35976Y-258179D01*
X35352Y-257762D01*
X35116Y-257715D01*
D02*
G37*
G36*
X34116D02*
X33880Y-257762D01*
X33257Y-258179D01*
X32840Y-258803D01*
X32793Y-259039D01*
X34116D01*
Y-257715D01*
D02*
G37*
G36*
X183650Y-255187D02*
Y-256909D01*
Y-258632D01*
X183847Y-258593D01*
X184109Y-258418D01*
X184171Y-258405D01*
X184756Y-258554D01*
X184899Y-258769D01*
X185355Y-259074D01*
X185893Y-259180D01*
X186431Y-259074D01*
X186886Y-258769D01*
X187191Y-258313D01*
X187298Y-257776D01*
X187191Y-257238D01*
X186886Y-256782D01*
X186431Y-256478D01*
X185893Y-256371D01*
X185394Y-256470D01*
X185234Y-256471D01*
X184853Y-256313D01*
X184833Y-256212D01*
X184438Y-255621D01*
X183847Y-255226D01*
X183650Y-255187D01*
D02*
G37*
G36*
X214520Y-257882D02*
X213197D01*
Y-259205D01*
X213433Y-259158D01*
X214056Y-258741D01*
X214473Y-258118D01*
X214520Y-257882D01*
D02*
G37*
G36*
X212197D02*
X210874D01*
X210920Y-258118D01*
X211337Y-258741D01*
X211961Y-259158D01*
X212197Y-259205D01*
Y-257882D01*
D02*
G37*
G36*
X198883Y-257941D02*
Y-259264D01*
X200207D01*
X200160Y-259028D01*
X199743Y-258404D01*
X199119Y-257987D01*
X198883Y-257941D01*
D02*
G37*
G36*
X197883D02*
X197648Y-257987D01*
X197024Y-258404D01*
X196607Y-259028D01*
X196560Y-259264D01*
X197883D01*
Y-257941D01*
D02*
G37*
G36*
X283177Y-258984D02*
Y-260307D01*
X284501D01*
X284454Y-260071D01*
X284037Y-259448D01*
X283413Y-259031D01*
X283177Y-258984D01*
D02*
G37*
G36*
X282177D02*
X281941Y-259031D01*
X281318Y-259448D01*
X280901Y-260071D01*
X280854Y-260307D01*
X282177D01*
Y-258984D01*
D02*
G37*
G36*
X376016Y-259870D02*
X374693D01*
Y-261193D01*
X374929Y-261146D01*
X375553Y-260730D01*
X375969Y-260106D01*
X376016Y-259870D01*
D02*
G37*
G36*
X373693D02*
X372370D01*
X372416Y-260106D01*
X372833Y-260730D01*
X373457Y-261146D01*
X373693Y-261193D01*
Y-259870D01*
D02*
G37*
G36*
X36439Y-260039D02*
X35116D01*
Y-261362D01*
X35352Y-261315D01*
X35976Y-260898D01*
X36393Y-260274D01*
X36439Y-260039D01*
D02*
G37*
G36*
X34116D02*
X32793D01*
X32840Y-260274D01*
X33257Y-260898D01*
X33880Y-261315D01*
X34116Y-261362D01*
Y-260039D01*
D02*
G37*
G36*
X275264Y-260263D02*
Y-261587D01*
X276587D01*
X276540Y-261351D01*
X276123Y-260727D01*
X275500Y-260310D01*
X275264Y-260263D01*
D02*
G37*
G36*
X274264D02*
X274028Y-260310D01*
X273404Y-260727D01*
X272987Y-261351D01*
X272940Y-261587D01*
X274264D01*
Y-260263D01*
D02*
G37*
G36*
X200207Y-260264D02*
X198883D01*
Y-261587D01*
X199119Y-261540D01*
X199743Y-261123D01*
X200160Y-260500D01*
X200207Y-260264D01*
D02*
G37*
G36*
X197883D02*
X196560D01*
X196607Y-260500D01*
X197024Y-261123D01*
X197648Y-261540D01*
X197883Y-261587D01*
Y-260264D01*
D02*
G37*
G36*
X284501Y-261307D02*
X283177D01*
Y-262630D01*
X283413Y-262583D01*
X284037Y-262167D01*
X284454Y-261543D01*
X284501Y-261307D01*
D02*
G37*
G36*
X282177D02*
X280854D01*
X280901Y-261543D01*
X281318Y-262167D01*
X281941Y-262583D01*
X282177Y-262630D01*
Y-261307D01*
D02*
G37*
G36*
X65453Y-260111D02*
X64915Y-260218D01*
X64459Y-260522D01*
X64155Y-260978D01*
X64048Y-261516D01*
X64155Y-262053D01*
X64459Y-262509D01*
X64915Y-262814D01*
X65453Y-262921D01*
X65990Y-262814D01*
X66446Y-262509D01*
X66751Y-262053D01*
X66858Y-261516D01*
X66751Y-260978D01*
X66446Y-260522D01*
X65990Y-260218D01*
X65453Y-260111D01*
D02*
G37*
G36*
X104973Y-259752D02*
X101326D01*
X101373Y-259988D01*
X101790Y-260612D01*
X102021Y-260766D01*
X101700Y-261246D01*
X101585Y-261822D01*
X101700Y-262398D01*
X102026Y-262887D01*
X102515Y-263213D01*
X103091Y-263327D01*
X103667Y-263213D01*
X104155Y-262887D01*
X104481Y-262398D01*
X104596Y-261822D01*
X104481Y-261246D01*
X104197Y-260820D01*
X104509Y-260612D01*
X104926Y-259988D01*
X104973Y-259752D01*
D02*
G37*
G36*
X276587Y-262587D02*
X275264D01*
Y-263910D01*
X275500Y-263863D01*
X276123Y-263446D01*
X276540Y-262822D01*
X276587Y-262587D01*
D02*
G37*
G36*
X274264D02*
X272940D01*
X272987Y-262822D01*
X273404Y-263446D01*
X274028Y-263863D01*
X274264Y-263910D01*
Y-262587D01*
D02*
G37*
G36*
X53450Y-262840D02*
Y-264163D01*
X54773D01*
X54727Y-263927D01*
X54310Y-263303D01*
X53686Y-262886D01*
X53450Y-262840D01*
D02*
G37*
G36*
X52450D02*
X52214Y-262886D01*
X51591Y-263303D01*
X51174Y-263927D01*
X51118Y-264206D01*
X50609D01*
X50573Y-264028D01*
X50156Y-263404D01*
X49533Y-262987D01*
X49297Y-262941D01*
Y-264764D01*
Y-266587D01*
X49533Y-266540D01*
X50156Y-266123D01*
X50573Y-265500D01*
X50629Y-265221D01*
X51138D01*
X51174Y-265399D01*
X51591Y-266022D01*
X52214Y-266439D01*
X52450Y-266486D01*
Y-264663D01*
Y-262840D01*
D02*
G37*
G36*
X48297Y-262941D02*
X48061Y-262987D01*
X47437Y-263404D01*
X47020Y-264028D01*
X46973Y-264264D01*
X48297D01*
Y-262941D01*
D02*
G37*
G36*
X73073Y-256777D02*
X72045Y-256912D01*
X71088Y-257309D01*
X70265Y-257940D01*
X69634Y-258763D01*
X69237Y-259720D01*
X69102Y-260748D01*
X69237Y-261776D01*
X69634Y-262734D01*
X70265Y-263556D01*
X71088Y-264187D01*
X72045Y-264584D01*
X73073Y-264719D01*
X74101Y-264584D01*
X75059Y-264187D01*
X75881Y-263556D01*
X76512Y-262734D01*
X76909Y-261776D01*
X77044Y-260748D01*
X76909Y-259720D01*
X76512Y-258763D01*
X75881Y-257940D01*
X75059Y-257309D01*
X74101Y-256912D01*
X73073Y-256777D01*
D02*
G37*
G36*
X31299Y-262865D02*
X30723Y-262979D01*
X30235Y-263306D01*
X29908Y-263794D01*
X29794Y-264370D01*
X29908Y-264946D01*
X30235Y-265435D01*
X30723Y-265761D01*
X31299Y-265875D01*
X31875Y-265761D01*
X32364Y-265435D01*
X32690Y-264946D01*
X32805Y-264370D01*
X32690Y-263794D01*
X32364Y-263306D01*
X31875Y-262979D01*
X31299Y-262865D01*
D02*
G37*
G36*
X160798Y-264968D02*
X159575D01*
Y-266192D01*
X159772Y-266152D01*
X160363Y-265757D01*
X160758Y-265166D01*
X160798Y-264968D01*
D02*
G37*
G36*
X157283Y-261193D02*
X156746Y-261300D01*
X156290Y-261605D01*
X155985Y-262061D01*
X155878Y-262598D01*
X155985Y-263136D01*
X156290Y-263592D01*
X156746Y-263896D01*
X157283Y-264003D01*
X157335Y-264055D01*
X157252Y-264469D01*
X157391Y-265166D01*
X157786Y-265757D01*
X158377Y-266152D01*
X158575Y-266192D01*
Y-264469D01*
X159075D01*
Y-263968D01*
X160798D01*
X160758Y-263771D01*
X160363Y-263180D01*
X159772Y-262785D01*
X159075Y-262646D01*
X159057Y-262650D01*
X158688Y-262598D01*
X158581Y-262061D01*
X158277Y-261605D01*
X157821Y-261300D01*
X157283Y-261193D01*
D02*
G37*
G36*
X54773Y-265163D02*
X53450D01*
Y-266486D01*
X53686Y-266439D01*
X54310Y-266022D01*
X54727Y-265399D01*
X54773Y-265163D01*
D02*
G37*
G36*
X48297Y-265264D02*
X46973D01*
X47020Y-265500D01*
X47437Y-266123D01*
X48061Y-266540D01*
X48297Y-266587D01*
Y-265264D01*
D02*
G37*
G36*
X299299Y-265952D02*
Y-267276D01*
X300623D01*
X300576Y-267040D01*
X300159Y-266416D01*
X299535Y-265999D01*
X299299Y-265952D01*
D02*
G37*
G36*
X298299D02*
X298063Y-265999D01*
X297440Y-266416D01*
X297023Y-267040D01*
X296976Y-267276D01*
X298299D01*
Y-265952D01*
D02*
G37*
G36*
X90256Y-265229D02*
X89718Y-265336D01*
X89262Y-265640D01*
X88958Y-266096D01*
X88851Y-266634D01*
X88958Y-267172D01*
X89262Y-267627D01*
X89718Y-267932D01*
X90256Y-268039D01*
X90794Y-267932D01*
X91249Y-267627D01*
X91554Y-267172D01*
X91661Y-266634D01*
X91554Y-266096D01*
X91249Y-265640D01*
X90794Y-265336D01*
X90256Y-265229D01*
D02*
G37*
G36*
X8807Y-266122D02*
Y-269146D01*
X11831D01*
X11774Y-268717D01*
X11416Y-267851D01*
X10845Y-267107D01*
X10102Y-266537D01*
X9236Y-266178D01*
X8807Y-266122D01*
D02*
G37*
G36*
X7807D02*
X7378Y-266178D01*
X6512Y-266537D01*
X5769Y-267107D01*
X5198Y-267851D01*
X4840Y-268717D01*
X4783Y-269146D01*
X7807D01*
Y-266122D01*
D02*
G37*
G36*
X300623Y-268276D02*
X299299D01*
Y-269599D01*
X299535Y-269552D01*
X300159Y-269135D01*
X300576Y-268511D01*
X300623Y-268276D01*
D02*
G37*
G36*
X298299D02*
X296976D01*
X297023Y-268511D01*
X297440Y-269135D01*
X298063Y-269552D01*
X298299Y-269599D01*
Y-268276D01*
D02*
G37*
G36*
X73573Y-266430D02*
Y-270248D01*
X77391D01*
X77308Y-269613D01*
X76870Y-268556D01*
X76173Y-267648D01*
X75265Y-266951D01*
X74208Y-266513D01*
X73573Y-266430D01*
D02*
G37*
G36*
X72573Y-266430D02*
X71938Y-266513D01*
X70881Y-266951D01*
X69973Y-267648D01*
X69276Y-268556D01*
X68839Y-269613D01*
X68755Y-270248D01*
X72573D01*
Y-266430D01*
D02*
G37*
G36*
X117776Y-268083D02*
X117238Y-268190D01*
X116782Y-268495D01*
X116478Y-268951D01*
X116371Y-269488D01*
X116478Y-270026D01*
X116782Y-270482D01*
X117238Y-270786D01*
X117776Y-270893D01*
X118313Y-270786D01*
X118769Y-270482D01*
X119074Y-270026D01*
X119181Y-269488D01*
X119074Y-268951D01*
X118769Y-268495D01*
X118313Y-268190D01*
X117776Y-268083D01*
D02*
G37*
G36*
X60827Y-268969D02*
X60289Y-269076D01*
X59833Y-269381D01*
X59529Y-269836D01*
X59422Y-270374D01*
X59529Y-270912D01*
X59833Y-271368D01*
X60289Y-271672D01*
X60827Y-271779D01*
X61364Y-271672D01*
X61820Y-271368D01*
X62125Y-270912D01*
X62232Y-270374D01*
X62125Y-269836D01*
X61820Y-269381D01*
X61364Y-269076D01*
X60827Y-268969D01*
D02*
G37*
G36*
X99122Y-270913D02*
Y-272236D01*
X100445D01*
X100399Y-272000D01*
X99982Y-271377D01*
X99358Y-270960D01*
X99122Y-270913D01*
D02*
G37*
G36*
X98122D02*
X97886Y-270960D01*
X97263Y-271377D01*
X96846Y-272000D01*
X96799Y-272236D01*
X98122D01*
Y-270913D01*
D02*
G37*
G36*
X161988Y-269459D02*
X161412Y-269574D01*
X160924Y-269900D01*
X160598Y-270389D01*
X160483Y-270965D01*
X160598Y-271541D01*
X160924Y-272029D01*
X161412Y-272355D01*
X161988Y-272470D01*
X162564Y-272355D01*
X163053Y-272029D01*
X163379Y-271541D01*
X163494Y-270965D01*
X163379Y-270389D01*
X163053Y-269900D01*
X162564Y-269574D01*
X161988Y-269459D01*
D02*
G37*
G36*
X11831Y-270146D02*
X8807D01*
Y-273170D01*
X9236Y-273113D01*
X10102Y-272755D01*
X10845Y-272184D01*
X11416Y-271441D01*
X11774Y-270575D01*
X11831Y-270146D01*
D02*
G37*
G36*
X7807D02*
X4783D01*
X4840Y-270575D01*
X5198Y-271441D01*
X5769Y-272184D01*
X6512Y-272755D01*
X7378Y-273113D01*
X7807Y-273170D01*
Y-270146D01*
D02*
G37*
G36*
X198383Y-270640D02*
X197808Y-270755D01*
X197319Y-271081D01*
X196993Y-271570D01*
X196878Y-272146D01*
X196993Y-272722D01*
X197319Y-273210D01*
X197808Y-273536D01*
X198383Y-273651D01*
X198960Y-273536D01*
X199448Y-273210D01*
X199774Y-272722D01*
X199889Y-272146D01*
X199774Y-271570D01*
X199448Y-271081D01*
X198960Y-270755D01*
X198383Y-270640D01*
D02*
G37*
G36*
X164823Y-271605D02*
X164247Y-271720D01*
X163758Y-272046D01*
X163432Y-272534D01*
X163318Y-273110D01*
X163425Y-273648D01*
X163340Y-273756D01*
X163031Y-273987D01*
X162879Y-273885D01*
X162303Y-273770D01*
X161727Y-273885D01*
X161239Y-274211D01*
X160912Y-274699D01*
X160798Y-275276D01*
X160911Y-275844D01*
X160893Y-275870D01*
X160544Y-276200D01*
X160066Y-275881D01*
X159831Y-275834D01*
Y-277157D01*
X161154D01*
X161107Y-276922D01*
X161025Y-276798D01*
X161385Y-276438D01*
X161727Y-276666D01*
X162303Y-276781D01*
X162879Y-276666D01*
X163368Y-276340D01*
X163694Y-275852D01*
X163808Y-275276D01*
X163701Y-274738D01*
X163786Y-274630D01*
X164095Y-274399D01*
X164247Y-274501D01*
X164823Y-274616D01*
X165399Y-274501D01*
X165887Y-274175D01*
X166214Y-273686D01*
X166328Y-273110D01*
X166214Y-272534D01*
X165887Y-272046D01*
X165399Y-271720D01*
X164823Y-271605D01*
D02*
G37*
G36*
X100445Y-273236D02*
X99122D01*
Y-274559D01*
X99358Y-274513D01*
X99982Y-274096D01*
X100399Y-273472D01*
X100445Y-273236D01*
D02*
G37*
G36*
X98122D02*
X96799D01*
X96846Y-273472D01*
X97263Y-274096D01*
X97886Y-274513D01*
X98122Y-274559D01*
Y-273236D01*
D02*
G37*
G36*
X211878Y-273295D02*
Y-274618D01*
X213201D01*
X213154Y-274382D01*
X212738Y-273759D01*
X212114Y-273342D01*
X211878Y-273295D01*
D02*
G37*
G36*
X210878D02*
X210642Y-273342D01*
X210018Y-273759D01*
X209601Y-274382D01*
X209555Y-274618D01*
X210878D01*
Y-273295D01*
D02*
G37*
G36*
X72573Y-271248D02*
X68755D01*
X68839Y-271883D01*
X69276Y-272940D01*
X69973Y-273848D01*
X70881Y-274545D01*
X71938Y-274983D01*
X72573Y-275066D01*
Y-271248D01*
D02*
G37*
G36*
X77391D02*
X73573D01*
Y-275066D01*
X74208Y-274983D01*
X75265Y-274545D01*
X76173Y-273848D01*
X76870Y-272940D01*
X77308Y-271883D01*
X77391Y-271248D01*
D02*
G37*
G36*
X279823Y-272255D02*
X279247Y-272369D01*
X278758Y-272695D01*
X278432Y-273184D01*
X278317Y-273760D01*
X278432Y-274336D01*
X278758Y-274824D01*
X279247Y-275151D01*
X279823Y-275265D01*
X280399Y-275151D01*
X280887Y-274824D01*
X281213Y-274336D01*
X281328Y-273760D01*
X281213Y-273184D01*
X280887Y-272695D01*
X280399Y-272369D01*
X279823Y-272255D01*
D02*
G37*
G36*
X249350Y-271644D02*
X248774Y-271759D01*
X248286Y-272085D01*
X247960Y-272574D01*
X247845Y-273150D01*
X247901Y-273431D01*
X247635Y-273858D01*
X247524Y-273903D01*
X246882Y-274031D01*
X246258Y-274447D01*
X245842Y-275071D01*
X245795Y-275307D01*
X249441D01*
X249408Y-275137D01*
X249434Y-275003D01*
X249675Y-274590D01*
X249926Y-274540D01*
X250415Y-274214D01*
X250741Y-273726D01*
X250856Y-273150D01*
X250741Y-272574D01*
X250415Y-272085D01*
X249926Y-271759D01*
X249350Y-271644D01*
D02*
G37*
G36*
X232756Y-273888D02*
X232180Y-274003D01*
X231692Y-274329D01*
X231365Y-274818D01*
X231251Y-275394D01*
X231365Y-275970D01*
X231692Y-276458D01*
X232180Y-276784D01*
X232756Y-276899D01*
X233332Y-276784D01*
X233820Y-276458D01*
X234147Y-275970D01*
X234261Y-275394D01*
X234147Y-274818D01*
X233820Y-274329D01*
X233332Y-274003D01*
X232756Y-273888D01*
D02*
G37*
G36*
X213201Y-275618D02*
X211878D01*
Y-276941D01*
X212114Y-276894D01*
X212738Y-276478D01*
X213154Y-275854D01*
X213201Y-275618D01*
D02*
G37*
G36*
X210878D02*
X209555D01*
X209601Y-275854D01*
X210018Y-276478D01*
X210642Y-276894D01*
X210878Y-276941D01*
Y-275618D01*
D02*
G37*
G36*
X63262Y-275648D02*
Y-276971D01*
X64585D01*
X64538Y-276735D01*
X64121Y-276112D01*
X63498Y-275695D01*
X63262Y-275648D01*
D02*
G37*
G36*
X62262D02*
X62026Y-275695D01*
X61402Y-276112D01*
X60985Y-276735D01*
X60939Y-276971D01*
X62262D01*
Y-275648D01*
D02*
G37*
G36*
X158831Y-275834D02*
X158595Y-275881D01*
X157971Y-276298D01*
X157554Y-276922D01*
X157507Y-277157D01*
X158831D01*
Y-275834D01*
D02*
G37*
G36*
X249441Y-276307D02*
X248118D01*
Y-277630D01*
X248354Y-277584D01*
X248978Y-277167D01*
X249394Y-276543D01*
X249441Y-276307D01*
D02*
G37*
G36*
X247118D02*
X245795D01*
X245842Y-276543D01*
X246258Y-277167D01*
X246882Y-277584D01*
X247118Y-277630D01*
Y-276307D01*
D02*
G37*
G36*
X187331Y-276700D02*
Y-278024D01*
X188654D01*
X188607Y-277788D01*
X188190Y-277164D01*
X187566Y-276747D01*
X187331Y-276700D01*
D02*
G37*
G36*
X104437Y-276917D02*
Y-278240D01*
X105760D01*
X105713Y-278004D01*
X105297Y-277381D01*
X104673Y-276964D01*
X104437Y-276917D01*
D02*
G37*
G36*
X103437D02*
X103201Y-276964D01*
X102577Y-277381D01*
X102161Y-278004D01*
X102114Y-278240D01*
X103437D01*
Y-276917D01*
D02*
G37*
G36*
X186331Y-276700D02*
X186095Y-276747D01*
X185471Y-277164D01*
X185054Y-277788D01*
X184976Y-278182D01*
X184445Y-278288D01*
X184431Y-278266D01*
X183942Y-277940D01*
X183366Y-277825D01*
X182790Y-277940D01*
X182302Y-278266D01*
X181975Y-278755D01*
X181861Y-279331D01*
X181975Y-279907D01*
X182302Y-280395D01*
X182790Y-280721D01*
X183366Y-280836D01*
X183942Y-280721D01*
X184431Y-280395D01*
X184757Y-279907D01*
X184786Y-279758D01*
X185317Y-279653D01*
X185471Y-279883D01*
X186095Y-280300D01*
X186331Y-280347D01*
Y-278524D01*
Y-276700D01*
D02*
G37*
G36*
X64585Y-277971D02*
X63262D01*
Y-279295D01*
X63498Y-279248D01*
X64121Y-278831D01*
X64538Y-278207D01*
X64585Y-277971D01*
D02*
G37*
G36*
X62262D02*
X60939D01*
X60985Y-278207D01*
X61402Y-278831D01*
X62026Y-279248D01*
X62262Y-279295D01*
Y-277971D01*
D02*
G37*
G36*
X161154Y-278157D02*
X159831D01*
Y-279481D01*
X160066Y-279434D01*
X160690Y-279017D01*
X161107Y-278393D01*
X161154Y-278157D01*
D02*
G37*
G36*
X158831D02*
X157507D01*
X157554Y-278393D01*
X157971Y-279017D01*
X158595Y-279434D01*
X158831Y-279481D01*
Y-278157D01*
D02*
G37*
G36*
X188654Y-279024D02*
X187331D01*
Y-280347D01*
X187566Y-280300D01*
X188190Y-279883D01*
X188607Y-279259D01*
X188654Y-279024D01*
D02*
G37*
G36*
X105760Y-279240D02*
X104437D01*
Y-280563D01*
X104673Y-280517D01*
X105297Y-280100D01*
X105713Y-279476D01*
X105760Y-279240D01*
D02*
G37*
G36*
X103437D02*
X102114D01*
X102161Y-279476D01*
X102577Y-280100D01*
X103201Y-280517D01*
X103437Y-280563D01*
Y-279240D01*
D02*
G37*
G36*
X247638Y-278770D02*
X247062Y-278885D01*
X246573Y-279211D01*
X246247Y-279699D01*
X246132Y-280276D01*
X246247Y-280852D01*
X246573Y-281340D01*
X247062Y-281666D01*
X247638Y-281781D01*
X248214Y-281666D01*
X248702Y-281340D01*
X249028Y-280852D01*
X249143Y-280276D01*
X249028Y-279699D01*
X248702Y-279211D01*
X248214Y-278885D01*
X247638Y-278770D01*
D02*
G37*
G36*
X306102Y-279597D02*
X305526Y-279712D01*
X305038Y-280038D01*
X304712Y-280526D01*
X304597Y-281102D01*
X304712Y-281678D01*
X305038Y-282167D01*
X305526Y-282493D01*
X306102Y-282608D01*
X306678Y-282493D01*
X307167Y-282167D01*
X307493Y-281678D01*
X307608Y-281102D01*
X307493Y-280526D01*
X307167Y-280038D01*
X306678Y-279712D01*
X306102Y-279597D01*
D02*
G37*
G36*
X8307Y-276469D02*
X7485Y-276577D01*
X6719Y-276894D01*
X6061Y-277399D01*
X5556Y-278057D01*
X5239Y-278823D01*
X5130Y-279646D01*
X5239Y-280468D01*
X5556Y-281234D01*
X6061Y-281892D01*
X6719Y-282397D01*
X7485Y-282714D01*
X8307Y-282822D01*
X9129Y-282714D01*
X9895Y-282397D01*
X10553Y-281892D01*
X11058Y-281234D01*
X11376Y-280468D01*
X11484Y-279646D01*
X11376Y-278823D01*
X11058Y-278057D01*
X10553Y-277399D01*
X9895Y-276894D01*
X9129Y-276577D01*
X8307Y-276469D01*
D02*
G37*
G36*
X144587Y-281174D02*
X144049Y-281281D01*
X143593Y-281585D01*
X143289Y-282041D01*
X143182Y-282579D01*
X143289Y-283116D01*
X143593Y-283572D01*
X144049Y-283877D01*
X144587Y-283984D01*
X145124Y-283877D01*
X145580Y-283572D01*
X145618Y-283516D01*
X146206Y-283535D01*
X146349Y-283749D01*
X146805Y-284054D01*
X147343Y-284161D01*
X147880Y-284054D01*
X148336Y-283749D01*
X148641Y-283294D01*
X148748Y-282756D01*
X148641Y-282218D01*
X148336Y-281763D01*
X147880Y-281458D01*
X147343Y-281351D01*
X146805Y-281458D01*
X146349Y-281763D01*
X146311Y-281819D01*
X145723Y-281799D01*
X145580Y-281585D01*
X145124Y-281281D01*
X144587Y-281174D01*
D02*
G37*
G36*
X73073Y-276777D02*
X72045Y-276912D01*
X71088Y-277309D01*
X70265Y-277940D01*
X69634Y-278763D01*
X69237Y-279720D01*
X69102Y-280748D01*
X69237Y-281776D01*
X69634Y-282733D01*
X70265Y-283556D01*
X71088Y-284187D01*
X72045Y-284584D01*
X73073Y-284719D01*
X74101Y-284584D01*
X75059Y-284187D01*
X75881Y-283556D01*
X76512Y-282733D01*
X76909Y-281776D01*
X77044Y-280748D01*
X76909Y-279720D01*
X76512Y-278763D01*
X75881Y-277940D01*
X75059Y-277309D01*
X74101Y-276912D01*
X73073Y-276777D01*
D02*
G37*
G36*
X267441Y-281743D02*
X266865Y-281857D01*
X266376Y-282184D01*
X266050Y-282672D01*
X265936Y-283248D01*
X266050Y-283824D01*
X266376Y-284312D01*
X266865Y-284639D01*
X267441Y-284753D01*
X268017Y-284639D01*
X268505Y-284312D01*
X268832Y-283824D01*
X268946Y-283248D01*
X268832Y-282672D01*
X268505Y-282184D01*
X268017Y-281857D01*
X267441Y-281743D01*
D02*
G37*
G36*
X187252Y-283629D02*
Y-284953D01*
X188575D01*
X188528Y-284717D01*
X188112Y-284093D01*
X187488Y-283676D01*
X187252Y-283629D01*
D02*
G37*
G36*
X184587Y-281841D02*
X184011Y-281956D01*
X183522Y-282282D01*
X183196Y-282770D01*
X183081Y-283347D01*
X183196Y-283923D01*
X183522Y-284411D01*
X184011Y-284737D01*
X184445Y-284823D01*
X184569Y-284953D01*
X186252D01*
Y-283337D01*
X186055Y-283159D01*
X185977Y-282770D01*
X185651Y-282282D01*
X185163Y-281956D01*
X184587Y-281841D01*
D02*
G37*
G36*
X198721Y-279125D02*
X198144Y-279239D01*
X197656Y-279566D01*
X197330Y-280054D01*
X197215Y-280630D01*
X197330Y-281206D01*
X197656Y-281694D01*
X197705Y-281727D01*
Y-282328D01*
X197538Y-282439D01*
X197212Y-282928D01*
X197097Y-283504D01*
X197212Y-284080D01*
X197538Y-284568D01*
X198026Y-284895D01*
X198602Y-285009D01*
X199178Y-284895D01*
X199667Y-284568D01*
X199993Y-284080D01*
X200108Y-283504D01*
X199993Y-282928D01*
X199667Y-282439D01*
X199618Y-282407D01*
Y-281806D01*
X199785Y-281694D01*
X200111Y-281206D01*
X200226Y-280630D01*
X200111Y-280054D01*
X199785Y-279566D01*
X199296Y-279239D01*
X198721Y-279125D01*
D02*
G37*
G36*
X103267Y-282845D02*
X102691Y-282960D01*
X102203Y-283286D01*
X101877Y-283774D01*
X101762Y-284350D01*
X101877Y-284926D01*
X102203Y-285415D01*
X102691Y-285741D01*
X103267Y-285856D01*
X103843Y-285741D01*
X104332Y-285415D01*
X104658Y-284926D01*
X104773Y-284350D01*
X104658Y-283774D01*
X104332Y-283286D01*
X103843Y-282960D01*
X103267Y-282845D01*
D02*
G37*
G36*
X188575Y-285953D02*
X187252D01*
Y-287276D01*
X187488Y-287229D01*
X188112Y-286812D01*
X188528Y-286189D01*
X188575Y-285953D01*
D02*
G37*
G36*
X186252D02*
X184929D01*
X184976Y-286189D01*
X185392Y-286812D01*
X186016Y-287229D01*
X186252Y-287276D01*
Y-285953D01*
D02*
G37*
G36*
X388140Y-282771D02*
X387420Y-282866D01*
X386750Y-283144D01*
X386174Y-283586D01*
X385733Y-284161D01*
X385455Y-284832D01*
X385360Y-285551D01*
X385455Y-286271D01*
X385733Y-286941D01*
X386174Y-287517D01*
X386750Y-287958D01*
X387420Y-288236D01*
X388140Y-288331D01*
X388859Y-288236D01*
X389530Y-287958D01*
X390105Y-287517D01*
X390547Y-286941D01*
X390825Y-286271D01*
X390919Y-285551D01*
X390825Y-284832D01*
X390547Y-284161D01*
X390105Y-283586D01*
X389530Y-283144D01*
X388859Y-282866D01*
X388140Y-282771D01*
D02*
G37*
G36*
X36435Y-287251D02*
Y-288575D01*
X37758D01*
X37712Y-288339D01*
X37295Y-287715D01*
X36671Y-287298D01*
X36435Y-287251D01*
D02*
G37*
G36*
X35435D02*
X35199Y-287298D01*
X34576Y-287715D01*
X34159Y-288339D01*
X34112Y-288575D01*
X35435D01*
Y-287251D01*
D02*
G37*
G36*
X253248Y-285857D02*
X252672Y-285971D01*
X252184Y-286298D01*
X251857Y-286786D01*
X251743Y-287362D01*
X251857Y-287938D01*
X252184Y-288427D01*
X252672Y-288753D01*
X253248Y-288867D01*
X253824Y-288753D01*
X254312Y-288427D01*
X254639Y-287938D01*
X254753Y-287362D01*
X254639Y-286786D01*
X254312Y-286298D01*
X253824Y-285971D01*
X253248Y-285857D01*
D02*
G37*
G36*
X319791Y-287744D02*
Y-289067D01*
X321115D01*
X321068Y-288831D01*
X320651Y-288207D01*
X320027Y-287790D01*
X319791Y-287744D01*
D02*
G37*
G36*
X318791D02*
X318555Y-287790D01*
X317932Y-288207D01*
X317515Y-288831D01*
X317468Y-289067D01*
X318791D01*
Y-287744D01*
D02*
G37*
G36*
X378140Y-281680D02*
X377138Y-281811D01*
X376204Y-282198D01*
X375402Y-282814D01*
X374787Y-283615D01*
X374400Y-284549D01*
X374268Y-285551D01*
X374400Y-286553D01*
X374787Y-287487D01*
X375402Y-288289D01*
X376204Y-288904D01*
X377138Y-289291D01*
X378140Y-289423D01*
X379142Y-289291D01*
X380076Y-288904D01*
X380877Y-288289D01*
X381493Y-287487D01*
X381879Y-286553D01*
X382012Y-285551D01*
X381879Y-284549D01*
X381493Y-283615D01*
X380877Y-282814D01*
X380076Y-282198D01*
X379142Y-281811D01*
X378140Y-281680D01*
D02*
G37*
G36*
X325303Y-288334D02*
Y-289657D01*
X326626D01*
X326580Y-289422D01*
X326163Y-288798D01*
X325539Y-288381D01*
X325303Y-288334D01*
D02*
G37*
G36*
X324303D02*
X324067Y-288381D01*
X323444Y-288798D01*
X323027Y-289422D01*
X322980Y-289657D01*
X324303D01*
Y-288334D01*
D02*
G37*
G36*
X73573Y-286430D02*
Y-290248D01*
X77391D01*
X77308Y-289613D01*
X76870Y-288556D01*
X76173Y-287648D01*
X75265Y-286951D01*
X74208Y-286513D01*
X73573Y-286430D01*
D02*
G37*
G36*
X72573Y-286430D02*
X71938Y-286513D01*
X70881Y-286951D01*
X69973Y-287648D01*
X69276Y-288556D01*
X68839Y-289613D01*
X68755Y-290248D01*
X72573D01*
Y-286430D01*
D02*
G37*
G36*
X37758Y-289575D02*
X36435D01*
Y-290898D01*
X36671Y-290851D01*
X37295Y-290434D01*
X37712Y-289811D01*
X37758Y-289575D01*
D02*
G37*
G36*
X35435D02*
X34112D01*
X34159Y-289811D01*
X34576Y-290434D01*
X35199Y-290851D01*
X35435Y-290898D01*
Y-289575D01*
D02*
G37*
G36*
X321115Y-290067D02*
X319791D01*
Y-291390D01*
X320027Y-291343D01*
X320651Y-290927D01*
X321068Y-290303D01*
X321115Y-290067D01*
D02*
G37*
G36*
X318791D02*
X317468D01*
X317515Y-290303D01*
X317932Y-290927D01*
X318555Y-291343D01*
X318791Y-291390D01*
Y-290067D01*
D02*
G37*
G36*
X184921Y-288692D02*
X184345Y-288806D01*
X183857Y-289132D01*
X183530Y-289621D01*
X183416Y-290197D01*
X183530Y-290773D01*
X183857Y-291261D01*
X184345Y-291588D01*
X184921Y-291702D01*
X185497Y-291588D01*
X185986Y-291261D01*
X186312Y-290773D01*
X186426Y-290197D01*
X186312Y-289621D01*
X185986Y-289132D01*
X185497Y-288806D01*
X184921Y-288692D01*
D02*
G37*
G36*
X326626Y-290657D02*
X325303D01*
Y-291981D01*
X325539Y-291934D01*
X326163Y-291517D01*
X326580Y-290893D01*
X326626Y-290657D01*
D02*
G37*
G36*
X324303D02*
X322980D01*
X323027Y-290893D01*
X323444Y-291517D01*
X324067Y-291934D01*
X324303Y-291981D01*
Y-290657D01*
D02*
G37*
G36*
X28032Y-289735D02*
X27455Y-289849D01*
X26967Y-290176D01*
X26641Y-290664D01*
X26526Y-291240D01*
X26641Y-291816D01*
X26967Y-292305D01*
X27455Y-292631D01*
X28032Y-292745D01*
X28607Y-292631D01*
X29096Y-292305D01*
X29422Y-291816D01*
X29537Y-291240D01*
X29422Y-290664D01*
X29096Y-290176D01*
X28607Y-289849D01*
X28032Y-289735D01*
D02*
G37*
G36*
X221071Y-292273D02*
Y-293496D01*
X222294D01*
X222255Y-293299D01*
X221860Y-292707D01*
X221268Y-292312D01*
X221071Y-292273D01*
D02*
G37*
G36*
X220071D02*
X219873Y-292312D01*
X219282Y-292707D01*
X218887Y-293299D01*
X218848Y-293496D01*
X220071D01*
Y-292273D01*
D02*
G37*
G36*
X353445Y-280579D02*
X352171Y-280704D01*
X350947Y-281076D01*
X349818Y-281679D01*
X348829Y-282491D01*
X348018Y-283480D01*
X347414Y-284608D01*
X347043Y-285833D01*
X346917Y-287106D01*
X347043Y-288380D01*
X347414Y-289604D01*
X348018Y-290733D01*
X348829Y-291722D01*
X349818Y-292534D01*
X350947Y-293137D01*
X352171Y-293508D01*
X353445Y-293634D01*
X354718Y-293508D01*
X355943Y-293137D01*
X357071Y-292534D01*
X358061Y-291722D01*
X358872Y-290733D01*
X359475Y-289604D01*
X359847Y-288380D01*
X359972Y-287106D01*
X359847Y-285833D01*
X359475Y-284608D01*
X358872Y-283480D01*
X358061Y-282491D01*
X357071Y-281679D01*
X355943Y-281076D01*
X354718Y-280704D01*
X353445Y-280579D01*
D02*
G37*
G36*
X382388Y-291303D02*
X378640D01*
Y-295051D01*
X382388D01*
Y-291303D01*
D02*
G37*
G36*
X377640D02*
X373892D01*
Y-295051D01*
X377640D01*
Y-291303D01*
D02*
G37*
G36*
X72573Y-291248D02*
X68755D01*
X68839Y-291883D01*
X69276Y-292940D01*
X69973Y-293848D01*
X70881Y-294545D01*
X71938Y-294983D01*
X72573Y-295066D01*
Y-291248D01*
D02*
G37*
G36*
X77391D02*
X73573D01*
Y-295066D01*
X74208Y-294983D01*
X75265Y-294545D01*
X76173Y-293848D01*
X76870Y-292940D01*
X77308Y-291883D01*
X77391Y-291248D01*
D02*
G37*
G36*
X180520Y-294240D02*
Y-295563D01*
X181843D01*
X181796Y-295327D01*
X181379Y-294703D01*
X180755Y-294287D01*
X180520Y-294240D01*
D02*
G37*
G36*
X179520D02*
X179284Y-294287D01*
X178660Y-294703D01*
X178243Y-295327D01*
X178196Y-295563D01*
X179520D01*
Y-294240D01*
D02*
G37*
G36*
X222294Y-294496D02*
X221071D01*
Y-295719D01*
X221268Y-295680D01*
X221860Y-295285D01*
X222255Y-294693D01*
X222294Y-294496D01*
D02*
G37*
G36*
X220071D02*
X218848D01*
X218887Y-294693D01*
X219282Y-295285D01*
X219873Y-295680D01*
X220071Y-295719D01*
Y-294496D01*
D02*
G37*
G36*
X91839Y-294437D02*
Y-295760D01*
X93162D01*
X93115Y-295524D01*
X92698Y-294900D01*
X92074Y-294483D01*
X91839Y-294437D01*
D02*
G37*
G36*
X90839D02*
X90603Y-294483D01*
X89979Y-294900D01*
X89562Y-295524D01*
X89515Y-295760D01*
X90839D01*
Y-294437D01*
D02*
G37*
G36*
X162992Y-294264D02*
X162454Y-294371D01*
X161999Y-294676D01*
X161694Y-295132D01*
X161587Y-295669D01*
X161694Y-296207D01*
X161999Y-296663D01*
X162454Y-296967D01*
X162992Y-297074D01*
X163530Y-296967D01*
X163986Y-296663D01*
X164290Y-296207D01*
X164397Y-295669D01*
X164290Y-295132D01*
X163986Y-294676D01*
X163530Y-294371D01*
X162992Y-294264D01*
D02*
G37*
G36*
X157480D02*
X156943Y-294371D01*
X156487Y-294676D01*
X156182Y-295132D01*
X156075Y-295669D01*
X156182Y-296207D01*
X156487Y-296663D01*
X156943Y-296967D01*
X157480Y-297074D01*
X158018Y-296967D01*
X158474Y-296663D01*
X158778Y-296207D01*
X158885Y-295669D01*
X158778Y-295132D01*
X158474Y-294676D01*
X158018Y-294371D01*
X157480Y-294264D01*
D02*
G37*
G36*
X198484Y-285640D02*
X197908Y-285755D01*
X197420Y-286081D01*
X197093Y-286570D01*
X196979Y-287146D01*
X197093Y-287722D01*
X197420Y-288210D01*
X197557Y-288302D01*
X197772Y-288753D01*
X197661Y-288927D01*
X197448Y-289247D01*
X197333Y-289823D01*
X197448Y-290399D01*
X197774Y-290887D01*
X198015Y-291048D01*
X198031Y-291638D01*
X197951Y-291691D01*
X197625Y-292180D01*
X197511Y-292756D01*
X197625Y-293332D01*
X197951Y-293820D01*
X198270Y-294034D01*
X198324Y-294546D01*
X198305Y-294612D01*
X198168Y-294703D01*
X197842Y-295192D01*
X197727Y-295768D01*
X197842Y-296344D01*
X198168Y-296832D01*
X198656Y-297158D01*
X199232Y-297273D01*
X199808Y-297158D01*
X200297Y-296832D01*
X200623Y-296344D01*
X200738Y-295768D01*
X200623Y-295192D01*
X200297Y-294703D01*
X199978Y-294490D01*
X199924Y-293978D01*
X199943Y-293912D01*
X200080Y-293820D01*
X200407Y-293332D01*
X200521Y-292756D01*
X200407Y-292180D01*
X200080Y-291691D01*
X199840Y-291531D01*
X199824Y-290940D01*
X199903Y-290887D01*
X200229Y-290399D01*
X200344Y-289823D01*
X200229Y-289247D01*
X199903Y-288758D01*
X199766Y-288667D01*
X199551Y-288216D01*
X199661Y-288041D01*
X199875Y-287722D01*
X199989Y-287146D01*
X199875Y-286570D01*
X199549Y-286081D01*
X199060Y-285755D01*
X198484Y-285640D01*
D02*
G37*
G36*
X181843Y-296563D02*
X180520D01*
Y-297886D01*
X180755Y-297839D01*
X181379Y-297423D01*
X181796Y-296799D01*
X181843Y-296563D01*
D02*
G37*
G36*
X179520D02*
X178196D01*
X178243Y-296799D01*
X178660Y-297423D01*
X179284Y-297839D01*
X179520Y-297886D01*
Y-296563D01*
D02*
G37*
G36*
X93162Y-296760D02*
X91839D01*
Y-298083D01*
X92074Y-298036D01*
X92698Y-297619D01*
X93115Y-296996D01*
X93162Y-296760D01*
D02*
G37*
G36*
X90839D02*
X89515D01*
X89562Y-296996D01*
X89979Y-297619D01*
X90603Y-298036D01*
X90839Y-298083D01*
Y-296760D01*
D02*
G37*
G36*
X388140Y-292772D02*
X387420Y-292866D01*
X386750Y-293144D01*
X386174Y-293586D01*
X385733Y-294161D01*
X385455Y-294832D01*
X385360Y-295551D01*
X385455Y-296271D01*
X385733Y-296941D01*
X386174Y-297517D01*
X386750Y-297958D01*
X387420Y-298236D01*
X388140Y-298331D01*
X388859Y-298236D01*
X389530Y-297958D01*
X390105Y-297517D01*
X390547Y-296941D01*
X390825Y-296271D01*
X390919Y-295551D01*
X390825Y-294832D01*
X390547Y-294161D01*
X390105Y-293586D01*
X389530Y-293144D01*
X388859Y-292866D01*
X388140Y-292772D01*
D02*
G37*
G36*
X184921Y-292274D02*
X184345Y-292389D01*
X183857Y-292715D01*
X183530Y-293203D01*
X183416Y-293779D01*
X183530Y-294356D01*
X183857Y-294844D01*
X184295Y-295137D01*
X184322Y-295404D01*
X184295Y-295670D01*
X183857Y-295963D01*
X183530Y-296451D01*
X183416Y-297028D01*
X183530Y-297604D01*
X183857Y-298092D01*
X184345Y-298418D01*
X184921Y-298533D01*
X185497Y-298418D01*
X185986Y-298092D01*
X186312Y-297604D01*
X186426Y-297028D01*
X186312Y-296451D01*
X185986Y-295963D01*
X185547Y-295670D01*
X185521Y-295404D01*
X185547Y-295137D01*
X185986Y-294844D01*
X186312Y-294356D01*
X186426Y-293779D01*
X186312Y-293203D01*
X185986Y-292715D01*
X185497Y-292389D01*
X184921Y-292274D01*
D02*
G37*
G36*
X382388Y-296051D02*
X378640D01*
Y-299799D01*
X382388D01*
Y-296051D01*
D02*
G37*
G36*
X377640D02*
X373892D01*
Y-299799D01*
X377640D01*
Y-296051D01*
D02*
G37*
G36*
X156102Y-298065D02*
X155526Y-298179D01*
X155038Y-298505D01*
X154712Y-298994D01*
X154597Y-299570D01*
X154712Y-300146D01*
X155038Y-300634D01*
X155526Y-300961D01*
X156102Y-301075D01*
X156678Y-300961D01*
X157167Y-300634D01*
X157493Y-300146D01*
X157608Y-299570D01*
X157493Y-298994D01*
X157167Y-298505D01*
X156678Y-298179D01*
X156102Y-298065D01*
D02*
G37*
G36*
X184083Y-300836D02*
Y-302059D01*
X185306D01*
X185266Y-301862D01*
X184871Y-301270D01*
X184280Y-300875D01*
X184083Y-300836D01*
D02*
G37*
G36*
X183083D02*
X182885Y-300875D01*
X182294Y-301270D01*
X181899Y-301862D01*
X181860Y-302059D01*
X183083D01*
Y-300836D01*
D02*
G37*
G36*
X253346Y-299361D02*
X252770Y-299475D01*
X252282Y-299802D01*
X251956Y-300290D01*
X251841Y-300866D01*
X251956Y-301442D01*
X252282Y-301930D01*
X252770Y-302257D01*
X253346Y-302371D01*
X253923Y-302257D01*
X254411Y-301930D01*
X254737Y-301442D01*
X254852Y-300866D01*
X254737Y-300290D01*
X254411Y-299802D01*
X253923Y-299475D01*
X253346Y-299361D01*
D02*
G37*
G36*
X165354Y-299653D02*
X164817Y-299760D01*
X164361Y-300065D01*
X164056Y-300521D01*
X163949Y-301058D01*
X164056Y-301596D01*
X164361Y-302052D01*
X164817Y-302356D01*
X165354Y-302463D01*
X165892Y-302356D01*
X166348Y-302052D01*
X166652Y-301596D01*
X166759Y-301058D01*
X166652Y-300521D01*
X166348Y-300065D01*
X165892Y-299760D01*
X165354Y-299653D01*
D02*
G37*
G36*
X173031Y-299776D02*
X172494Y-299883D01*
X172038Y-300187D01*
X171733Y-300643D01*
X171626Y-301181D01*
X171733Y-301718D01*
X172038Y-302174D01*
X172494Y-302479D01*
X173031Y-302585D01*
X173569Y-302479D01*
X174025Y-302174D01*
X174329Y-301718D01*
X174436Y-301181D01*
X174329Y-300643D01*
X174025Y-300187D01*
X173569Y-299883D01*
X173031Y-299776D01*
D02*
G37*
G36*
X136839Y-301326D02*
Y-302650D01*
X138162D01*
X138115Y-302414D01*
X137698Y-301790D01*
X137074Y-301373D01*
X136839Y-301326D01*
D02*
G37*
G36*
X135839D02*
X135603Y-301373D01*
X134979Y-301790D01*
X134562Y-302414D01*
X134515Y-302650D01*
X135839D01*
Y-301326D01*
D02*
G37*
G36*
X179646Y-300170D02*
X179108Y-300277D01*
X178652Y-300581D01*
X178348Y-301037D01*
X178241Y-301575D01*
X178348Y-302112D01*
X178652Y-302568D01*
X179108Y-302873D01*
X179646Y-302980D01*
X180183Y-302873D01*
X180639Y-302568D01*
X180944Y-302112D01*
X181051Y-301575D01*
X180944Y-301037D01*
X180639Y-300581D01*
X180183Y-300277D01*
X179646Y-300170D01*
D02*
G37*
G36*
X291201Y-300306D02*
X290625Y-300420D01*
X290136Y-300747D01*
X289810Y-301235D01*
X289696Y-301811D01*
X289810Y-302387D01*
X290136Y-302875D01*
X290625Y-303202D01*
X291201Y-303316D01*
X291777Y-303202D01*
X292265Y-302875D01*
X292592Y-302387D01*
X292706Y-301811D01*
X292592Y-301235D01*
X292265Y-300747D01*
X291777Y-300420D01*
X291201Y-300306D01*
D02*
G37*
G36*
X247941Y-302507D02*
Y-303831D01*
X249264D01*
X249217Y-303595D01*
X248800Y-302971D01*
X248177Y-302554D01*
X247941Y-302507D01*
D02*
G37*
G36*
X246941D02*
X246705Y-302554D01*
X246081Y-302971D01*
X245665Y-303595D01*
X245618Y-303831D01*
X246941D01*
Y-302507D01*
D02*
G37*
G36*
X233965D02*
Y-303831D01*
X235288D01*
X235241Y-303595D01*
X234824Y-302971D01*
X234200Y-302554D01*
X233965Y-302507D01*
D02*
G37*
G36*
X232965D02*
X232729Y-302554D01*
X232105Y-302971D01*
X231688Y-303595D01*
X231641Y-303831D01*
X232965D01*
Y-302507D01*
D02*
G37*
G36*
X90264Y-302606D02*
Y-303929D01*
X91587D01*
X91540Y-303693D01*
X91123Y-303069D01*
X90500Y-302653D01*
X90264Y-302606D01*
D02*
G37*
G36*
X89264D02*
X89028Y-302653D01*
X88404Y-303069D01*
X87987Y-303693D01*
X87941Y-303929D01*
X89264D01*
Y-302606D01*
D02*
G37*
G36*
X50787Y-291110D02*
X49514Y-291236D01*
X48289Y-291607D01*
X47161Y-292210D01*
X46172Y-293022D01*
X45360Y-294011D01*
X44757Y-295140D01*
X44385Y-296364D01*
X44260Y-297638D01*
X44385Y-298911D01*
X44757Y-300136D01*
X45360Y-301264D01*
X46172Y-302253D01*
X47161Y-303065D01*
X48289Y-303668D01*
X49514Y-304040D01*
X50787Y-304165D01*
X52061Y-304040D01*
X53285Y-303668D01*
X54414Y-303065D01*
X55403Y-302253D01*
X56215Y-301264D01*
X56818Y-300136D01*
X57190Y-298911D01*
X57315Y-297638D01*
X57190Y-296364D01*
X56818Y-295140D01*
X56215Y-294011D01*
X55403Y-293022D01*
X54414Y-292210D01*
X53285Y-291607D01*
X52061Y-291236D01*
X50787Y-291110D01*
D02*
G37*
G36*
X185306Y-303059D02*
X184083D01*
Y-304282D01*
X184280Y-304243D01*
X184871Y-303848D01*
X185266Y-303257D01*
X185306Y-303059D01*
D02*
G37*
G36*
X183083D02*
X181860D01*
X181899Y-303257D01*
X182294Y-303848D01*
X182885Y-304243D01*
X183083Y-304282D01*
Y-303059D01*
D02*
G37*
G36*
X169685Y-301548D02*
X169147Y-301655D01*
X168692Y-301959D01*
X168387Y-302415D01*
X168280Y-302953D01*
X168387Y-303490D01*
X168692Y-303946D01*
X169147Y-304251D01*
X169685Y-304358D01*
X170223Y-304251D01*
X170678Y-303946D01*
X170983Y-303490D01*
X171090Y-302953D01*
X170983Y-302415D01*
X170678Y-301959D01*
X170223Y-301655D01*
X169685Y-301548D01*
D02*
G37*
G36*
X142028Y-301367D02*
X141452Y-301482D01*
X140963Y-301808D01*
X140637Y-302297D01*
X140522Y-302873D01*
X140637Y-303449D01*
X140963Y-303937D01*
X141452Y-304263D01*
X142028Y-304378D01*
X142604Y-304263D01*
X143092Y-303937D01*
X143418Y-303449D01*
X143533Y-302873D01*
X143418Y-302297D01*
X143092Y-301808D01*
X142604Y-301482D01*
X142028Y-301367D01*
D02*
G37*
G36*
X77010Y-296811D02*
X69136D01*
Y-304685D01*
X77010D01*
Y-296811D01*
D02*
G37*
G36*
X138162Y-303650D02*
X136839D01*
Y-304973D01*
X137074Y-304926D01*
X137698Y-304509D01*
X138115Y-303885D01*
X138162Y-303650D01*
D02*
G37*
G36*
X135839D02*
X134515D01*
X134562Y-303885D01*
X134979Y-304509D01*
X135603Y-304926D01*
X135839Y-304973D01*
Y-303650D01*
D02*
G37*
G36*
X340264Y-304246D02*
Y-305569D01*
X341587D01*
X341540Y-305333D01*
X341123Y-304709D01*
X340500Y-304292D01*
X340264Y-304246D01*
D02*
G37*
G36*
X339264D02*
X339028Y-304292D01*
X338404Y-304709D01*
X337987Y-305333D01*
X337941Y-305569D01*
X339264D01*
Y-304246D01*
D02*
G37*
G36*
X104724Y-302559D02*
X104148Y-302674D01*
X103660Y-303000D01*
X103334Y-303488D01*
X103219Y-304064D01*
X103334Y-304640D01*
X103660Y-305129D01*
X104148Y-305455D01*
X104724Y-305570D01*
X105300Y-305455D01*
X105789Y-305129D01*
X106115Y-304640D01*
X106230Y-304064D01*
X106115Y-303488D01*
X105789Y-303000D01*
X105300Y-302674D01*
X104724Y-302559D01*
D02*
G37*
G36*
X188071Y-303064D02*
X187533Y-303170D01*
X187077Y-303475D01*
X186773Y-303931D01*
X186666Y-304468D01*
X186773Y-305006D01*
X187077Y-305462D01*
X187533Y-305767D01*
X188071Y-305873D01*
X188609Y-305767D01*
X189064Y-305462D01*
X189369Y-305006D01*
X189476Y-304468D01*
X189369Y-303931D01*
X189064Y-303475D01*
X188609Y-303170D01*
X188071Y-303064D01*
D02*
G37*
G36*
X348236Y-304597D02*
Y-305921D01*
X349559D01*
X349513Y-305685D01*
X349096Y-305061D01*
X348472Y-304644D01*
X348236Y-304597D01*
D02*
G37*
G36*
X347236D02*
X347000Y-304644D01*
X346377Y-305061D01*
X345960Y-305685D01*
X345913Y-305921D01*
X347236D01*
Y-304597D01*
D02*
G37*
G36*
X249264Y-304831D02*
X247941D01*
Y-306154D01*
X248177Y-306107D01*
X248800Y-305690D01*
X249217Y-305066D01*
X249264Y-304831D01*
D02*
G37*
G36*
X246941D02*
X245618D01*
X245665Y-305066D01*
X246081Y-305690D01*
X246705Y-306107D01*
X246941Y-306154D01*
Y-304831D01*
D02*
G37*
G36*
X235288D02*
X233965D01*
Y-306154D01*
X234200Y-306107D01*
X234824Y-305690D01*
X235241Y-305066D01*
X235288Y-304831D01*
D02*
G37*
G36*
X232965D02*
X231641D01*
X231688Y-305066D01*
X232105Y-305690D01*
X232729Y-306107D01*
X232965Y-306154D01*
Y-304831D01*
D02*
G37*
G36*
X91587Y-304929D02*
X90264D01*
Y-306252D01*
X90500Y-306206D01*
X91123Y-305789D01*
X91540Y-305165D01*
X91587Y-304929D01*
D02*
G37*
G36*
X89264D02*
X87941D01*
X87987Y-305165D01*
X88404Y-305789D01*
X89028Y-306206D01*
X89264Y-306252D01*
Y-304929D01*
D02*
G37*
G36*
X300382Y-305165D02*
Y-306488D01*
X301705D01*
X301658Y-306252D01*
X301241Y-305629D01*
X300618Y-305212D01*
X300382Y-305165D01*
D02*
G37*
G36*
X299382D02*
X299146Y-305212D01*
X298522Y-305629D01*
X298106Y-306252D01*
X298059Y-306488D01*
X299382D01*
Y-305165D01*
D02*
G37*
G36*
X341587Y-306569D02*
X340264D01*
Y-307892D01*
X340500Y-307845D01*
X341123Y-307429D01*
X341540Y-306805D01*
X341587Y-306569D01*
D02*
G37*
G36*
X339264D02*
X337941D01*
X337987Y-306805D01*
X338404Y-307429D01*
X339028Y-307845D01*
X339264Y-307892D01*
Y-306569D01*
D02*
G37*
G36*
X202764Y-306661D02*
Y-307984D01*
X204087D01*
X204040Y-307748D01*
X203623Y-307125D01*
X203000Y-306708D01*
X202764Y-306661D01*
D02*
G37*
G36*
X201764D02*
X201528Y-306708D01*
X200904Y-307125D01*
X200487Y-307748D01*
X200441Y-307984D01*
X201764D01*
Y-306661D01*
D02*
G37*
G36*
X349559Y-306921D02*
X348236D01*
Y-308244D01*
X348472Y-308197D01*
X349096Y-307780D01*
X349513Y-307156D01*
X349559Y-306921D01*
D02*
G37*
G36*
X347236D02*
X345913D01*
X345960Y-307156D01*
X346377Y-307780D01*
X347000Y-308197D01*
X347236Y-308244D01*
Y-306921D01*
D02*
G37*
G36*
X309831Y-307291D02*
Y-308614D01*
X311154D01*
X311107Y-308378D01*
X310690Y-307755D01*
X310067Y-307338D01*
X309831Y-307291D01*
D02*
G37*
G36*
X308831D02*
X308595Y-307338D01*
X307971Y-307755D01*
X307554Y-308378D01*
X307507Y-308614D01*
X308831D01*
Y-307291D01*
D02*
G37*
G36*
X301705Y-307488D02*
X300382D01*
Y-308811D01*
X300618Y-308765D01*
X301241Y-308348D01*
X301658Y-307724D01*
X301705Y-307488D01*
D02*
G37*
G36*
X299382D02*
X298059D01*
X298106Y-307724D01*
X298522Y-308348D01*
X299146Y-308765D01*
X299382Y-308811D01*
Y-307488D01*
D02*
G37*
G36*
X6316Y-304307D02*
X5596Y-304402D01*
X4926Y-304679D01*
X4350Y-305121D01*
X3908Y-305697D01*
X3631Y-306367D01*
X3536Y-307087D01*
X3631Y-307806D01*
X3908Y-308476D01*
X4350Y-309052D01*
X4926Y-309494D01*
X5596Y-309772D01*
X6316Y-309866D01*
X7035Y-309772D01*
X7706Y-309494D01*
X8281Y-309052D01*
X8723Y-308476D01*
X9001Y-307806D01*
X9095Y-307087D01*
X9001Y-306367D01*
X8723Y-305697D01*
X8281Y-305121D01*
X7706Y-304679D01*
X7035Y-304402D01*
X6316Y-304307D01*
D02*
G37*
G36*
X204087Y-308984D02*
X202764D01*
Y-310308D01*
X203000Y-310261D01*
X203623Y-309844D01*
X204040Y-309220D01*
X204087Y-308984D01*
D02*
G37*
G36*
X201764D02*
X200441D01*
X200487Y-309220D01*
X200904Y-309844D01*
X201528Y-310261D01*
X201764Y-310308D01*
Y-308984D01*
D02*
G37*
G36*
X20154Y-303248D02*
X12477D01*
Y-310925D01*
X20154D01*
Y-303248D01*
D02*
G37*
G36*
X311154Y-309614D02*
X309831D01*
Y-310938D01*
X310067Y-310891D01*
X310690Y-310474D01*
X311107Y-309850D01*
X311154Y-309614D01*
D02*
G37*
G36*
X308831D02*
X307507D01*
X307554Y-309850D01*
X307971Y-310474D01*
X308595Y-310891D01*
X308831Y-310938D01*
Y-309614D01*
D02*
G37*
G36*
X188164Y-309715D02*
X187588Y-309830D01*
X187100Y-310156D01*
X186774Y-310644D01*
X186659Y-311221D01*
X186774Y-311796D01*
X187100Y-312285D01*
X187588Y-312611D01*
X188164Y-312726D01*
X188740Y-312611D01*
X189229Y-312285D01*
X189555Y-311796D01*
X189670Y-311221D01*
X189555Y-310644D01*
X189229Y-310156D01*
X188740Y-309830D01*
X188164Y-309715D01*
D02*
G37*
G36*
X66831Y-310601D02*
X66255Y-310716D01*
X65766Y-311042D01*
X65440Y-311530D01*
X65325Y-312106D01*
X65440Y-312682D01*
X65766Y-313171D01*
X66255Y-313497D01*
X66831Y-313612D01*
X67407Y-313497D01*
X67895Y-313171D01*
X68221Y-312682D01*
X68336Y-312106D01*
X68221Y-311530D01*
X67895Y-311042D01*
X67407Y-310716D01*
X66831Y-310601D01*
D02*
G37*
G36*
X299902Y-311703D02*
X299325Y-311818D01*
X298837Y-312144D01*
X298511Y-312633D01*
X298396Y-313209D01*
X298511Y-313785D01*
X298837Y-314273D01*
X299325Y-314599D01*
X299902Y-314714D01*
X300478Y-314599D01*
X300966Y-314273D01*
X301292Y-313785D01*
X301407Y-313209D01*
X301292Y-312633D01*
X300966Y-312144D01*
X300478Y-311818D01*
X299902Y-311703D01*
D02*
G37*
G36*
X253630Y-313551D02*
Y-314874D01*
X254953D01*
X254906Y-314638D01*
X254489Y-314014D01*
X253866Y-313598D01*
X253630Y-313551D01*
D02*
G37*
G36*
X252630D02*
X252394Y-313598D01*
X251770Y-314014D01*
X251354Y-314638D01*
X251307Y-314874D01*
X252630D01*
Y-313551D01*
D02*
G37*
G36*
X151839Y-313728D02*
Y-315051D01*
X153162D01*
X153115Y-314815D01*
X152698Y-314192D01*
X152074Y-313775D01*
X151839Y-313728D01*
D02*
G37*
G36*
X150839D02*
X150603Y-313775D01*
X149979Y-314192D01*
X149562Y-314815D01*
X149515Y-315051D01*
X150839D01*
Y-313728D01*
D02*
G37*
G36*
X165945Y-312077D02*
X165369Y-312192D01*
X164881Y-312518D01*
X164554Y-313007D01*
X164440Y-313583D01*
X164554Y-314159D01*
X164881Y-314647D01*
X165369Y-314973D01*
X165945Y-315088D01*
X166521Y-314973D01*
X167009Y-314647D01*
X167336Y-314159D01*
X167450Y-313583D01*
X167336Y-313007D01*
X167009Y-312518D01*
X166521Y-312192D01*
X165945Y-312077D01*
D02*
G37*
G36*
X179890Y-314122D02*
Y-315445D01*
X181213D01*
X181166Y-315209D01*
X180749Y-314585D01*
X180126Y-314169D01*
X179890Y-314122D01*
D02*
G37*
G36*
X178890D02*
X178654Y-314169D01*
X178030Y-314585D01*
X177613Y-315209D01*
X177567Y-315445D01*
X178890D01*
Y-314122D01*
D02*
G37*
G36*
X194496Y-314318D02*
Y-315642D01*
X195819D01*
X195773Y-315406D01*
X195356Y-314782D01*
X194732Y-314365D01*
X194496Y-314318D01*
D02*
G37*
G36*
X193496D02*
X193260Y-314365D01*
X192637Y-314782D01*
X192220Y-315406D01*
X192173Y-315642D01*
X193496D01*
Y-314318D01*
D02*
G37*
G36*
X127075D02*
Y-315642D01*
X128398D01*
X128351Y-315406D01*
X127934Y-314782D01*
X127311Y-314365D01*
X127075Y-314318D01*
D02*
G37*
G36*
X126075D02*
X125839Y-314365D01*
X125215Y-314782D01*
X124798Y-315406D01*
X124751Y-315642D01*
X126075D01*
Y-314318D01*
D02*
G37*
G36*
X296740Y-315145D02*
Y-316469D01*
X298063D01*
X298017Y-316233D01*
X297600Y-315609D01*
X296976Y-315192D01*
X296740Y-315145D01*
D02*
G37*
G36*
X295740D02*
X295504Y-315192D01*
X294881Y-315609D01*
X294464Y-316233D01*
X294417Y-316469D01*
X295740D01*
Y-315145D01*
D02*
G37*
G36*
X96957Y-313202D02*
Y-317020D01*
X100775D01*
X100691Y-316385D01*
X100253Y-315328D01*
X99557Y-314420D01*
X98649Y-313723D01*
X97591Y-313285D01*
X96957Y-313202D01*
D02*
G37*
G36*
X76957D02*
Y-317020D01*
X80775D01*
X80691Y-316385D01*
X80253Y-315328D01*
X79557Y-314420D01*
X78649Y-313723D01*
X77591Y-313285D01*
X76957Y-313202D01*
D02*
G37*
G36*
X75957Y-313202D02*
X75322Y-313285D01*
X74265Y-313723D01*
X73357Y-314420D01*
X72660Y-315328D01*
X72222Y-316385D01*
X72139Y-317020D01*
X75957D01*
Y-313202D01*
D02*
G37*
G36*
X95957D02*
X95322Y-313285D01*
X94265Y-313723D01*
X93357Y-314420D01*
X92660Y-315328D01*
X92222Y-316385D01*
X92139Y-317020D01*
X95957D01*
Y-313202D01*
D02*
G37*
G36*
X254953Y-315874D02*
X253630D01*
Y-317197D01*
X253866Y-317150D01*
X254489Y-316734D01*
X254906Y-316110D01*
X254953Y-315874D01*
D02*
G37*
G36*
X252630D02*
X251307D01*
X251354Y-316110D01*
X251770Y-316734D01*
X252394Y-317150D01*
X252630Y-317197D01*
Y-315874D01*
D02*
G37*
G36*
X153162Y-316051D02*
X151839D01*
Y-317374D01*
X152074Y-317328D01*
X152698Y-316911D01*
X153115Y-316287D01*
X153162Y-316051D01*
D02*
G37*
G36*
X150839D02*
X149515D01*
X149562Y-316287D01*
X149979Y-316911D01*
X150603Y-317328D01*
X150839Y-317374D01*
Y-316051D01*
D02*
G37*
G36*
X181213Y-316445D02*
X179890D01*
Y-317768D01*
X180126Y-317721D01*
X180749Y-317304D01*
X181166Y-316681D01*
X181213Y-316445D01*
D02*
G37*
G36*
X178890D02*
X177567D01*
X177613Y-316681D01*
X178030Y-317304D01*
X178654Y-317721D01*
X178890Y-317768D01*
Y-316445D01*
D02*
G37*
G36*
X195819Y-316642D02*
X194496D01*
Y-317965D01*
X194732Y-317918D01*
X195356Y-317501D01*
X195773Y-316878D01*
X195819Y-316642D01*
D02*
G37*
G36*
X193496D02*
X192173D01*
X192220Y-316878D01*
X192637Y-317501D01*
X193260Y-317918D01*
X193496Y-317965D01*
Y-316642D01*
D02*
G37*
G36*
X128398D02*
X127075D01*
Y-317965D01*
X127311Y-317918D01*
X127934Y-317501D01*
X128351Y-316878D01*
X128398Y-316642D01*
D02*
G37*
G36*
X126075D02*
X124751D01*
X124798Y-316878D01*
X125215Y-317501D01*
X125839Y-317918D01*
X126075Y-317965D01*
Y-316642D01*
D02*
G37*
G36*
X298063Y-317469D02*
X296740D01*
Y-318792D01*
X296976Y-318745D01*
X297600Y-318328D01*
X298017Y-317704D01*
X298063Y-317469D01*
D02*
G37*
G36*
X295740D02*
X294417D01*
X294464Y-317704D01*
X294881Y-318328D01*
X295504Y-318745D01*
X295740Y-318792D01*
Y-317469D01*
D02*
G37*
G36*
X282547Y-318177D02*
Y-319500D01*
X283871D01*
X283824Y-319264D01*
X283407Y-318640D01*
X282783Y-318224D01*
X282547Y-318177D01*
D02*
G37*
G36*
X281547D02*
X281311Y-318224D01*
X280688Y-318640D01*
X280271Y-319264D01*
X280224Y-319500D01*
X281547D01*
Y-318177D01*
D02*
G37*
G36*
X370854Y-318413D02*
Y-319736D01*
X372178D01*
X372131Y-319500D01*
X371714Y-318877D01*
X371090Y-318460D01*
X370854Y-318413D01*
D02*
G37*
G36*
X369854D02*
X369619Y-318460D01*
X368995Y-318877D01*
X368578Y-319500D01*
X368531Y-319736D01*
X369854D01*
Y-318413D01*
D02*
G37*
G36*
X6316Y-314307D02*
X5596Y-314402D01*
X4926Y-314679D01*
X4350Y-315121D01*
X3908Y-315697D01*
X3631Y-316367D01*
X3536Y-317087D01*
X3631Y-317806D01*
X3908Y-318477D01*
X4350Y-319052D01*
X4926Y-319494D01*
X5596Y-319772D01*
X6316Y-319866D01*
X7035Y-319772D01*
X7706Y-319494D01*
X8281Y-319052D01*
X8723Y-318477D01*
X9001Y-317806D01*
X9095Y-317087D01*
X9001Y-316367D01*
X8723Y-315697D01*
X8281Y-315121D01*
X7706Y-314679D01*
X7035Y-314402D01*
X6316Y-314307D01*
D02*
G37*
G36*
X275461Y-319062D02*
Y-320386D01*
X276784D01*
X276737Y-320150D01*
X276320Y-319526D01*
X275696Y-319109D01*
X275461Y-319062D01*
D02*
G37*
G36*
X274461D02*
X274225Y-319109D01*
X273601Y-319526D01*
X273184Y-320150D01*
X273137Y-320386D01*
X274461D01*
Y-319062D01*
D02*
G37*
G36*
X16316Y-313215D02*
X15314Y-313347D01*
X14380Y-313734D01*
X13578Y-314349D01*
X12963Y-315151D01*
X12576Y-316085D01*
X12444Y-317087D01*
X12576Y-318089D01*
X12963Y-319022D01*
X13578Y-319824D01*
X14380Y-320440D01*
X15314Y-320826D01*
X16316Y-320958D01*
X17318Y-320826D01*
X18252Y-320440D01*
X19053Y-319824D01*
X19669Y-319022D01*
X20055Y-318089D01*
X20187Y-317087D01*
X20055Y-316085D01*
X19669Y-315151D01*
X19053Y-314349D01*
X18252Y-313734D01*
X17318Y-313347D01*
X16316Y-313215D01*
D02*
G37*
G36*
X215354Y-318377D02*
X214778Y-318491D01*
X214290Y-318817D01*
X213964Y-319306D01*
X213849Y-319882D01*
X213964Y-320458D01*
X214290Y-320946D01*
X214778Y-321273D01*
X215354Y-321387D01*
X215930Y-321273D01*
X216419Y-320946D01*
X216745Y-320458D01*
X216860Y-319882D01*
X216745Y-319306D01*
X216419Y-318817D01*
X215930Y-318491D01*
X215354Y-318377D01*
D02*
G37*
G36*
X110394Y-313583D02*
X102520D01*
Y-321457D01*
X110394D01*
Y-313583D01*
D02*
G37*
G36*
X86457Y-313549D02*
X85429Y-313684D01*
X84471Y-314081D01*
X83649Y-314712D01*
X83018Y-315534D01*
X82621Y-316492D01*
X82486Y-317520D01*
X82621Y-318548D01*
X83018Y-319505D01*
X83649Y-320328D01*
X84471Y-320959D01*
X85429Y-321355D01*
X86457Y-321491D01*
X87485Y-321355D01*
X88442Y-320959D01*
X89265Y-320328D01*
X89896Y-319505D01*
X90292Y-318548D01*
X90428Y-317520D01*
X90292Y-316492D01*
X89896Y-315534D01*
X89265Y-314712D01*
X88442Y-314081D01*
X87485Y-313684D01*
X86457Y-313549D01*
D02*
G37*
G36*
X283871Y-320500D02*
X282547D01*
Y-321823D01*
X282783Y-321776D01*
X283407Y-321360D01*
X283824Y-320736D01*
X283871Y-320500D01*
D02*
G37*
G36*
X281547D02*
X280224D01*
X280271Y-320736D01*
X280688Y-321360D01*
X281311Y-321776D01*
X281547Y-321823D01*
Y-320500D01*
D02*
G37*
G36*
X100775Y-318020D02*
X96957D01*
Y-321838D01*
X97591Y-321754D01*
X98649Y-321316D01*
X99557Y-320620D01*
X100253Y-319712D01*
X100691Y-318654D01*
X100775Y-318020D01*
D02*
G37*
G36*
X80775D02*
X76957D01*
Y-321838D01*
X77591Y-321754D01*
X78649Y-321316D01*
X79557Y-320620D01*
X80253Y-319712D01*
X80691Y-318654D01*
X80775Y-318020D01*
D02*
G37*
G36*
X95957D02*
X92138D01*
X92222Y-318654D01*
X92660Y-319712D01*
X93357Y-320620D01*
X94265Y-321316D01*
X95322Y-321754D01*
X95957Y-321838D01*
Y-318020D01*
D02*
G37*
G36*
X75957D02*
X72139D01*
X72222Y-318654D01*
X72660Y-319712D01*
X73357Y-320620D01*
X74265Y-321316D01*
X75322Y-321754D01*
X75957Y-321838D01*
Y-318020D01*
D02*
G37*
G36*
X372178Y-320736D02*
X370854D01*
Y-322059D01*
X371090Y-322013D01*
X371714Y-321596D01*
X372131Y-320972D01*
X372178Y-320736D01*
D02*
G37*
G36*
X369854D02*
X368531D01*
X368578Y-320972D01*
X368995Y-321596D01*
X369619Y-322013D01*
X369854Y-322059D01*
Y-320736D01*
D02*
G37*
G36*
X288071Y-319262D02*
X287495Y-319377D01*
X287006Y-319703D01*
X286680Y-320192D01*
X286566Y-320768D01*
X286680Y-321344D01*
X287006Y-321832D01*
X287495Y-322158D01*
X288071Y-322273D01*
X288647Y-322158D01*
X289135Y-321832D01*
X289462Y-321344D01*
X289576Y-320768D01*
X289462Y-320192D01*
X289135Y-319703D01*
X288647Y-319377D01*
X288071Y-319262D01*
D02*
G37*
G36*
X276784Y-321386D02*
X275461D01*
Y-322709D01*
X275696Y-322662D01*
X276320Y-322245D01*
X276737Y-321622D01*
X276784Y-321386D01*
D02*
G37*
G36*
X274461D02*
X273137D01*
X273184Y-321622D01*
X273601Y-322245D01*
X274225Y-322662D01*
X274461Y-322709D01*
Y-321386D01*
D02*
G37*
%LPD*%
D18*
X-0Y-326772D02*
X393701Y-326772D01*
X178740Y0D02*
X393701Y0D01*
X0D02*
X123386Y-0D01*
X123386Y-37480D02*
X178740Y-37480D01*
X393701Y-326772D02*
X393701Y0D01*
X-0Y-326772D02*
X0Y0D01*
X178740Y-37480D02*
X178740Y0D01*
X123386Y-37480D02*
X123386Y-0D01*
D93*
X251457Y-148327D02*
D03*
X271457D02*
D03*
X73073Y-230748D02*
D03*
Y-250748D02*
D03*
Y-290748D02*
D03*
Y-270748D02*
D03*
X96457Y-317520D02*
D03*
X76457D02*
D03*
D95*
X330866Y-7874D02*
D03*
X248110Y-7854D02*
D03*
X8307Y-269646D02*
D03*
X8071Y-230591D02*
D03*
D99*
X16316Y-159095D02*
D03*
X16339Y-30472D02*
D03*
X16316Y-195630D02*
D03*
D100*
X378140Y-163661D02*
D03*
Y-230591D02*
D03*
Y-295551D02*
D03*
X16316Y-55118D02*
D03*
D102*
X347736Y-306420D02*
D03*
X52950Y-264663D02*
D03*
X48797Y-264764D02*
D03*
X160138Y-243622D02*
D03*
X157616Y-231136D02*
D03*
X176024Y-134843D02*
D03*
X180020Y-296063D02*
D03*
X147908Y-253839D02*
D03*
X121219Y-236319D02*
D03*
X90256Y-9449D02*
D03*
X199311Y-43071D02*
D03*
X179390Y-315945D02*
D03*
X150394Y-115748D02*
D03*
X104232Y-232776D02*
D03*
X156693Y-112008D02*
D03*
X271665Y-108575D02*
D03*
X271685Y-100972D02*
D03*
X126490Y-230746D02*
D03*
X329075Y-227402D02*
D03*
X370354Y-320236D02*
D03*
X264724Y-58425D02*
D03*
X231181Y-192677D02*
D03*
X213760Y-220472D02*
D03*
X203622Y-236673D02*
D03*
X186752Y-285453D02*
D03*
X186831Y-278524D02*
D03*
X211378Y-275118D02*
D03*
X261575Y-121319D02*
D03*
X275020Y-71260D02*
D03*
X276654Y-130748D02*
D03*
X279370Y-80650D02*
D03*
X260295Y-115748D02*
D03*
X309114Y-154862D02*
D03*
X252165Y-202854D02*
D03*
X248543Y-194744D02*
D03*
X257933Y-252047D02*
D03*
X247618Y-275807D02*
D03*
X274843Y-210965D02*
D03*
X282874Y-209488D02*
D03*
X298957Y-208347D02*
D03*
X302224Y-197205D02*
D03*
X320315Y-178878D02*
D03*
X324980Y-179882D02*
D03*
X339705Y-181653D02*
D03*
X300335Y-247657D02*
D03*
X179350Y-208642D02*
D03*
X96161Y-122992D02*
D03*
X96496Y-146339D02*
D03*
X282047Y-320000D02*
D03*
X274961Y-320886D02*
D03*
X296240Y-316968D02*
D03*
X309331Y-309114D02*
D03*
X347756Y-181634D02*
D03*
X369921Y-193189D02*
D03*
X319587Y-230551D02*
D03*
X347303Y-244646D02*
D03*
X339370Y-244705D02*
D03*
X299882Y-306988D02*
D03*
X374193Y-259370D02*
D03*
X274764Y-262087D02*
D03*
X282677Y-260807D02*
D03*
X298799Y-267776D02*
D03*
X231476Y-245433D02*
D03*
X245158Y-245709D02*
D03*
X253130Y-315374D02*
D03*
X159331Y-277658D02*
D03*
X140374Y-103465D02*
D03*
X201398Y-26319D02*
D03*
X331102Y-33686D02*
D03*
X264862Y-50591D02*
D03*
X241240Y-35531D02*
D03*
X103150Y-259252D02*
D03*
X94685Y-246358D02*
D03*
X90551D02*
D03*
X98622Y-272736D02*
D03*
X111791Y-226673D02*
D03*
X102854Y-207972D02*
D03*
X212697Y-257382D02*
D03*
X198383Y-259764D02*
D03*
X59646Y-159646D02*
D03*
X59055Y-199213D02*
D03*
X46716Y-250294D02*
D03*
X34616Y-259539D02*
D03*
X62762Y-277471D02*
D03*
X35935Y-289075D02*
D03*
X103937Y-278740D02*
D03*
X91339Y-296260D02*
D03*
X247441Y-304331D02*
D03*
X233465D02*
D03*
X91339Y-213583D02*
D03*
X319291Y-289567D02*
D03*
X324803Y-290158D02*
D03*
X339764Y-306069D02*
D03*
X151339Y-315551D02*
D03*
X126575Y-316142D02*
D03*
X202264Y-308484D02*
D03*
X57972Y-78465D02*
D03*
X47343Y-34154D02*
D03*
X47539Y-44390D02*
D03*
X57874Y-84941D02*
D03*
X89764Y-304429D02*
D03*
X204232Y-127334D02*
D03*
Y-134350D02*
D03*
X121358Y-206936D02*
D03*
X158268Y-187303D02*
D03*
X127953Y-187894D02*
D03*
X163386Y-208858D02*
D03*
X143110Y-205709D02*
D03*
X204232Y-112500D02*
D03*
X187008Y-154724D02*
D03*
X189764Y-106299D02*
D03*
X125591Y-159095D02*
D03*
X117776Y-160236D02*
D03*
X125984Y-140157D02*
D03*
X116929Y-103347D02*
D03*
X110236Y-103150D02*
D03*
X125315Y-126575D02*
D03*
X84049Y-28059D02*
D03*
X193996Y-316142D02*
D03*
X136339Y-303150D02*
D03*
D103*
X220571Y-293996D02*
D03*
X183583Y-302559D02*
D03*
X183150Y-256909D02*
D03*
X196752Y-226142D02*
D03*
X159075Y-264469D02*
D03*
X117283Y-245866D02*
D03*
X120681Y-229811D02*
D03*
X151024Y-158366D02*
D03*
X143740Y-159213D02*
D03*
X171047Y-154847D02*
D03*
D105*
X149213Y-129528D02*
D03*
X153937D02*
D03*
M02*
